<?xml version="1.0" encoding="UTF-8" standalone="no"?>
<svg
   xmlns:dc="http://purl.org/dc/elements/1.1/"
   xmlns:cc="http://creativecommons.org/ns#"
   xmlns:rdf="http://www.w3.org/1999/02/22-rdf-syntax-ns#"
   xmlns:svg="http://www.w3.org/2000/svg"
   xmlns="http://www.w3.org/2000/svg"
   xmlns:xlink="http://www.w3.org/1999/xlink"
   xmlns:sodipodi="http://sodipodi.sourceforge.net/DTD/sodipodi-0.dtd"
   xmlns:inkscape="http://www.inkscape.org/namespaces/inkscape"
   width="283.57214"
   height="50.485767"
   viewBox="0 0 283.57214 50.485767"
   version="1.1"
   id="svg5289"
   inkscape:version="0.91 r13725"
   sodipodi:docname="board-room-logo-header.svg">
  <metadata
     id="metadata5311">
    <rdf:RDF>
      <cc:Work
         rdf:about="">
        <dc:format>image/svg+xml</dc:format>
        <dc:type
           rdf:resource="http://purl.org/dc/dcmitype/StillImage" />
        <dc:title>73DED138-BD7F-4DAD-80C0-0FC9BDAC72B2</dc:title>
      </cc:Work>
    </rdf:RDF>
  </metadata>
  <sodipodi:namedview
     pagecolor="#ffffff"
     bordercolor="#666666"
     borderopacity="1"
     objecttolerance="10"
     gridtolerance="10"
     guidetolerance="10"
     inkscape:pageopacity="0"
     inkscape:pageshadow="2"
     inkscape:window-width="640"
     inkscape:window-height="480"
     id="namedview5309"
     showgrid="false"
     fit-margin-top="0"
     fit-margin-left="0"
     fit-margin-right="0"
     fit-margin-bottom="0"
     inkscape:zoom="2.962877"
     inkscape:cx="114.34316"
     inkscape:cy="29.986009"
     inkscape:current-layer="svg5289" />
  <!-- Generator: sketchtool 42 (36781) - http://www.bohemiancoding.com/sketch -->
  <title
     id="title5291">73DED138-BD7F-4DAD-80C0-0FC9BDAC72B2</title>
  <desc
     id="desc5293">Created with sketchtool.</desc>
  <defs
     id="defs5295">
    <mask
       id="mask-2"
       fill="white">
      <use
         height="100%"
         width="100%"
         y="0"
         x="0"
         xlink:href="#path-1"
         id="use5881" />
    </mask>
    <mask
       id="mask-4"
       fill="white">
      <use
         height="100%"
         width="100%"
         y="0"
         x="0"
         xlink:href="#path-3"
         id="use5887" />
    </mask>
    <mask
       id="mask-2-0"
       fill="white">
      <use
         height="100%"
         width="100%"
         y="0"
         x="0"
         xlink:href="#path-1"
         id="use5881-1" />
    </mask>
    <mask
       id="mask-4-1"
       fill="white">
      <use
         height="100%"
         width="100%"
         y="0"
         x="0"
         xlink:href="#path-3"
         id="use5887-9" />
    </mask>
  </defs>
  <g
     id="Desktop"
     style="fill:none;fill-rule:evenodd;stroke:none;stroke-width:1"
     transform="translate(0,-2.4117647e-4)">
    <g
       id="Desktop---Homepage"
       transform="translate(-379,-5481)">
      <g
         id="Board-room-logo-header"
         transform="translate(379,5481)">
        <path
           d="m 183.2596,38.214267 c -4.05443,0 -5.85635,-3.847247 -5.85635,-11.708635 0,-7.861388 1.35181,-11.652683 5.34924,-11.652683 3.99841,0 5.79983,3.791295 5.79983,11.652683 0,7.861388 -1.40733,11.708635 -5.29272,11.708635 m -0.22506,-25.089588 c -8.22139,0 -13.62664,5.296717 -13.62664,13.492859 0,8.251611 5.06767,13.325 13.62664,13.325 8.10788,0 13.57013,-5.296718 13.57013,-13.54833 0,-8.196141 -5.18068,-13.269529 -13.57013,-13.269529"
           id="Fill-1"
           inkscape:connector-curvature="0"
           style="fill:#000000" />
        <path
           d="m 213.04706,38.214267 c -4.05443,0 -5.85635,-3.847247 -5.85635,-11.708635 0,-7.861388 1.3518,-11.652683 5.34924,-11.652683 3.99841,0 5.79983,3.791295 5.79983,11.652683 0,7.861388 -1.40733,11.708635 -5.29272,11.708635 M 212.822,13.124679 c -8.22139,0 -13.62664,5.296717 -13.62664,13.492859 0,8.251611 5.06767,13.325 13.62664,13.325 8.10788,0 13.57013,-5.296718 13.57013,-13.54833 0,-8.196141 -5.18068,-13.269529 -13.57013,-13.269529"
           id="Fill-3"
           inkscape:connector-curvature="0"
           style="fill:#000000" />
        <path
           d="m 243.69767,38.047035 c 2.25252,-0.05595 2.81564,-0.5576 2.81564,-2.00707 l 0,-13.54833 c 0,-3.3456 -1.23878,-5.07387 -4.11044,-5.07387 -1.97095,0 -3.15323,1.059247 -4.67358,2.620623 l 0,16.001577 c 0,1.44947 0.50662,1.951117 2.70263,2.00707 l 0,1.394 -14.07676,0 0,-1.394 c 3.20925,-0.05595 3.88491,-0.5576 3.88491,-2.00707 l 0,-17.841753 c 0,-1.6728 -0.67566,-2.676094 -3.88491,-2.732047 l 0,-1.393518 11.26111,-0.502129 0,4.906494 c 2.64661,-2.954894 5.74382,-5.073871 9.40367,-5.073871 3.77237,0 6.02489,1.895647 6.70054,5.352671 2.53408,-3.010847 6.0249,-5.352671 9.57222,-5.352671 4.73008,0 6.9826,2.843471 6.9826,8.084718 l 0,14.552106 c 0,1.44947 0.61915,1.951117 3.82888,2.00707 l 0,1.394 -14.07724,0 0,-1.394 c 2.19601,-0.05595 2.75914,-0.5576 2.75914,-2.00707 l 0,-13.54833 c 0,-3.3456 -1.06975,-5.07387 -3.88491,-5.07387 -1.46433,0 -3.37877,1.1152 -5.01165,2.898941 0.0565,0.502129 0.11253,0.780929 0.11253,1.1152 l 0,14.608059 c 0,1.44947 0.56313,1.951117 2.87166,2.00707 l 0,1.394 -13.17604,0 0,-1.394 z"
           id="Fill-5"
           inkscape:connector-curvature="0"
           style="fill:#000000" />
        <path
           d="m 22.388748,26.189594 c 0,-6.142765 -2.311945,-9.939847 -6.090655,-9.939847 -1.74833,0 -3.045084,0.669988 -4.680398,1.898541 l 0,16.194035 c 1.240734,2.569012 2.988576,3.853036 5.131972,3.853036 3.947259,0 5.639081,-4.467553 5.639081,-12.005765 l 0,0 z m -18.2154581,9.046047 0,-30.5449998 C 4.1732899,2.9594765 3.5531664,2.0102059 0,1.9542529 L 0,0.55832353 11.617695,2.4117647e-4 l 0,16.58474082353 c 2.255924,-2.010447 4.962449,-3.350423 8.4026,-3.350423 6.823794,0 10.376473,5.472294 10.376473,12.508376 0,8.097259 -4.792926,14.183589 -12.801434,14.183589 -2.706524,0 -6.203183,-0.725942 -8.7971796,-2.457106 l -3.4406381,3.071141 -1.3532624,0 0.169036,-5.304918 z"
           id="Fill-7"
           inkscape:connector-curvature="0"
           style="fill:#8a8b93" />
        <path
           d="m 51.846611,26.524492 c 0,-7.873447 -1.804837,-11.67053 -5.808604,-11.67053 -4.004253,0 -5.357516,3.797083 -5.357516,11.67053 0,7.873929 1.80435,11.726965 5.864625,11.726965 3.891238,0 5.301495,-3.853036 5.301495,-11.726965 m -19.17414,0.111423 c 0,-8.2082 5.413536,-13.513117 13.647101,-13.513117 8.403087,0 13.591568,5.081105 13.591568,13.29027 0,8.264635 -5.470532,13.569553 -13.591568,13.569553 -8.571637,0 -13.647101,-5.081588 -13.647101,-13.346706"
           id="Fill-9"
           inkscape:connector-curvature="0"
           style="fill:#8a8b93" />
        <path
           d="m 131.20196,34.900888 0,-17.143306 c -0.95868,-1.563788 -2.594,-2.736388 -4.84992,-2.736388 -3.55268,0 -5.8086,4.188271 -5.8086,11.39173 0,5.807529 2.36845,10.219129 6.42872,10.219129 1.91785,0 3.10208,-0.670471 4.2298,-1.731165 m -18.61004,-7.817976 c 0,-7.482741 4.73691,-13.848353 13.08349,-13.848353 2.48147,0 3.94774,0.390706 5.52655,1.060694 l 0,-9.6046118 c 0,-1.7311647 -0.62012,-2.6804353 -4.1728,-2.7363883 l 0,-1.39592937 11.67322,-0.55808235353 0,35.68254082353 c 0,1.507353 0.73314,2.512577 3.94775,2.512577 l 0,1.228553 -11.33516,0.334753 0,-3.294471 c -1.80483,2.065918 -4.22931,3.46233 -7.4444,3.46233 -7.10584,0 -11.27865,-5.416824 -11.27865,-12.843612"
           id="Fill-11"
           inkscape:connector-curvature="0"
           style="fill:#8a8b93" />
        <path
           d="m 77.546711,34.007329 c -0.902175,1.284506 -2.42496,2.401636 -4.116782,2.401636 -2.481468,0 -3.83473,-1.731165 -3.83473,-4.300177 0,-3.629706 1.748329,-4.970164 7.951512,-5.919435 l 0,7.817976 z M 107.82852,13.401694 c -3.03875,0 -5.79643,2.173483 -7.7099,5.1824 l 0,-4.959071 -11.254776,0.501165 0,1.393518 c 3.207787,0.05547 3.882957,1.058282 3.882957,2.730118 l 0,17.831141 c 0,1.448988 -0.67517,1.950153 -3.882957,2.006106 l 0,0.0053 c -3.107925,0 -3.872728,-0.569176 -3.872728,-2.091964 l 0,-13.552189 c 0,-6.198235 -3.327622,-9.046529 -10.263945,-9.046529 -4.819718,0 -8.234051,0.927083 -10.108062,2.446977 l 0.0078,0.0048 c -0.95235,0.716777 -1.570038,1.846929 -1.570038,3.122753 0,2.168176 1.775122,3.925388 3.964309,3.925388 2.189674,0 3.964308,-1.757212 3.964308,-3.925388 0,-0.806494 -0.246003,-1.555588 -0.667375,-2.179271 -0.146628,-0.247447 -0.312741,-0.485729 -0.497366,-0.714847 0.789647,-0.614035 2.030381,-1.005223 3.383644,-1.005223 2.989063,0 4.342325,1.563788 4.342325,5.752059 l 0,3.741129 c -1.860857,0.669988 -8.290071,0.669988 -12.350346,2.847812 -2.368453,1.284506 -3.552679,3.685659 -3.552679,5.863482 0,3.239 2.312432,6.589424 7.669948,6.589424 3.495685,0 6.259204,-1.787118 8.402601,-4.076365 l 0.225543,0 c 0.676632,2.735906 1.408309,3.685659 4.960988,3.685659 l 5.961078,0 0.469111,0 15.96295,0 0,-1.393035 c -4.10753,-0.111424 -5.06475,-0.557118 -5.06475,-2.006106 l 0,-15.825036 c 1.05075,-1.46587 2.46637,-2.688153 3.93752,-3.093811 -0.0312,0.214647 -0.0521,0.432188 -0.0521,0.655517 0,2.425271 1.88912,4.390859 4.21957,4.390859 2.33095,0 4.21957,-1.965588 4.21957,-4.390859 0,-2.098717 -1.39857,-4.415941 -4.72716,-4.415941 l 0,0 z"
           id="Fill-13"
           inkscape:connector-curvature="0"
           style="fill:#8a8b93" />
        <path
           d="m 164.08029,13.401791 c -3.03875,0 -5.79642,2.173482 -7.7094,5.1824 l 0,-4.959553 -11.25527,0.501647 0,1.393035 c 3.20779,0.05595 3.88296,1.058765 3.88296,2.730118 l 0,17.831623 c 0,1.448506 -0.67517,1.950153 -3.88296,2.006106 l 0,1.392553 16.43254,0 0,-1.392553 c -4.10801,-0.111424 -5.06475,-0.5576 -5.06475,-2.006106 l 0,-15.825517 c 1.05076,-1.465871 2.46637,-2.687671 3.93703,-3.09333 -0.0312,0.214647 -0.0521,0.432188 -0.0521,0.655518 0,2.42527 1.88911,4.390859 4.21957,4.390859 2.33094,0 4.21957,-1.965589 4.21957,-4.390859 0,-2.0992 -1.39857,-4.415941 -4.72717,-4.415941"
           id="Fill-15"
           inkscape:connector-curvature="0"
           style="fill:#000000" />
        <path
           d="m 283.57078,36.046042 c 0.0249,1.227589 -0.54705,2.146471 -1.47602,2.808742 -1.34303,0.95747 -2.81272,0.998952 -4.23515,0.192458 -1.64214,-0.931423 -2.36651,-3.192694 -1.0566,-4.974506 1.27386,-1.732611 3.80453,-1.958835 5.34388,-0.803599 0.91532,0.686388 1.45605,1.619741 1.42389,2.776905"
           id="Fill-17"
           inkscape:connector-curvature="0"
           style="fill:#000000" />
      </g>
    </g>
  </g>
</svg>
