<?xml version="1.0" encoding="utf-8"?>
<!-- Generator: Adobe Illustrator 20.1.0, SVG Export Plug-In . SVG Version: 6.00 Build 0)  -->
<svg version="1.1" id="Layer_1" xmlns="http://www.w3.org/2000/svg" xmlns:xlink="http://www.w3.org/1999/xlink" x="0px" y="0px"
	 viewBox="0 0 500 70" style="enable-background:new 0 0 500 70;" xml:space="preserve">
<style type="text/css">
	.st0{fill:#231F20;}
	.st1{fill:#8A8B93;}
</style>
<g>
	<path class="st0" d="M291.1,22.4c-8.2,0-13.5,5.3-13.5,13.5s5,13.4,13.5,13.4c8,0,13.5-5.3,13.5-13.6S299.5,22.4,291.1,22.4z
		 M291.4,47.5c-4,0-5.8-3.9-5.8-11.7s1.3-11.7,5.3-11.7c4,0,5.8,3.8,5.8,11.7S295.2,47.6,291.4,47.5L291.4,47.5z"/>
	<path class="st0" d="M320.7,22.4c-8.2,0-13.5,5.3-13.5,13.5s5,13.4,13.5,13.4c8,0,13.5-5.3,13.5-13.6S329,22.4,320.7,22.4z
		 M320.9,47.5c-4,0-5.8-3.9-5.8-11.7s1.3-11.7,5.3-11.7c4,0,5.8,3.8,5.8,11.7S324.8,47.6,320.9,47.5L320.9,47.5z"/>
	<path class="st0" d="M351.4,47.4c2.2-0.1,2.8-0.6,2.8-2V31.8c0-3.4-1.2-5.1-4.1-5.1c-1.9,0-3.1,1.1-4.6,2.6v16c0,1.5,0.5,1.9,2.7,2
		v1.4h-14v-1.4c3.2-0.1,3.9-0.6,3.9-2V27.5c0-1.7-0.7-2.7-3.9-2.7v-1.4l11.2-0.5v4.9c2.6-3,5.7-5.1,9.3-5.1c3.7,0,6,1.9,6.7,5.4
		c2.5-3,6-5.4,9.5-5.4c4.7,0,6.9,2.9,6.9,8.1v14.6c0,1.5,0.6,1.9,3.8,2v1.4h-14v-1.4c2.2-0.1,2.7-0.6,2.7-2V31.8
		c0-3.4-1.1-5.1-3.9-5.1c-1.5,0-3.4,1.1-5,2.9c0.1,0.4,0.1,0.7,0.1,1.1v14.6c0,1.5,0.6,1.9,2.9,2v1.4h-13.1L351.4,47.4z"/>
	<path class="st1" d="M113.5,44.6V14c0-1.7-0.6-2.7-4.1-2.7V9.8l11.5-0.6v16.6c2.2-2.2,5.2-3.4,8.3-3.4c6.8,0,10.3,5.5,10.3,12.5
		c0,8.1-4.8,14.2-12.7,14.2c-2.7,0-6.2-0.7-8.7-2.5l-3.4,3.1h-1.3L113.5,44.6z M131.6,35.5c0-6.2-2.3-10-6-10c-1.7,0-3,0.7-4.6,1.9
		v16.2c1.2,2.6,3,3.9,5.1,3.9C129.9,47.5,131.6,43.1,131.6,35.5z"/>
	<path class="st1" d="M141.8,36c0-8.2,5.4-13.5,13.5-13.5c8.3,0,13.5,5.1,13.5,13.3s-5.4,13.6-13.5,13.6
		C146.9,49.3,141.8,44.2,141.8,36z M160.9,35.8c0-7.9-1.8-11.7-5.8-11.7s-5.3,3.8-5.3,11.7s1.8,11.8,5.8,11.8
		C159.5,47.6,160.9,43.7,160.9,35.8L160.9,35.8z"/>
	<path class="st1" d="M221.2,36.4c0-7.5,4.7-13.9,13-13.9c1.9-0.1,3.8,0.3,5.5,1.1V14c0-1.7-0.6-2.7-4.1-2.7V9.8l11.6-0.6V45
		c0,1.5,0.7,2.5,3.9,2.5v1.2l-11.3,0.3v-3.3c-1.8,2.2-4.5,3.5-7.4,3.5C225.3,49.3,221.2,43.8,221.2,36.4z M239.7,44.3V27.1
		c-1-1.7-2.8-2.8-4.8-2.7c-3.5,0-5.8,4.2-5.8,11.4c0,5.8,2.4,10.2,6.4,10.2C237,46,238.6,45.4,239.7,44.3L239.7,44.3z"/>
	<path class="st1" d="M216.5,22.7c-3,0-5.8,2.2-7.7,5.2v-5l-11.2,0.5v1.4c3.2,0.1,3.9,1.1,3.9,2.7v17.9c0,1.5-0.7,1.9-3.9,2l0,0
		c-3.1,0-3.8-0.6-3.8-2.1V31.8c0-6.2-3.3-9.1-10.2-9.1c-4.8,0-8.2,0.9-10,2.5l0,0c-1.7,1.3-2.1,3.8-0.8,5.5c1.3,1.7,3.8,2.1,5.5,0.8
		c1.7-1.3,2.1-3.6,0.9-5.3c-0.1-0.2-0.3-0.5-0.5-0.7c1-0.7,2.2-1,3.4-1c3,0,4.3,1.6,4.3,5.8v3.8c-1.8,0.7-8.2,0.7-12.3,2.9
		c-2.2,1.2-3.5,3.4-3.5,5.9c0,3.2,2.3,6.6,7.6,6.6c3.5,0,6.2-1.8,8.3-4.1h0.2c0.7,2.7,1.4,3.7,4.9,3.7H214v-1.4c-4.1-0.1-5-0.6-5-2
		V29.6c1-1.5,2.4-2.7,3.9-3.1c0,0.2-0.1,0.4-0.1,0.7c-0.1,2.3,1.7,4.3,4,4.4c2.3,0.1,4.3-1.7,4.4-4c0-0.1,0-0.3,0-0.4
		C221.1,25,219.8,22.7,216.5,22.7z M186.4,43.3c-0.9,1.3-2.4,2.4-4.1,2.4c-2.5,0-3.8-1.7-3.8-4.3c0-3.6,1.7-5,7.9-5.9V43.3z"/>
	<path class="st0" d="M272.3,22.7c-3,0-5.8,2.2-7.7,5.2v-5l-11.2,0.5v1.4c3.2,0.1,3.9,1.1,3.9,2.7v17.9c0,1.5-0.7,1.9-3.9,2v1.4
		h16.3v-1.4c-4.1-0.1-5-0.6-5-2V29.6c1-1.5,2.4-2.7,3.9-3.1c0,0.2-0.1,0.4-0.1,0.7c-0.1,2.3,1.7,4.3,4,4.4c2.3,0.1,4.3-1.7,4.4-4
		c0-0.1,0-0.3,0-0.4C277,25,275.6,22.7,272.3,22.7"/>
	<path class="st0" d="M390.9,45.4c0,1.1-0.5,2.2-1.5,2.8c-1.2,0.9-2.9,1-4.2,0.2c-1.6-0.9-2.2-3-1.3-4.7c0.1-0.1,0.1-0.2,0.2-0.3
		c1.3-1.7,3.6-2,5.3-0.8C390.5,43.2,391,44.3,390.9,45.4"/>
</g>
</svg>
