<?xml version="1.0" encoding="utf-8"?>
<!-- Generator: Adobe Illustrator 21.0.2, SVG Export Plug-In . SVG Version: 6.00 Build 0)  -->
<svg version="1.1" id="Layer_1" xmlns="http://www.w3.org/2000/svg" xmlns:xlink="http://www.w3.org/1999/xlink" x="0px" y="0px"
	 viewBox="0 0 841.9 595.3" style="enable-background:new 0 0 841.9 595.3;" xml:space="preserve">
<style type="text/css">
	.st0{fill:#5F6062;}
	.st1{fill:#BCBEC0;}
</style>
<path class="st0" d="M212.5,224.9c-40.1,0-72.7,32.6-72.7,72.7c0,40.1,32.6,72.7,72.7,72.7c17.1,0,32.9-6,45.3-15.9l-11.5-11.5
	c-9.4,7.1-21.2,11.3-33.8,11.3c-31.2,0-56.5-25.4-56.5-56.5c0-31.2,25.4-56.5,56.5-56.5c12.7,0,24.4,4.2,33.8,11.3l11.5-11.5
	C245.4,230.9,229.6,224.9,212.5,224.9 M269.3,365.9c-15.4,12.9-35.2,20.6-56.8,20.6c-49,0-88.9-39.9-88.9-88.9
	c0-49,39.9-88.9,88.9-88.9c21.6,0,41.4,7.7,56.8,20.6l11.5-11.5c-18.4-15.8-42.2-25.3-68.3-25.3c-57.9,0-105,47.1-105,105
	c0,57.9,47.1,105,105,105c26.1,0,49.9-9.5,68.3-25.3L269.3,365.9z M234.8,264l-11.8,11.8c-3.2-1.5-6.7-2.4-10.4-2.4
	c-13.4,0-24.2,10.9-24.2,24.2c0,13.4,10.9,24.2,24.2,24.2c3.7,0,7.3-0.9,10.4-2.4l11.8,11.8c-6.4,4.2-14,6.7-22.3,6.7
	c-22.3,0-40.4-18.1-40.4-40.4c0-22.3,18.1-40.4,40.4-40.4C220.7,257.2,228.4,259.7,234.8,264"/>
<path class="st1" d="M269.3,252.3l-11.5,11.5c7.1,9.4,11.3,21.2,11.3,33.8c0,12.7-4.2,24.4-11.3,33.8l11.5,11.5
	c10-12.4,15.9-28.2,15.9-45.3C285.2,280.5,279.2,264.7,269.3,252.3 M236.7,297.6c0,3.7-0.9,7.3-2.4,10.4l11.8,11.8
	c4.2-6.4,6.7-14,6.7-22.3c0-8.2-2.5-15.9-6.7-22.3l-11.8,11.8C235.9,290.4,236.7,293.9,236.7,297.6 M317.5,297.6
	c0,26.1-9.5,49.9-25.3,68.3l-11.5-11.5c12.9-15.4,20.6-35.2,20.6-56.8c0-21.6-7.7-41.4-20.6-56.8l11.5-11.5
	C308,247.7,317.5,271.6,317.5,297.6"/>
<path class="st0" d="M410.6,343.1c-28,0-44.6-19.5-44.6-44.7c0-25.4,18.8-45.9,47.4-45.9c9.8,0,18.1,1.9,23.3,4.8l-0.1,15.2
	c-7.4-4.4-14.5-6.3-22.4-6.3c-20.5,0-30.7,14.9-30.7,31.6c0,17.9,11.3,31.7,28.7,31.7c8.8,0,15.8-2.3,22.5-5.9l4.7,11.8
	C430,340.7,420.1,343.1,410.6,343.1"/>
<path class="st0" d="M485,341.8v-37.1c0-7.1-1.1-13.8-9.6-13.8c-5.5,0-11.1,3.1-15.4,6.7v44.2h-16.1v-95.1h16.1v38.4
	c5.9-4.8,12.9-8.3,21-8.3c9.8,0,20.2,4.7,20.2,23.4v41.6H485z"/>
<path class="st0" d="M539.5,289.5c-10.2,0-15.1,8.6-15.1,20.4c0,12.4,5.8,20.7,15.5,20.7c10,0,15.1-8.7,15.1-20.7
	C555,297.7,549.4,289.5,539.5,289.5 M562.5,334c-5.6,5.8-13.4,9.1-22.9,9.1c-8.8,0-16.3-2.8-21.8-7.9c-6.3-5.9-9.8-14.6-9.8-24.9
	c0-9.9,3.4-18.5,9.2-24.6c5.6-5.6,13.3-9,22.5-9c9.8,0,17.7,3.4,23.3,9.1c5.5,5.9,8.4,14.2,8.4,23.9
	C571.5,319.5,568.4,328.1,562.5,334"/>
<path class="st0" d="M614.5,293.2c-2.7-1.6-5.5-2-7.4-2c-4,0-7.5,1.5-12.3,5.6v45h-16.1v-63.5h13.5l1.9,6.7
	c6.4-5.8,11.4-8.2,17.3-8.2c3.2,0,6.7,0.9,9.1,2.7L614.5,293.2z"/>
<path class="st0" d="M668.3,341.8l-2.8-6.3c-4.4,4-11,7.7-19.4,7.7c-8.3,0-21.4-4.3-21.4-24.7v-40.2h16.1v39.2
	c0,7.9,3.6,12.9,11.4,12.9c5.2,0,9.5-2.8,12.2-5.2v-46.9h16.1v45.9c0,9.8,0.1,14.4,1.2,17.6H668.3z"/>
<path class="st0" d="M709.4,343.1c-10.4,0-18.2-2.7-23.4-5.9l5.2-11.8c4.7,3.2,10.7,5.6,17,5.6c6.6,0,10.9-2.4,10.9-6.7
	c0-11.4-29.2-7.1-29.2-28.7c0-11,8.7-18.8,24-18.8c6.8,0,13.3,1.2,18.5,3.2v13.4c-5.4-2.1-11.1-4.2-18-4.2c-5.5,0-9,1.7-9,5.5
	c0,10.1,29.7,6.7,29.7,28.6C735.1,337.6,723,343.1,709.4,343.1"/>
</svg>
