<?xml version="1.0" encoding="UTF-8" standalone="no"?>
<!-- Generator: Adobe Illustrator 18.1.0, SVG Export Plug-In . SVG Version: 6.00 Build 0)  -->

<svg
   xmlns:dc="http://purl.org/dc/elements/1.1/"
   xmlns:cc="http://creativecommons.org/ns#"
   xmlns:rdf="http://www.w3.org/1999/02/22-rdf-syntax-ns#"
   xmlns:svg="http://www.w3.org/2000/svg"
   xmlns="http://www.w3.org/2000/svg"
   xmlns:sodipodi="http://sodipodi.sourceforge.net/DTD/sodipodi-0.dtd"
   xmlns:inkscape="http://www.inkscape.org/namespaces/inkscape"
   version="1.1"
   id="Layer_1"
   x="0px"
   y="0px"
   viewBox="0 0 445.26473 150"
   enable-background="new 0 0 841.9 595.3"
   xml:space="preserve"
   inkscape:version="0.91 r13725"
   sodipodi:docname="Chorus_Logo_SB_W.svg"
   width="445.26474"
   height="150"><metadata
     id="metadata25"><rdf:RDF><cc:Work
         rdf:about=""><dc:format>image/svg+xml</dc:format><dc:type
           rdf:resource="http://purl.org/dc/dcmitype/StillImage" /><dc:title></dc:title></cc:Work></rdf:RDF></metadata><defs
     id="defs23" /><sodipodi:namedview
     pagecolor="#ffffff"
     bordercolor="#666666"
     borderopacity="1"
     objecttolerance="10"
     gridtolerance="10"
     guidetolerance="10"
     inkscape:pageopacity="0"
     inkscape:pageshadow="2"
     inkscape:window-width="640"
     inkscape:window-height="480"
     id="namedview21"
     showgrid="false"
     fit-margin-top="0"
     fit-margin-left="0"
     fit-margin-right="0"
     fit-margin-bottom="0"
     inkscape:zoom="1.6882245"
     inkscape:cx="216.01036"
     inkscape:cy="57.46295"
     inkscape:current-layer="Layer_1" /><g
     id="g3"
     transform="matrix(0.70947218,0,0,0.70947218,-76.268259,-135.56254)"><path
       d="m 212.5,224.9 c -40.1,0 -72.7,32.6 -72.7,72.7 0,40.1 32.6,72.7 72.7,72.7 17.1,0 32.9,-6 45.3,-15.9 l -11.5,-11.5 c -9.4,7.1 -21.2,11.3 -33.8,11.3 -31.2,0 -56.5,-25.4 -56.5,-56.5 0,-31.2 25.4,-56.5 56.5,-56.5 12.7,0 24.4,4.2 33.8,11.3 L 257.8,241 c -12.4,-10.1 -28.2,-16.1 -45.3,-16.1 m 56.8,141 c -15.4,12.9 -35.2,20.6 -56.8,20.6 -49,0 -88.9,-39.9 -88.9,-88.9 0,-49 39.9,-88.9 88.9,-88.9 21.6,0 41.4,7.7 56.8,20.6 l 11.5,-11.5 c -18.4,-15.8 -42.2,-25.3 -68.3,-25.3 -57.9,0 -105,47.1 -105,105 0,57.9 47.1,105 105,105 26.1,0 49.9,-9.5 68.3,-25.3 L 269.3,365.9 Z M 234.8,264 223,275.8 c -3.2,-1.5 -6.7,-2.4 -10.4,-2.4 -13.4,0 -24.2,10.9 -24.2,24.2 0,13.4 10.9,24.2 24.2,24.2 3.7,0 7.3,-0.9 10.4,-2.4 l 11.8,11.8 c -6.4,4.2 -14,6.7 -22.3,6.7 -22.3,0 -40.4,-18.1 -40.4,-40.4 0,-22.3 18.1,-40.4 40.4,-40.4 8.2,0.1 15.9,2.6 22.3,6.9"
       id="path5"
       inkscape:connector-curvature="0"
       style="fill:#3a3a3a" /><path
       d="m 269.3,252.3 -11.5,11.5 c 7.1,9.4 11.3,21.2 11.3,33.8 0,12.7 -4.2,24.4 -11.3,33.8 l 11.5,11.5 c 10,-12.4 15.9,-28.2 15.9,-45.3 0,-17.1 -6,-32.9 -15.9,-45.3 m -32.6,45.3 c 0,3.7 -0.9,7.3 -2.4,10.4 l 11.8,11.8 c 4.2,-6.4 6.7,-14 6.7,-22.3 0,-8.2 -2.5,-15.9 -6.7,-22.3 L 234.3,287 c 1.6,3.4 2.4,6.9 2.4,10.6 m 80.8,0 c 0,26.1 -9.5,49.9 -25.3,68.3 l -11.5,-11.5 c 12.9,-15.4 20.6,-35.2 20.6,-56.8 0,-21.6 -7.7,-41.4 -20.6,-56.8 l 11.5,-11.5 c 15.8,18.4 25.3,42.3 25.3,68.3"
       id="path7"
       inkscape:connector-curvature="0"
       style="fill:#3a3a3a" /><path
       d="m 410.6,343.1 c -28,0 -44.6,-19.5 -44.6,-44.7 0,-25.4 18.8,-45.9 47.4,-45.9 9.8,0 18.1,1.9 23.3,4.8 l -0.1,15.2 c -7.4,-4.4 -14.5,-6.3 -22.4,-6.3 -20.5,0 -30.7,14.9 -30.7,31.6 0,17.9 11.3,31.7 28.7,31.7 8.8,0 15.8,-2.3 22.5,-5.9 l 4.7,11.8 c -9.4,5.3 -19.3,7.7 -28.8,7.7"
       id="path9"
       inkscape:connector-curvature="0"
       style="fill:#3a3a3a" /><path
       d="m 485,341.8 0,-37.1 c 0,-7.1 -1.1,-13.8 -9.6,-13.8 -5.5,0 -11.1,3.1 -15.4,6.7 l 0,44.2 -16.1,0 0,-95.1 16.1,0 0,38.4 c 5.9,-4.8 12.9,-8.3 21,-8.3 9.8,0 20.2,4.7 20.2,23.4 l 0,41.6 -16.2,0 z"
       id="path11"
       inkscape:connector-curvature="0"
       style="fill:#3a3a3a" /><path
       d="m 539.5,289.5 c -10.2,0 -15.1,8.6 -15.1,20.4 0,12.4 5.8,20.7 15.5,20.7 10,0 15.1,-8.7 15.1,-20.7 0,-12.2 -5.6,-20.4 -15.5,-20.4 m 23,44.5 c -5.6,5.8 -13.4,9.1 -22.9,9.1 -8.8,0 -16.3,-2.8 -21.8,-7.9 -6.3,-5.9 -9.8,-14.6 -9.8,-24.9 0,-9.9 3.4,-18.5 9.2,-24.6 5.6,-5.6 13.3,-9 22.5,-9 9.8,0 17.7,3.4 23.3,9.1 5.5,5.9 8.4,14.2 8.4,23.9 0.1,9.8 -3,18.4 -8.9,24.3"
       id="path13"
       inkscape:connector-curvature="0"
       style="fill:#3a3a3a" /><path
       d="m 614.5,293.2 c -2.7,-1.6 -5.5,-2 -7.4,-2 -4,0 -7.5,1.5 -12.3,5.6 l 0,45 -16.1,0 0,-63.5 13.5,0 1.9,6.7 c 6.4,-5.8 11.4,-8.2 17.3,-8.2 3.2,0 6.7,0.9 9.1,2.7 l -6,13.7 z"
       id="path15"
       inkscape:connector-curvature="0"
       style="fill:#3a3a3a" /><path
       d="m 668.3,341.8 -2.8,-6.3 c -4.4,4 -11,7.7 -19.4,7.7 -8.3,0 -21.4,-4.3 -21.4,-24.7 l 0,-40.2 16.1,0 0,39.2 c 0,7.9 3.6,12.9 11.4,12.9 5.2,0 9.5,-2.8 12.2,-5.2 l 0,-46.9 16.1,0 0,45.9 c 0,9.8 0.1,14.4 1.2,17.6 l -13.4,0 z"
       id="path17"
       inkscape:connector-curvature="0"
       style="fill:#3a3a3a" /><path
       d="m 709.4,343.1 c -10.4,0 -18.2,-2.7 -23.4,-5.9 l 5.2,-11.8 c 4.7,3.2 10.7,5.6 17,5.6 6.6,0 10.9,-2.4 10.9,-6.7 0,-11.4 -29.2,-7.1 -29.2,-28.7 0,-11 8.7,-18.8 24,-18.8 6.8,0 13.3,1.2 18.5,3.2 l 0,13.4 c -5.4,-2.1 -11.1,-4.2 -18,-4.2 -5.5,0 -9,1.7 -9,5.5 0,10.1 29.7,6.7 29.7,28.6 0,14.3 -12.1,19.8 -25.7,19.8"
       id="path19"
       inkscape:connector-curvature="0"
       style="fill:#3a3a3a" /></g></svg>