<?xml version="1.0" encoding="UTF-8" standalone="no"?>
<!-- Generator: Adobe Illustrator 20.1.0, SVG Export Plug-In . SVG Version: 6.00 Build 0)  -->

<svg
   xmlns:dc="http://purl.org/dc/elements/1.1/"
   xmlns:cc="http://creativecommons.org/ns#"
   xmlns:rdf="http://www.w3.org/1999/02/22-rdf-syntax-ns#"
   xmlns:svg="http://www.w3.org/2000/svg"
   xmlns="http://www.w3.org/2000/svg"
   xmlns:sodipodi="http://sodipodi.sourceforge.net/DTD/sodipodi-0.dtd"
   xmlns:inkscape="http://www.inkscape.org/namespaces/inkscape"
   version="1.1"
   id="Layer_1"
   x="0px"
   y="0px"
   viewBox="0 0 379.50939 38.400001"
   xml:space="preserve"
   inkscape:version="0.91 r13725"
   sodipodi:docname="corporatenewsroom.svg"
   width="379.5094"
   height="38.400002"><metadata
     id="metadata4197"><rdf:RDF><cc:Work
         rdf:about=""><dc:format>image/svg+xml</dc:format><dc:type
           rdf:resource="http://purl.org/dc/dcmitype/StillImage" /><dc:title></dc:title></cc:Work></rdf:RDF></metadata><defs
     id="defs4195" /><sodipodi:namedview
     pagecolor="#ffffff"
     bordercolor="#666666"
     borderopacity="1"
     objecttolerance="10"
     gridtolerance="10"
     guidetolerance="10"
     inkscape:pageopacity="0"
     inkscape:pageshadow="2"
     inkscape:window-width="640"
     inkscape:window-height="480"
     id="namedview4193"
     showgrid="false"
     fit-margin-top="0"
     fit-margin-left="0"
     fit-margin-right="0"
     fit-margin-bottom="0"
     inkscape:zoom="3.0458151"
     inkscape:cx="191.29813"
     inkscape:cy="19.34462"
     inkscape:current-layer="Layer_1" /><style
     type="text/css"
     id="style4153">
	.st0{fill:#1D4A72;}
	.st1{fill:#6C6C6C;}
</style><g
     id="g4155"
     transform="translate(-4.7905929,-11.294622)"><path
       class="st0"
       d="m 10.7,31.8 c 0,-6.4 4.4,-10.4 10.3,-10.4 5.6,0 7.7,2.7 7.7,4.8 0,1.8 -1,3.2 -2.9,3.2 -2.1,0 -3.2,-1.3 -3.2,-2.8 0,-1.1 0.8,-2.1 1.4,-2.5 -0.4,-0.7 -1.4,-1.4 -2.9,-1.4 -2.8,0 -4.6,3.1 -4.6,8.6 0,4.5 1.8,8.1 6,8.1 2.2,0 4.2,-1.2 5.7,-3.2 l 0.8,0.6 c -1.9,2.9 -4.5,4.7 -8.5,4.7 -6.1,0.1 -9.8,-3.7 -9.8,-9.7 z"
       id="path4157"
       inkscape:connector-curvature="0"
       style="fill:#1d4a72" /><path
       class="st0"
       d="m 30.3,31.6 c 0,-6.2 4,-10.2 10.2,-10.2 6.3,0 10.1,3.8 10.1,10 0,6.2 -4.1,10.2 -10.1,10.2 -6.4,0 -10.2,-3.8 -10.2,-10 z m 14.3,-0.1 c 0,-5.9 -1.3,-8.8 -4.3,-8.8 -3,0 -4,2.9 -4,8.8 0,5.9 1.3,8.8 4.4,8.8 2.8,0 3.9,-2.9 3.9,-8.8 z"
       id="path4159"
       inkscape:connector-curvature="0"
       style="fill:#1d4a72" /><path
       class="st0"
       d="m 51.2,40.2 c 2.4,0 2.9,-0.4 2.9,-1.5 l 0,-13.5 c 0,-1.3 -0.5,-2 -2.9,-2.1 l 0,-1.1 8.4,-0.4 0,3.7 c 1.4,-2.3 3.5,-3.9 5.8,-3.9 2.5,0 3.7,1.6 3.7,3.5 0,1.9 -1.2,3.3 -3,3.3 -1.9,0 -3.1,-1.2 -3.1,-2.8 0,-0.4 0.1,-0.9 0.2,-1.3 -1.3,0.1 -2.6,1.1 -3.5,2.4 l 0,11.9 c 0,1.1 0.7,1.4 3.8,1.5 l 0,1 -12.3,0 0,-0.7 z"
       id="path4161"
       inkscape:connector-curvature="0"
       style="fill:#1d4a72" /><path
       class="st0"
       d="m 69.9,48.2 c 2.4,0 2.9,-0.4 2.9,-1.5 l 0,-21.5 c 0,-1.3 -0.5,-2 -2.9,-2.1 l 0,-1.1 8.4,-0.4 0,2.6 c 1.9,-1.6 3.8,-2.8 6.2,-2.8 5,0 7.8,3.9 7.8,9.7 0,5.6 -3.2,10.3 -8.9,10.3 -2,0 -3.5,-0.4 -5,-1 l 0,6.2 c 0,1.1 0.8,1.4 3.9,1.5 l 0,1 -12.4,0 0,-0.9 z M 86.3,31.5 c 0,-4.4 -1.4,-7.6 -4.4,-7.6 -1.3,0 -2.4,0.5 -3.6,1.5 l 0,12 c 0.9,2.1 2.3,2.8 3.9,2.8 2.5,0 4.1,-2.6 4.1,-8.7 z"
       id="path4163"
       inkscape:connector-curvature="0"
       style="fill:#1d4a72" /><path
       class="st0"
       d="m 93.9,31.6 c 0,-6.2 4,-10.2 10.2,-10.2 6.3,0 10.1,3.8 10.1,10 0,6.2 -4.1,10.2 -10.1,10.2 -6.4,0 -10.2,-3.8 -10.2,-10 z m 14.3,-0.1 c 0,-5.9 -1.3,-8.8 -4.3,-8.8 -3,0 -4,2.9 -4,8.8 0,5.9 1.3,8.8 4.4,8.8 2.9,0 3.9,-2.9 3.9,-8.8 z"
       id="path4165"
       inkscape:connector-curvature="0"
       style="fill:#1d4a72" /><path
       class="st0"
       d="m 114.7,40.2 c 2.4,0 2.9,-0.4 2.9,-1.5 l 0,-13.5 c 0,-1.3 -0.5,-2 -2.9,-2.1 l 0,-1.1 8.4,-0.4 0,3.7 c 1.4,-2.3 3.5,-3.9 5.8,-3.9 2.5,0 3.7,1.6 3.7,3.5 0,1.9 -1.2,3.3 -3,3.3 -1.9,0 -3.1,-1.2 -3.1,-2.8 0,-0.4 0.1,-0.9 0.2,-1.3 -1.3,0.1 -2.6,1.1 -3.5,2.4 l 0,11.9 c 0,1.1 0.7,1.4 3.8,1.5 l 0,1 -12.3,0 0,-0.7 z"
       id="path4167"
       inkscape:connector-curvature="0"
       style="fill:#1d4a72" /><path
       class="st0"
       d="m 133,36.6 c 0,-1.6 0.9,-3.4 2.6,-4.4 3,-1.6 7.8,-1.6 9.2,-2.1 l 0,-2.8 c 0,-3.2 -1,-4.3 -3.2,-4.3 -1,0 -1.9,0.3 -2.5,0.8 0.5,0.6 0.8,1.3 0.8,2.2 0,1.7 -1.1,2.9 -3,2.9 -1.8,0 -2.9,-1.2 -2.9,-2.9 0,-2.5 3.1,-4.3 8.8,-4.3 5.2,0 7.6,2.1 7.6,6.8 l 0,8.8 c 0,2.1 0.6,2.6 3,1.8 l 0.3,0.8 c -1.6,1 -2.9,1.6 -4.6,1.6 -2.6,0 -3.5,-1 -4,-3 l -0.2,0 c -1.6,1.7 -3.7,3.1 -6.3,3.1 -3.9,-0.1 -5.6,-2.6 -5.6,-5 z m 11.8,0.5 0,-5.9 c -4.6,0.7 -5.9,1.7 -5.9,4.5 0,1.9 1,3.2 2.9,3.2 1.2,0 2.3,-0.8 3,-1.8 z"
       id="path4169"
       inkscape:connector-curvature="0"
       style="fill:#1d4a72" /><path
       class="st0"
       d="m 155.5,35.7 0,-11.8 -3.7,0 0,-1.2 3.8,-0.8 0,-5.3 5.5,-1.7 0,7 6.1,0 0,1.8 -6.1,0 0,12.1 c 0,2.2 0.7,3.3 2.4,3.3 1.3,0 2.3,-0.9 3.2,-2.6 l 0.9,0.5 c -1.3,3 -3.3,4.5 -6.4,4.5 -3.3,0.1 -5.7,-1.5 -5.7,-5.8 z"
       id="path4171"
       inkscape:connector-curvature="0"
       style="fill:#1d4a72" /><path
       class="st0"
       d="m 167.9,31.8 c 0,-6.4 4.2,-10.4 9.9,-10.4 5.9,0 8.9,4.2 8.6,9.7 l -12.6,0 0,0.5 0,0 c 0,4.8 2.1,7.8 6.1,7.8 2.4,0 4.1,-1.3 5.7,-3.4 l 0.8,0.6 c -1.8,2.9 -4.5,5 -8.6,5 -6.1,0 -9.9,-3.7 -9.9,-9.8 z m 6,-1.9 6.9,0 c 0.5,-4.2 -0.6,-7.2 -3.2,-7.2 -2.3,0 -3.5,2.6 -3.7,7.2 z"
       id="path4173"
       inkscape:connector-curvature="0"
       style="fill:#1d4a72" /><path
       class="st1"
       d="m 187.8,40.2 c 2.4,0 2.9,-0.4 2.9,-1.5 l 0,-13.5 c 0,-1.3 -0.5,-2 -2.9,-2.1 l 0,-1.1 8.4,-0.4 0,3.7 c 2,-2.2 4.6,-3.8 7.4,-3.8 3.5,0 5.1,2.1 5.1,6.1 l 0,11 c 0,1.1 0.5,1.5 2.9,1.5 l 0,1 -10.8,0 0,-1 c 1.7,0 2.3,-0.4 2.3,-1.5 l 0,-10.1 c 0,-2.6 -0.8,-3.8 -2.9,-3.8 -1.5,0 -2.7,0.8 -3.9,2 l 0,12.1 c 0,1.1 0.6,1.5 2.3,1.5 l 0,1 -10.8,0 0,-1.1 z"
       id="path4175"
       inkscape:connector-curvature="0"
       style="fill:#6c6c6c" /><path
       class="st1"
       d="m 211.8,31.8 c 0,-6.4 4.2,-10.4 9.9,-10.4 5.9,0 8.9,4.2 8.6,9.7 l -12.6,0 0,0.5 0,0 c 0,4.8 2.1,7.8 6.1,7.8 2.4,0 4.1,-1.3 5.7,-3.4 l 0.8,0.6 c -1.8,2.9 -4.5,5 -8.6,5 -6.2,0 -9.9,-3.7 -9.9,-9.8 z m 5.9,-1.9 6.9,0 c 0.5,-4.2 -0.6,-7.2 -3.2,-7.2 -2.3,0 -3.5,2.6 -3.7,7.2 z"
       id="path4177"
       inkscape:connector-curvature="0"
       style="fill:#6c6c6c" /><path
       class="st1"
       d="m 245.4,25.5 c -0.7,-2 -1.3,-2.5 -3,-2.7 l 0,-1 10.5,0 0,1 c -1.7,0.2 -2.4,0.5 -2.4,1.3 0,0.3 0.1,0.5 0.2,0.9 l 3.6,10.9 0.2,0 3,-8.9 c 0.3,-1 0.5,-1.8 0.5,-2.2 0,-1.2 -0.8,-1.8 -2.7,-2.1 l 0,-1 8.1,0 0,1 c -1.9,0.3 -3.1,1.3 -3.7,3.2 l -5.4,15.4 -3.4,0 -4,-11.3 -4.6,11.5 -3.3,0 -6,-16 c -0.7,-1.8 -1.3,-2.4 -3.3,-2.7 l 0,-1 10.7,0 0,1 c -1.5,0.1 -2.1,0.5 -2.1,1.2 0,0.3 0.1,0.6 0.3,1 l 4,11 0.2,0 3.4,-8.4 -0.8,-2.1 z"
       id="path4179"
       inkscape:connector-curvature="0"
       style="fill:#6c6c6c" /><path
       class="st1"
       d="m 263,34.6 1.2,0 c 2.3,3.8 4.6,5.6 7.1,5.6 2.1,0 3.2,-1.1 3.2,-2.7 0,-1.8 -1.3,-2.7 -5.3,-3.9 -4.4,-1.3 -6.2,-2.6 -6.2,-5.7 0,-3.9 3.1,-6.5 7.7,-6.5 1.8,0 3.6,0.6 4.7,1.3 l 1.1,-1.3 1.1,0 0,6.2 -1.2,0 c -2.1,-3.2 -3.7,-4.9 -6,-4.9 -1.8,0 -3,1.1 -3,2.8 0,1.7 1.7,2.4 4.6,3.2 4.5,1.1 6.8,2.7 6.8,6.1 0,3.8 -3.1,6.7 -7.9,6.7 -1.6,0 -4.4,-0.7 -5.5,-1.4 l -1.3,1.4 -1.1,0 0,-6.9 z"
       id="path4181"
       inkscape:connector-curvature="0"
       style="fill:#6c6c6c" /><path
       class="st1"
       d="m 280,40.2 c 2.4,0 2.9,-0.4 2.9,-1.5 l 0,-13.5 c 0,-1.3 -0.5,-2 -2.9,-2.1 l 0,-1.1 8.4,-0.4 0,3.7 c 1.4,-2.3 3.5,-3.9 5.8,-3.9 2.5,0 3.7,1.6 3.7,3.5 0,1.9 -1.2,3.3 -3,3.3 -1.9,0 -3.1,-1.2 -3.1,-2.8 0,-0.4 0.1,-0.9 0.2,-1.3 -1.3,0.1 -2.6,1.1 -3.5,2.4 l 0,11.9 c 0,1.1 0.7,1.4 3.8,1.5 l 0,1 -12.3,0 0,-0.7 z"
       id="path4183"
       inkscape:connector-curvature="0"
       style="fill:#6c6c6c" /><path
       class="st1"
       d="m 298.4,31.6 c 0,-6.2 4,-10.2 10.2,-10.2 6.3,0 10.1,3.8 10.1,10 0,6.2 -4.1,10.2 -10.1,10.2 -6.4,0 -10.2,-3.8 -10.2,-10 z m 14.3,-0.1 c 0,-5.9 -1.3,-8.8 -4.3,-8.8 -3,0 -4,2.9 -4,8.8 0,5.9 1.3,8.8 4.4,8.8 2.9,0 3.9,-2.9 3.9,-8.8 z"
       id="path4185"
       inkscape:connector-curvature="0"
       style="fill:#6c6c6c" /><path
       class="st1"
       d="m 320.3,31.6 c 0,-6.2 4,-10.2 10.2,-10.2 6.3,0 10.1,3.8 10.1,10 0,6.2 -4.1,10.2 -10.1,10.2 -6.4,0 -10.2,-3.8 -10.2,-10 z m 14.3,-0.1 c 0,-5.9 -1.3,-8.8 -4.3,-8.8 -3,0 -4,2.9 -4,8.8 0,5.9 1.3,8.8 4.4,8.8 2.8,0 3.9,-2.9 3.9,-8.8 z"
       id="path4187"
       inkscape:connector-curvature="0"
       style="fill:#6c6c6c" /><path
       class="st1"
       d="m 354.4,40.2 c 1.7,0 2.1,-0.4 2.1,-1.5 l 0,-10.2 c 0,-2.5 -0.9,-3.8 -3.1,-3.8 -1.5,0 -2.4,0.8 -3.5,2 l 0,12.1 c 0,1.1 0.4,1.5 2,1.5 l 0,1 -10.5,0 0,-1 c 2.4,0 2.9,-0.4 2.9,-1.5 l 0,-13.6 c 0,-1.3 -0.5,-2 -2.9,-2.1 l 0,-1.1 8.4,-0.4 0,3.7 c 2,-2.2 4.3,-3.8 7,-3.8 2.8,0 4.5,1.4 5,4 1.9,-2.3 4.5,-4 7.1,-4 3.5,0 5.2,2.1 5.2,6.1 l 0,11 c 0,1.1 0.5,1.5 2.9,1.5 l 0,1 -10.5,0 0,-1 c 1.6,0 2.1,-0.4 2.1,-1.5 l 0,-10.1 c 0,-2.5 -0.8,-3.8 -2.9,-3.8 -1.1,0 -2.5,0.8 -3.7,2.2 0,0.4 0.1,0.6 0.1,0.8 l 0,11 c 0,1.1 0.4,1.5 2.1,1.5 l 0,1 -9.8,0 0,-1 z"
       id="path4189"
       inkscape:connector-curvature="0"
       style="fill:#6c6c6c" /><path
       class="st1"
       d="m 378.5,39.1 c 0,-1.6 1.3,-2.9 2.9,-2.9 1.6,0 2.9,1.3 2.9,2.8 0,1.6 -1.3,2.9 -2.9,2.9 -1.6,0 -2.9,-1.3 -2.9,-2.8 z"
       id="path4191"
       inkscape:connector-curvature="0"
       style="fill:#6c6c6c" /></g></svg>