<?xml version="1.0" encoding="UTF-8"?>
<svg width="374px" height="35px" viewBox="0 0 374 35" version="1.1" xmlns="http://www.w3.org/2000/svg" xmlns:xlink="http://www.w3.org/1999/xlink">
    <!-- Generator: sketchtool 42 (36781) - http://www.bohemiancoding.com/sketch -->
    <title>3B1498AF-3A3A-45F9-B000-643884AFDF9B</title>
    <desc>Created with sketchtool.</desc>
    <defs>
        <polygon id="path-1" points="0.0745 0.722 15.9115 0.722 15.9115 27.3546 0.0745 27.3546"></polygon>
    </defs>
    <g id="Desktop" stroke="none" stroke-width="1" fill="none" fill-rule="evenodd">
        <g id="Desktop---Homepage" transform="translate(-379.000000, -7046.000000)">
            <g id="Corporate-newsroom-header" transform="translate(379.000000, 7045.000000)">
                <path d="M0,17.8872 C0,11.4602 4.411,7.4692 10.334,7.4692 C15.921,7.4692 18.021,10.2002 18.021,12.3002 C18.021,14.1482 16.971,15.4502 15.123,15.4502 C13.022,15.4502 11.972,14.1902 11.972,12.6362 C11.972,11.5022 12.728,10.4942 13.358,10.1162 C12.938,9.4022 11.93,8.7292 10.502,8.7292 C7.729,8.7292 5.923,11.7962 5.923,17.2992 C5.923,21.8362 7.771,25.4492 11.93,25.4492 C14.114,25.4492 16.089,24.2722 17.601,22.2982 L18.399,22.9292 C16.509,25.8272 13.946,27.6752 9.872,27.6752 C3.739,27.6752 0,23.8942 0,17.8872" id="Fill-1" fill="#1D4A72"></path>
                <path d="M33.8545,17.5512 C33.8545,11.6282 32.5105,8.7712 29.5275,8.7712 C26.5445,8.7712 25.5365,11.6282 25.5365,17.5512 C25.5365,23.4742 26.8805,26.3732 29.9055,26.3732 C32.8045,26.3732 33.8545,23.4742 33.8545,17.5512 M19.5715,17.6352 C19.5715,11.4602 23.6045,7.4692 29.7375,7.4692 C35.9965,7.4692 39.8615,11.2922 39.8615,17.4672 C39.8615,23.6842 35.7865,27.6752 29.7375,27.6752 C23.3525,27.6752 19.5715,23.8522 19.5715,17.6352" id="Fill-3" fill="#1D4A72"></path>
                <path d="M40.4873,26.2471 C42.8823,26.2051 43.3853,25.8271 43.3853,24.7341 L43.3853,11.2921 C43.3853,10.0321 42.8823,9.2761 40.4873,9.2341 L40.4873,8.1841 L48.8883,7.8061 L48.8883,11.5441 C50.3173,9.2761 52.3753,7.6371 54.6433,7.6371 C57.1223,7.6371 58.3823,9.1921 58.3823,11.1241 C58.3823,13.0561 57.1643,14.4421 55.4003,14.4421 C53.5093,14.4421 52.2913,13.2251 52.2913,11.6281 C52.2913,11.2501 52.3753,10.7461 52.5013,10.3681 C51.1993,10.4521 49.8973,11.5021 48.9723,12.8041 L48.9723,24.7341 C48.9723,25.8271 49.6873,26.1631 52.7533,26.2471 L52.7533,27.2971 L40.4873,27.2971 L40.4873,26.2471 Z" id="Fill-5" fill="#1D4A72"></path>
                <path d="M75.6436,17.5512 C75.6436,13.1402 74.2576,9.9892 71.2746,9.9892 C70.0146,9.9892 68.8806,10.5362 67.6626,11.5022 L67.6626,23.4742 C68.5436,25.5752 69.9306,26.2892 71.5686,26.2892 C74.0466,26.2892 75.6436,23.6422 75.6436,17.5512 L75.6436,17.5512 Z M59.2186,34.2282 C61.6126,34.1862 62.0746,33.8082 62.0746,32.7162 L62.0746,11.2922 C62.0746,10.0312 61.5706,9.2762 59.1766,9.2342 L59.1766,8.1832 L67.5786,7.8052 L67.5786,10.3672 C69.4686,8.7292 71.3586,7.5532 73.7946,7.5532 C78.7516,7.5532 81.5666,11.5022 81.5666,17.2992 C81.5666,22.9282 78.3316,27.5912 72.6606,27.5912 C70.6446,27.5912 69.1326,27.2132 67.6626,26.5412 L67.6626,32.7162 C67.6626,33.8082 68.4176,34.1442 71.6106,34.2282 L71.6106,35.2782 L59.2186,35.2782 L59.2186,34.2282 Z" id="Fill-7" fill="#1D4A72"></path>
                <path d="M97.5249,17.5512 C97.5249,11.6282 96.1809,8.7712 93.1989,8.7712 C90.2159,8.7712 89.2079,11.6282 89.2079,17.5512 C89.2079,23.4742 90.5519,26.3732 93.5769,26.3732 C96.4749,26.3732 97.5249,23.4742 97.5249,17.5512 M83.2429,17.6352 C83.2429,11.4602 87.2749,7.4692 93.4089,7.4692 C99.6679,7.4692 103.5329,11.2922 103.5329,17.4672 C103.5329,23.6842 99.4579,27.6752 93.4089,27.6752 C87.0239,27.6752 83.2429,23.8522 83.2429,17.6352" id="Fill-9" fill="#1D4A72"></path>
                <path d="M103.9897,26.2471 C106.3847,26.2051 106.8877,25.8271 106.8877,24.7341 L106.8877,11.2921 C106.8877,10.0321 106.3847,9.2761 103.9897,9.2341 L103.9897,8.1841 L112.3917,7.8061 L112.3917,11.5441 C113.8197,9.2761 115.8787,7.6371 118.1467,7.6371 C120.6257,7.6371 121.8857,9.1921 121.8857,11.1241 C121.8857,13.0561 120.6677,14.4421 118.9027,14.4421 C117.0117,14.4421 115.7947,13.2251 115.7947,11.6281 C115.7947,11.2501 115.8787,10.7461 116.0047,10.3681 C114.7017,10.4521 113.3997,11.5021 112.4757,12.8041 L112.4757,24.7341 C112.4757,25.8271 113.1897,26.1631 116.2567,26.2471 L116.2567,27.2971 L103.9897,27.2971 L103.9897,26.2471 Z" id="Fill-11" fill="#1D4A72"></path>
                <path d="M134.106,23.1806 L134.106,17.2996 C129.485,18.0136 128.183,19.0216 128.183,21.7516 C128.183,23.6846 129.191,24.9866 131.04,24.9866 C132.299,24.9866 133.434,24.1466 134.106,23.1806 M122.26,22.6346 C122.26,20.9956 123.142,19.1896 124.907,18.2226 C127.931,16.5846 132.719,16.5846 134.106,16.0806 L134.106,13.2666 C134.106,10.1156 133.098,8.9396 130.872,8.9396 C129.863,8.9396 128.939,9.2336 128.351,9.6956 C128.855,10.3256 129.191,11.0396 129.191,11.9226 C129.191,13.6446 128.099,14.8206 126.167,14.8206 C124.36,14.8206 123.226,13.6026 123.226,11.9646 C123.226,9.4436 126.293,7.6796 132.005,7.6796 C137.172,7.6796 139.651,9.8216 139.651,14.4846 L139.651,23.2646 C139.651,25.3236 140.239,25.8266 142.633,25.1126 L142.969,25.9526 C141.415,26.9606 140.071,27.5486 138.391,27.5486 C135.745,27.5486 134.904,26.5826 134.4,24.5246 L134.232,24.5246 C132.635,26.2466 130.578,27.5906 127.973,27.5906 C123.982,27.5906 122.26,25.0706 122.26,22.6346" id="Fill-13" fill="#1D4A72"></path>
                <g id="Group-17" transform="translate(141.000000, 0.278300)">
                    <mask id="mask-2" fill="white">
                        <use xlink:href="#path-1"></use>
                    </mask>
                    <g id="Clip-16"></g>
                    <path d="M3.7715,21.5156 L3.7715,9.6696 L0.0745,9.6696 L0.0745,8.4516 L3.8555,7.6536 L3.8555,2.4026 L9.3585,0.7216 L9.3585,7.7376 L15.4495,7.7376 L15.4495,9.5856 L9.3585,9.5856 L9.3585,21.6416 C9.3585,23.8686 10.0725,24.9176 11.7515,24.9176 C13.0125,24.9176 14.0625,24.0366 14.9875,22.2716 L15.9115,22.8186 C14.5675,25.8426 12.6345,27.3546 9.5265,27.3546 C6.2075,27.3546 3.7715,25.7586 3.7715,21.5156" id="Fill-15" fill="#1D4A72" mask="url(#mask-2)"></path>
                </g>
                <path d="M163.168,15.997 L170.057,15.955 C170.519,11.754 169.469,8.771 166.864,8.771 C164.596,8.771 163.378,11.334 163.168,15.997 M157.244,17.845 C157.244,11.46 161.445,7.469 167.158,7.469 C173.081,7.469 176.064,11.712 175.77,17.215 L163.126,17.215 L163.126,17.677 L163.126,17.719 C163.126,22.508 165.184,25.533 169.217,25.533 C171.569,25.533 173.333,24.272 174.93,22.088 L175.77,22.719 C173.922,25.659 171.317,27.675 167.158,27.675 C161.025,27.675 157.244,24.02 157.244,17.845" id="Fill-18" fill="#1D4A72"></path>
                <path d="M177.0684,26.2471 C179.4634,26.2051 179.9664,25.8271 179.9664,24.7341 L179.9664,11.2921 C179.9664,10.0321 179.4634,9.2761 177.0684,9.2341 L177.0684,8.1841 L185.4704,7.8061 L185.4704,11.5021 C187.4444,9.2761 190.0904,7.6791 192.8214,7.6791 C196.3084,7.6791 197.9464,9.8221 197.9464,13.7701 L197.9464,24.7341 C197.9464,25.8271 198.4084,26.2051 200.8444,26.2471 L200.8444,27.2971 L190.0484,27.2971 L190.0484,26.2471 C191.7294,26.2051 192.3594,25.8271 192.3594,24.7341 L192.3594,14.5261 C192.3594,11.9641 191.5194,10.7041 189.4194,10.7041 C187.9064,10.7041 186.6884,11.5021 185.5544,12.6781 L185.5544,24.7341 C185.5544,25.8271 186.1844,26.2051 187.8224,26.2471 L187.8224,27.2971 L177.0684,27.2971 L177.0684,26.2471 Z" id="Fill-20" fill="#8A8B93"></path>
                <path d="M206.9746,15.997 L213.8636,15.955 C214.3256,11.754 213.2756,8.771 210.6706,8.771 C208.4026,8.771 207.1846,11.334 206.9746,15.997 M201.0506,17.845 C201.0506,11.46 205.2516,7.469 210.9646,7.469 C216.8876,7.469 219.8706,11.712 219.5766,17.215 L206.9326,17.215 L206.9326,17.677 L206.9326,17.719 C206.9326,22.508 208.9906,25.533 213.0236,25.533 C215.3756,25.533 217.1396,24.272 218.7366,22.088 L219.5766,22.719 C217.7286,25.659 215.1236,27.675 210.9646,27.675 C204.8316,27.675 201.0506,24.02 201.0506,17.845" id="Fill-22" fill="#8A8B93"></path>
                <path d="M234.6553,11.5859 C233.9403,9.6119 233.3103,9.1069 231.6733,8.8979 L231.6733,7.8899 L242.1333,7.8899 L242.1333,8.8979 C240.4523,9.0649 239.7803,9.3599 239.7803,10.1999 C239.7803,10.4519 239.8643,10.7459 239.9483,11.1239 L243.5183,22.0459 L243.7283,22.0459 L246.7533,13.1399 C247.0893,12.1319 247.2153,11.3759 247.2153,10.9559 C247.2153,9.7379 246.4173,9.1919 244.5263,8.8979 L244.5263,7.8899 L252.5923,7.8899 L252.5923,8.8979 C250.7023,9.1489 249.5253,10.1579 248.8533,12.1319 L243.4763,27.5489 L240.1163,27.5489 L236.1673,16.0809 L231.5893,27.5489 L228.2693,27.5489 L222.2203,11.5859 C221.5073,9.7379 220.8773,9.1919 218.9443,8.8979 L218.9443,7.8899 L229.6143,7.8899 L229.6143,8.8979 C228.1433,9.0229 227.5133,9.3599 227.5133,10.1159 C227.5133,10.3679 227.6393,10.7459 227.7653,11.1239 L231.7993,22.1719 L232.0093,22.1719 L235.4113,13.8129 L234.6553,11.5859 Z" id="Fill-24" fill="#8A8B93"></path>
                <path d="M252.292,20.6596 L253.468,20.6596 C255.736,24.4406 258.047,26.2886 260.609,26.2886 C262.752,26.2886 263.844,25.1546 263.844,23.6006 C263.844,21.7516 262.541,20.9116 258.509,19.7356 C254.098,18.4746 252.334,17.0886 252.334,14.0226 C252.334,10.1156 255.442,7.5536 260.063,7.5536 C261.869,7.5536 263.676,8.1416 264.81,8.8556 L265.86,7.5536 L266.952,7.5536 L266.952,13.7706 L265.776,13.7706 C263.676,10.5776 262.037,8.8556 259.727,8.8556 C257.963,8.8556 256.702,9.9476 256.702,11.6696 C256.702,13.3926 258.383,14.1066 261.281,14.8206 C265.734,15.9546 268.087,17.5096 268.087,20.9536 C268.087,24.7346 264.978,27.6326 260.231,27.6326 C258.677,27.6326 255.82,26.9186 254.687,26.2046 L253.426,27.6326 L252.292,27.6326 L252.292,20.6596 Z" id="Fill-26" fill="#8A8B93"></path>
                <path d="M269.3428,26.2471 C271.7378,26.2051 272.2408,25.8271 272.2408,24.7341 L272.2408,11.2921 C272.2408,10.0321 271.7378,9.2761 269.3428,9.2341 L269.3428,8.1841 L277.7448,7.8061 L277.7448,11.5441 C279.1728,9.2761 281.2318,7.6371 283.4998,7.6371 C285.9788,7.6371 287.2388,9.1921 287.2388,11.1241 C287.2388,13.0561 286.0208,14.4421 284.2558,14.4421 C282.3648,14.4421 281.1478,13.2251 281.1478,11.6281 C281.1478,11.2501 281.2318,10.7461 281.3578,10.3681 C280.0548,10.4521 278.7528,11.5021 277.8288,12.8041 L277.8288,24.7341 C277.8288,25.8271 278.5428,26.1631 281.6098,26.2471 L281.6098,27.2971 L269.3428,27.2971 L269.3428,26.2471 Z" id="Fill-28" fill="#8A8B93"></path>
                <path d="M302.0215,17.5512 C302.0215,11.6282 300.6765,8.7712 297.6945,8.7712 C294.7115,8.7712 293.7045,11.6282 293.7045,17.5512 C293.7045,23.4742 295.0475,26.3732 298.0725,26.3732 C300.9705,26.3732 302.0215,23.4742 302.0215,17.5512 M287.7385,17.6352 C287.7385,11.4602 291.7715,7.4692 297.9045,7.4692 C304.1645,7.4692 308.0285,11.2922 308.0285,17.4672 C308.0285,23.6842 303.9545,27.6752 297.9045,27.6752 C291.5195,27.6752 287.7385,23.8522 287.7385,17.6352" id="Fill-30" fill="#8A8B93"></path>
                <path d="M323.8613,17.5512 C323.8613,11.6282 322.5163,8.7712 319.5343,8.7712 C316.5513,8.7712 315.5443,11.6282 315.5443,17.5512 C315.5443,23.4742 316.8873,26.3732 319.9123,26.3732 C322.8103,26.3732 323.8613,23.4742 323.8613,17.5512 M309.5783,17.6352 C309.5783,11.4602 313.6113,7.4692 319.7443,7.4692 C326.0043,7.4692 329.8683,11.2922 329.8683,17.4672 C329.8683,23.6842 325.7943,27.6752 319.7443,27.6752 C313.3593,27.6752 309.5783,23.8522 309.5783,17.6352" id="Fill-32" fill="#8A8B93"></path>
                <path d="M343.6846,26.2471 C345.3656,26.2051 345.7856,25.8271 345.7856,24.7341 L345.7856,14.5261 C345.7856,12.0061 344.8616,10.7041 342.7186,10.7041 C341.2476,10.7041 340.3666,11.5021 339.2326,12.6781 L339.2326,24.7341 C339.2326,25.8271 339.6106,26.2051 341.2476,26.2471 L341.2476,27.2971 L330.7466,27.2971 L330.7466,26.2471 C333.1406,26.2051 333.6446,25.8271 333.6446,24.7341 L333.6446,11.2921 C333.6446,10.0321 333.1406,9.2761 330.7466,9.2341 L330.7466,8.1841 L339.1486,7.8061 L339.1486,11.5021 C341.1216,9.2761 343.4326,7.6791 346.1636,7.6791 C348.9776,7.6791 350.6586,9.1071 351.1626,11.7121 C353.0526,9.4441 355.6576,7.6791 358.3036,7.6791 C361.8316,7.6791 363.5126,9.8221 363.5126,13.7701 L363.5126,24.7341 C363.5126,25.8271 363.9746,26.2051 366.3696,26.2471 L366.3696,27.2971 L355.8676,27.2971 L355.8676,26.2471 C357.5046,26.2051 357.9256,25.8271 357.9256,24.7341 L357.9256,14.5261 C357.9256,12.0061 357.1266,10.7041 355.0266,10.7041 C353.9346,10.7041 352.5056,11.5441 351.2886,12.8881 C351.3306,13.2671 351.3716,13.4761 351.3716,13.7281 L351.3716,24.7341 C351.3716,25.8271 351.7916,26.2051 353.5146,26.2471 L353.5146,27.2971 L343.6846,27.2971 L343.6846,26.2471 Z" id="Fill-34" fill="#8A8B93"></path>
                <path d="M367.79,25.1543 C367.79,23.5583 369.092,22.2983 370.73,22.2983 C372.326,22.2983 373.629,23.5583 373.629,25.1123 C373.629,26.7093 372.326,27.9683 370.73,27.9683 C369.092,27.9683 367.79,26.7093 367.79,25.1543" id="Fill-36" fill="#8A8B93"></path>
            </g>
        </g>
    </g>
</svg>