<svg id="Layer_1" data-name="Layer 1" xmlns="http://www.w3.org/2000/svg" xmlns:xlink="http://www.w3.org/1999/xlink" viewBox="0 0 616.4 103.87"><defs><style>.cls-1{fill:none;}.cls-2{clip-path:url(#clip-path);}.cls-3{fill:#e22f22;}.cls-4{fill:#231f20;}</style><clipPath id="clip-path" transform="translate(-135.16 -228.46)"><rect class="cls-1" x="-3.54" y="215.99" width="755.1" height="123.02"/></clipPath></defs><title>newsroom_engineroom_wordmark</title><g class="cls-2"><path class="cls-3" d="M135.16,282.69c0-17.63,11.6-28.65,27.38-28.65,16.36,0,24.59,11.72,23.78,26.91H151.4v1.39c0,13.22,5.68,21.57,16.82,21.57,6.5,0,11.37-3.48,15.78-9.51l2.32,1.74c-5.1,8.12-12.3,13.69-23.78,13.69C145.6,309.83,135.16,299.74,135.16,282.69Zm16.36-5.1,19-.12c1.28-11.6-1.62-19.84-8.82-19.84C155.46,257.63,152.1,264.71,151.52,277.58Z" transform="translate(-135.16 -228.46)"/><path class="cls-3" d="M187.48,305.89c6.61-.12,8-1.16,8-4.18V264.59c0-3.48-1.39-5.57-8-5.68V256l23.2-1v10.21c5.45-6.15,12.76-10.56,20.3-10.56,9.63,0,14.15,5.92,14.15,16.82v30.27c0,3,1.28,4.06,8,4.18v2.9H223.32v-2.9c4.64-.12,6.38-1.16,6.38-4.18V273.52c0-7.08-2.32-10.56-8.12-10.56-4.18,0-7.54,2.2-10.67,5.45v33.29c0,3,1.74,4.06,6.26,4.18v2.9h-29.7Z" transform="translate(-135.16 -228.46)"/><path class="cls-3" d="M290.37,256.36c2.67-5.68,6.5-10.44,12.64-10.44,4.64,0,7.19,2.78,7.19,6.38a5.51,5.51,0,0,1-5.68,5.8c-2.78,0-5.57-2.2-5.57-6.26-2.32.81-4.52,3.13-5.8,5.68,5.8,2.9,9.74,7.77,9.74,14.73,0,11.25-10.09,18.21-23.32,18.21a44.21,44.21,0,0,1-6.84-.58c-4.52,1.51-6.61,3-6.61,5.22s2.32,3.83,11.6,3.83h8.47c14.62,0,21.34,4.52,21.34,14.27,0,10.09-11.37,19.14-29.93,19.14-14.38,0-24.48-4.87-24.48-11.72,0-5,4.18-8.82,13.34-10.21v-.35c-7.19-2.32-9.74-6.15-9.74-10.56,0-4.18,3.83-8.24,11.37-10.9-7.08-2.67-11.83-7.89-11.83-15.89,0-11.14,10.09-18.1,23.32-18.1A32.37,32.37,0,0,1,290.37,256.36Zm7,61.94c0-4.29-3.13-6.73-15.54-6.73H269.61c-4.18,1.62-6.5,3.94-6.5,7.66,0,5.92,5.92,9.74,17.52,9.74C290.6,329,297.33,324.79,297.33,318.3Zm-9.4-45.82c0-9.16-2.67-14.62-8.93-14.62-5.92,0-7.77,4.29-7.77,14.62S274,287.1,280,287.1,287.94,282.69,287.94,272.48Z" transform="translate(-135.16 -228.46)"/><path class="cls-3" d="M346.28,305.89c6.61-.12,8-1.16,8-4.18V264.59c0-3.48-1.39-5.57-8-5.68V256l23.2-1v10.21c5.45-6.15,12.76-10.56,20.3-10.56,9.63,0,14.15,5.92,14.15,16.82v30.27c0,3,1.28,4.06,8,4.18v2.9H382.12v-2.9c4.64-.12,6.38-1.16,6.38-4.18V273.52c0-7.08-2.32-10.56-8.12-10.56-4.18,0-7.54,2.2-10.67,5.45v33.29c0,3,1.74,4.06,6.26,4.18v2.9h-29.7Z" transform="translate(-135.16 -228.46)"/><path class="cls-3" d="M411.47,282.69c0-17.63,11.6-28.65,27.38-28.65,16.36,0,24.59,11.72,23.78,26.91H427.71v1.39c0,13.22,5.68,21.57,16.82,21.57,6.5,0,11.37-3.48,15.78-9.51l2.32,1.74c-5.1,8.12-12.3,13.69-23.78,13.69C421.91,309.83,411.47,299.74,411.47,282.69Zm16.35-5.1,19-.12c1.28-11.6-1.62-19.84-8.82-19.84C431.77,257.63,428.41,264.71,427.83,277.58Z" transform="translate(-135.16 -228.46)"/><path class="cls-4" d="M669.71,305.81c4.62-.11,5.78-1.16,5.78-4.16V273.57c0-6.94-2.54-10.52-8.44-10.52-4,0-6.47,2.2-9.59,5.43v33.17c0,3,1,4,5.55,4.16v2.89h-28.9v-2.89c6.59-.11,8-1.16,8-4.16v-37c0-3.47-1.39-5.55-8-5.66v-2.89l23.12-1v10.17c5.43-6.13,11.79-10.52,19.3-10.52,7.74,0,12.37,3.93,13.76,11.1,5.2-6.24,12.37-11.1,19.65-11.1,9.71,0,14.33,5.9,14.33,16.76v30.17c0,3,1.27,4,7.86,4.16v2.89h-28.9v-2.89c4.51-.11,5.66-1.16,5.66-4.16V273.57c0-6.94-2.2-10.52-8-10.52-3,0-6.94,2.31-10.29,6a22,22,0,0,1,.23,2.31v30.28c0,3,1.16,4,5.9,4.16v2.89h-27Z" transform="translate(-135.16 -228.46)"/><path class="cls-4" d="M751.56,301.67a6.73,6.73,0,0,1-3,5.82,7.58,7.58,0,0,1-8.69.4,7.06,7.06,0,0,1-2.17-10.31,8,8,0,0,1,11-1.67,6.8,6.8,0,0,1,2.92,5.76" transform="translate(-135.16 -228.46)"/><path class="cls-4" d="M545.56,306.11c-8.32,0-12-8-12-24.27s2.77-24.16,11-24.16,11.91,7.86,11.91,24.16-2.89,24.27-10.87,24.27m-.46-52c-16.88,0-28,11-28,28s10.4,27.63,28,27.63c16.64,0,27.86-11,27.86-28.09S562.32,254.1,545.1,254.1" transform="translate(-135.16 -228.46)"/><path class="cls-4" d="M606.71,306.11c-8.32,0-12-8-12-24.27s2.77-24.16,11-24.16,11.91,7.86,11.91,24.16-2.89,24.27-10.87,24.27m-.46-52c-16.88,0-28,11-28,28s10.4,27.63,28,27.63c16.64,0,27.86-11,27.86-28.09s-10.63-27.51-27.86-27.51" transform="translate(-135.16 -228.46)"/><path class="cls-4" d="M506.19,254.57c-6.24,0-11.9,4.51-15.83,10.74V255l-23.1,1V259c6.58.11,8,2.19,8,5.66v37c0,3-1.39,4-8,4.16v2.89H501v-2.89c-8.43-.23-10.4-1.16-10.4-4.16V268.78c2.16-3,5.06-5.57,8.08-6.41a9.51,9.51,0,0,0-.11,1.36,8.67,8.67,0,1,0,17.32,0c0-4.35-2.87-9.16-9.7-9.16" transform="translate(-135.16 -228.46)"/><path class="cls-3" d="M317.31,237.46a9.06,9.06,0,0,1,9.05-9,8.9,8.9,0,0,1,8.95,9,9.06,9.06,0,0,1-9.06,9,8.9,8.9,0,0,1-8.94-9" transform="translate(-135.16 -228.46)"/><path class="cls-3" d="M334,301.71V255.29h-15.4v46.42c0,3-1.74,4.05-8.34,4.17v2.89H342v-2.89c-6.71-.12-8-1.16-8-4.17" transform="translate(-135.16 -228.46)"/></g></svg>