<?xml version="1.0" encoding="UTF-8"?>
<svg width="10px" height="20px" viewBox="0 0 10 20" version="1.1" xmlns="http://www.w3.org/2000/svg" xmlns:xlink="http://www.w3.org/1999/xlink">
    <!-- Generator: sketchtool 42 (36781) - http://www.bohemiancoding.com/sketch -->
    <title>FA48E8F2-66E2-4890-88DA-D92845A158D3</title>
    <desc>Created with sketchtool.</desc>
    <defs></defs>
    <g id="Symbols" stroke="none" stroke-width="1" fill="none" fill-rule="evenodd">
        <g id="Card-Style-5---Facebook-without-image" transform="translate(-28.000000, -138.000000)" fill="#FFFFFF">
            <path d="M34.2027782,144.550906 L34.2027782,142.831442 C34.2027782,142.570557 34.2171777,142.367271 34.2459766,142.222429 C34.2756226,142.077588 34.3332204,141.939522 34.4204642,141.80908 C34.5077079,141.677791 34.6449263,141.583771 34.8338133,141.526173 C35.0227003,141.467728 35.2759614,141.438929 35.5952905,141.438929 L37.3147552,141.438929 L37.3147552,138 L34.5509063,138 C32.9551076,138 31.8090801,138.377774 31.112824,139.131628 C30.4157208,139.886329 30.0675927,141.003558 30.0675927,142.483314 L30.0675927,144.550906 L28,144.550906 L28,147.989836 L30.0675927,147.989836 L30.0675927,158 L34.2027782,158 L34.2027782,147.989836 L36.9666271,147.989836 L37.3367779,144.550906 L34.2248009,144.550906 L34.2027782,144.550906 Z" id="Fill-1-Copy-2"></path>
        </g>
    </g>
</svg>