<?xml version="1.0" encoding="UTF-8"?>
<svg width="276px" height="39px" viewBox="0 0 276 39" version="1.1" xmlns="http://www.w3.org/2000/svg" xmlns:xlink="http://www.w3.org/1999/xlink">
    <!-- Generator: sketchtool 42 (36781) - http://www.bohemiancoding.com/sketch -->
    <title>2FEB86FA-089F-4BDD-BB48-E4F1C9C4CEDB</title>
    <desc>Created with sketchtool.</desc>
    <defs>
        <polygon id="path-1" points="21.3458 32 0.6778 32 0.6778 0.7042 21.3458 0.7042 21.3458 32"></polygon>
        <polygon id="path-3" points="6.434 0.4741 6.434 6.1441 0.5952 6.1441 0.5952 0.4741 6.434 0.4741"></polygon>
    </defs>
    <g id="Desktop" stroke="none" stroke-width="1" fill="none" fill-rule="evenodd">
        <g id="Desktop---Homepage" transform="translate(-379.000000, -3394.000000)">
            <g id="Page-1" transform="translate(379.000000, 3394.500000)">
                <path d="M0.7144,28.9014 C3.1514,28.8594 3.6124,28.4814 3.6124,27.3884 L3.6124,12.6864 L0.0004,12.6864 L0.0004,11.4674 L3.6124,10.6704 L3.6124,9.3674 C3.6124,6.0904 4.3694,3.7384 5.8814,2.1844 C7.3514,0.6724 9.4944,0.0004 12.2664,0.0004 C16.4674,0.0004 18.4414,1.6804 18.4414,3.7804 C18.4414,5.5034 17.4754,6.7214 15.6274,6.7214 C13.9884,6.7214 12.6864,5.7974 12.6864,3.6544 C12.6864,3.0244 13.0224,2.0164 13.3164,1.5544 C12.9384,1.3444 12.4764,1.2184 12.0144,1.2184 C11.3424,1.2184 10.8384,1.3864 10.3344,1.8904 C9.6204,2.6044 9.1994,4.1164 9.1994,7.2254 L9.1994,10.7544 L14.4504,10.7544 L14.4504,12.6024 L9.1994,12.6024 L9.1994,27.3884 C9.1994,28.4814 9.9564,28.7754 13.1904,28.9014 L13.1904,29.9514 L0.7144,29.9514 L0.7144,28.9014 Z" id="Fill-1" fill="#919191"></path>
                <path d="M18.439,24.1123 L18.439,13.6523 C18.439,12.3923 17.935,11.7193 15.498,11.6353 L15.498,10.6283 L24.026,10.4173 L24.026,23.2723 C24.026,25.8353 24.992,27.1783 27.134,27.1783 C28.647,27.1783 29.655,26.5073 30.747,25.3313 L30.747,13.6523 C30.747,12.3923 30.117,11.7613 27.807,11.6773 L27.807,10.6283 L36.334,10.4173 L36.334,27.3043 C36.334,28.4813 36.88,28.8173 39.232,28.9013 L39.232,29.9513 L30.831,29.9513 L30.831,26.5073 C28.982,28.8593 26.756,30.2873 24.068,30.2873 C20.581,30.2873 18.439,28.1453 18.439,24.1123" id="Fill-3" fill="#919191"></path>
                <path d="M42.126,24.4482 L42.126,12.6022 L38.429,12.6022 L38.429,11.3842 L42.21,10.5862 L42.21,5.3352 L47.713,3.6542 L47.713,10.6702 L53.804,10.6702 L53.804,12.5182 L47.713,12.5182 L47.713,24.5742 C47.713,26.8012 48.427,27.8502 50.107,27.8502 C51.368,27.8502 52.418,26.9692 53.342,25.2042 L54.266,25.7512 C52.922,28.7752 50.99,30.2872 47.881,30.2872 C44.563,30.2872 42.126,28.6912 42.126,24.4482" id="Fill-5" fill="#919191"></path>
                <path d="M57.5815,24.1123 L57.5815,13.6523 C57.5815,12.3923 57.0775,11.7193 54.6405,11.6353 L54.6405,10.6283 L63.1685,10.4173 L63.1685,23.2723 C63.1685,25.8353 64.1345,27.1783 66.2765,27.1783 C67.7895,27.1783 68.7975,26.5073 69.8895,25.3313 L69.8895,13.6523 C69.8895,12.3923 69.2595,11.7613 66.9495,11.6773 L66.9495,10.6283 L75.4765,10.4173 L75.4765,27.3043 C75.4765,28.4813 76.0225,28.8173 78.3745,28.9013 L78.3745,29.9513 L69.9735,29.9513 L69.9735,26.5073 C68.1245,28.8593 65.8985,30.2873 63.2105,30.2873 C59.7235,30.2873 57.5815,28.1453 57.5815,24.1123" id="Fill-7" fill="#919191"></path>
                <path d="M79.4209,28.9014 C81.8159,28.8594 82.3189,28.4814 82.3189,27.3884 L82.3189,13.9464 C82.3189,12.6864 81.8159,11.9304 79.4209,11.8884 L79.4209,10.8384 L87.8219,10.4604 L87.8219,14.1984 C89.2509,11.9304 91.3089,10.2914 93.5769,10.2914 C96.0559,10.2914 97.3169,11.8464 97.3169,13.7784 C97.3169,15.7104 96.0979,17.0964 94.3329,17.0964 C92.4429,17.0964 91.2249,15.8794 91.2249,14.2824 C91.2249,13.9044 91.3089,13.4004 91.4349,13.0224 C90.1329,13.1064 88.8309,14.1564 87.9059,15.4584 L87.9059,27.3884 C87.9059,28.4814 88.6209,28.8174 91.6869,28.9014 L91.6869,29.9514 L79.4209,29.9514 L79.4209,28.9014 Z" id="Fill-9" fill="#919191"></path>
                <path d="M103.4033,18.6514 L110.2923,18.6094 C110.7543,14.4084 109.7043,11.4254 107.0993,11.4254 C104.8313,11.4254 103.6133,13.9884 103.4033,18.6514 M97.4793,20.4994 C97.4793,14.1144 101.6803,10.1234 107.3933,10.1234 C113.3163,10.1234 116.2993,14.3664 116.0053,19.8694 L103.3613,19.8694 L103.3613,20.3314 L103.3613,20.3734 C103.3613,25.1624 105.4193,28.1874 109.4523,28.1874 C111.8043,28.1874 113.5683,26.9264 115.1653,24.7424 L116.0053,25.3734 C114.1573,28.3134 111.5523,30.3294 107.3933,30.3294 C101.2603,30.3294 97.4793,26.6744 97.4793,20.4994" id="Fill-11" fill="#919191"></path>
                <path d="M116.6318,28.9014 C119.0268,28.8594 119.5298,28.4814 119.5298,27.3884 L119.5298,3.7804 C119.5298,2.4784 119.0268,1.7644 116.4218,1.7224 L116.4218,0.6724 L125.1168,0.2524 L125.1168,27.3884 C125.1168,28.4814 125.5798,28.8594 128.0168,28.9014 L128.0168,29.9514 L116.6318,29.9514 L116.6318,28.9014 Z" id="Fill-13" fill="#6C6C6C"></path>
                <path d="M134.4834,18.6514 L141.3714,18.6094 C141.8334,14.4084 140.7844,11.4254 138.1794,11.4254 C135.9114,11.4254 134.6934,13.9884 134.4834,18.6514 M128.5594,20.4994 C128.5594,14.1144 132.7604,10.1234 138.4734,10.1234 C144.3964,10.1234 147.3784,14.3664 147.0844,19.8694 L134.4414,19.8694 L134.4414,20.3314 L134.4414,20.3734 C134.4414,25.1624 136.4994,28.1874 140.5324,28.1874 C142.8844,28.1874 144.6484,26.9264 146.2444,24.7424 L147.0844,25.3734 C145.2364,28.3134 142.6324,30.3294 138.4734,30.3294 C132.3404,30.3294 128.5594,26.6744 128.5594,20.4994" id="Fill-15" fill="#6C6C6C"></path>
                <path d="M160.5659,25.8349 L160.5659,19.9539 C155.9449,20.6679 154.6429,21.6759 154.6429,24.4059 C154.6429,26.3389 155.6509,27.6409 157.4999,27.6409 C158.7589,27.6409 159.8939,26.8009 160.5659,25.8349 M148.7199,25.2889 C148.7199,23.6499 149.6019,21.8439 151.3669,20.8769 C154.3909,19.2389 159.1789,19.2389 160.5659,18.7349 L160.5659,15.9209 C160.5659,12.7699 159.5579,11.5939 157.3319,11.5939 C156.3229,11.5939 155.3989,11.8879 154.8109,12.3499 C155.3149,12.9799 155.6509,13.6939 155.6509,14.5769 C155.6509,16.2989 154.5589,17.4749 152.6269,17.4749 C150.8199,17.4749 149.6859,16.2569 149.6859,14.6189 C149.6859,12.0979 152.7529,10.3339 158.4649,10.3339 C163.6319,10.3339 166.1109,12.4759 166.1109,17.1389 L166.1109,25.9189 C166.1109,27.9779 166.6989,28.4809 169.0929,27.7669 L169.4289,28.6069 C167.8759,29.6149 166.5309,30.2029 164.8509,30.2029 C162.2049,30.2029 161.3639,29.2369 160.8599,27.1789 L160.6919,27.1789 C159.0949,28.9009 157.0379,30.2449 154.4329,30.2449 C150.4419,30.2449 148.7199,27.7249 148.7199,25.2889" id="Fill-17" fill="#6C6C6C"></path>
                <path d="M169.9292,28.9014 C172.3242,28.8594 172.8272,28.4814 172.8272,27.3884 L172.8272,13.9464 C172.8272,12.6864 172.3242,11.9304 169.9292,11.8884 L169.9292,10.8384 L178.3312,10.4604 L178.3312,14.1984 C179.7592,11.9304 181.8182,10.2914 184.0862,10.2914 C186.5652,10.2914 187.8252,11.8464 187.8252,13.7784 C187.8252,15.7104 186.6072,17.0964 184.8422,17.0964 C182.9512,17.0964 181.7342,15.8794 181.7342,14.2824 C181.7342,13.9044 181.8182,13.4004 181.9442,13.0224 C180.6412,13.1064 179.3392,14.1564 178.4152,15.4584 L178.4152,27.3884 C178.4152,28.4814 179.1292,28.8174 182.1962,28.9014 L182.1962,29.9514 L169.9292,29.9514 L169.9292,28.9014 Z" id="Fill-19" fill="#6C6C6C"></path>
                <path d="M188.0298,28.9014 C190.4248,28.8594 190.9278,28.4814 190.9278,27.3884 L190.9278,13.9464 C190.9278,12.6864 190.4248,11.9304 188.0298,11.8884 L188.0298,10.8384 L196.4318,10.4604 L196.4318,14.1564 C198.4058,11.9304 201.0518,10.3334 203.7828,10.3334 C207.2698,10.3334 208.9078,12.4764 208.9078,16.4244 L208.9078,27.3884 C208.9078,28.4814 209.3698,28.8594 211.8058,28.9014 L211.8058,29.9514 L201.0098,29.9514 L201.0098,28.9014 C202.6908,28.8594 203.3208,28.4814 203.3208,27.3884 L203.3208,17.1804 C203.3208,14.6184 202.4808,13.3584 200.3808,13.3584 C198.8678,13.3584 197.6498,14.1564 196.5158,15.3324 L196.5158,27.3884 C196.5158,28.4814 197.1458,28.8594 198.7838,28.9014 L198.7838,29.9514 L188.0298,29.9514 L188.0298,28.9014 Z" id="Fill-21" fill="#6C6C6C"></path>
                <path d="M214.9946,3.8647 C214.9946,1.8057 216.3396,0.4617 218.3136,0.4617 C220.3296,0.4617 221.6326,1.7217 221.6326,3.7387 C221.6326,5.7967 220.3296,7.1407 218.3136,7.1407 C216.3396,7.1407 214.9946,5.9227 214.9946,3.8647 L214.9946,3.8647 Z M212.5996,28.9017 C214.9946,28.8597 215.6256,28.4817 215.6256,27.3887 L215.6256,13.9467 C215.6256,12.6857 214.9946,11.9297 212.5996,11.8877 L212.5996,10.8377 L221.2126,10.4597 L221.2126,27.3887 C221.2126,28.4817 221.6746,28.8597 224.1106,28.9017 L224.1106,29.9507 L212.5996,29.9507 L212.5996,28.9017 Z" id="Fill-23" fill="#6C6C6C"></path>
                <path d="M225.3257,28.9014 C227.7207,28.8594 228.2237,28.4814 228.2237,27.3884 L228.2237,13.9464 C228.2237,12.6864 227.7207,11.9304 225.3257,11.8884 L225.3257,10.8384 L233.7277,10.4604 L233.7277,14.1564 C235.7017,11.9304 238.3477,10.3334 241.0787,10.3334 C244.5657,10.3334 246.2037,12.4764 246.2037,16.4244 L246.2037,27.3884 C246.2037,28.4814 246.6657,28.8594 249.1017,28.9014 L249.1017,29.9514 L238.3057,29.9514 L238.3057,28.9014 C239.9867,28.8594 240.6167,28.4814 240.6167,27.3884 L240.6167,17.1804 C240.6167,14.6184 239.7767,13.3584 237.6767,13.3584 C236.1637,13.3584 234.9457,14.1564 233.8117,15.3324 L233.8117,27.3884 C233.8117,28.4814 234.4417,28.8594 236.0797,28.9014 L236.0797,29.9514 L225.3257,29.9514 L225.3257,28.9014 Z" id="Fill-25" fill="#6C6C6C"></path>
                <g id="Group-29" transform="translate(248.000000, 6.478500)">
                    <mask id="mask-2" fill="white">
                        <use xlink:href="#path-1"></use>
                    </mask>
                    <g id="Clip-28"></g>
                    <path d="M13.2808,10.3242 C13.2808,7.0062 12.3148,5.0312 10.0468,5.0312 C7.9038,5.0312 7.2318,6.5852 7.2318,10.3242 C7.2318,14.0212 8.2398,15.6172 10.4248,15.6172 C12.5668,15.6172 13.2808,14.0212 13.2808,10.3242 M16.6828,26.9182 C16.6828,25.3632 15.5498,24.4812 11.0538,24.4812 L6.6428,24.4812 C5.1318,25.0692 4.2918,25.9092 4.2918,27.2542 C4.2918,29.3952 6.4328,30.7822 10.6348,30.7822 C14.2468,30.7822 16.6828,29.2692 16.6828,26.9182 M14.1628,4.4852 C15.1298,2.4272 16.5148,0.7042 18.7418,0.7042 C20.4228,0.7042 21.3458,1.7132 21.3458,3.0152 C21.3458,4.1492 20.5908,5.1152 19.2878,5.1152 C18.2798,5.1152 17.2708,4.3172 17.2708,2.8472 C16.4308,3.1412 15.6338,3.9812 15.1718,4.9052 C17.2708,5.9552 18.6998,7.7202 18.6998,10.2402 C18.6998,14.3152 15.0458,16.8352 10.2568,16.8352 C9.4168,16.8352 8.5758,16.7512 7.7778,16.6252 C6.1388,17.1712 5.3838,17.7182 5.3838,18.5152 C5.3838,19.3562 6.2228,19.9022 9.5848,19.9022 L12.6508,19.9022 C17.9438,19.9022 20.3808,21.5412 20.3808,25.0692 C20.3808,28.7232 16.2628,32.0002 9.5428,32.0002 C4.3338,32.0002 0.6778,30.2362 0.6778,27.7582 C0.6778,25.9512 2.1908,24.5652 5.5098,24.0602 L5.5098,23.9342 C2.9048,23.0952 1.9808,21.7092 1.9808,20.1122 C1.9808,18.5992 3.3668,17.1292 6.0968,16.1632 C3.5348,15.1972 1.8128,13.3062 1.8128,10.4082 C1.8128,6.3752 5.4678,3.8552 10.2568,3.8552 C11.6418,3.8552 12.9868,4.0652 14.1628,4.4852" id="Fill-27" fill="#6C6C6C" mask="url(#mask-2)"></path>
                </g>
                <g id="Group-32" transform="translate(269.000000, 24.478500)">
                    <mask id="mask-4" fill="white">
                        <use xlink:href="#path-3"></use>
                    </mask>
                    <g id="Clip-31"></g>
                    <path d="M0.5952,3.3301 C0.5952,1.7341 1.8972,0.4741 3.5352,0.4741 C5.1312,0.4741 6.4342,1.7341 6.4342,3.2881 C6.4342,4.8851 5.1312,6.1441 3.5352,6.1441 C1.8972,6.1441 0.5952,4.8851 0.5952,3.3301" id="Fill-30" fill="#6C6C6C" mask="url(#mask-4)"></path>
                </g>
            </g>
        </g>
    </g>
</svg>