<?xml version="1.0" encoding="UTF-8"?>
<svg width="71px" height="63px" viewBox="0 0 71 63" version="1.1" xmlns="http://www.w3.org/2000/svg" xmlns:xlink="http://www.w3.org/1999/xlink">
    <!-- Generator: sketchtool 42 (36781) - http://www.bohemiancoding.com/sketch -->
    <title>B0B44BD3-F6CE-453C-8F79-0C7849F5FA0B</title>
    <desc>Created with sketchtool.</desc>
    <defs>
        <polygon id="path-1" points="0.0101169133 0.0527752809 46.8494604 0.0527752809 46.8494604 47.1092764 0.0101169133 47.1092764 0.0101169133 0.0527752809"></polygon>
        <polygon id="path-3" points="0 8.46868946 0 0.0230945833 10.4071587 0.0230945833 10.4071587 8.46868946 7.49518924e-16 8.46868946"></polygon>
    </defs>
    <g id="Desktop" stroke="none" stroke-width="1" fill="none" fill-rule="evenodd" opacity="0.35">
        <g id="Desktop---Homepage-Copy-2" transform="translate(-997.000000, -7724.000000)">
            <g id="Group-19" transform="translate(997.000000, 7724.000000)">
                <g id="Group-3" transform="translate(12.000902, 0.025876)">
                    <mask id="mask-2" fill="white">
                        <use xlink:href="#path-1"></use>
                    </mask>
                    <g id="Clip-2"></g>
                    <path d="M45.8005028,23.6593315 C45.7675152,23.1393652 45.7490485,22.6179831 45.6981466,22.0997472 C45.6206494,21.311264 45.5665118,20.5164888 45.4209087,19.7396461 C45.1087103,18.0740393 44.614212,16.4625449 43.9427012,14.8982416 C43.0922841,12.9173202 41.9772559,11.1006236 40.6285524,9.43132022 C39.9747193,8.62207303 39.2396009,7.86819663 38.4749673,7.16056742 C37.7588681,6.49776966 36.9786877,5.89647753 36.1846178,5.32625281 C34.8201308,4.34641011 33.3293754,3.58985955 31.783062,2.92816292 C29.4191612,1.91654494 26.9572446,1.31320787 24.3972334,1.17533146 C22.9760834,1.09880337 21.5506719,1.15519663 20.1257339,1.34427528 C17.8596911,1.64496067 15.7095784,2.2923427 13.6522728,3.25873596 C10.7362638,4.62845506 8.3093867,6.62479213 6.24292672,9.0755 C4.46278016,11.1866685 3.15045772,13.5651742 2.24329876,16.1581629 C1.4868726,18.3200618 1.07831567,20.5654101 1.04816911,22.8531517 C1.03033371,24.2037584 1.1136708,25.5685225 1.3018106,26.9059157 C1.59443743,28.9868034 2.20597069,30.9883315 3.08921759,32.9087697 C4.15752649,35.2318258 5.56786471,37.3178258 7.3450124,39.1504888 C8.05361443,39.8810843 8.82219391,40.5590618 9.60387373,41.2129719 C10.8609538,42.2647022 12.2375941,43.1529157 13.7244036,43.8417472 C14.7405479,44.3125562 15.7970981,44.7080169 16.8598828,45.0651742 C18.7244713,45.6918708 20.6572446,46.0366011 22.6191387,46.0922865 C23.8956325,46.1284663 25.1837272,46.0346348 26.4556437,45.8980169 C29.4103224,45.5805787 32.1487666,44.568882 34.7071206,43.0950281 C37.3402886,41.5779944 39.5614273,39.5829157 41.3641443,37.1322079 C42.8706043,35.0841966 44.0142796,32.8508034 44.7679436,30.4288034 C45.4524758,28.2286011 45.7986088,25.9703539 45.8005028,23.6593315 M23.048451,0.150421348 C24.7311342,0.0933202247 26.3850124,0.30261236 28.0267373,0.654893258 C29.695531,1.01299438 31.2987441,1.55867978 32.854212,2.25333146 C34.6416979,3.05156742 36.3082029,4.04682584 37.8578309,5.24272472 C39.7063202,6.66946629 41.272363,8.35709551 42.5972334,10.270691 C43.9127125,12.1709157 44.939274,14.2197921 45.6684735,16.4087472 C46.1626561,17.8920393 46.4631747,19.4210281 46.6630733,20.9743989 C46.8538174,22.4573764 46.9047193,23.9394888 46.7852379,25.4249045 C46.642239,27.2031404 46.3397475,28.9547135 45.8067373,30.6640506 C44.9873348,33.2919607 43.7485637,35.7041292 42.0776392,37.8922191 C40.5467937,39.8969719 38.7578873,41.6377697 36.6709876,43.0694663 C33.7789696,45.0534551 30.5983495,46.3306011 27.1283382,46.8290169 C25.749646,47.0270618 24.3415175,47.1311966 22.9500406,47.1053989 C20.7380564,47.064264 18.572239,46.6585787 16.4524307,45.9916124 C13.6045276,45.0955337 11.0430169,43.6865674 8.74288162,41.8094663 C6.41039008,39.9059382 4.50705299,37.6358933 3.03105524,35.0066461 C1.80175423,32.8167472 0.940919955,30.4931404 0.443028185,28.0420393 C0.247312289,27.0783202 0.170919955,26.0879382 0.0831634724,25.1058146 C0.0205028185,24.4047135 0.00763923337,23.6971629 0.0104802706,22.9926011 C0.0213709132,20.2419944 0.580739572,17.5933989 1.55742503,15.0289607 C2.34707554,12.9554663 3.42319729,11.0369944 4.76172041,9.26567978 C6.61833822,6.80867978 8.87435851,4.77923034 11.5248884,3.21815169 C13.9773348,1.77371348 16.6302322,0.819275281 19.4599842,0.41791573 C20.6465908,0.249601124 21.8460609,0.171735955 23.0396911,0.0527359551 C23.042611,0.0852977528 23.045531,0.117859551 23.048451,0.150421348" id="Fill-1" fill="#000000" mask="url(#mask-2)"></path>
                </g>
                <g id="Group-6" transform="translate(59.509357, 54.452843)" fill="#000000">
                    <path d="M8.08328749,5.45202472 C8.10191206,5.03462022 8.1301646,4.72835056 8.1266133,4.42255281 C8.1114611,3.13258652 8.09709808,1.84238427 8.058823,0.553047191 C8.0485637,0.205406742 8.15541826,0.0974179775 8.50407666,0.110474157 C9.18703044,0.136193258 9.87172041,0.124474157 10.5554634,0.114485393 C10.7895333,0.111024719 10.8853393,0.188417978 10.8848658,0.429957303 C10.8799729,3.01217079 10.8800519,5.59438427 10.8852604,8.17659775 C10.8857339,8.42018202 10.7798264,8.50166517 10.5535693,8.49387865 C9.96476437,8.47358652 9.37556483,8.44173258 8.78675986,8.44597978 C7.77898083,8.45337303 7.00416685,8.00553034 6.37187824,7.26581124 C5.3457903,6.06527191 4.32514769,4.86009213 3.30142728,3.65750787 C3.18218264,3.51735056 3.0580451,3.38128315 2.93619617,3.24340674 C2.8993416,3.25693483 2.86248703,3.27054157 2.82571139,3.28414831 C2.85443743,3.66655281 2.90462909,4.04872135 2.90802255,4.43128315 C2.91930778,5.68955281 2.9198602,6.94797978 2.90123563,8.20601348 C2.89997294,8.29512584 2.7112018,8.45510337 2.60710936,8.45722697 C1.91152875,8.47114831 1.21492221,8.43520449 0.519341601,8.44904719 C0.193885006,8.45557528 0.0891612176,8.35765393 0.0916076663,8.02715955 C0.105576099,6.1790809 0.103208568,4.33084494 0.0952378805,2.48268764 C0.0925546787,1.85371011 0.0604351747,1.22465393 0.0359706877,0.59591236 C0.0170304397,0.109294382 0.0669064262,0.0506202247 0.542937993,0.050305618 C1.43731229,0.0496764045 2.33208117,0.0659573034 3.22574521,0.0419685393 C3.56951071,0.0327662921 3.78029989,0.166316854 3.98477565,0.419339326 C5.31737993,2.06850787 6.66134837,3.70871011 8.08328749,5.45202472" id="Fill-4"></path>
                </g>
                <path d="M40.5617069,56.3572045 C40.2761037,56.3572045 40.0893844,56.3770247 39.9084262,56.3531146 C39.5147057,56.3012831 39.3825975,56.4388449 39.3949876,56.847991 C39.425292,57.8526876 39.4015378,58.8589573 39.4072988,59.8645191 C39.4110868,60.5224404 39.7500383,60.9826315 40.3296099,61.0276202 C41.2430034,61.098564 42.1163856,61.0118112 42.8874904,60.3996652 C44.0032289,59.5138899 43.9104216,57.5711146 42.6886967,56.8357213 C41.9979301,56.4199685 41.2467125,56.3143393 40.5617069,56.3572045 M40.9076821,62.892373 C40.0248298,62.9534854 39.1063067,62.7667663 38.195044,62.5169685 C37.0762277,62.2103056 36.2976257,61.2115079 36.3374791,60.0236315 C36.3858557,58.5833618 36.3516843,57.1402607 36.3465547,55.6983393 C36.3456077,55.4248674 36.3220113,55.150609 36.2936009,54.8783169 C36.2580879,54.5387775 36.435416,54.4396764 36.737434,54.4443169 C38.1424059,54.4661034 39.5479301,54.4678337 40.9524284,54.5073169 C42.4280316,54.5488449 43.8341082,54.8639236 45.0438377,55.7623618 C46.152,56.585373 46.8119098,57.6837438 46.8669944,59.0761933 C46.9234205,60.5059236 45.8928343,61.8319124 44.4391702,62.3331596 C43.3148298,62.7208337 42.1674453,62.9280809 40.9076821,62.892373" id="Fill-7" fill="#000000"></path>
                <g id="Group-11" transform="translate(0.400000, 54.295539)">
                    <mask id="mask-4" fill="white">
                        <use xlink:href="#path-3"></use>
                    </mask>
                    <g id="Clip-10"></g>
                    <path d="M7.34093236,3.19189775 C7.34093236,2.23226854 7.34866629,1.33036966 7.3366708,0.428706742 C7.33256708,0.119762921 7.42884667,0.0445719101 7.7499628,0.056605618 C8.48665953,0.0842123595 9.22603946,0.0519651685 9.96391995,0.0315157303 C10.2245062,0.0242797753 10.3405152,0.0990775281 10.3420147,0.384661798 C10.3551939,2.91834719 10.3765017,5.45195393 10.4070428,7.98548202 C10.4113044,8.33689775 10.2988467,8.50363933 9.93077452,8.46258315 C9.56735851,8.42207753 9.19391995,8.43316742 8.83989515,8.35451573 C7.95088726,8.15717865 7.43176663,7.4152573 7.40706539,6.36234719 C7.39941037,6.03507753 7.39854228,5.70717865 7.40848591,5.37998764 C7.41519391,5.15740337 7.35142841,5.04351573 7.10031229,5.04092022 C5.89350282,5.02841461 4.68669335,5.00945955 3.48027847,4.97674045 C3.18773055,4.96879663 3.12767418,5.09495393 3.13059414,5.35120112 C3.14053777,6.22879663 3.12538557,7.10662809 3.13974859,7.98414494 C3.14456257,8.27617865 3.0809549,8.41240337 2.74910598,8.40257191 C2.00057159,8.38039213 1.2506956,8.38589775 0.501766629,8.40029101 C0.231315671,8.40556067 0.135588501,8.32407753 0.134167982,8.0452573 C0.122724915,5.79479663 0.0999966178,3.54441461 0.0742694476,1.29403258 C0.0708759865,0.996257303 0.0395456595,0.697852809 0.00553213078,0.401493258 C-0.028481398,0.104504494 0.0935253664,0.0170438202 0.384968433,0.0234146067 C1.16009808,0.0402460674 1.93601691,0.0378078652 2.7113044,0.0238865169 C2.98333371,0.0190101124 3.08497971,0.106392135 3.07811387,0.383010112 C3.06288275,0.998380899 3.07329989,1.61430225 3.07322097,2.22998764 C3.07322097,2.32169551 3.07085344,2.41348202 3.07353664,2.50511124 C3.09326607,3.19189775 3.09358174,3.19189775 3.78332244,3.19189775 L7.34093236,3.19189775" id="Fill-9" fill="#000000" mask="url(#mask-4)"></path>
                </g>
                <path d="M20.6798129,58.600736 C20.6129696,56.8195899 19.5909853,56.0117584 18.2455175,55.9970506 C16.6312559,55.9794326 15.7723157,57.2764775 15.772,58.6220506 C15.7716054,60.0963764 16.8017182,61.1604551 18.2152131,61.178309 C19.707389,61.1971854 20.5941871,60.066882 20.6798129,58.600736 M17.9241646,62.8950393 C16.6249425,62.8605112 15.1224284,62.4492416 13.87908,61.3511854 C11.985292,59.678736 12.1515716,56.7668146 14.1639729,55.4000056 C15.2341759,54.6731854 16.3972649,54.3150843 17.6856753,54.244691 C19.1230034,54.166118 20.4649989,54.4333764 21.6921691,55.1799382 C22.9466449,55.9430955 23.7781218,57.0244775 23.8392041,58.5269607 C23.8868703,59.6989494 23.4864419,60.7483202 22.5210417,61.4884326 C21.2198467,62.4860506 19.9165998,62.895118 17.9241646,62.8950393" id="Fill-12" fill="#000000"></path>
                <path d="M51.7880812,56.4418966 C51.7696933,56.8071551 51.7397046,57.1422112 51.740257,57.4771888 C51.7407306,57.7335933 51.8895693,57.8127955 52.1517339,57.8103573 C53.5581263,57.7969865 54.9646764,57.8040652 56.3712266,57.8040652 L56.9090507,57.8040652 C56.9090507,58.2806944 56.9092086,58.7390764 56.9089718,59.1973798 C56.908814,59.510964 56.757292,59.6047169 56.4422525,59.6008629 C55.0491184,59.5839528 53.6555896,59.593627 52.2622187,59.593627 L51.782478,59.593627 C51.782478,59.952436 51.7523315,60.2916607 51.7973935,60.620582 C51.8153078,60.7513011 51.9846652,60.8814697 52.1140113,60.9698742 C52.2025569,61.0303573 52.3410575,61.0363348 52.4571454,61.0359416 C54.0826133,61.0306719 55.7081601,61.0277618 57.3333912,61.0051101 C57.7224555,60.9997618 57.8315986,61.0615034 57.8337294,61.4490989 C57.8363337,61.9170764 57.8343608,62.3850539 57.8343608,62.8950315 L57.4022074,62.8950315 C55.4304487,62.8951101 53.45869,62.8960539 51.4869312,62.8948742 C49.8705389,62.8938517 48.6500767,61.6642899 48.6436054,60.0444584 C48.6368185,58.3687056 48.6191409,56.6930315 48.6093551,55.0172787 C48.606593,54.5491438 48.7414634,54.4811888 49.2118918,54.525391 C49.7099414,54.5721101 50.2158828,54.5363236 50.7183517,54.5341213 C52.9511702,54.5243685 55.1839887,54.5182337 57.4167283,54.4984135 C57.740212,54.4955034 57.8319932,54.654773 57.8344397,54.9270652 C57.8375175,55.2807618 57.8238647,55.635009 57.8394115,55.9880764 C57.8540113,56.3188067 57.7038309,56.4168854 57.3884758,56.415391 C55.5861533,56.4068966 53.7838309,56.4124809 51.9814295,56.4146045 C51.9304487,56.4146045 51.8794679,56.4285258 51.7880812,56.4418966" id="Fill-14" fill="#000000"></path>
                <path d="M28.7613878,57.4219124 C28.7613878,58.2730809 28.7600462,59.1242494 28.7618613,59.975418 C28.763124,60.5843393 29.0327858,60.8497888 29.65008,60.8586764 C31.2207001,60.8811708 32.7913202,60.9137326 34.3619402,60.9193955 C34.6838455,60.9204966 34.7742852,61.0243169 34.7573179,61.3274404 C34.7353788,61.7190472 34.7436652,62.1130921 34.7550293,62.505564 C34.7617373,62.7360921 34.6874758,62.8336202 34.4404634,62.8299236 C32.4206437,62.7998787 30.3998771,62.8051483 28.3809256,62.7467888 C27.0270135,62.7076202 25.8205197,61.5226539 25.777115,60.1799124 C25.7180056,58.349609 25.7337892,56.5169461 25.7117711,54.6853843 C25.7090879,54.4642944 25.7970812,54.3849348 26.0141838,54.3866652 C26.8024927,54.3931933 27.5908805,54.3957101 28.3791105,54.3854854 C28.6744205,54.3816315 28.7680958,54.5105416 28.7649391,54.7899124 C28.7551533,55.6671146 28.7613878,56.5445528 28.7613878,57.4219124" id="Fill-16" fill="#000000"></path>
                <path d="M48.6211612,25.1137663 C49.8926832,24.7696652 51.1647576,24.6231371 52.1122435,23.6690135 C51.6444194,23.4653843 51.1953777,23.3194854 50.7973957,23.0868337 C49.8061894,22.5074854 49.133416,21.6232831 48.6313416,20.6174067 C48.1652537,19.6837326 47.7484104,18.7252831 47.3198873,17.7732045 C46.8410147,16.7092045 46.1396731,15.8095865 45.3039346,15.0045865 C45.1641714,14.8699348 45.0313529,14.7245079 44.9173957,14.5680697 C44.8568658,14.4850135 44.7880496,14.3356539 44.8236415,14.2738337 C44.8673619,14.1980135 45.0307215,14.1275416 45.1172943,14.1501146 C45.5064374,14.2515753 45.8882413,14.382373 46.2694138,14.5120697 C46.4352988,14.5684629 46.593292,14.6478225 46.7549154,14.7167213 C46.7781172,14.6897438 46.801398,14.6627663 46.8245998,14.6357101 C46.6555581,14.4040022 46.4998534,14.1610472 46.3151071,13.9423955 C45.6003495,13.0965753 44.6803269,12.5516764 43.6861218,12.079609 C43.046257,11.7758562 42.4775761,11.320227 41.8882187,10.9163506 C41.7971477,10.8539798 41.6910034,10.6558562 41.7238331,10.6044966 C41.7885457,10.5035079 41.94646,10.404564 42.0649944,10.4055079 C42.4507441,10.4085753 42.8361781,10.4570247 43.2939008,10.4035416 C42.980124,10.1575191 42.6710034,9.90528315 42.3512289,9.66728315 C41.9642165,9.37910337 41.5607892,9.11271011 41.1778016,8.81957528 C40.5053439,8.30487865 40.2748253,7.56901348 40.1784667,6.77077753 C40.1491094,6.52766517 40.1114656,6.28557528 40.0714543,5.99912584 C39.9219053,6.05229438 39.7858512,6.0882382 39.6606877,6.14722697 C38.8344983,6.53663146 37.9596167,6.71100225 37.0527734,6.77337303 C35.0476325,6.91117079 33.0301015,6.98809213 31.1266065,7.73984494 C30.4621984,8.00230562 29.8093123,8.29355281 29.1481398,8.5729236 C29.4217475,9.12615955 29.3440135,9.47285618 28.7806201,9.80083371 C28.2661556,10.100418 27.6973957,10.3123056 27.1411048,10.5343393 C26.181071,10.9174517 25.30177,11.4009236 24.6454115,12.2329011 C24.4517475,12.4782944 24.4452762,12.6831034 24.6244983,12.8956202 C25.0519955,13.4024517 25.503168,13.8893843 25.9293236,14.3972382 C26.2086922,14.7302494 26.4609921,15.0857551 26.7254453,15.4311933 L26.8365614,15.3929685 C26.8251184,15.2522607 26.8182525,15.1110809 26.8012852,14.9710809 C26.7605637,14.6356315 26.6895378,14.3016764 26.6774634,13.9655191 C26.6593123,13.4608112 26.8165953,13.271418 27.3114882,13.1133281 C28.1559865,12.8433955 28.8981285,13.0893393 29.5282074,13.6388 C30.3513191,14.3568112 30.722469,15.2622494 30.4943968,16.3704517 C30.2748478,17.4373618 29.4387937,17.8140247 28.4135738,17.2251596 C28.2442954,17.1279461 28.0968771,16.9922719 27.9257835,16.8990697 C27.8314769,16.8477101 27.7089966,16.8478674 27.6035626,16.8257663 C27.9775536,17.7028112 28.3303946,18.5303056 28.7080947,19.4160809 C29.3102368,18.9831034 29.9693574,18.5223618 30.614115,18.0423506 C31.4752649,17.4011034 32.063044,16.5701483 32.2266404,15.4967101 C32.4800451,13.8342494 33.5515896,12.8418225 34.9403044,12.0779573 C35.5000676,11.770036 36.0412852,11.4253843 36.57177,11.0690921 C37.0222322,10.7665191 37.1129876,10.4215528 36.825885,9.96560899 C36.5078467,9.46066517 36.135434,8.98820449 35.7668095,8.5170809 C35.4103382,8.06145169 35.442221,7.94072135 36.0109019,7.83454157 C36.9187711,7.66496854 37.8278241,7.50121573 38.7374295,7.34100225 C38.8015107,7.32975506 38.8741939,7.36727191 38.9429312,7.38213708 L38.9800225,7.4952382 C38.5882751,7.67747416 38.1975536,7.86222697 37.8043067,8.0412382 C37.5424577,8.16039551 37.2772943,8.27231685 37.01292,8.38588989 C36.7179256,8.51259775 36.7228185,8.6945191 36.9254002,8.89893483 C37.3780722,9.35582247 37.8353213,9.80814831 38.2917813,10.2612607 C38.803168,10.7688 38.8086133,11.2365416 38.2065502,11.606991 C37.5204397,12.029036 36.8070237,12.4462831 36.0505186,12.7073281 C34.2228636,13.3379573 33.2161894,14.5633506 32.978726,16.4649124 C32.8137091,17.7864966 32.0972943,18.7414067 30.9974972,19.4967775 C30.2192897,20.0312944 29.4847238,20.6633393 28.8454115,21.3568899 C27.6260541,22.6794966 27.8669109,23.8792494 28.5702255,25.1337438 C28.8626945,25.6555978 29.2270575,26.1372607 29.5536979,26.6404742 C29.6270913,26.7534966 29.6794927,26.8801258 29.7416009,27.0004629 C29.7088501,27.033182 29.6760992,27.0659011 29.6433484,27.0986202 C29.2085908,26.7892045 28.7631003,26.4935528 28.3412852,26.1675416 C27.4907103,25.5099348 26.7743743,24.742373 26.4882976,23.6705865 C26.4220857,23.4224404 26.4579143,23.1479461 26.397779,22.8972045 C26.3651071,22.7612944 26.2438895,22.5591596 26.1375085,22.5420921 C25.40531,22.4248225 24.6686133,22.3071596 23.9292334,22.269564 C23.0418828,22.224418 22.1487711,22.2255191 21.2611838,22.2684629 C20.4635626,22.3071596 19.7042954,22.4799573 19.0352311,22.9999236 C18.5032469,23.4133169 17.9133371,23.7787326 17.2991995,24.0554292 C16.1715445,24.5635191 16.4621984,25.2262382 16.9109245,25.8943843 C17.0600789,26.1164966 17.2986471,26.2815079 17.5058061,26.4617775 C17.7441375,26.6691034 17.8906877,26.5828225 18.0004622,26.3094292 C18.1213641,26.0084292 18.273991,25.7200921 18.4102029,25.424991 C18.4603157,25.3164517 18.5029312,25.2045303 18.5490192,25.0941034 L18.6983315,25.2068112 C18.8459076,25.4336427 18.9829876,25.668182 19.143664,25.885418 C19.3601353,26.1783955 19.6108568,26.2935416 20.019177,26.2112719 C21.6971251,25.873227 23.3742841,25.9595079 25.0232694,26.403182 C26.6650733,26.8449685 28.2088613,27.5071371 29.5404397,28.5908 C29.6521871,28.6817213 29.7535175,28.8207775 29.7949493,28.9570022 C30.2280496,30.380991 31.0867531,31.5385865 32.1027396,32.5874067 C32.5941601,33.0947101 32.8394363,33.6976539 32.9071477,34.3644629 C33.0982074,36.2468337 32.7912176,38.0490584 31.9070237,39.7352719 C31.7259865,40.0804742 31.5109357,40.4126202 31.271894,40.720227 C31.1917136,40.823418 30.9853439,40.8829573 30.8418715,40.8744629 C30.0878129,40.8297101 29.3358061,40.7518449 28.5822999,40.6951371 C27.8785118,40.6420472 27.378726,40.952564 26.9906088,41.5339573 C26.5620068,42.1757551 26.5391206,42.1605753 25.8496167,41.7916989 C25.1493799,41.4171596 25.1803946,41.4041034 25.5760879,40.7234517 C26.0166065,39.9657213 26.7368884,39.8246989 27.478478,39.7970921 C28.4394589,39.7613056 29.4063585,39.8012607 30.3663923,39.8694517 C30.7043968,39.8934404 30.8101466,39.7925303 30.8745434,39.509227 C31.1236077,38.4126652 31.2397745,37.3173618 31.1344194,36.1831258 C30.9891319,34.6179573 30.5418264,33.167227 29.7113754,31.8420247 C28.4830214,29.8819461 26.7630101,28.515609 24.5767531,27.7372719 C23.3528974,27.3015416 22.0852424,27.105227 20.796832,27.2225753 C19.4257159,27.3473169 18.1487486,27.8078225 16.9931567,28.567991 C16.6665163,28.7828674 16.3602368,29.0283393 16.0414882,29.2554067 C15.8359076,29.4017775 15.7198196,29.4433843 15.615885,29.1087213 C14.9248027,26.8842944 14.7412401,24.5985191 14.8829763,22.3000022 C15.1298309,18.2962382 16.4183991,14.6402719 18.8010034,11.3831483 C20.887903,8.53029438 23.5187824,6.33182247 26.7440699,4.87228315 C28.5210598,4.06806966 30.3835175,3.53253034 32.330575,3.27305843 C33.8869109,3.06573258 35.4438782,3.02986742 36.9955581,3.16790112 C39.232717,3.36696854 41.3841714,3.94372135 43.4372153,4.86921573 C45.1382074,5.63599101 46.7414994,6.56187865 48.198478,7.72922697 C49.6559301,8.89681124 50.9220857,10.2423843 52.0173055,11.7558787 C52.9970688,13.1098674 53.8240474,14.5455753 54.4417362,16.0943056 C55.0791545,17.6924292 55.5270124,19.3390809 55.7418264,21.0561258 C55.9671364,22.8571708 55.8979256,24.6367438 55.6008794,26.4178112 C55.4835287,27.1215865 55.3879594,27.8290584 55.2701353,28.5327551 C55.2028974,28.934036 55.172593,28.893609 54.8032582,28.697609 C54.1728636,28.3630247 53.5021421,28.1037888 52.8479143,27.8138 C51.9083991,27.3973393 50.9452086,27.0260247 50.0373393,26.5498674 C49.4628974,26.2485528 49.0406877,25.7259124 48.6211612,25.1137663" id="Fill-18" fill="#000000"></path>
                <path d="M34.0042458,44.1254831 C34.4989019,43.4712584 35.0375152,42.8893146 35.4205817,42.2190449 C35.8901421,41.3974494 36.2237272,40.4992472 36.6289696,39.6402135 C36.7447418,39.3948202 36.8837948,39.1538315 37.0506268,38.9406854 C37.2468162,38.6898652 37.4049673,38.7267528 37.528,39.024764 C37.5724307,39.1322809 37.5990259,39.2489213 37.6198602,39.3639101 C37.6404577,39.4776404 37.6434566,39.5945169 37.6551364,39.7199663 C38.053513,39.7730562 38.1169628,39.434382 38.2163991,39.2228876 C38.836929,37.9027191 39.1557565,36.4955618 39.3393191,35.0567079 C39.424708,34.3871461 39.4711905,33.7127079 39.5500293,33.0421236 C39.5614724,32.9446742 39.6554634,32.8568202 39.7112582,32.7645618 C39.7949899,32.8517079 39.9296234,32.9267416 39.954009,33.0281236 C40.08446,33.5697978 40.2050462,34.1151685 40.2961962,34.6647079 C40.4892289,35.8289101 40.7931409,36.1209438 41.9873236,36.1613708 C43.1527802,36.2008539 44.3194205,36.2329438 45.4852717,36.2259438 C46.2542458,36.2212247 47.0225885,36.139191 47.7915626,36.0980562 C47.9206719,36.0911348 48.0544374,36.1019888 48.1811003,36.1283371 C48.7976054,36.2565393 49.3805705,36.5112135 49.5635017,37.1441236 C49.7836821,37.9057865 49.4666697,38.5832921 48.9382368,39.1453371 C48.0344713,40.106618 46.9429605,40.8311573 45.8078873,41.4795618 C43.8096122,42.6209551 41.6763089,43.4276067 39.4132649,43.8747416 C37.9457903,44.1647303 36.4625321,44.2867978 34.966805,44.2242697 C34.6377971,44.2105056 34.3104464,44.1578876 34.0042458,44.1254831" id="Fill-20" fill="#000000"></path>
                <path d="M38.1600598,16.5553067 C39.168549,16.6166551 40.001841,16.8501719 40.7178613,17.3888573 C41.8557756,18.2448236 42.6107024,19.4248348 43.3878839,20.5877 C44.0240395,21.5396213 44.6481206,22.5092393 45.385133,23.3807 C45.8085265,23.8814753 46.4450767,24.2037112 46.9879515,24.6031831 C47.0888873,24.6774303 47.2007926,24.7368124 47.3075682,24.8030371 C47.3004656,24.8433854 47.2932841,24.8838124 47.2861815,24.9241607 C46.9518861,24.9024528 46.6160124,24.894273 46.2835321,24.8568348 C44.5411871,24.6603629 43.2207362,23.7774191 42.3129459,22.3119809 C41.6207587,21.1944978 41.0102514,20.0269135 40.3550767,18.8863067 C39.8616043,18.0273517 39.2449414,17.2802393 38.3611421,16.7861494 C38.3115817,16.758464 38.2811984,16.6967225 38.1600598,16.5553067" id="Fill-22" fill="#000000"></path>
                <path d="M35.0999628,19.9346236 C35.3593653,20.2125787 35.6114284,20.4591517 35.8365806,20.7280618 C36.8226573,21.9057135 37.7647768,23.1222191 38.7926009,24.2621966 C39.7424543,25.3156573 40.9633901,25.9466011 42.3694667,26.223691 C43.1924994,26.3858708 43.9996697,26.302736 44.8116539,26.178309 C44.8583732,26.1711517 44.9072232,26.1773652 44.9936381,26.2683652 C44.667708,26.4225225 44.3472232,26.5895787 44.0149008,26.7283989 C42.9533788,27.1719157 41.8522401,27.4492416 40.694044,27.3414101 C39.5662311,27.2364888 38.6185874,26.7127472 37.869106,25.8880056 C36.4006843,24.2720281 35.7429842,22.2410843 35.0481928,20.2346011 C35.0316201,20.1868596 35.0272796,20.1334551 35.0260169,20.0825674 C35.0254645,20.0602303 35.0471669,20.0374213 35.0999628,19.9346236" id="Fill-24" fill="#000000"></path>
                <path d="M31.8049042,26.8435056 L32.1655581,28.0854944 C32.1165502,28.1045281 32.0675423,28.1236404 32.0185344,28.1427528 C31.1311838,27.1471798 30.5232018,25.9994944 30.3783878,24.6510899 C30.2984442,23.9075169 30.3300113,23.1445169 31.0387711,22.4714944 C31.833788,25.6833146 33.9210034,27.2440787 37.1125141,27.4306404 C36.8655806,27.6750899 35.5964262,27.8391573 34.4232356,27.786382 C33.4663585,27.7432809 32.641195,27.3495506 31.8902931,26.7667416 C31.8618038,26.7923034 31.8333935,26.8179438 31.8049042,26.8435056" id="Fill-26" fill="#000000"></path>
                <path d="M30.2385457,9.31410562 C31.2627396,8.68001573 32.3937091,8.46073483 33.5140248,8.20912809 C33.5354904,8.24467865 33.5570349,8.28015056 33.5785006,8.31570112 C33.2617249,8.56298202 32.9363472,8.80011685 32.630699,9.06037528 C32.3146336,9.3296 32.0194814,9.62312809 31.7117024,9.90226292 C31.5851184,10.0170944 31.3755919,10.1765213 31.3044081,9.94135281 C31.1374972,9.38992584 30.7616911,9.28461124 30.2385457,9.31410562" id="Fill-28" fill="#000000"></path>
            </g>
        </g>
    </g>
</svg>