<?xml version="1.0" encoding="UTF-8" standalone="no"?>
<!-- Generator: Adobe Illustrator 18.1.0, SVG Export Plug-In . SVG Version: 6.00 Build 0)  -->

<svg
   xmlns:dc="http://purl.org/dc/elements/1.1/"
   xmlns:cc="http://creativecommons.org/ns#"
   xmlns:rdf="http://www.w3.org/1999/02/22-rdf-syntax-ns#"
   xmlns:svg="http://www.w3.org/2000/svg"
   xmlns="http://www.w3.org/2000/svg"
   xmlns:sodipodi="http://sodipodi.sourceforge.net/DTD/sodipodi-0.dtd"
   xmlns:inkscape="http://www.inkscape.org/namespaces/inkscape"
   version="1.1"
   id="Layer_1"
   x="0px"
   y="0px"
   viewBox="0 0 466.56418 150"
   enable-background="new 0 0 314 243"
   xml:space="preserve"
   inkscape:version="0.91 r13725"
   sodipodi:docname="Holden_BASIC_TAG_LAND_POS_MONO.svg"
   width="466.56418"
   height="150"><metadata
     id="metadata56"><rdf:RDF><cc:Work
         rdf:about=""><dc:format>image/svg+xml</dc:format><dc:type
           rdf:resource="http://purl.org/dc/dcmitype/StillImage" /><dc:title></dc:title></cc:Work></rdf:RDF></metadata><defs
     id="defs54" /><sodipodi:namedview
     pagecolor="#ffffff"
     bordercolor="#666666"
     borderopacity="1"
     objecttolerance="10"
     gridtolerance="10"
     guidetolerance="10"
     inkscape:pageopacity="0"
     inkscape:pageshadow="2"
     inkscape:window-width="640"
     inkscape:window-height="480"
     id="namedview52"
     showgrid="false"
     fit-margin-top="0"
     fit-margin-left="0"
     fit-margin-right="0"
     fit-margin-bottom="0"
     inkscape:zoom="1.0339506"
     inkscape:cx="60.938806"
     inkscape:cy="44.799999"
     inkscape:current-layer="Layer_1" /><g
     id="Background_Visual_Only"
     display="none"
     style="display:none"
     transform="translate(-17.6,-16.299994)"><rect
       y="59.200001"
       display="inline"
       width="314"
       height="124.5"
       id="rect4"
       x="0"
       style="display:inline;fill:#c0c2c4" /></g><g
     id="HoldenBadge"
     transform="matrix(1.6843472,0,0,1.6843472,-29.644511,-130.10693)"><g
       id="g7"><path
         d="m 62.2,78.7 c -24.2,0 -42.8,19.6 -42.8,42.7 0,23.1 18.5,42.9 42.8,42.9 24.2,0 42.8,-19.8 42.8,-42.9 C 105,98.3 86.4,78.7 62.2,78.7 Z m 21,75.9 c -7,4.5 -14.7,6 -21,6 -0.9,0 -3.8,0 -2.8,-1 1,-1 2.1,-2.3 4.1,-6.8 0.8,-1.6 1,-2.7 1.4,-2.7 0.5,0 0.7,0.3 0.6,1.9 0.7,-0.1 1.6,-1.4 2.2,-3 1.1,-2.7 1.7,-6 1.8,-9.1 0,-0.5 0.1,-1.9 0.8,-0.2 0.3,0.8 0.4,2.1 0.6,3.1 0.3,2 0.7,2.1 2.7,2.4 3,0.5 6.5,0.3 9.8,0.1 2.1,-0.1 4.6,-0.2 5.1,1.5 0.8,3.3 -3.7,6.7 -5.3,7.8 z M 55.1,128.4 c 0.5,1.1 0.5,1.2 -0.4,0.3 -1.2,-1.3 -3.9,-6.2 -1.4,-9.3 0.6,-0.7 0.6,-0.5 0.7,0.1 0.4,2.6 1.6,7.5 10.5,9.1 0.8,0.2 0.7,0.2 0,0.3 -4.2,0.4 -8.1,0 -9.8,-2 0,0.6 0.2,1.1 0.4,1.5 z m 24.1,-1.9 c 1.1,-0.1 1.1,-0.1 0.1,0.4 -1.1,0.6 -3,1.3 -4.6,1.5 -7.6,1.1 -11.1,-7.2 -12.8,-12.4 -0.2,-0.6 -0.2,-0.7 0.3,-0.1 1,1.2 2.6,3.3 3.1,3.9 2.8,3.3 7.2,7.5 13.9,6.7 z M 68.6,108.2 c 8.8,1.7 8.6,12.1 15.3,15.5 0.6,0.3 0.7,0.3 0,0.3 -1.5,0 -3.6,-0.4 -4.7,-1.1 -2.6,-1.8 -3.3,-2.7 -5.7,-7.5 -2.5,-4.8 -4,-6.2 -5.1,-6.9 -0.5,-0.3 -0.6,-0.5 0.2,-0.3 z m 30.1,21.9 c -4.5,-1.2 -7.8,-2.7 -10.6,-4.4 -1.3,-0.8 -1.9,-1.5 -0.1,-1.7 2.4,-0.3 4.1,-0.6 5.3,-1.8 -6.3,-4.1 -5.6,-6.7 -9.4,-13.6 -0.6,-1.1 -1.5,-2.4 -2.6,-3.5 -1.8,-1.9 0.1,-1.5 0.8,-1.2 1.2,0.5 2.4,1.2 1.6,0.1 -0.3,-0.4 -0.6,-0.9 -1.5,-1.8 -1.6,-1.5 -3,-2.4 -4.7,-3.3 -0.8,-0.4 -1.8,-0.9 -2.3,-1.4 -0.4,-0.4 -0.5,-0.6 0.1,-0.6 1,0 1.6,0 1.9,0.1 0.6,0.1 1.1,0.1 0.7,-0.4 -0.3,-0.3 -0.7,-0.5 -2,-1.5 -1.7,-1.2 -3.1,-2.6 -3.5,-5.7 -0.1,-1.1 -0.2,-1.1 -1,-0.9 -3.8,0.9 -3.9,0.8 -9.2,1.3 -6.4,0.6 -9.4,1.6 -10.8,2.7 -0.2,0.2 -0.2,0.8 -0.4,1.3 -0.1,0.5 -0.6,0.8 -3.3,2.2 -3.1,1.6 -4.5,2.5 -5.3,3.4 -0.6,0.7 -0.7,1.2 0.4,2.7 1.4,1.7 1.9,2.3 3,3.6 0.4,0.4 0.4,0.5 0.7,0.2 0.7,-0.5 0.6,-0.6 0.5,-1.7 -0.1,-1 -0.2,-1.7 0.7,-2.3 1,-0.7 2.6,0 3.7,1.4 1.4,1.8 1.4,3.7 0.4,4.6 -0.5,0.5 -1.5,0.6 -2.4,0.2 -0.8,-0.4 -0.9,-0.3 -1.6,0.1 -0.1,0.1 -0.1,0.3 0,0.5 0.6,0.8 1,1.7 1.4,3.1 0.4,1.3 0.8,1.3 1.5,0.9 0.3,-0.2 0.6,-0.4 0.9,-0.6 3.3,-2.4 4.3,-3.9 4.6,-5.4 0.4,-1.9 0.9,-3.9 2.7,-5.5 1.3,-1.2 3.3,-2 5.3,-3 1.6,-0.8 1.8,-1.5 1,-2.8 -0.6,-1 -1.2,-1.8 -1.9,-2.7 -0.5,-0.7 -0.4,-0.8 0.2,-0.9 0.7,-0.1 1.8,-0.2 3.7,-0.4 0.8,-0.1 1.5,-0.1 0.3,0.4 -0.8,0.4 -1.3,0.6 -1.6,0.8 -0.4,0.3 -0.4,0.4 0.2,1.1 0.9,1.1 1.5,1.8 1.9,2.3 1,1.3 0.5,2.4 -1.6,3.2 -4.4,1.8 -5.6,2.5 -6.6,3.6 -1.1,1.1 -1.5,2.5 -1.8,4.1 -0.4,1.8 -0.7,2.7 -1.5,3.8 -1.1,1.4 -3.8,3.4 -5.8,4.8 -2.1,1.6 -3.3,3.1 -2.8,6.5 0.2,1.8 2.2,4.5 3.1,5.3 -2.4,-0.9 -3.9,-2.7 -4.7,-5.2 -0.2,-0.7 -0.4,-1.8 -0.3,-2.6 0,-0.7 -0.2,-0.8 -0.9,-0.9 -5.2,-0.9 -13.4,0.2 -14.4,0.8 -0.7,0.4 -1.6,1 -2.4,1.5 -1.1,0.7 -1.4,0.7 -2.2,1.5 -0.6,0.6 0.2,2.9 1.9,3.5 1,0.4 1.2,0.3 1.4,-0.6 0.2,-1.2 0.4,-1.5 0.7,-1.7 0.4,-0.3 0.4,-0.1 0.7,0.5 0.6,1.3 1,1.6 3.2,1.4 3.7,-0.3 7.4,0.1 10.6,1.4 2.8,1.2 4.7,2.5 6.3,3.9 0.3,2.2 1,3.3 2.2,4.9 0.8,1 2.1,2 2.6,3.1 0.5,1.1 0.8,2.1 0.9,3.2 0.1,1.9 -0.4,5 -1.6,8.4 -0.9,2.3 -1.7,3.8 -4.2,3.3 -2.9,-0.6 -4.5,-0.6 -5.1,-0.4 -0.8,0.3 -1,0.5 -1.9,1.9 -0.3,0.4 -0.4,0.4 -0.7,0.2 -0.7,-0.3 -0.6,-0.3 -1.1,-0.7 -0.2,-0.2 -0.3,-0.3 -0.2,-0.5 1.1,-1.6 1.5,-2.3 2.4,-2.6 0.9,-0.3 3.6,-0.1 7.1,0.5 1.1,0.2 1.7,-1 2,-2.1 0.7,-2.6 0.9,-5.9 -0.4,-9.9 -2,-6.2 -7.4,-10.9 -13.8,-12.1 -1.9,-0.4 -4.5,-0.4 -6.4,-0.1 -3.6,0.7 -5.7,1.8 -7.6,3.1 -0.3,0.2 -0.4,0.2 -0.4,0 -0.1,-0.2 -1.4,-2.7 -1.5,-9.7 0,-22.1 17.9,-39.2 39.2,-39.2 21.2,0 39.3,17.2 39.3,39.2 0,2.3 -0.2,5.4 -1.2,8.7 -0.3,0.3 -0.6,0.4 -1.8,0.1 z m -40,-37.3 c -0.9,0.7 -1.4,1 -1.9,1.3 -0.8,0.5 -1,0.5 -2,0.1 -1.5,-0.7 -1.4,-0.8 -0.7,-1.1 0.9,-0.4 2.7,-0.7 4.5,-0.9 0.8,0 0.7,0.2 0.1,0.6 z"
         id="path9"
         inkscape:connector-curvature="0"
         style="fill:#ffffff" /><path
         d="m 73.5,115.4 c 2.4,4.9 3.1,5.7 5.7,7.5 1,0.7 3.1,1.1 4.7,1.1 0.7,0 0.7,0 0,-0.3 -6.7,-3.4 -6.5,-13.8 -15.3,-15.5 -0.8,-0.2 -0.6,0 -0.2,0.3 1,0.7 2.5,2 5.1,6.9 z"
         id="path11"
         inkscape:connector-curvature="0"
         style="fill:#3b3b3b" /><path
         d="m 58.7,92.3 c -1.8,0.2 -3.6,0.5 -4.5,0.9 -0.7,0.3 -0.8,0.4 0.7,1.1 0.9,0.4 1.2,0.4 2,-0.1 0.5,-0.3 1,-0.7 1.9,-1.3 0.5,-0.5 0.6,-0.7 -0.1,-0.6 z"
         id="path13"
         inkscape:connector-curvature="0"
         style="fill:#3b3b3b" /><path
         d="m 65.4,119.8 c -0.5,-0.7 -2.2,-2.8 -3.1,-3.9 -0.5,-0.6 -0.5,-0.5 -0.3,0.1 1.7,5.2 5.2,13.6 12.8,12.4 1.6,-0.2 3.5,-0.9 4.6,-1.5 1,-0.6 1,-0.6 -0.1,-0.4 -6.8,0.8 -11.2,-3.4 -13.9,-6.7 z"
         id="path15"
         inkscape:connector-curvature="0"
         style="fill:#3b3b3b" /><path
         d="m 64.5,129 c 0.7,-0.1 0.8,-0.2 0,-0.3 -8.9,-1.6 -10.1,-6.5 -10.5,-9.1 -0.1,-0.6 -0.1,-0.7 -0.7,-0.1 -2.6,3.1 0.2,8 1.4,9.3 0.9,0.9 0.9,0.8 0.4,-0.3 -0.2,-0.4 -0.5,-1 -0.4,-1.5 1.7,2 5.6,2.4 9.8,2 z"
         id="path17"
         inkscape:connector-curvature="0"
         style="fill:#3b3b3b" /><path
         d="m 83.4,145.4 c -3.3,0.2 -6.7,0.4 -9.8,-0.1 -2,-0.3 -2.4,-0.4 -2.7,-2.4 -0.2,-1.1 -0.3,-2.3 -0.6,-3.1 -0.7,-1.8 -0.8,-0.4 -0.8,0.2 -0.1,3.1 -0.8,6.4 -1.8,9.1 -0.6,1.5 -1.5,2.9 -2.2,3 0.1,-1.5 -0.2,-1.9 -0.6,-1.9 -0.4,0 -0.7,1 -1.4,2.7 -2.1,4.5 -3.2,5.8 -4.1,6.8 -0.9,1 1.9,1 2.8,1 6.2,0 14,-1.6 21,-6 1.7,-1.1 6.1,-4.5 5.3,-7.7 -0.5,-1.8 -3,-1.7 -5.1,-1.6 z"
         id="path19"
         inkscape:connector-curvature="0"
         style="fill:#3b3b3b" /><path
         d="M 62.2,82.2 C 40.8,82.2 23,99.3 23,121.4 c 0.1,7 1.4,9.4 1.5,9.7 0.1,0.1 0.2,0.2 0.4,0 1.8,-1.3 3.9,-2.4 7.6,-3.1 1.9,-0.3 4.5,-0.3 6.4,0.1 6.4,1.3 11.8,6 13.8,12.1 1.3,4 1.1,7.3 0.4,9.9 -0.3,1.1 -0.9,2.2 -2,2.1 -3.4,-0.5 -6.2,-0.8 -7.1,-0.5 -0.9,0.3 -1.4,1 -2.4,2.6 -0.1,0.2 0,0.4 0.2,0.5 0.5,0.4 0.5,0.4 1.1,0.7 0.4,0.2 0.5,0.2 0.7,-0.2 0.9,-1.5 1.1,-1.7 1.9,-1.9 0.6,-0.2 2.3,-0.2 5.1,0.4 2.5,0.6 3.4,-0.9 4.2,-3.3 1.2,-3.3 1.7,-6.5 1.6,-8.4 -0.1,-1.1 -0.3,-2.1 -0.9,-3.2 -0.5,-1.1 -1.8,-2.1 -2.6,-3.1 -1.2,-1.6 -1.9,-2.8 -2.2,-4.9 -1.6,-1.5 -3.5,-2.8 -6.3,-3.9 -3.2,-1.3 -6.8,-1.7 -10.6,-1.4 -2.3,0.2 -2.6,-0.1 -3.2,-1.4 -0.2,-0.5 -0.3,-0.8 -0.7,-0.5 -0.3,0.2 -0.5,0.6 -0.7,1.7 -0.2,0.8 -0.4,1 -1.4,0.6 -1.7,-0.7 -2.6,-3 -1.9,-3.5 0.8,-0.8 1.1,-0.7 2.2,-1.5 0.7,-0.5 1.7,-1.1 2.4,-1.5 1,-0.6 9.2,-1.6 14.4,-0.8 0.7,0.1 0.9,0.2 0.9,0.9 0,0.8 0.1,1.9 0.3,2.6 0.8,2.5 2.3,4.3 4.7,5.2 -0.9,-0.9 -2.9,-3.6 -3.1,-5.3 -0.5,-3.4 0.7,-5 2.8,-6.5 1.9,-1.4 4.7,-3.4 5.8,-4.9 0.9,-1.1 1.2,-2 1.5,-3.8 0.3,-1.6 0.7,-3 1.8,-4.1 1,-1.1 2.3,-1.8 6.6,-3.6 2.1,-0.9 2.7,-1.9 1.6,-3.2 -0.4,-0.5 -1,-1.2 -1.9,-2.3 -0.6,-0.8 -0.6,-0.9 -0.2,-1.1 0.3,-0.2 0.8,-0.5 1.6,-0.8 1.2,-0.6 0.5,-0.5 -0.3,-0.4 -2,0.1 -3,0.2 -3.7,0.4 -0.7,0.1 -0.7,0.3 -0.2,0.9 0.7,0.9 1.2,1.7 1.9,2.7 0.9,1.3 0.6,2.1 -1,2.8 -2,0.9 -4,1.8 -5.3,3 -1.7,1.6 -2.2,3.6 -2.7,5.5 -0.3,1.5 -1.4,3 -4.6,5.4 -0.3,0.2 -0.5,0.4 -0.9,0.6 -0.7,0.5 -1.1,0.5 -1.5,-0.9 -0.5,-1.5 -0.9,-2.3 -1.4,-3.1 -0.1,-0.2 -0.2,-0.5 0,-0.5 0.7,-0.4 0.9,-0.5 1.6,-0.1 0.9,0.4 1.9,0.2 2.4,-0.2 1,-0.9 1,-2.8 -0.4,-4.6 -1.2,-1.4 -2.7,-2.1 -3.7,-1.4 -0.9,0.6 -0.8,1.3 -0.7,2.3 0.1,1 0.1,1.1 -0.5,1.7 -0.3,0.2 -0.4,0.2 -0.7,-0.2 -1.1,-1.3 -1.6,-1.9 -3,-3.6 -1.2,-1.5 -1.1,-1.9 -0.4,-2.7 0.8,-1 2.2,-1.8 5.3,-3.4 2.6,-1.4 3.1,-1.7 3.3,-2.2 0.2,-0.4 0.1,-1.1 0.4,-1.3 1.4,-1 4.3,-2.1 10.8,-2.7 5.3,-0.5 5.4,-0.4 9.2,-1.3 0.8,-0.2 0.9,-0.2 1,0.9 0.4,3.2 1.8,4.5 3.5,5.7 1.3,0.9 1.7,1.2 2,1.5 0.5,0.5 -0.1,0.5 -0.7,0.4 -0.3,0 -0.9,-0.1 -1.9,-0.1 -0.6,0 -0.5,0.2 -0.1,0.6 0.6,0.5 1.6,1.1 2.3,1.4 1.6,0.8 3.1,1.7 4.7,3.3 0.9,0.9 1.2,1.4 1.5,1.8 0.8,1.1 -0.4,0.4 -1.6,-0.1 -0.7,-0.3 -2.6,-0.7 -0.8,1.2 1.1,1.1 2,2.4 2.6,3.5 3.8,7 3.2,9.5 9.4,13.6 -1.2,1.2 -3,1.6 -5.3,1.8 -1.8,0.2 -1.2,0.8 0.1,1.7 2.8,1.7 6.1,3.2 10.6,4.4 1.2,0.3 1.5,0.3 1.6,0 1.1,-3.3 1.2,-6.4 1.2,-8.7 C 101.5,99.3 83.4,82.2 62.2,82.2 Z"
         id="path21"
         inkscape:connector-curvature="0"
         style="fill:#3b3b3b" /></g><g
       id="g23"><g
         id="XMLID_972_"><g
           id="XMLID_987_"><polygon
             id="XMLID_1087_"
             points="125.4,150 127.9,135.8 126.1,135.8 123.4,151.5 123.4,151.6 131.9,151.6 132.2,150 "
             style="fill:#3b3b3b" /><path
             id="XMLID_1006_"
             d="m 138.1,139.7 c -3.6,0 -6.2,2.8 -6.2,6.8 0,3.2 2.2,5.4 5.5,5.4 1.4,0 2.8,-0.4 3.8,-1 l 0,0 0.4,-1.9 -0.2,0.1 c -1.6,1 -2.7,1.2 -4,1.2 -2.3,0 -3.8,-1.5 -3.8,-3.9 0,-0.1 0,-0.3 0,-0.5 l 8.7,0 0,-0.1 c 0.1,-0.3 0.2,-1 0.2,-1.6 0.2,-1.3 -0.3,-4.5 -4.4,-4.5 z m -4.1,4.7 c 0.7,-2 2.2,-3.2 4.1,-3.2 2.1,0 2.9,1.5 2.9,3 0,0.1 0,0.2 0,0.3 -0.1,-0.1 -7,-0.1 -7,-0.1 z"
             inkscape:connector-curvature="0"
             style="fill:#3b3b3b" /><path
             id="XMLID_1005_"
             d="m 147.8,137.2 -1.7,0 -0.5,2.8 -1.8,0 -0.3,1.5 1.8,0 -1.2,7 c -0.1,0.3 -0.1,0.7 -0.1,1 0,1.6 0.9,2.4 2.7,2.4 0.8,0 1.6,-0.2 2.4,-0.6 l 0,0 0.3,-1.7 -0.2,0.1 c -0.8,0.4 -1.5,0.7 -2.4,0.7 -0.8,0 -1.1,-0.3 -1.1,-1.1 0,-0.2 0,-0.5 0.1,-0.9 l 1.2,-6.9 3.2,0 0.3,-1.5 -3.2,0 0.5,-2.8 z"
             inkscape:connector-curvature="0"
             style="fill:#3b3b3b" /><path
             id="XMLID_1004_"
             d="m 153.2,139.8 c 1.3,-0.8 2.4,-2.3 2.7,-4 l 0,-0.1 -1.6,0 0,0.1 c -0.3,1.6 -0.9,2.8 -2.2,3.9 l -0.1,0.1 1.2,0 0,0 z"
             inkscape:connector-curvature="0"
             style="fill:#3b3b3b" /><path
             id="XMLID_1003_"
             d="m 157.8,139.7 c -2.3,0 -3.9,1.4 -3.9,3.3 0,1.9 1.5,2.7 2.8,3.4 1.1,0.6 1.9,1.1 1.9,2 0,1.6 -1.3,1.9 -2.3,1.9 -1.5,0 -2.7,-1 -3.2,-1.6 l -0.1,-0.1 -0.3,1.8 0,0 c 0.7,0.9 2.2,1.4 3.6,1.4 2.4,0 4.1,-1.4 4.1,-3.5 0,-2 -1.5,-2.8 -2.8,-3.4 l 0,0 c -1,-0.5 -1.9,-1 -1.9,-1.9 0,-1.1 0.8,-1.8 2.1,-1.8 1.3,0 2.3,0.7 2.9,1.2 l 0.1,0.1 0.3,-1.8 0,0 c -0.8,-0.6 -2,-1 -3.3,-1 z"
             inkscape:connector-curvature="0"
             style="fill:#3b3b3b" /><path
             id="XMLID_1000_"
             d="m 174.9,139.7 c -4.3,0 -7.1,2.7 -7.1,6.8 0,3.3 2.1,5.3 5.4,5.3 0.9,0 1.9,-0.2 2.5,-0.6 l -0.1,0.5 c -0.4,2.3 -1.6,3.4 -3.9,3.4 -1.6,0 -2.7,-0.6 -3.6,-1.2 l -0.1,-0.1 -0.3,1.6 0,0 c 0.7,0.6 2.2,1.1 4,1.1 3.2,0 5.1,-1.5 5.6,-4.6 l 2,-11.2 0,-0.1 -0.1,0 c -0.9,-0.4 -2.5,-0.9 -4.3,-0.9 z m 0,1.5 c 0.9,0 1.8,0.2 2.4,0.5 l -1.4,7.8 c -0.7,0.3 -1.6,0.6 -2.8,0.6 -2.2,0 -3.6,-1.5 -3.6,-3.7 0.1,-3.2 2,-5.2 5.4,-5.2 z"
             inkscape:connector-curvature="0"
             style="fill:#3b3b3b" /><path
             id="XMLID_997_"
             d="m 185.8,139.7 c -3.7,0 -6.3,2.8 -6.3,6.7 0,3.3 2.2,5.5 5.4,5.5 3.7,0 6.3,-2.8 6.3,-6.7 0,-3.3 -2.2,-5.5 -5.4,-5.5 z m 3.6,5.4 c 0,3.1 -1.9,5.2 -4.5,5.2 -2.1,0 -3.6,-1.6 -3.6,-4 0,-3.1 1.9,-5.2 4.5,-5.2 2.1,0.1 3.6,1.7 3.6,4 z"
             inkscape:connector-curvature="0"
             style="fill:#3b3b3b" /><path
             id="XMLID_996_"
             d="m 202.1,137.2 -1.7,0 -0.5,2.8 -1.8,0 -0.3,1.5 1.8,0 -1.2,7 c -0.1,0.3 -0.1,0.7 -0.1,1 0,1.6 0.9,2.4 2.7,2.4 0.8,0 1.6,-0.2 2.4,-0.6 l 0,0 0.3,-1.7 -0.2,0.1 c -0.8,0.4 -1.5,0.7 -2.4,0.7 -0.8,0 -1.1,-0.3 -1.1,-1.1 0,-0.2 0,-0.5 0.1,-0.9 l 1.2,-6.9 3.2,0 0.3,-1.5 -3.2,0 0.5,-2.8 z"
             inkscape:connector-curvature="0"
             style="fill:#3b3b3b" /><path
             id="XMLID_995_"
             d="m 211.8,139.7 c -1,0 -2.4,0.3 -3.2,0.7 l 1.2,-6.7 0,-0.1 -1.7,0 -3.2,18.1 1.7,0 1.7,-9.6 c 0.8,-0.3 2,-0.7 3.2,-0.7 1.8,0 2.6,0.5 2.6,1.8 0,0.4 0,0.9 -0.2,1.4 l -1.3,7.1 1.7,0 1.2,-7.1 c 0.1,-0.7 0.2,-1.3 0.2,-1.7 0.2,-2.1 -1.2,-3.2 -3.9,-3.2 z"
             inkscape:connector-curvature="0"
             style="fill:#3b3b3b" /><path
             id="XMLID_992_"
             d="m 222.9,139.7 c -3.6,0 -6.2,2.8 -6.2,6.8 0,3.2 2.2,5.4 5.5,5.4 1.4,0 2.8,-0.4 3.8,-1 l 0,0 0.4,-1.9 -0.2,0.1 c -1.6,1 -2.7,1.2 -4,1.2 -2.3,0 -3.8,-1.5 -3.8,-3.9 0,-0.1 0,-0.3 0,-0.5 l 8.7,0 0,-0.1 c 0.1,-0.3 0.2,-1 0.2,-1.6 0.2,-1.3 -0.3,-4.5 -4.4,-4.5 z m -4.1,4.7 c 0.7,-2 2.2,-3.2 4.1,-3.2 2.1,0 2.9,1.5 2.9,3 0,0.1 0,0.2 0,0.3 -0.1,-0.1 -7,-0.1 -7,-0.1 z"
             inkscape:connector-curvature="0"
             style="fill:#3b3b3b" /><path
             id="XMLID_991_"
             d="m 235.6,141.7 0.3,-1.7 -0.1,0 c -0.6,-0.2 -1.1,-0.2 -2,-0.2 -1.1,0 -2.7,0.2 -4.3,1.1 l 0,0 -1.9,10.7 1.7,0 1.7,-9.6 c 0.8,-0.4 1.7,-0.6 2.8,-0.6 0.6,0 1.2,0.1 1.6,0.3 l 0.2,0 z"
             inkscape:connector-curvature="0"
             style="fill:#3b3b3b" /><path
             id="XMLID_988_"
             d="m 241.4,139.7 c -3.6,0 -6.2,2.8 -6.2,6.8 0,3.2 2.2,5.4 5.5,5.4 1.4,0 2.8,-0.4 3.8,-1 l 0,0 0.4,-1.9 -0.2,0.1 c -1.6,1 -2.7,1.2 -4,1.2 -2.3,0 -3.8,-1.5 -3.8,-3.9 0,-0.1 0,-0.3 0,-0.5 l 8.7,0 0,-0.1 c 0.1,-0.3 0.2,-1 0.2,-1.6 0.2,-1.3 -0.3,-4.5 -4.4,-4.5 z m -4.2,4.7 c 0.7,-2 2.2,-3.2 4.1,-3.2 2.1,0 2.9,1.5 2.9,3 0,0.1 0,0.2 0,0.3 0,-0.1 -7,-0.1 -7,-0.1 z"
             inkscape:connector-curvature="0"
             style="fill:#3b3b3b" /></g><g
           id="XMLID_973_"><path
             id="XMLID_984_"
             d="m 265.2,115.9 0,-3.5 c 0,-7.4 -3.2,-13.2 -12.6,-13.2 -8.4,0 -14.6,5.7 -14.6,14.9 0,8.7 6.1,14.3 15.8,14.3 2.5,0 4.7,-0.3 6.7,-1 0,0 0,0 0,0 1.1,-0.3 3.3,-1.2 3.3,-1.2 l 0,-6.8 c -3,1.6 -5.2,2.5 -9.2,2.5 -4,0 -8.2,-2 -8.8,-6 l 0,-0.1 19.4,0 z m -12.5,-10.5 c 3.8,0 5.8,2.5 5.8,6 l -12.5,0 c 0.7,-3.7 3.2,-6 6.7,-6 z"
             inkscape:connector-curvature="0"
             style="fill:#3b3b3b" /><path
             id="XMLID_982_"
             d="m 202.7,127.9 0,-41.5 -7.8,2.7 0,0 0,38.9 7.8,0 z"
             inkscape:connector-curvature="0"
             style="fill:#3b3b3b" /><path
             id="XMLID_979_"
             d="m 234.4,86.4 -7.8,2.7 0,0 0,0.2 0,10.8 c -1.3,-0.6 -3.3,-0.9 -5.3,-0.9 -8.7,0 -14.7,5.8 -14.7,14.7 0,9.4 5.4,14.6 15.1,14.6 1.6,0 3.9,-0.7 5.4,-1.4 l 1.7,1.2 5.5,0 0.1,-41.9 0,0 z m -20.1,27.3 c 0,-5 3.1,-7.8 7.7,-7.8 1.9,0 3.5,0.3 4.6,0.9 l 0,14.9 c -1.3,0.3 -2.7,0.3 -3.6,0.3 -5.3,0 -8.7,-3 -8.7,-8.3 z"
             inkscape:connector-curvature="0"
             style="fill:#3b3b3b" /><path
             id="XMLID_976_"
             d="m 176.6,128.5 c -8.2,0 -14.4,-5.9 -14.4,-14.6 0,-8.7 6.2,-14.6 14.4,-14.6 8.2,0 14.3,5.9 14.3,14.6 0,8.7 -6.1,14.6 -14.3,14.6 z m 0,-6.6 c 4,0 6.9,-3.1 6.9,-8.1 0,-5 -2.9,-8.1 -6.9,-8.1 -4,0 -6.9,3.1 -6.9,8.1 0,5 2.9,8.1 6.9,8.1 z"
             inkscape:connector-curvature="0"
             style="fill:#3b3b3b" /><polygon
             id="XMLID_975_"
             points="150.5,104.7 133.5,104.7 133.5,89.1 125.5,89.1 125.5,127.9 133.5,127.9 133.5,112.3 150.5,112.3 150.5,127.9 158.4,127.9 158.4,89.1 150.5,89.1 "
             style="fill:#3b3b3b" /><path
             id="XMLID_974_"
             d="m 282.6,99.3 c -1.8,0 -4.1,0.7 -6.4,1.7 l -1.7,-1.2 -5.3,1.8 0,26.2 7.5,0 0,-21 c 1.6,-0.5 3.5,-0.8 5.3,-0.8 3.3,0 5,1.6 5,4.8 l 0,17.1 7.6,0 0,-17.6 c 0,-8.3 -4.7,-11 -12,-11 z"
             inkscape:connector-curvature="0"
             style="fill:#3b3b3b" /></g></g></g><g
       id="g46"><g
         id="g48"><path
           d="m 62.2,78.7 c 24.2,0 42.9,19.6 42.9,42.7 0,23.1 -18.6,42.9 -42.8,42.9 C 38,164.3 19.5,144.5 19.5,121.4 19.4,98.3 37.9,78.7 62.2,78.7 m 0,-1.9 c -6.2,0 -12.1,1.2 -17.6,3.6 -5.3,2.3 -10.1,5.5 -14.2,9.7 -4,4.1 -7.2,8.9 -9.4,14.2 -2.3,5.4 -3.4,11.2 -3.4,17.1 0,5.9 1.1,11.7 3.4,17.2 2.2,5.3 5.4,10.1 9.4,14.3 4.1,4.2 8.9,7.5 14.2,9.8 5.6,2.4 11.5,3.6 17.7,3.6 6.1,0 12.1,-1.2 17.6,-3.6 5.3,-2.3 10.1,-5.6 14.2,-9.8 4,-4.1 7.2,-8.9 9.4,-14.3 2.3,-5.5 3.4,-11.2 3.4,-17.2 0,-5.9 -1.2,-11.7 -3.4,-17.1 C 101.3,99 98.1,94.2 94.1,90.1 90,86 85.2,82.7 79.9,80.4 74.3,78 68.3,76.8 62.2,76.8 l 0,0 z"
           id="path50"
           inkscape:connector-curvature="0"
           style="fill:#3b3b3b" /></g></g></g></svg>