<?xml version="1.0" encoding="UTF-8"?>
<svg width="278px" height="51px" viewBox="0 0 278 51" version="1.1" xmlns="http://www.w3.org/2000/svg" xmlns:xlink="http://www.w3.org/1999/xlink">
    <!-- Generator: sketchtool 42 (36781) - http://www.bohemiancoding.com/sketch -->
    <title>2E1A409D-310E-40E7-B0E0-421AF6E120E3</title>
    <desc>Created with sketchtool.</desc>
    <defs>
        <polygon id="path-1" points="28.1262126 41.8584906 0.443827972 41.8584906 0.443827972 0.361907547 28.1262126 0.361907547"></polygon>
    </defs>
    <g id="Desktop" stroke="none" stroke-width="1" fill="none" fill-rule="evenodd">
        <g id="Desktop---Homepage" transform="translate(-379.000000, -4709.000000)">
            <g id="Living-Room-logo-header" transform="translate(379.000000, 4709.000000)">
                <path d="M238.152248,37.9750811 C240.399577,37.9192698 240.961409,37.4188925 240.961409,35.9730906 L240.961409,22.4590528 C240.961409,19.1219208 239.725475,17.3980245 236.860423,17.3980245 C234.89401,17.3980245 233.714454,18.4545906 232.197605,20.011534 L232.197605,35.9730906 C232.197605,37.4188925 232.703059,37.9192698 234.89401,37.9750811 L234.89401,39.3655528 L220.849664,39.3655528 L220.849664,37.9750811 C224.051524,37.9192698 224.725626,37.4188925 224.725626,35.9730906 L224.725626,18.1764962 C224.725626,16.5079302 224.051524,15.5071755 220.849664,15.4513642 L220.849664,14.0613736 L232.084849,13.5605151 L232.084849,18.4545906 C234.725363,15.5071755 237.81544,13.3935623 241.466863,13.3935623 C245.230556,13.3935623 247.477884,15.2844113 248.151986,18.7326849 C250.68023,15.7294585 254.163007,13.3935623 257.70216,13.3935623 C262.421356,13.3935623 264.668685,16.2298358 264.668685,21.457817 L264.668685,35.9730906 C264.668685,37.4188925 265.286409,37.9192698 268.488755,37.9750811 L268.488755,39.3655528 L254.443923,39.3655528 L254.443923,37.9750811 C256.634874,37.9192698 257.196706,37.4188925 257.196706,35.9730906 L257.196706,22.4590528 C257.196706,19.1219208 256.129419,17.3980245 253.320744,17.3980245 C251.859786,17.3980245 249.949751,18.5104019 248.320633,20.2896283 C248.37701,20.7904868 248.432902,21.0685811 248.432902,21.4020057 L248.432902,35.9730906 C248.432902,37.4188925 248.994734,37.9192698 251.297954,37.9750811 L251.297954,39.3655528 L238.152248,39.3655528 L238.152248,37.9750811 Z" id="Fill-1" fill="#000000"></path>
                <g id="Group-5" transform="translate(270.223776, 32.404245)" fill="#000000">
                    <path d="M7.70978566,3.57490755 C7.73457238,4.79938868 7.16399196,5.71594528 6.23716329,6.37653962 C4.89722273,7.33158679 3.43091853,7.37296415 2.01175769,6.56851132 C0.373404545,5.63944528 -0.349298252,3.38389811 0.957593357,1.60659623 C2.22851993,-0.121630189 4.75336259,-0.347281132 6.28916678,0.805030189 C7.20238706,1.48968113 7.74186259,2.4206717 7.70978566,3.57490755" id="Fill-3"></path>
                </g>
                <path d="M177.81643,38.1176887 C173.771336,38.1176887 171.97357,34.2801792 171.97357,26.4386887 C171.97357,18.5971981 173.322259,14.8155 177.31049,14.8155 C181.299693,14.8155 183.096972,18.5971981 183.096972,26.4386887 C183.096972,34.2801792 181.692878,38.1176887 177.81643,38.1176887 M177.591892,13.0916038 C169.389434,13.0916038 163.996623,18.3749151 163.996623,26.5503113 C163.996623,34.7810377 169.052626,39.8415849 177.591892,39.8415849 C185.681109,39.8415849 191.130784,34.5582736 191.130784,26.3275472 C191.130784,18.1521509 185.962025,13.0916038 177.591892,13.0916038" id="Fill-6" fill="#000000"></path>
                <path d="M207.535311,38.1176887 C203.490216,38.1176887 201.692451,34.2801792 201.692451,26.4386887 C201.692451,18.5971981 203.04114,14.8155 207.02937,14.8155 C211.018573,14.8155 212.815853,18.5971981 212.815853,26.4386887 C212.815853,34.2801792 211.411758,38.1176887 207.535311,38.1176887 M207.310772,13.0916038 C199.108314,13.0916038 193.715503,18.3749151 193.715503,26.5503113 C193.715503,34.7810377 198.771507,39.8415849 207.310772,39.8415849 C215.399989,39.8415849 220.849664,34.5582736 220.849664,26.3275472 C220.849664,18.1521509 215.680905,13.0916038 207.310772,13.0916038" id="Fill-8" fill="#000000"></path>
                <path d="M76.958565,37.9875425 C80.1657713,37.9322123 80.8403587,37.4308726 80.8403587,35.982184 L80.8403587,18.1581651 C80.8403587,16.4871934 80.1657713,15.4845142 76.958565,15.429184 L76.958565,14.0363066 L88.2112469,13.5354481 L88.2112469,18.4367406 C90.856135,15.4845142 94.400635,13.3680142 98.0578902,13.3680142 C102.727513,13.3680142 104.921866,16.2086179 104.921866,21.4447783 L104.921866,35.982184 C104.921866,37.4308726 105.541048,37.9322123 108.804145,37.9875425 L108.804145,39.3804198 L94.3442573,39.3804198 L94.3442573,37.9875425 C96.5949881,37.9322123 97.4391944,37.4308726 97.4391944,35.982184 L97.4391944,22.4469764 C97.4391944,19.0497028 96.313586,17.3787311 93.500051,17.3787311 C91.4748308,17.3787311 89.8432818,18.4367406 88.3240021,19.9960896 L88.3240021,35.982184 C88.3240021,37.4308726 89.1677224,37.9322123 91.3625615,37.9875425 L91.3625615,39.3804198 L76.958565,39.3804198 L76.958565,37.9875425 Z" id="Fill-10" fill="#7FC241"></path>
                <g id="Group-14" transform="translate(108.867133, 8.828774)">
                    <mask id="mask-2" fill="white">
                        <use xlink:href="#path-1"></use>
                    </mask>
                    <g id="Clip-13"></g>
                    <path d="M17.3230937,13.1172 C17.3230937,8.71676604 16.0288385,6.09892642 12.990765,6.09892642 C10.1213385,6.09892642 9.22075455,8.15961509 9.22075455,13.1172 C9.22075455,18.0189736 10.5709014,20.1349925 13.4971916,20.1349925 C16.3666182,20.1349925 17.3230937,18.0189736 17.3230937,13.1172 M21.8804469,35.1188887 C21.8804469,33.0577189 20.3611671,31.8880868 14.3409119,31.8880868 L8.43292587,31.8880868 C6.40770559,32.6680019 5.28258322,33.7818226 5.28258322,35.564417 C5.28258322,38.4050208 8.15200979,40.2429453 13.7781077,40.2429453 C18.6168629,40.2429453 21.8804469,38.2375868 21.8804469,35.1188887 M18.5045937,5.37482264 C19.798849,2.64536038 21.6554224,0.361907547 24.6376042,0.361907547 C26.888335,0.361907547 28.1262126,1.69849245 28.1262126,3.42527547 C28.1262126,4.92929434 27.1133594,6.21054906 25.3690552,6.21054906 C24.0184224,6.21054906 22.6682755,5.15205849 22.6682755,3.20251132 C21.5431531,3.59270943 20.4734364,4.70653019 19.8547406,5.93197358 C22.6682755,7.32436981 24.5812266,9.66363396 24.5812266,13.0055774 C24.5812266,18.4086906 19.6860937,21.750634 13.2716811,21.750634 C12.1465587,21.750634 11.0214364,21.6390113 9.95220559,21.4725396 C7.75785245,22.1966434 6.7449993,22.920266 6.7449993,23.9787566 C6.7449993,25.0925774 7.87060769,25.8166811 12.3715832,25.8166811 L16.4793734,25.8166811 C23.5688594,25.8166811 26.8314713,27.9894736 26.8314713,32.6680019 C26.8314713,37.5139642 21.3181287,41.8585868 12.3152056,41.8585868 C5.33847483,41.8585868 0.443827972,39.5193226 0.443827972,36.2327094 C0.443827972,33.837634 2.46904825,31.9997094 6.91413217,31.3309358 L6.91413217,31.163983 C3.42552378,30.0501623 2.18764615,28.2122377 2.18764615,26.0952566 C2.18764615,24.0898981 4.04470559,22.1403509 7.70147483,20.8595774 C4.26973007,19.5783226 1.96262168,17.0716245 1.96262168,13.2283415 C1.96262168,7.88152075 6.85775455,4.53909623 13.2716811,4.53909623 C15.1282545,4.53909623 16.9289364,4.8176717 18.5045937,5.37482264" id="Fill-12" fill="#7FC241" mask="url(#mask-2)"></path>
                </g>
                <path d="M0.281450699,37.9875425 C3.48865699,37.9322123 4.16373042,37.4308726 4.16373042,35.982184 L4.16373042,4.67925 C4.16373042,2.95246698 3.48865699,2.00511792 4.86013986e-05,1.94978774 L4.86013986e-05,0.557391509 L11.6468878,0.000240566038 L11.6468878,35.982184 C11.6468878,37.4308726 12.2655836,37.9322123 15.5291675,37.9875425 L15.5291675,39.3804198 L0.281450699,39.3804198 L0.281450699,37.9875425 Z" id="Fill-15" fill="#7FC241"></path>
                <path d="M35.4870402,18.5482189 C34.4741871,16.0420019 33.5740892,15.4290396 30.9860647,14.9835113 L30.9860647,13.6464453 L46.2337815,13.6464453 L46.2337815,14.9835113 C43.8144038,15.2616057 42.8579283,15.6518038 42.8579283,16.7656245 C42.8579283,17.1000113 42.9138199,17.3785868 43.0829528,17.8799264 L48.8781836,33.1414358 L49.1036941,33.1414358 L53.9983409,20.6647189 C54.4488759,19.3834642 54.6739003,18.4370774 54.6739003,17.8241151 C54.6739003,16.2089547 53.6041836,15.3732283 50.9038899,14.9835113 L50.9038899,13.6464453 L61.7629003,13.6464453 L61.7629003,14.9835113 C59.7940577,15.2062755 58.1620227,16.4317189 57.092792,18.938417 L48.4281346,39.7141811 L44.0394283,39.7141811 L35.4870402,18.5482189 Z" id="Fill-17" fill="#7FC241"></path>
                <path d="M20.8870343,5.06752358 C20.8870343,2.65608962 22.9020483,0.737334906 25.2878909,0.737334906 C27.7262231,0.737334906 29.635286,2.65608962 29.635286,5.06752358 C29.635286,7.47895755 27.620272,9.39771226 25.2344294,9.39771226 C22.7960972,9.39771226 20.8870343,7.47895755 20.8870343,5.06752358" id="Fill-19" fill="#7FC241"></path>
                <path d="M62.9624801,5.06752358 C62.9624801,2.65608962 64.9774941,0.737334906 67.3633367,0.737334906 C69.8016689,0.737334906 71.7107318,2.65608962 71.7107318,5.06752358 C71.7107318,7.47895755 69.6957178,9.39771226 67.3098752,9.39771226 C64.871543,9.39771226 62.9624801,7.47895755 62.9624801,5.06752358" id="Fill-21" fill="#7FC241"></path>
                <path d="M158.681282,13.3214887 C155.649527,13.3214887 152.898202,15.4894698 150.989625,18.4907717 L150.989625,13.5437717 L139.760272,14.0441491 L139.760272,15.4336585 C142.960674,15.4894698 143.634289,16.4897434 143.634289,18.156866 L143.634289,35.9433566 C143.634289,37.3881962 142.960674,37.8885736 139.760272,37.9443849 L139.760272,39.3334132 L156.154981,39.3334132 L156.154981,37.9443849 C152.056426,37.8332434 151.101894,37.3881962 151.101894,35.9433566 L151.101894,20.1578943 C152.150226,18.695734 153.562583,17.4770264 155.029859,17.0723943 C154.998754,17.2864981 154.977856,17.5034887 154.977856,17.7262528 C154.977856,20.1453849 156.862618,22.1059981 159.187709,22.1059981 C161.513286,22.1059981 163.397562,20.1453849 163.397562,17.7262528 C163.397562,15.632366 162.002216,13.3214887 158.681282,13.3214887" id="Fill-23" fill="#000000"></path>
                <path d="M71.0760462,35.982184 L71.0760462,13.6465896 L63.5928888,13.6465896 L63.5928888,35.6752217 L63.5928888,35.982184 C63.5928888,37.4308726 62.7486825,37.9322123 59.5419622,37.9875425 L59.5419622,39.3799387 L74.9583259,39.3799387 L74.9583259,37.9875425 C71.694742,37.9322123 71.0760462,37.4308726 71.0760462,35.982184" id="Fill-25" fill="#7FC241"></path>
                <path d="M29.0123133,35.982184 L29.0123133,13.6465896 L21.5291559,13.6465896 L21.5291559,35.6752217 L21.5291559,35.982184 C21.5291559,37.4308726 20.6849497,37.9322123 17.4782294,37.9875425 L17.4782294,39.3799387 L32.894593,39.3799387 L32.894593,37.9875425 C29.6310091,37.9322123 29.0123133,37.4308726 29.0123133,35.982184" id="Fill-27" fill="#7FC241"></path>
            </g>
        </g>
    </g>
</svg>