<?xml version="1.0" encoding="UTF-8"?>
<svg width="189px" height="21px" viewBox="0 0 189 21" version="1.1" xmlns="http://www.w3.org/2000/svg" xmlns:xlink="http://www.w3.org/1999/xlink">
    <!-- Generator: sketchtool 42 (36781) - http://www.bohemiancoding.com/sketch -->
    <title>611219AB-A33D-4D14-99BB-8A44C860EC58</title>
    <desc>Created with sketchtool.</desc>
    <defs>
        <polygon id="path-1" points="0 0.139227273 0 14.7694091 7.88807094 14.7694091 7.88807094 0.139227273 3.61273291e-21 0.139227273"></polygon>
    </defs>
    <g id="Desktop" stroke="none" stroke-width="1" fill="none" fill-rule="evenodd">
        <g id="Mobile---Homepage" transform="translate(-66.000000, -2588.000000)">
            <g id="Group-2" transform="translate(66.000000, 2588.000000)">
                <g id="Page-1">
                    <path d="M24.1818969,0.978218182 C26.092423,0.978218182 26.8625513,3.21649091 26.5237375,6.36894545 L21.47032,6.40058182 C21.624399,2.90121818 22.5179505,0.978218182 24.1818969,0.978218182 L24.1818969,0.978218182 Z M21.4393976,7.31476364 L30.7142594,7.31476364 C30.9299166,3.18485455 28.742155,0.00103636364 24.3975542,0.00103636364 C20.2070323,0.00103636364 17.1257192,2.99585455 17.1257192,7.78767273 C17.1257192,12.4215818 19.8988743,15.1641273 24.3975542,15.1641273 C27.4479449,15.1641273 29.3584709,13.6510364 30.7142594,11.4444 L30.0979434,10.9714909 C28.9271564,12.6108545 27.6329463,13.5566727 25.9074216,13.5566727 C22.9495316,13.5566727 21.4393976,11.2867636 21.4393976,7.69303636 L21.4393976,7.6614 L21.4393976,7.31476364 Z" id="Fill-1" fill="#000000"></path>
                    <path d="M41.6911341,3.09035455 C41.1673189,1.60862727 40.7050819,1.23035455 39.5033725,1.07271818 L39.5033725,0.316172727 L47.1758661,0.316172727 L47.1758661,1.07271818 C45.9435008,1.19899091 45.4503415,1.41962727 45.4503415,2.05017273 C45.4503415,2.23917273 45.5119197,2.45980909 45.573498,2.74371818 L48.1928408,10.9399909 L48.3469197,10.9399909 L50.5653372,4.25680909 C50.8119169,3.50026364 50.9044176,2.93271818 50.9044176,2.61744545 C50.9044176,1.70326364 50.3187575,1.29362727 48.9323133,1.07271818 L48.9323133,0.316172727 L54.8483598,0.316172727 L54.8483598,1.07271818 C53.4616489,1.26199091 52.5990199,2.01853636 52.1061271,3.50026364 L48.1619183,15.0696273 L45.6969212,15.0696273 L42.8006094,6.46344545 L39.4417942,15.0696273 L37.0077195,15.0696273 L32.5703513,3.09035455 C32.0468027,1.70326364 31.5845657,1.29362727 30.167199,1.07271818 L30.167199,0.316172727 L37.9937717,0.316172727 L37.9937717,1.07271818 C36.9152188,1.16735455 36.4529818,1.41962727 36.4529818,1.9869 C36.4529818,2.17617273 36.5454825,2.45980909 36.6377166,2.74371818 L39.5958732,11.0346273 L39.7499522,11.0346273 L42.2458718,4.76108182 L41.6911341,3.09035455 Z" id="Fill-3" fill="#000000"></path>
                    <path d="M54.3779124,9.89967273 L55.240808,9.89967273 C56.9047544,12.7368545 58.5993567,14.1239455 60.4789604,14.1239455 C62.0504061,14.1239455 62.8514568,13.2727636 62.8514568,12.1063091 C62.8514568,10.7192182 61.8963271,10.0886727 58.9381705,9.20612727 C55.703045,8.26030909 54.4088348,7.22012727 54.4088348,4.91885455 C54.4088348,1.98703636 56.6890972,0.0640363636 60.0783017,0.0640363636 C61.4031677,0.0640363636 62.7283003,0.505309091 63.5602735,1.04121818 L64.3304018,0.0640363636 L65.1317192,0.0640363636 L65.1317192,4.72958182 L64.2688236,4.72958182 C62.7283003,2.33394545 61.5265908,1.04121818 59.8319886,1.04121818 C58.5377784,1.04121818 57.6133045,1.86103636 57.6133045,3.15349091 C57.6133045,4.44594545 58.8459364,4.98185455 60.9718532,5.51776364 C64.2381677,6.36894545 65.9636924,7.5354 65.9636924,10.1203091 C65.9636924,12.9574909 63.68343,15.1327636 60.2017248,15.1327636 C59.0615937,15.1327636 56.9663327,14.5968545 56.1343595,14.0609455 L55.2098856,15.1327636 L54.3779124,15.1327636 L54.3779124,9.89967273 Z" id="Fill-5" fill="#000000"></path>
                    <path d="M88.0121285,14.1869727 C85.7934444,14.1869727 84.8073922,12.0117 84.8073922,7.56679091 C84.8073922,3.12188182 85.5471313,0.978245455 87.7346264,0.978245455 C89.9226546,0.978245455 90.9084402,3.12188182 90.9084402,7.56679091 C90.9084402,12.0117 90.1383118,14.1869727 88.0121285,14.1869727 M87.8889719,0.00106363636 C83.3900255,0.00106363636 80.4321355,2.99588182 80.4321355,7.63006364 C80.4321355,12.2956091 83.2052907,15.1641545 87.8889719,15.1641545 C92.3258069,15.1641545 95.3148859,12.1693364 95.3148859,7.50379091 C95.3148859,2.86960909 92.4798859,0.00106363636 87.8889719,0.00106363636" id="Fill-7" fill="#000000"></path>
                    <path d="M104.312539,14.1869727 C102.093855,14.1869727 101.107803,12.0117 101.107803,7.56679091 C101.107803,3.12188182 101.847542,0.978245455 104.035037,0.978245455 C106.223065,0.978245455 107.20885,3.12188182 107.20885,7.56679091 C107.20885,12.0117 106.438722,14.1869727 104.312539,14.1869727 M104.189382,0.00106363636 C99.6904358,0.00106363636 96.7325458,2.99588182 96.7325458,7.63006364 C96.7325458,12.2956091 99.505701,15.1641545 104.189382,15.1641545 C108.626217,15.1641545 111.615296,12.1693364 111.615296,7.50379091 C111.615296,2.86960909 108.780296,0.00106363636 104.189382,0.00106363636" id="Fill-9" fill="#000000"></path>
                    <path d="M121.085316,14.0924182 C122.317948,14.0607818 122.626106,13.7771455 122.626106,12.9576 L122.626106,5.29723636 C122.626106,3.4056 121.948211,2.42841818 120.376766,2.42841818 C119.298213,2.42841818 118.651241,3.02732727 117.819268,3.90987273 L117.819268,12.9576 C117.819268,13.7771455 118.096503,14.0607818 119.298213,14.0924182 L119.298213,14.8806 L111.595063,14.8806 L111.595063,14.0924182 C113.351244,14.0607818 113.72098,13.7771455 113.72098,12.9576 L113.72098,2.86969091 C113.72098,1.92387273 113.351244,1.3566 111.595063,1.32496364 L111.595063,0.537054545 L117.757423,0.253145455 L117.757423,3.02732727 C119.205712,1.3566 120.900581,0.158509091 122.903341,0.158509091 C124.96768,0.158509091 126.200312,1.23032727 126.570048,3.18496364 C127.956759,1.4826 129.867018,0.158509091 131.8082,0.158509091 C134.39662,0.158509091 135.629252,1.76623636 135.629252,4.72969091 L135.629252,12.9576 C135.629252,13.7771455 135.968066,14.0607818 137.724513,14.0924182 L137.724513,14.8806 L130.021097,14.8806 L130.021097,14.0924182 C131.222807,14.0607818 131.530965,13.7771455 131.530965,12.9576 L131.530965,5.29723636 C131.530965,3.4056 130.945571,2.42841818 129.405048,2.42841818 C128.60373,2.42841818 127.5561,3.05896364 126.662549,4.06750909 C126.693471,4.35141818 126.724127,4.50905455 126.724127,4.69805455 L126.724127,12.9576 C126.724127,13.7771455 127.032285,14.0607818 128.295572,14.0924182 L128.295572,14.8806 L121.085316,14.8806 L121.085316,14.0924182 Z" id="Fill-11" fill="#000000"></path>
                    <path d="M155.740852,7.57750909 C155.740852,4.26223636 154.722544,1.89441818 152.531317,1.89441818 C151.60551,1.89441818 150.772204,2.30487273 149.87732,3.03114545 L149.87732,12.0292364 C150.525625,13.6080545 151.543932,14.1447818 152.747507,14.1447818 C154.568465,14.1447818 155.740852,12.1557818 155.740852,7.57750909 L155.740852,7.57750909 Z M143.674175,20.1120545 C145.433554,20.0804182 145.772901,19.7965091 145.772901,18.9753273 L145.772901,2.87296364 C145.772901,1.92578182 145.402632,1.35769091 143.643519,1.32605455 L143.643519,0.536781818 L149.815475,0.2526 L149.815475,2.1786 C151.204318,0.947236364 152.593162,0.0630545455 154.382931,0.0630545455 C158.024579,0.0630545455 160.092117,3.03114545 160.092117,7.38823636 C160.092117,11.6187818 157.715888,15.1236 153.549625,15.1236 C152.068547,15.1236 150.957739,14.8394182 149.87732,14.3340545 L149.87732,18.9753273 C149.87732,19.7965091 150.432857,20.0490545 152.77843,20.1120545 L152.77843,20.9013273 L143.674175,20.9013273 L143.674175,20.1120545 Z" id="Fill-13" fill="#E12E21"></path>
                    <path d="M184.412551,7.57750909 C184.412551,3.12578182 183.4249,0.978872727 181.233939,0.978872727 C179.042712,0.978872727 178.302173,3.12578182 178.302173,7.57750909 C178.302173,12.0292364 179.289559,14.2080545 181.511441,14.2080545 C183.640824,14.2080545 184.412551,12.0292364 184.412551,7.57750909 M173.919986,7.64050909 C173.919986,2.99950909 176.882408,5.45454545e-05 181.388018,5.45454545e-05 C185.986396,5.45454545e-05 188.825661,2.87296364 188.825661,7.51450909 C188.825661,12.1871455 185.832051,15.1866 181.388018,15.1866 C176.697406,15.1866 173.919986,12.3134182 173.919986,7.64050909" id="Fill-15" fill="#E12E21"></path>
                    <path d="M142.904873,12.9610364 C142.918468,13.6551273 142.605512,14.1746727 142.097158,14.5491273 C141.362217,15.0904909 140.557967,15.1139455 139.779575,14.6579455 C138.880959,14.1313091 138.484565,12.8527636 139.201379,11.8453091 C139.898466,10.8656727 141.283311,10.7377636 142.125681,11.3909455 C142.626571,11.7790364 142.922466,12.3067636 142.904873,12.9610364" id="Fill-17" fill="#000000"></path>
                    <path d="M77.5167106,0.157745455 C75.8538305,0.157745455 74.3447628,1.38665455 73.297932,3.08792727 L73.297932,0.283745455 L67.1387712,0.567381818 L67.1387712,1.35501818 C68.894152,1.38665455 69.2636217,1.95365455 69.2636217,2.89865455 L69.2636217,12.9808364 C69.2636217,13.7998364 68.894152,14.0834727 67.1387712,14.1151091 L67.1387712,14.9024727 L76.131066,14.9024727 L76.131066,14.1151091 C73.883059,14.0521091 73.3595103,13.7998364 73.3595103,12.9808364 L73.3595103,4.03292727 C73.9345075,3.20410909 74.7091676,2.51329091 75.5139504,2.28392727 C75.4968897,2.40529091 75.4854271,2.52829091 75.4854271,2.65456364 C75.4854271,4.02583636 76.5191958,5.1372 77.7944793,5.1372 C79.0700293,5.1372 80.1035315,4.02583636 80.1035315,2.65456364 C80.1035315,1.46765455 79.3382014,0.157745455 77.5167106,0.157745455" id="Fill-19" fill="#000000"></path>
                    <path d="M170.901531,0.157745455 C169.23865,0.157745455 167.729583,1.38665455 166.682752,3.08792727 L166.682752,0.283745455 L160.523591,0.567381818 L160.523591,1.35501818 C162.278972,1.38665455 162.648442,1.95365455 162.648442,2.89865455 L162.648442,12.9808364 C162.648442,13.7998364 162.278972,14.0834727 160.523591,14.1151091 L160.523591,14.9024727 L169.515886,14.9024727 L169.515886,14.1151091 C167.267879,14.0521091 166.74433,13.7998364 166.74433,12.9808364 L166.74433,4.03292727 C167.319328,3.20410909 168.093988,2.51329091 168.89877,2.28392727 C168.88171,2.40529091 168.870247,2.52829091 168.870247,2.65456364 C168.870247,4.02583636 169.904016,5.1372 171.179299,5.1372 C172.454849,5.1372 173.488351,4.02583636 173.488351,2.65456364 C173.488351,1.46765455 172.723021,0.157745455 170.901531,0.157745455" id="Fill-21" fill="#E12E21"></path>
                    <g id="Group-25" transform="translate(0.000000, 0.174191)">
                        <mask id="mask-2" fill="white">
                            <use xlink:href="#path-1"></use>
                        </mask>
                        <g id="Clip-24"></g>
                        <path d="M6.22439111,0.139227273 L-7.99717909e-05,0.425863636 L-7.99717909e-05,1.21377273 C1.75636714,1.24540909 2.12610339,1.81295455 2.12610339,2.7585 L2.12610339,12.8464091 C2.12610339,13.6659545 1.75636714,13.9495909 -7.99717909e-05,13.9812273 L-7.99717909e-05,14.7694091 L7.88807094,14.7694091 L7.88807094,13.9812273 C6.6863615,13.9495909 6.22412454,13.6659545 6.22412454,12.8464091 L6.22439111,0.139227273 Z" id="Fill-23" fill="#000000" mask="url(#mask-2)"></path>
                    </g>
                    <path d="M15.3140649,13.0204909 L15.3140649,4.79258182 C15.3140649,1.8294 14.1123554,0.221672727 11.5548575,0.221672727 C10.0241975,0.221672727 8.56631171,0.889581818 7.31715233,1.95021818 L7.31715233,3.03621818 C7.84549929,2.69449091 8.41569817,2.49158182 9.05893794,2.49158182 C10.5997278,2.49158182 11.2160437,3.43712727 11.2160437,5.36012727 L11.2160437,13.0204909 C11.2160437,13.8400364 10.7538068,14.1236727 9.52144147,14.1553091 L9.52144147,14.9434909 L17.4402482,14.9434909 L17.4402482,14.1553091 C15.6528787,14.1236727 15.3140649,13.8400364 15.3140649,13.0204909" id="Fill-26" fill="#000000"></path>
                </g>
            </g>
        </g>
    </g>
</svg>