<?xml version="1.0" encoding="UTF-8" standalone="no"?>
<svg
   xmlns:dc="http://purl.org/dc/elements/1.1/"
   xmlns:cc="http://creativecommons.org/ns#"
   xmlns:rdf="http://www.w3.org/1999/02/22-rdf-syntax-ns#"
   xmlns:svg="http://www.w3.org/2000/svg"
   xmlns="http://www.w3.org/2000/svg"
   xmlns:xlink="http://www.w3.org/1999/xlink"
   xmlns:sodipodi="http://sodipodi.sourceforge.net/DTD/sodipodi-0.dtd"
   xmlns:inkscape="http://www.inkscape.org/namespaces/inkscape"
   width="366.53983"
   height="70.243843"
   viewBox="0 0 366.53983 70.243843"
   version="1.1"
   id="svg6435"
   inkscape:version="0.91 r13725"
   sodipodi:docname="newsroom-logo.svg">
  <metadata
     id="metadata6488">
    <rdf:RDF>
      <cc:Work
         rdf:about="">
        <dc:format>image/svg+xml</dc:format>
        <dc:type
           rdf:resource="http://purl.org/dc/dcmitype/StillImage" />
        <dc:title>D8A75689-DFFC-43E7-9695-4C78C2551E92</dc:title>
      </cc:Work>
    </rdf:RDF>
  </metadata>
  <sodipodi:namedview
     pagecolor="#ffffff"
     bordercolor="#666666"
     borderopacity="1"
     objecttolerance="10"
     gridtolerance="10"
     guidetolerance="10"
     inkscape:pageopacity="0"
     inkscape:pageshadow="2"
     inkscape:window-width="640"
     inkscape:window-height="480"
     id="namedview6486"
     showgrid="false"
     fit-margin-top="0"
     fit-margin-left="0"
     fit-margin-right="0"
     fit-margin-bottom="0"
     inkscape:zoom="3.2425068"
     inkscape:cx="159.52186"
     inkscape:cy="33.454277"
     inkscape:current-layer="svg6435" />
  <!-- Generator: sketchtool 42 (36781) - http://www.bohemiancoding.com/sketch -->
  <title
     id="title6437">D8A75689-DFFC-43E7-9695-4C78C2551E92</title>
  <desc
     id="desc6439">Created with sketchtool.</desc>
  <defs
     id="defs6441">
    <polygon
       id="path-1"
       points="19.984463,35.991864 19.984463,0.3370854 0,0.3370854 2.9713168e-20,0.3370854 2.9713168e-20,35.991864 " />
    <polygon
       id="path-3"
       points="0.34180215,37.219968 34.804958,37.219968 34.804958,0.26647494 34.804958,0.26647494 0.34180215,0.26647494 " />
    <polygon
       id="path-5"
       points="0.51215511,37.220076 38.217273,37.220076 38.217273,0.26647494 38.217273,0.26647494 0.51215511,0.26647494 " />
    <polygon
       id="path-7"
       points="0.15259416,37.220076 37.857712,37.220076 37.857712,0.26647494 37.857712,0.26647494 0.15259416,0.26647494 " />
    <polygon
       id="path-9"
       points="0.52471218,0.5277598 0.52471218,10.229762 10.81533,10.229762 10.81533,10.229762 10.81533,0.5277598 " />
    <mask
       id="mask-2-7"
       fill="white">
      <use
         height="100%"
         width="100%"
         y="0"
         x="0"
         xlink:href="#path-1"
         id="use5881" />
    </mask>
    <mask
       id="mask-4-1"
       fill="white">
      <use
         height="100%"
         width="100%"
         y="0"
         x="0"
         xlink:href="#path-3"
         id="use5887" />
    </mask>
  </defs>
  <g
     id="Desktop"
     style="fill:none;fill-rule:evenodd;stroke:none;stroke-width:1"
     transform="translate(2.1924448e-4,17.789569)">
    <g
       id="Desktop---Homepage"
       transform="translate(-153,-532)">
      <g
         id="Newsroom-logo"
         transform="translate(153,532)">
        <g
           id="Group-3"
           transform="translate(0,0.812587)">
          <mask
             id="mask-2"
             fill="white">
            <use
               xlink:href="#path-1"
               id="use6453"
               x="0"
               y="0"
               width="100%"
               height="100%" />
          </mask>
          <g
             id="Clip-2" />
          <path
             d="m 15.769488,0.3370854 -15.76970724448,0.6985527 0,1.9203457 C 4.4498956,3.0331213 5.3866176,4.4162017 5.3866176,6.7206166 l 0,24.5847404 c 0,1.996944 -0.936722,2.689023 -5.38683684448,2.765621 l 0,1.920885 19.98468224448,0 0,-1.920885 C 16.939705,33.99438 15.76894,33.302301 15.76894,31.305357 l 5.48e-4,-30.9682716 z"
             id="Fill-1"
             mask="url(#mask-2)"
             inkscape:connector-curvature="0"
             style="fill:#000000" />
        </g>
        <g
           id="Group-6"
           transform="translate(44.397007,0.273164)">
          <mask
             id="mask-4"
             fill="white">
            <use
               xlink:href="#path-3"
               id="use6459"
               x="0"
               y="0"
               width="100%"
               height="100%" />
          </mask>
          <g
             id="Clip-5" />
          <path
             d="m 11.270591,18.090412 23.497528,0 C 35.314585,8.0258583 29.772085,0.26625917 18.764368,0.26625917 c -10.6163661,0 -18.42256585,7.29839253 -18.42256585,18.97635983 0,11.293898 7.02568935,17.977349 18.42256585,17.977349 7.728916,0 12.568738,-3.687496 16.003751,-9.065003 L 33.20655,27.002218 c -2.966378,3.994967 -6.244631,6.299921 -10.616366,6.299921 -7.494324,0 -11.319593,-5.531783 -11.319593,-14.289854 l 0,-0.07714 0,-0.844736 z M 18.218449,2.6478115 c 4.839822,0 6.791646,5.4546449 5.932756,13.1381855 l -12.802234,0.07606 C 11.739226,7.3343181 14.002926,2.6478115 18.218449,2.6478115 l 0,0 z"
             id="Fill-4"
             mask="url(#mask-4)"
             inkscape:connector-curvature="0"
             style="fill:#000000" />
        </g>
        <path
           d="m 107.65003,8.0685267 c -1.32698,-3.6103579 -2.49775,-4.5327711 -5.5425,-4.9168402 l 0,-1.8437477 19.43821,0 0,1.8437477 c -3.12259,0.3069316 -4.37228,0.8452757 -4.37228,2.3815523 0,0.4606672 0.15676,0.9990113 0.31297,1.6900121 l 6.63543,19.9753711 0.39026,0 5.62033,-16.287876 c 0.62485,-1.843208 0.85889,-3.2262885 0.85889,-3.9944268 0,-2.2283562 -1.48319,-3.2268281 -4.99603,-3.7646327 l 0,-1.8437477 14.9881,0 0,1.8437477 c -3.51285,0.4612066 -5.69871,2.3044148 -6.94731,5.9158515 l -9.99262,28.195098 -6.24463,0 -7.33866,-20.973304 -8.50888,20.973304 -6.166795,0 L 84.543303,8.0685267 C 83.216325,4.687963 82.045012,3.6894911 78.454335,3.1516865 l 0,-1.8437477 19.827923,0 0,1.8437477 c -2.731786,0.2303336 -3.9031,0.8452757 -3.9031,2.2278167 0,0.4606672 0.234044,1.1527469 0.468087,1.8437477 l 7.494875,20.2057051 0.39025,0 6.32301,-15.288865 -1.40535,-4.0715643 z"
           id="Fill-7"
           inkscape:connector-curvature="0"
           style="fill:#000000" />
        <path
           d="m 141.14247,24.663226 2.18587,0 c 4.21552,6.914324 8.50942,10.294348 13.27087,10.294348 3.98148,0 6.01113,-2.074081 6.01113,-4.916301 0,-3.380563 -2.41991,-4.91684 -9.91423,-7.068598 -8.19646,-2.304415 -11.47581,-4.839703 -11.47581,-10.448083 0,-7.1451966 5.77709,-11.8311638 14.36435,-11.8311638 3.35664,0 6.71327,1.0756094 8.8213,2.3815523 l 1.95128,-2.3815523 2.02966,0 0,11.3699568 -2.18587,0 c -3.9031,-5.8387139 -6.94731,-8.9884045 -11.24121,-8.9884045 -3.27826,0 -5.62034,1.9974832 -5.62034,5.1471738 0,3.1502297 3.12259,4.4561727 8.50888,5.7626557 8.27484,2.074081 12.64657,4.9163 12.64657,11.216221 0,6.914323 -5.77709,12.215233 -14.59839,12.215233 -2.888,0 -8.19646,-1.305943 -10.30449,-2.611886 l -2.34153,2.611886 -2.10804,0 0,-12.753038 z"
           id="Fill-9"
           inkscape:connector-curvature="0"
           style="fill:#000000" />
        <g
           id="Group-13"
           transform="translate(206.63792,0.273164)">
          <mask
             id="mask-6"
             fill="white">
            <use
               xlink:href="#path-5"
               id="use6467"
               x="0"
               y="0"
               width="100%"
               height="100%" />
          </mask>
          <g
             id="Clip-12" />
          <path
             d="m 19.403904,0.26636705 c -11.3974244,0 -18.89174889,7.29839255 -18.89174889,18.59229095 0,11.369957 7.02568939,18.361418 18.89174889,18.361418 11.240664,0 18.813369,-7.298393 18.813369,-18.668889 0,-11.2938985 -7.181901,-18.28481995 -18.813369,-18.28481995 M 19.715779,34.838523 c -5.620332,0 -8.118623,-5.300909 -8.118623,-16.133601 0,-10.8326914 1.873444,-16.0570026 7.415945,-16.0570026 5.543048,0 8.041339,5.2243112 8.041339,16.0570026 0,10.832692 -1.951824,16.133601 -7.338661,16.133601"
             id="Fill-11"
             mask="url(#mask-6)"
             inkscape:connector-curvature="0"
             style="fill:#000000" />
        </g>
        <g
           id="Group-16"
           transform="translate(248.29437,0.273164)">
          <mask
             id="mask-8"
             fill="white">
            <use
               xlink:href="#path-7"
               id="use6473"
               x="0"
               y="0"
               width="100%"
               height="100%" />
          </mask>
          <g
             id="Clip-15" />
          <path
             d="m 19.044343,0.26636705 c -11.3974244,0 -18.89174884,7.29839255 -18.89174884,18.59229095 0,11.369957 7.02568934,18.361418 18.89174884,18.361418 11.240664,0 18.813369,-7.298393 18.813369,-18.668889 0,-11.2938985 -7.181901,-18.28481995 -18.813369,-18.28481995 M 19.356218,34.838523 c -5.620332,0 -8.118623,-5.300909 -8.118623,-16.133601 0,-10.8326914 1.873444,-16.0570026 7.415945,-16.0570026 5.543048,0 8.041339,5.2243112 8.041339,16.0570026 0,10.832692 -1.951824,16.133601 -7.338661,16.133601"
             id="Fill-14"
             mask="url(#mask-8)"
             inkscape:connector-curvature="0"
             style="fill:#000000" />
        </g>
        <path
           d="m 311.4951,34.881138 c 3.12314,-0.07714 3.90365,-0.768139 3.90365,-2.765622 l 0,-18.668889 c 0,-4.6093687 -1.71778,-6.9914604 -5.69871,-6.9914604 -2.73233,0 -4.37174,1.4596785 -6.47977,3.6108974 l 0,22.049452 c 0,1.997483 0.70268,2.688484 3.74744,2.765622 l 0,1.920345 -19.51605,0 0,-1.920345 c 4.44956,-0.07714 5.38629,-0.768139 5.38629,-2.765622 l 0,-24.5847401 c 0,-2.3049542 -0.93673,-3.6874953 -5.38629,-3.7640933 l 0,-1.9214246 15.61294,-0.6910008 0,6.7605879 c 3.66906,-4.0715645 7.96242,-6.99092147 13.03628,-6.99092147 5.23063,0 8.35322,2.61134647 9.28994,7.37499057 3.51284,-4.1481625 8.35267,-7.37499057 13.27087,-7.37499057 6.55705,0 9.68019,3.91782887 9.68019,11.13962337 l 0,20.051969 c 0,1.997483 0.85834,2.688484 5.30791,2.765622 l 0,1.920345 -19.51605,0 0,-1.920345 c 3.04476,-0.07714 3.82527,-0.768139 3.82527,-2.765622 l 0,-18.668889 c 0,-4.6093687 -1.48319,-6.9914604 -5.38629,-6.9914604 -2.02966,0 -4.68416,1.5368159 -6.94786,3.9949664 0.0778,0.69154 0.15621,1.075609 0.15621,1.536816 l 0,20.128567 c 0,1.997483 0.78051,2.688484 3.98148,2.765622 l 0,1.920345 -18.26745,0 0,-1.920345 z"
           id="Fill-17"
           inkscape:connector-curvature="0"
           style="fill:#000000" />
        <path
           d="m 38.798161,32.117782 0,-20.051969 c 0,-7.2212555 -3.044758,-11.13962379 -9.52398,-11.13962379 -3.877887,0 -7.571608,1.62797849 -10.736402,4.21235379 l 0,2.646409 c 1.339035,-0.8323296 2.783308,-1.3269805 4.413391,-1.3269805 3.9031,0 5.464669,2.3044149 5.464669,6.9909215 l 0,18.668889 c 0,1.997483 -1.171314,2.689023 -4.293355,2.765621 l 0,1.920885 20.061966,0 0,-1.920885 c -4.527947,-0.0766 -5.386289,-0.768138 -5.386289,-2.765621"
           id="Fill-19"
           inkscape:connector-curvature="0"
           style="fill:#000000" />
        <path
           d="m 199.77952,0.8467322 c -4.21498,0 -8.04079,2.9964945 -10.69475,7.1451964 l 0,-6.8377253 -15.61295,0.6915402 0,1.9208851 c 4.45012,0.076598 5.38629,1.4591391 5.38629,3.7640934 l 0,24.58474 c 0,1.997484 -0.93617,2.688484 -5.38629,2.765622 l 0,1.920885 22.79485,0 0,-1.920885 c -5.69816,-0.153196 -7.02569,-0.768138 -7.02569,-2.765622 l 0,-21.819119 c 1.45743,-2.0206779 3.42131,-3.7058352 5.46193,-4.2646774 -0.0433,0.2956038 -0.0729,0.5955229 -0.0729,0.9035334 0,3.343344 2.62107,6.053944 5.85383,6.053944 3.23331,0 5.85328,-2.7106 5.85328,-6.053944 0,-2.8940041 -1.94031,-6.0884668 -6.5576,-6.0884668"
           id="Fill-21"
           inkscape:connector-curvature="0"
           style="fill:#000000" />
        <g
           id="Group-25"
           transform="translate(355.72417,26.704888)">
          <mask
             id="mask-10"
             fill="white">
            <use
               xlink:href="#path-9"
               id="use6482"
               x="0"
               y="0"
               width="100%"
               height="100%" />
          </mask>
          <g
             id="Clip-24" />
          <path
             d="M 10.813576,5.3259925 C 10.848107,7.0122286 10.057183,8.2750178 8.7729583,9.1850243 6.9170537,10.500137 4.8852055,10.557316 2.9191306,9.4488021 0.64940215,8.1692909 -0.3514489,5.0627541 1.4589624,2.6148527 3.2194956,0.23437927 6.7175413,-0.07578892 8.8453089,1.510654 10.110898,2.4541047 10.857973,3.7363131 10.813576,5.3259925"
             id="Fill-23"
             mask="url(#mask-10)"
             inkscape:connector-curvature="0"
             style="fill:#000000" />
        </g>
      </g>
    </g>
  </g>
</svg>
