<svg width="140" height="94" viewBox="0 0 140 94" xmlns="http://www.w3.org/2000/svg" xmlns:xlink="http://www.w3.org/1999/xlink"><title>0F28BAB0-6D53-41F3-9A71-3054319B2A0F</title><defs><path id="a" d="M.165.087h31.552v31.347H.165V.087z"/><path id="c" d="M66.51 93.81H.193V.087H66.51z"/></defs><g fill="none" fill-rule="evenodd"><g transform="translate(108.174 .153)"><mask id="b" fill="#fff"><use xlink:href="#a"/></mask><path d="M15.941 31.434c8.712 0 15.776-7.018 15.776-15.673C31.717 7.106 24.653.087 15.94.087S.165 7.106.165 15.76 7.229 31.434 15.94 31.434" fill="#000" mask="url(#b)"/></g><path d="M40.8.824L0 2.65v5.017c11.512.2 13.937 3.813 13.937 9.834v64.22c0 5.218-2.425 7.024-13.937 7.225v5.017h51.706v-5.017c-7.877-.2-10.906-2.007-10.906-7.224V.824z" fill="#000"/><g transform="translate(47.81 .153)"><mask id="d" fill="#fff"><use xlink:href="#c"/></mask><path d="M52.574 81.568v-52.38c0-18.866-7.878-29.1-24.642-29.1C17.915.087 8.373 4.326.194 11.057v6.922c3.452-2.159 7.177-3.443 11.378-3.443 10.1 0 14.138 6.021 14.138 18.263v48.768c0 5.217-3.03 7.024-11.108 7.224v5.018h51.907v-5.018c-11.714-.2-13.935-2.007-13.935-7.224" fill="#000" mask="url(#d)"/></g></g></svg>