<svg width="100" height="67" viewBox="0 0 100 67" xmlns="http://www.w3.org/2000/svg"><title>5707E337-1CC6-4F5A-9DB3-5D31340E654A</title><g fill="#FFF" fill-rule="evenodd"><path d="M88.465 22.514c6.21 0 11.245-5.002 11.245-11.171C99.71 5.173 94.675.17 88.465.17c-6.21 0-11.245 5.003-11.245 11.172 0 6.169 5.035 11.171 11.245 11.171M29.081.587L0 1.887v3.577c8.206.143 9.934 2.718 9.934 7.01v45.774c0 3.719-1.728 5.006-9.934 5.15v3.575h36.855v-3.576c-5.615-.143-7.774-1.43-7.774-5.15V.588zM71.55 58.248V20.913C71.55 7.466 65.934.17 53.985.17c-7.14 0-13.941 3.022-19.77 7.82v4.934c2.46-1.54 5.115-2.455 8.109-2.455 7.198 0 10.077 4.292 10.077 13.017v34.76c0 3.72-2.16 5.007-7.917 5.15v3.577h36.997v-3.577c-8.349-.143-9.933-1.43-9.933-5.15"/></g></svg>