<?xml version="1.0" encoding="UTF-8" standalone="no"?>
<svg
   xmlns:dc="http://purl.org/dc/elements/1.1/"
   xmlns:cc="http://creativecommons.org/ns#"
   xmlns:rdf="http://www.w3.org/1999/02/22-rdf-syntax-ns#"
   xmlns:svg="http://www.w3.org/2000/svg"
   xmlns="http://www.w3.org/2000/svg"
   xmlns:xlink="http://www.w3.org/1999/xlink"
   xmlns:sodipodi="http://sodipodi.sourceforge.net/DTD/sodipodi-0.dtd"
   xmlns:inkscape="http://www.inkscape.org/namespaces/inkscape"
   width="288.7222"
   height="50.842571"
   viewBox="0 0 288.7222 50.842571"
   version="1.1"
   id="svg7030"
   inkscape:version="0.91 r13725"
   sodipodi:docname="sports-room-logo-header.svg">
  <metadata
     id="metadata7061">
    <rdf:RDF>
      <cc:Work
         rdf:about="">
        <dc:format>image/svg+xml</dc:format>
        <dc:type
           rdf:resource="http://purl.org/dc/dcmitype/StillImage" />
        <dc:title>4393F04C-D5D2-46EE-AA00-17098240BBA0</dc:title>
      </cc:Work>
    </rdf:RDF>
  </metadata>
  <sodipodi:namedview
     pagecolor="#ffffff"
     bordercolor="#666666"
     borderopacity="1"
     objecttolerance="10"
     gridtolerance="10"
     guidetolerance="10"
     inkscape:pageopacity="0"
     inkscape:pageshadow="2"
     inkscape:window-width="640"
     inkscape:window-height="480"
     id="namedview7059"
     showgrid="false"
     fit-margin-top="0"
     fit-margin-left="0"
     fit-margin-right="0"
     fit-margin-bottom="0"
     inkscape:zoom="2.9116162"
     inkscape:cx="58.070533"
     inkscape:cy="23.349301"
     inkscape:current-layer="svg7030" />
  <!-- Generator: sketchtool 42 (36781) - http://www.bohemiancoding.com/sketch -->
  <title
     id="title7032">4393F04C-D5D2-46EE-AA00-17098240BBA0</title>
  <desc
     id="desc7034">Created with sketchtool.</desc>
  <defs
     id="defs7036">
    <polygon
       id="path-1"
       points="16.241994,35.424983 0.01435302,35.424983 0.01435302,0.25539583 0.01435302,0.25539583 16.241994,0.25539583 " />
    <mask
       id="mask-2-5"
       fill="white">
      <use
         height="100%"
         width="100%"
         y="0"
         x="0"
         xlink:href="#path-1"
         id="use5881" />
    </mask>
    <mask
       id="mask-4"
       fill="white">
      <use
         height="100%"
         width="100%"
         y="0"
         x="0"
         xlink:href="#path-3"
         id="use5887" />
    </mask>
  </defs>
  <g
     id="Desktop"
     style="fill:none;fill-rule:evenodd;stroke:none;stroke-width:1"
     transform="translate(0,4.4932697)">
    <g
       id="Desktop---Homepage"
       transform="translate(-379,-6241)">
      <g
         id="Sports-room-logo-header"
         transform="translate(379,6241)">
        <path
           d="m 0,26.440273 1.5715587,0 c 3.0315906,4.992437 6.1189447,7.433312 9.5433033,7.433312 2.862846,0 4.322393,-1.497875 4.322393,-3.550145 0,-2.440875 -1.740304,-3.550146 -7.1289899,-5.103605 -5.8944362,-1.664145 -8.25201678,-3.494562 -8.25201678,-7.544479 0,-5.158708 4.15413258,-8.5425831 10.32884068,-8.5425831 2.414314,0 4.827658,0.7767292 6.343453,1.7197291 l 1.403783,-1.7197291 1.459063,0 0,8.2100421 -1.571559,0 c -2.807082,-4.215709 -4.996403,-6.490313 -8.0837569,-6.490313 -2.3575805,0 -4.0421208,1.442292 -4.0421208,3.716896 0,2.274125 2.2455688,3.217125 6.1189447,4.160125 5.950684,1.497875 9.094287,3.550146 9.094287,8.099354 0,4.991958 -4.154133,8.820021 -10.497586,8.820021 -2.0768235,0 -5.893951,-0.943 -7.4097463,-1.886 l -1.6840554,1.886 -1.5157953,0 0,-9.208625 z"
           id="Fill-1"
           inkscape:connector-curvature="0"
           style="fill:#27a9e1" />
        <path
           d="m 44.402862,22.3353 c 0,-5.82475 -1.852315,-9.984875 -5.838188,-9.984875 -1.684055,0 -3.199851,0.721146 -4.827658,1.997167 l 0,15.809145 c 1.179275,2.773896 3.031591,3.716896 5.220911,3.716896 3.312348,0 5.444935,-3.494562 5.444935,-11.538333 l 0,0 z M 22.453409,44.3578 c 3.200335,-0.05558 3.817612,-0.554396 3.817612,-1.997167 l 0,-28.290958 c 0,-1.664146 -0.673525,-2.66225 -3.873376,-2.717833 l 0,-1.3867087 11.226875,-0.4992916 0,3.3838753 c 2.526325,-2.163438 5.052651,-3.7168962 8.308265,-3.7168962 6.62421,0 10.385089,5.2147712 10.385089,12.8699372 0,7.432834 -4.322393,13.590604 -11.900885,13.590604 -2.6941,0 -4.714676,-0.499291 -6.679973,-1.387187 l 0,8.154458 c 0,1.442771 1.01053,1.886479 5.27716,1.997167 l 0,1.386708 -16.560767,0 0,-1.386708 z"
           id="Fill-3"
           inkscape:connector-curvature="0"
           style="fill:#27a9e1" />
        <path
           d="m 74.042818,22.3353 c 0,-7.821437 -1.796552,-11.593437 -5.781939,-11.593437 -3.985873,0 -5.332923,3.772 -5.332923,11.593437 0,7.821437 1.796067,11.6495 5.837703,11.6495 3.873376,0 5.277159,-3.828063 5.277159,-11.6495 m -19.086122,0.110687 c 0,-8.153979 5.388686,-13.4238537 13.584454,-13.4238537 8.364514,0 13.529177,5.0475417 13.529177,13.2024787 0,8.209563 -5.44542,13.479438 -13.529177,13.479438 -8.532288,0 -13.584454,-5.048021 -13.584454,-13.258063"
           id="Fill-5"
           inkscape:connector-curvature="0"
           style="fill:#27a9e1" />
        <g
           id="Group-9"
           transform="translate(109.10235,0.223915)">
          <mask
             id="mask-2"
             fill="white">
            <use
               xlink:href="#path-1"
               id="use7047"
               x="0"
               y="0"
               width="100%"
               height="100%" />
          </mask>
          <g
             id="Clip-8" />
          <path
             d="M 0.01823221,27.714233 0.01435302,2.5095875 7.4842272,0.25510833 l 0,9.26420837 8.1404898,0 0,2.4408753 -8.1404898,0 0,15.920312 c 0,2.940167 0.9547668,4.326875 3.1998508,4.326875 1.68454,0 3.087354,-1.164854 4.322877,-3.495042 l 1.235039,0.721625 c -1.796552,3.993855 -4.378641,5.991021 -8.5332584,5.991021 -4.4344044,0 -7.69050339,-2.108333 -7.69050339,-7.71075"
             id="Fill-7"
             mask="url(#mask-2)"
             inkscape:connector-curvature="0"
             style="fill:#27a9e1" />
        </g>
        <path
           d="m 127.39998,26.440273 1.57155,0 c 3.0316,4.992437 6.11895,7.433312 9.54331,7.433312 2.86285,0 4.32239,-1.497875 4.32239,-3.550145 0,-2.440875 -1.7403,-3.550146 -7.12899,-5.103605 -5.89443,-1.664145 -8.25201,-3.494562 -8.25201,-7.544479 0,-5.158708 4.15413,-8.5425831 10.32884,-8.5425831 2.41431,0 4.82765,0.7767292 6.34345,1.7197291 l 1.40378,-1.7197291 1.45906,0 0,8.2100421 -1.57155,0 c -2.80709,-4.215709 -4.99641,-6.490313 -8.08376,-6.490313 -2.35758,0 -4.04212,1.442292 -4.04212,3.716896 0,2.274125 2.24557,3.217125 6.11894,4.160125 5.95069,1.497875 9.09429,3.550146 9.09429,8.099354 0,4.991958 -4.15413,8.820021 -10.49759,8.820021 -2.07682,0 -5.89395,-0.943 -7.40974,-1.886 l -1.68406,1.886 -1.51579,0 0,-9.208625 z"
           id="Fill-10"
           inkscape:connector-curvature="0"
           style="fill:#27a9e1" />
        <path
           d="m 188.85849,33.94776 c -4.03581,0 -5.82946,-3.821833 -5.82946,-11.631291 0,-7.809459 1.3456,-11.575709 5.32468,-11.575709 3.98006,0 5.77321,3.76625 5.77321,11.575709 0,7.809458 -1.40087,11.631291 -5.26843,11.631291 M 188.63447,9.0239063 c -8.18365,0 -13.56409,5.2617287 -13.56409,13.4037287 0,8.197105 5.04441,13.23698 13.56409,13.23698 8.07067,0 13.50784,-5.26173 13.50784,-13.458834 0,-8.142 -5.1569,-13.1818747 -13.50784,-13.1818747"
           id="Fill-12"
           inkscape:connector-curvature="0"
           style="fill:#000000" />
        <path
           d="m 218.50917,33.94776 c -4.03582,0 -5.82946,-3.821833 -5.82946,-11.631291 0,-7.809459 1.34559,-11.575709 5.32468,-11.575709 3.98005,0 5.77321,3.76625 5.77321,11.575709 0,7.809458 -1.40088,11.631291 -5.26843,11.631291 M 218.28514,9.0239063 c -8.18364,0 -13.56409,5.2617287 -13.56409,13.4037287 0,8.197105 5.04441,13.23698 13.56409,13.23698 8.07067,0 13.50784,-5.26173 13.50784,-13.458834 0,-8.142 -5.1569,-13.1818747 -13.50784,-13.1818747"
           id="Fill-14"
           inkscape:connector-curvature="0"
           style="fill:#000000" />
        <path
           d="m 249.01908,33.781585 c 2.24217,-0.05558 2.80272,-0.553916 2.80272,-1.993812 l 0,-13.458833 c 0,-3.3235 -1.2331,-5.040355 -4.09158,-5.040355 -1.96191,0 -3.13876,1.05225 -4.65213,2.602834 l 0,15.896354 c 0,1.439896 0.5043,1.938229 2.69022,1.993812 l 0,1.384792 -14.01213,0 0,-1.384792 c 3.19452,-0.05558 3.86707,-0.553916 3.86707,-1.993812 l 0,-17.723896 c 0,-1.66175 -0.67255,-2.658417 -3.86707,-2.714 l 0,-1.3843124 11.20942,-0.4988125 0,4.8740829 c 2.63445,-2.935375 5.71744,-5.0403537 9.36049,-5.0403537 3.75506,0 5.99724,1.8831247 6.66979,5.3173127 2.52245,-2.990959 5.99724,-5.3173127 9.52828,-5.3173127 4.70837,0 6.95054,2.8246877 6.95054,8.0313127 l 0,14.455979 c 0,1.439896 0.61631,1.938229 3.81131,1.993812 l 0,1.384792 -14.01262,0 0,-1.384792 c 2.18593,-0.05558 2.74647,-0.553916 2.74647,-1.993812 l 0,-13.458833 c 0,-3.3235 -1.06484,-5.040355 -3.86707,-5.040355 -1.45761,0 -3.36326,1.107834 -4.98865,2.879792 0.0558,0.498813 0.11202,0.775771 0.11202,1.107833 l 0,14.511563 c 0,1.439896 0.56054,1.938229 2.85848,1.993812 l 0,1.384792 -13.11556,0 0,-1.384792 z"
           id="Fill-16"
           inkscape:connector-curvature="0"
           style="fill:#000000" />
        <g
           id="Group-20"
           transform="translate(281.24161,28.015581)"
           style="fill:#000000">
          <path
             d="M 7.4792327,3.7782292 C 7.5039626,4.9977083 6.9346908,5.9105208 6.0099877,6.5684167 4.6731203,7.5195625 3.210179,7.5607708 1.794273,6.7596042 0.15967735,5.8343333 -0.56136795,3.588 0.74252634,1.8179583 2.0105381,0.09679167 4.5295901,-0.1279375 6.061872,1.0196667 6.9729978,1.7015208 7.5112361,2.6287083 7.4792327,3.7782292"
             id="Fill-18"
             inkscape:connector-curvature="0" />
        </g>
        <path
           d="m 169.77887,9.2991875 c -3.0248,0 -5.76982,2.1591255 -7.67402,5.1481665 l 0,-4.9267915 -11.2036,0.4983335 0,1.383833 c 3.19306,0.05558 3.86514,1.051771 3.86514,2.712083 l 0,17.713834 c 0,1.438937 -0.67208,1.937271 -3.86514,1.992854 l 0,1.383354 16.35711,0 0,-1.383354 c -4.08915,-0.110687 -5.0415,-0.553917 -5.0415,-1.992854 l 0,-15.720979 c 1.04593,-1.456188 2.45505,-2.669917 3.91896,-3.072896 -0.031,0.213229 -0.0519,0.429333 -0.0519,0.651187 0,2.40925 1.88044,4.361854 4.20019,4.361854 2.32025,0 4.2002,-1.952604 4.2002,-4.361854 0,-2.085333 -1.39214,-4.3867705 -4.70546,-4.3867705"
           id="Fill-21"
           inkscape:connector-curvature="0"
           style="fill:#000000" />
        <path
           d="m 101.41883,9.2991875 c -3.024804,0 -5.769819,2.1591255 -7.674019,5.1481665 l 0,-4.9267915 -11.203599,0.4983335 0,1.383833 c 3.193062,0.05558 3.865133,1.051771 3.865133,2.712083 l 0,17.713834 c 0,1.438937 -0.672071,1.937271 -3.865133,1.992854 l 0,1.383354 16.357109,0 0,-1.383354 c -4.089156,-0.110687 -5.041498,-0.553917 -5.041498,-1.992854 l 0,-15.720979 c 1.045928,-1.456188 2.455046,-2.669917 3.918956,-3.072896 -0.03103,0.213229 -0.05188,0.429333 -0.05188,0.651187 0,2.40925 1.88044,4.361854 4.200191,4.361854 2.32025,0 4.2002,-1.952604 4.2002,-4.361854 0,-2.085333 -1.39214,-4.3867705 -4.70546,-4.3867705"
           id="Fill-23"
           inkscape:connector-curvature="0"
           style="fill:#27a9e1" />
      </g>
    </g>
  </g>
</svg>
