<?xml version="1.0" encoding="utf-8"?>
<!-- Generator: Adobe Illustrator 20.1.0, SVG Export Plug-In . SVG Version: 6.00 Build 0)  -->
<svg version="1.1" id="Layer_1" xmlns="http://www.w3.org/2000/svg" xmlns:xlink="http://www.w3.org/1999/xlink" x="0px" y="0px"
	 viewBox="0 0 500 70" style="enable-background:new 0 0 500 70;" xml:space="preserve">
<style type="text/css">
	.st0{fill:#27AAE1;}
	.st1{fill:#231F20;}
</style>
<g>
	<path class="st0" d="M106.3,40.3h1.6c3,5,6.1,7.5,9.5,7.5c2.9,0,4.3-1.5,4.3-3.6c0-2.5-1.7-3.6-7.1-5.2c-5.9-1.7-8.2-3.5-8.2-7.6
		c0-5.2,4.1-8.6,10.3-8.6c2.2,0,4.4,0.6,6.3,1.7l1.4-1.7h1.5v8.3h-1.6c-2.8-4.3-5-6.5-8.1-6.5c-2.4,0-4,1.5-4,3.8s2.2,3.2,6.1,4.2
		c5.9,1.5,9.1,3.6,9.1,8.2c0,5-4.1,8.9-10.5,8.9c-2.1,0-5.9-1-7.4-1.9l-1.7,1.9h-1.5L106.3,40.3z"/>
	<path class="st0" d="M128.7,58.4c3.2-0.1,3.8-0.6,3.8-2V27.9c0-1.7-0.7-2.7-3.9-2.7v-1.4l11.2-0.5v3.4c2.5-2.2,5-3.8,8.3-3.8
		c6.6,0,10.4,5.3,10.4,13c0,7.5-4.3,13.7-11.9,13.7c-2.3,0-4.6-0.4-6.7-1.4v8.2c0,1.5,1,1.9,5.3,2v1.4h-16.5V58.4z M150.6,36.2
		c0-5.9-1.8-10.1-5.8-10.1c-1.7,0-3.2,0.7-4.8,2v16c1.2,2.8,3,3.8,5.2,3.8C148.5,47.8,150.6,44.3,150.6,36.2L150.6,36.2z"/>
	<path class="st0" d="M161.1,36.3c0-8.2,5.4-13.5,13.5-13.5c8.3,0,13.5,5.1,13.5,13.3s-5.4,13.6-13.5,13.6
		C166.2,49.7,161.1,44.6,161.1,36.3z M180.2,36.2c0-7.9-1.8-11.7-5.8-11.7c-4,0-5.3,3.8-5.3,11.7s1.8,11.8,5.8,11.8
		C178.7,48,180.2,44.1,180.2,36.2L180.2,36.2z"/>
	<path class="st0" d="M215.1,41.9V16.4l7.5-2.3v9.3h8.1V26h-8.1V42c0,3,1,4.4,3.2,4.4c1.7,0,3.1-1.2,4.3-3.5l1.2,0.7
		c-1.8,4-4.4,6-8.5,6C218.4,49.6,215.1,47.5,215.1,41.9z"/>
	<path class="st0" d="M233.4,40.3h1.6c3,5,6.1,7.5,9.5,7.5c2.9,0,4.3-1.5,4.3-3.6c0-2.5-1.7-3.6-7.1-5.2c-5.9-1.7-8.2-3.5-8.2-7.6
		c0-5.2,4.1-8.6,10.3-8.6c2.2,0,4.4,0.6,6.3,1.7l1.4-1.7h1.5v8.3h-1.6c-2.8-4.3-5-6.5-8.1-6.5c-2.4,0-4,1.5-4,3.8s2.2,3.2,6.1,4.2
		c5.9,1.5,9.1,3.6,9.1,8.2c0,5-4.1,8.9-10.5,8.9c-2.1,0-5.9-1-7.4-1.9l-1.7,1.9h-1.5V40.3z"/>
	<path class="st1" d="M294.4,22.7c-8.2,0-13.5,5.3-13.5,13.5s5,13.4,13.5,13.4c8,0,13.5-5.3,13.5-13.6S302.8,22.7,294.4,22.7z
		 M294.7,47.9c-4,0-5.8-3.9-5.8-11.7s1.3-11.7,5.3-11.7s5.8,3.8,5.8,11.7S298.5,47.9,294.7,47.9L294.7,47.9z"/>
	<path class="st1" d="M324,22.7c-8.2,0-13.5,5.3-13.5,13.5s5,13.4,13.5,13.4c8,0,13.5-5.3,13.5-13.6S332.3,22.7,324,22.7z
		 M324.2,47.9c-4,0-5.8-3.9-5.8-11.7s1.3-11.7,5.3-11.7c4,0,5.8,3.8,5.8,11.7S328.1,47.9,324.2,47.9L324.2,47.9z"/>
	<path class="st1" d="M354.7,47.7c2.2-0.1,2.8-0.6,2.8-2V32.2c0-3.4-1.2-5.1-4.1-5.1c-1.9,0-3.1,1.1-4.6,2.6v16c0,1.5,0.5,1.9,2.7,2
		v1.4h-14v-1.4c3.2-0.1,3.9-0.6,3.9-2V27.8c0-1.7-0.7-2.7-3.9-2.7v-1.4l11.2-0.5v4.9c2.6-3,5.7-5.1,9.3-5.1c3.7,0,6,1.9,6.7,5.4
		c2.5-3,6-5.4,9.5-5.4c4.7,0,6.9,2.9,6.9,8.1v14.6c0,1.5,0.6,1.9,3.8,2v1.4h-14v-1.4c2.2-0.1,2.7-0.6,2.7-2V32.2
		c0-3.4-1.1-5.1-3.9-5.1c-1.5,0-3.4,1.1-5,2.9c0.1,0.4,0.1,0.7,0.1,1.1v14.6c0,1.5,0.6,1.9,2.9,2v1.4h-13.1L354.7,47.7z"/>
	<path class="st1" d="M394.2,45.7c0,1.1-0.5,2.2-1.5,2.8c-1.2,0.9-2.9,1-4.2,0.2c-1.6-0.9-2.2-3-1.3-4.7c0.1-0.1,0.1-0.2,0.2-0.3
		c1.3-1.7,3.6-2,5.3-0.8C393.8,43.6,394.3,44.6,394.2,45.7"/>
	<path class="st1" d="M275.6,23c-3,0-5.8,2.2-7.7,5.2v-5l-11.2,0.5v1.4c3.2,0.1,3.9,1.1,3.9,2.7v17.9c0,1.5-0.7,1.9-3.9,2v1.4h16.3
		v-1.4c-4.1-0.1-5-0.6-5-2V29.9c1-1.5,2.4-2.7,3.9-3.1c0,0.2-0.1,0.4-0.1,0.7c-0.1,2.3,1.7,4.3,4,4.4c2.3,0.1,4.3-1.7,4.4-4
		c0-0.1,0-0.3,0-0.4C280.3,25.4,278.9,23,275.6,23"/>
	<path class="st0" d="M207.5,23c-3,0-5.8,2.2-7.7,5.2v-5l-11.2,0.5v1.4c3.2,0.1,3.9,1.1,3.9,2.7v17.9c0,1.5-0.7,1.9-3.9,2v1.4h16.3
		v-1.4c-4.1-0.1-5-0.6-5-2V29.9c1-1.5,2.4-2.7,3.9-3.1c0,0.2-0.1,0.4-0.1,0.7c-0.1,2.3,1.7,4.3,4,4.4c2.3,0.1,4.3-1.7,4.4-4
		c0-0.1,0-0.3,0-0.4C212.1,25.4,210.8,23,207.5,23"/>
</g>
</svg>
