<?xml version="1.0" encoding="UTF-8"?>
<svg width="113px" height="36px" viewBox="0 0 113 36" version="1.1" xmlns="http://www.w3.org/2000/svg" xmlns:xlink="http://www.w3.org/1999/xlink">
    <!-- Generator: sketchtool 42 (36781) - http://www.bohemiancoding.com/sketch -->
    <title>D667AD74-32F8-4808-B4AB-0EB4F34878F2</title>
    <desc>Created with sketchtool.</desc>
    <defs></defs>
    <g id="Desktop" stroke="none" stroke-width="1" fill="none" fill-rule="evenodd" opacity="0.35">
        <g id="Desktop---Homepage-Copy-2" transform="translate(-831.000000, -7738.000000)">
            <g id="Group-18" transform="translate(831.000000, 7738.000000)">
                <path d="M46.3848427,27.6430929 L44.8851093,27.6430929 C43.960736,27.6430929 43.0358293,27.62145 42.112416,27.6512357 C41.5506027,27.6692357 41.063456,27.6593786 41.0915093,26.9615571 C39.9519893,27.2618786 38.8559893,27.6088071 37.7355627,27.8318786 C36.249056,28.1278071 34.799456,27.9134143 33.434976,27.2316643 C31.6034027,26.3165571 30.785696,24.72345 30.5522027,22.7712 C30.4677227,22.0645929 30.4403093,21.3474857 30.4383893,20.6349857 C30.427936,16.6892357 30.433376,12.7434857 30.433376,8.79762857 L30.433376,8.18027143 L36.193376,8.18027143 L36.193376,8.76859286 C36.1932693,12.7501286 36.1843093,16.7316643 36.2030827,20.7130929 C36.2057493,21.2949857 36.287136,21.8896286 36.427616,22.4543786 C36.602976,23.1593786 37.105376,23.54745 37.839776,23.6446286 C38.733216,23.7628071 39.577376,23.58645 40.3759893,23.21595 C40.5273493,23.1456643 40.642656,22.8280929 40.6434027,22.6240929 C40.6585493,18.3927 40.654816,14.1612 40.654816,9.9297 L40.654816,8.18316429 L46.3848427,8.18316429 L46.3848427,27.6430929 Z" id="Fill-1" fill="#000000"></path>
                <g id="Group-5" transform="translate(60.760000, 0.038036)" fill="#000000">
                    <path d="M7.99489067,27.5680821 L2.218784,27.5680821 L2.218784,12.0679393 L0.094944,12.0679393 L0.094944,8.59179643 C0.662944,8.48658214 1.22955733,8.35104643 1.804064,8.28654643 C2.16075733,8.24636786 2.22827733,8.091975 2.23105067,7.77054643 C2.23947733,6.80765357 2.233504,5.84090357 2.31713067,4.88304643 C2.54795733,2.239725 4.032224,0.635475 6.64129067,0.212582143 C8.72267733,-0.124703571 10.7741973,0.190832143 12.8333973,0.559832143 L12.8333973,4.35301071 C11.984864,4.29193929 11.1601173,4.22283214 10.3341973,4.17504643 C8.430624,4.06501071 7.98731733,4.48918929 7.98433067,6.40158214 C7.98347733,6.93536786 7.984224,7.46926071 7.984224,8.08726071 L11.617824,8.08726071 L11.617824,12.0694393 L7.99489067,12.0694393 L7.99489067,27.5680821 Z" id="Fill-3"></path>
                </g>
                <path d="M50.3557547,12.1065857 L48.180288,12.1065857 L48.180288,8.63344286 C48.765888,8.52522857 49.334848,8.38744286 49.911808,8.3253 C50.2880213,8.28469286 50.3663147,8.12708571 50.3714347,7.77962143 C50.3871147,6.71108571 50.358208,5.63237143 50.4959147,4.57733571 C50.819328,2.09912143 52.2758613,0.6438 54.731328,0.251442857 C56.8143147,-0.0813428571 58.8642347,0.232157143 60.9272747,0.588192857 L60.9272747,4.35169286 C59.768768,4.30615714 58.6383147,4.22387143 57.5083947,4.23019286 C56.683648,4.23469286 56.2413013,4.64194286 56.1771947,5.46683571 C56.109888,6.33287143 56.1621547,7.20822857 56.1621547,8.14283571 L59.739968,8.14283571 L59.739968,12.1070143 L56.1344213,12.1070143 L56.1344213,27.6065143 L50.3557547,27.6065143 L50.3557547,12.1065857 Z" id="Fill-6" fill="#000000"></path>
                <path d="M28.7757547,23.3826429 C28.7757547,24.69525 28.7813013,25.9562143 28.764128,27.2168571 C28.7629547,27.3070714 28.607648,27.4541786 28.5040747,27.4750714 C26.4229013,27.8946429 24.3239147,28.1724643 22.215008,27.7614643 C19.9675413,27.3234643 18.5992213,25.8023571 18.2811413,23.4855 C18.196448,22.8691071 18.1565547,22.2418929 18.153888,21.6193929 C18.1411947,18.6563571 18.1483413,15.6931071 18.148448,12.7299643 L18.148448,12.1269643 L15.8711147,12.1269643 L15.8711147,8.66453571 C16.6195947,8.53532143 17.3630613,8.40696429 18.1491947,8.27132143 C18.1491947,7.01228571 18.137568,5.78357143 18.1619947,4.5555 C18.1655147,4.37325 18.2965013,4.08867857 18.440608,4.03007143 C20.1992213,3.31478571 21.9712747,2.63260714 23.7406613,1.944 C23.786528,1.92610714 23.8421013,1.93317857 23.9325547,1.92514286 L23.9325547,8.1375 L28.777888,8.1375 L28.777888,12.0782143 L23.9267947,12.0782143 L23.9267947,12.6445714 C23.9267947,15.6433929 23.9253013,18.6422143 23.9296747,21.6410357 C23.9301013,21.8890714 23.948128,22.1416071 23.997088,22.3840714 C24.1617813,23.19975 24.589728,23.6120357 25.427808,23.6148214 C26.330528,23.6178214 27.2336747,23.5193571 28.136288,23.4604286 C28.3267947,23.448 28.5160213,23.4148929 28.7757547,23.3826429" id="Fill-8" fill="#000000"></path>
                <path d="M2.044192,22.8053357 C3.31949867,23.0693357 4.52525867,23.3576571 5.74541867,23.5565143 C6.44109867,23.6698714 7.16173867,23.6802643 7.868832,23.6592643 C8.732192,23.6337643 9.36397867,23.1675857 9.519712,22.5463714 C9.69229867,21.85755 9.43181867,21.2414786 8.66989867,20.7461571 C7.67160533,20.0969786 6.61464533,19.5358714 5.639392,18.8551929 C4.815072,18.2798357 3.93485867,17.6989071 3.31501867,16.9289786 C0.595125333,13.5501214 2.55437867,8.6598 6.87480533,8.00108571 C9.21848533,7.64376429 11.5468053,7.83512143 13.8324587,8.50797857 C14.231392,8.62540714 14.3458453,8.81044286 14.3364587,9.21640714 C14.3084053,10.4408357 14.3263253,11.6664429 14.3263253,12.8586214 C13.066912,12.6016929 11.8604053,12.3223714 10.6412053,12.1211571 C10.0516587,12.0237643 9.437472,12.0461571 8.835872,12.0646929 C8.38925867,12.0784071 8.00429867,12.27105 7.82648533,12.7269429 C7.642592,13.1985857 7.69037867,13.6649786 8.04237867,14.0241214 C8.36205867,14.3503714 8.729952,14.6433 9.11725867,14.88555 C10.2018453,15.5638714 11.3192853,16.1893714 12.4018453,16.8709071 C13.9106453,17.8208357 15.0178453,19.0734429 15.1820053,20.9475857 C15.4914453,24.4806214 13.728992,26.9362286 10.2756587,27.66855 C7.61645867,28.2323357 4.979232,27.98655 2.39736533,27.15705 C2.25485867,27.1111929 2.061792,26.91555 2.05944533,26.7864429 C2.034592,25.4508 2.044192,24.1145143 2.044192,22.8053357" id="Fill-10" fill="#000000"></path>
                <path d="M112.532683,31.0602643 L112.532683,35.9195143 L111.969163,35.9195143 C104.879349,35.9195143 97.789536,35.9141571 90.6997227,35.9308714 C90.1992427,35.93205 90.051296,35.7759429 90.0594027,35.2955143 C90.0809493,34.0287643 90.0809493,32.7609429 90.055776,31.4941929 C90.0478827,31.0974429 90.2015893,31.0121571 90.5534827,31.0124786 C97.749856,31.0188 104.946336,31.0171929 112.142709,31.0191214 C112.262283,31.0191214 112.381749,31.0436571 112.532683,31.0602643" id="Fill-12" fill="#DADADA"></path>
                <path d="M0.6,35.8895571 L0.6,31.0401643 C0.809386667,31.0280571 0.99744,31.0077 1.18549333,31.0077 C8.23893333,31.0060929 15.2923733,31.0134857 22.3457067,30.9927 C22.9048533,30.9910929 23.0359467,31.1638071 23.02112,31.6878429 C22.98752,32.8825929 23.01088,34.07895 23.0112,35.2745571 L23.0112,35.8895571 L0.6,35.8895571 Z" id="Fill-14" fill="#000000"></path>
                <path d="M23.02224,35.8895571 L23.02224,31.0401643 C23.2316267,31.0280571 23.41968,31.0077 23.6077333,31.0077 C30.6611733,31.0060929 37.7146133,31.0134857 44.7679467,30.9927 C45.3270933,30.9910929 45.4581867,31.1638071 45.44336,31.6878429 C45.40976,32.8825929 45.43312,34.07895 45.43344,35.2745571 L45.43344,35.8895571 L23.02224,35.8895571 Z" id="Fill-16" fill="#000000"></path>
                <path d="M67.8131733,35.8895571 L67.8131733,31.0401643 C68.02256,31.0280571 68.2106133,31.0077 68.3986667,31.0077 C75.4521067,31.0060929 82.5055467,31.0134857 89.55888,30.9927 C90.1180267,30.9910929 90.24912,31.1638071 90.2342933,31.6878429 C90.2006933,32.8825929 90.2240533,34.07895 90.2243733,35.2745571 L90.2243733,35.8895571 L67.8131733,35.8895571 Z" id="Fill-18" fill="#8A8B93"></path>
                <path d="M56.5549653,35.918025 C52.9999787,35.918025 49.4448853,35.9099893 45.8900053,35.9279893 C45.4390187,35.9303464 45.3120853,35.7903107 45.320512,35.3526321 C45.344832,34.1032393 45.3424853,32.8529893 45.3234987,31.6034893 C45.3170987,31.1805964 45.4258987,31.0098107 45.887872,31.0106679 C52.9978453,31.0240607 60.1078187,31.0233107 67.217792,31.013025 C67.6407253,31.0123821 67.8218453,31.1121321 67.8124587,31.574025 C67.7871787,32.8233107 67.7882453,34.073775 67.812672,35.3230607 C67.821632,35.7760607 67.7052587,35.9329179 67.2199253,35.9299179 C63.6650453,35.9079536 60.109952,35.918025 56.5549653,35.918025" id="Fill-20" fill="#8A8B93"></path>
                <path d="M103.247488,27.3986036 L100.637568,27.3986036 L100.637568,26.8089964 C100.637461,25.0593536 100.642048,23.3097107 100.635755,21.5600679 C100.631595,20.4092464 99.909568,19.961925 98.868288,20.4882107 C98.726528,20.5597821 98.6239147,20.849175 98.6221013,21.0388179 C98.6040747,22.9489607 98.611008,24.8593179 98.6109013,26.769675 C98.6107947,26.9633893 98.6107947,27.1572107 98.6107947,27.3892821 L96.015808,27.3892821 L96.015808,18.465675 C96.8543147,18.5963893 97.7173547,18.2538536 98.4006613,18.6257464 C99.379008,18.5407821 100.277461,18.3397821 101.151488,18.4167107 C102.337408,18.521175 103.160555,19.3369607 103.218048,20.5845321 C103.322048,22.8414964 103.247488,25.1067107 103.247488,27.3986036" id="Fill-22" fill="#000000"></path>
                <path d="M84.911776,22.8639964 C85.0245227,23.5044964 85.107296,24.2113179 85.2831893,24.893925 C85.4107627,25.3890321 85.774496,25.734675 86.3230827,25.742175 C86.899296,25.7501036 87.2425493,25.3884964 87.4060693,24.8753893 C87.812256,23.6011393 87.8044693,22.3142464 87.4072427,21.0406393 C87.2488427,20.5327821 86.925536,20.170425 86.3289493,20.1780321 C85.735456,20.1855321 85.4082027,20.5557107 85.263776,21.0608893 C85.1039893,21.6200679 85.0357227,22.2056036 84.911776,22.8639964 M82.3187093,23.222925 C82.340896,21.7147821 82.530016,20.5002107 83.4098027,19.5372107 C84.6075627,18.2261036 86.138976,18.0911036 87.7235093,18.5426036 C89.310496,18.9948536 90.0539627,20.2537821 90.2387093,21.800175 C90.3465493,22.7030679 90.3139093,23.6573893 90.1475093,24.5516036 C89.7868693,26.4903536 88.3355627,27.5887821 86.3414293,27.5874964 C84.3541227,27.5862107 82.9334293,26.4773893 82.5048427,24.5580321 C82.389216,24.0399964 82.3563627,23.5032107 82.3187093,23.222925" id="Fill-24" fill="#000000"></path>
                <path d="M104.651349,27.3879857 C104.413909,26.2888071 104.697536,25.4455929 105.323563,24.6257357 C106.251563,23.4106286 107.076203,22.1158071 107.943189,20.8537714 C108.041216,20.7111643 108.128789,20.5613786 108.269269,20.3385214 L104.836523,20.3385214 L104.836523,18.5158071 L111.323563,18.5158071 C111.325163,19.3347 111.443349,20.1148071 110.869163,20.8837714 C109.752576,22.3790571 108.745856,23.9573786 107.631829,25.5920571 L111.477163,25.5920571 L111.477163,27.3879857 L104.651349,27.3879857 Z" id="Fill-26" fill="#000000"></path>
                <path d="M81.6157547,20.55105 C80.8739947,20.4583714 80.1927147,20.3255143 79.507488,20.29905 C78.4936213,20.2599429 77.793888,20.7537643 77.6344213,21.7503 C77.5075947,22.5427286 77.5063147,23.3886214 77.6343147,24.1805143 C77.7994347,25.2018 78.6309013,25.7182286 79.680608,25.6162286 C80.3120747,25.5548357 80.9402347,25.4591571 81.6160747,25.3730143 C81.6160747,25.8786214 81.635808,26.3773714 81.6027413,26.8724786 C81.5939947,27.0027643 81.4439147,27.19905 81.3214613,27.2344071 C80.004448,27.6143357 78.669728,27.7523357 77.3326613,27.3500143 C75.993568,26.94705 75.2475413,25.9809429 74.9496213,24.6513 C74.6960747,23.5201929 74.7111147,22.3791214 75.032288,21.2626929 C75.4693013,19.7435143 76.4583147,18.7874786 78.0152213,18.4650857 C79.0945813,18.2415857 80.1659413,18.30255 81.229088,18.5894786 C81.507488,18.6646929 81.6416747,18.7931571 81.6231147,19.1090143 C81.5949547,19.5882643 81.6157547,20.0705143 81.6157547,20.55105" id="Fill-28" fill="#000000"></path>
                <path d="M70.6285333,25.9797 C70.6339733,24.9812357 71.1917333,24.4274143 72.1907733,24.4282714 C73.23376,24.4292357 73.76944,24.9744857 73.75408,26.0196643 C73.7392533,27.0307714 73.1475733,27.6024857 72.1344533,27.5845929 C71.1475733,27.5671286 70.62288,27.00795 70.6285333,25.9797" id="Fill-30" fill="#000000"></path>
                <path d="M91.2864533,25.9610571 C91.3104533,24.9466286 91.89648,24.3959143 92.9237867,24.4223786 C93.9065067,24.4476643 94.4515733,25.0338429 94.4248,26.0368071 C94.3981333,27.0344143 93.7823467,27.6136286 92.7792533,27.5843786 C91.8021867,27.5558786 91.26256,26.9691643 91.2864533,25.9610571" id="Fill-32" fill="#000000"></path>
            </g>
        </g>
    </g>
</svg>