<?xml version="1.0" encoding="UTF-8" standalone="no"?>
<!-- Created with Inkscape (http://www.inkscape.org/) -->

<svg
   xmlns:dc="http://purl.org/dc/elements/1.1/"
   xmlns:cc="http://creativecommons.org/ns#"
   xmlns:rdf="http://www.w3.org/1999/02/22-rdf-syntax-ns#"
   xmlns:svg="http://www.w3.org/2000/svg"
   xmlns="http://www.w3.org/2000/svg"
   xmlns:sodipodi="http://sodipodi.sourceforge.net/DTD/sodipodi-0.dtd"
   xmlns:inkscape="http://www.inkscape.org/namespaces/inkscape"
   id="svg2"
   version="1.1"
   inkscape:version="0.91 r13725"
   xml:space="preserve"
   width="600.48749"
   height="198.33749"
   viewBox="0 0 600.48749 198.33749"
   sodipodi:docname="UOA-H-White.svg"><metadata
     id="metadata8"><rdf:RDF><cc:Work
         rdf:about=""><dc:format>image/svg+xml</dc:format><dc:type
           rdf:resource="http://purl.org/dc/dcmitype/StillImage" /><dc:title /></cc:Work></rdf:RDF></metadata><defs
     id="defs6" /><sodipodi:namedview
     pagecolor="#ffffff"
     bordercolor="#666666"
     borderopacity="1"
     objecttolerance="10"
     gridtolerance="10"
     guidetolerance="10"
     inkscape:pageopacity="0"
     inkscape:pageshadow="2"
     inkscape:window-width="640"
     inkscape:window-height="480"
     id="namedview4"
     showgrid="false"
     inkscape:zoom="1.2772956"
     inkscape:cx="204.53372"
     inkscape:cy="99.168747"
     inkscape:current-layer="g12" /><g
     id="g10"
     inkscape:groupmode="layer"
     inkscape:label="ink_ext_XXXXXX"
     transform="matrix(1.25,0,0,-1.25,0,198.3375)"><g
       id="g12"
       transform="scale(0.1,0.1)"><path
         d="m 0,1343.86 242.852,242.85 4561.038,0 0,-1343.858 L 4561.03,0 0,0 0,1343.86"
         style="fill:#ffffff;fill-opacity:1;fill-rule:nonzero;stroke:none"
         id="path14"
         inkscape:connector-curvature="0" /><path
         d="m 1731.21,538.5 14.31,0 0,96.434 34.46,0 0,14.289 -83.25,0 0,-14.289 34.48,0 0,-96.434"
         style="fill:#231f20;fill-opacity:1;fill-rule:nonzero;stroke:none"
         id="path16"
         inkscape:connector-curvature="0" /><path
         d="m 1787.54,582.332 c 1.77,11.535 7.73,18.008 17.67,18.008 9.2,0 14.92,-6.988 15.36,-18.008 l -33.03,0 z m 17.37,30.551 c -18.07,0 -30.63,-14.961 -30.63,-37.043 0,-20.121 11.37,-38.77 31.82,-38.77 11.08,0 18.25,2.75 26.12,8.578 l 0,13.934 c -7.56,-5.5 -15.04,-8.75 -22.92,-8.75 -12.56,0 -19.99,7.527 -22.04,21.906 l 46.16,0 c 0,26.981 -11.12,40.145 -28.51,40.145"
         style="fill:#231f20;fill-opacity:1;fill-rule:nonzero;stroke:none"
         id="path18"
         inkscape:connector-curvature="0" /><path
         d="m 1958.98,649.223 -13.58,0 -27.61,-76.313 -27.43,76.313 -14.33,0 40.33,-111.684 2.76,0 33.02,90.574 32.67,-90.574 2.81,0 40.44,111.684 -14.16,0 -27.19,-76.313 -27.73,76.313"
         style="fill:#231f20;fill-opacity:1;fill-rule:nonzero;stroke:none"
         id="path20"
         inkscape:connector-curvature="0" /><path
         d="m 2100.1,538.5 0,44.629 c 0,19.976 -9.51,29.754 -22.33,29.754 -7.3,0 -14.63,-4.09 -19.57,-11.051 l -0.29,0 0,47.391 -13,0 0,-110.723 13,0 0,52.293 c 6.11,7.59 10.64,10.551 16.37,10.551 7.84,0 12.85,-7.004 12.85,-17.672 l 0,-45.172 12.97,0"
         style="fill:#231f20;fill-opacity:1;fill-rule:nonzero;stroke:none"
         id="path22"
         inkscape:connector-curvature="0" /><path
         d="m 2154.49,553.289 c -3.53,-3.738 -7.31,-5.988 -11.4,-5.988 -5.39,0 -9.33,4.199 -9.33,10.211 0,8.578 9.61,12.84 20.73,17.047 l 0,-21.27 z m -11.55,24.66 c -10.52,-4.219 -22.33,-8.578 -22.33,-23.039 0,-9.422 6.4,-17.84 16.03,-17.84 6.01,0 12,2.442 17.69,7.461 1.2,-5.191 4.25,-7.461 9.92,-7.461 4.09,0 6.58,1.27 12.53,5.668 l 0,8.762 c -2.87,-2.449 -5.5,-3.91 -6.83,-3.91 -1.61,0 -2.48,0.98 -2.48,3.75 l 0,37.473 c 0,16.554 -10.53,24.07 -23.8,24.07 -9.46,0 -16.66,-3.242 -21.77,-9.934 l 0,-15.758 c 6.31,8.325 13.57,12.016 20.75,12.016 7.87,0 11.84,-3.691 11.84,-12.785 l 0,-3.91 -11.55,-4.563"
         style="fill:#231f20;fill-opacity:1;fill-rule:nonzero;stroke:none"
         id="path24"
         inkscape:connector-curvature="0" /><path
         d="m 2197.02,611.375 0,-72.875 12.97,0 0,38.148 c 0,12.524 7.02,22.391 15.91,22.391 3.08,0 8.18,-2.922 12.12,-7.101 l 6.86,12.48 c -5.39,5.684 -10.33,8.465 -15.62,8.465 -6.11,0 -12.38,-5.406 -18.98,-18.207 l -0.29,0 0,16.699 -12.97,0"
         style="fill:#231f20;fill-opacity:1;fill-rule:nonzero;stroke:none"
         id="path26"
         inkscape:connector-curvature="0" /><path
         d="m 2268.89,582.332 c 1.73,11.535 7.71,18.008 17.65,18.008 9.2,0 14.88,-6.988 15.31,-18.008 l -32.96,0 z m 17.35,30.551 c -18.1,0 -30.64,-14.961 -30.64,-37.043 0,-20.121 11.39,-38.77 31.83,-38.77 11.09,0 18.23,2.75 26.13,8.578 l 0,13.934 c -7.61,-5.5 -15.04,-8.75 -22.91,-8.75 -12.57,0 -20.03,7.527 -22.08,21.906 l 46.16,0 c 0,26.981 -11.09,40.145 -28.49,40.145"
         style="fill:#231f20;fill-opacity:1;fill-rule:nonzero;stroke:none"
         id="path28"
         inkscape:connector-curvature="0" /><path
         d="m 2440.32,649.223 -13.6,0 -27.58,-76.313 -27.45,76.313 -14.32,0 40.29,-111.684 2.8,0 32.98,90.574 32.72,-90.574 2.76,0 40.47,111.684 -14.19,0 -27.14,-76.313 -27.74,76.313"
         style="fill:#231f20;fill-opacity:1;fill-rule:nonzero;stroke:none"
         id="path30"
         inkscape:connector-curvature="0" /><path
         d="m 2546.25,553.289 c -3.51,-3.738 -7.35,-5.988 -11.4,-5.988 -5.43,0 -9.37,4.199 -9.37,10.211 0,8.578 9.67,12.84 20.77,17.047 l 0,-21.27 z m -11.53,24.66 c -10.53,-4.219 -22.37,-8.578 -22.37,-23.039 0,-9.422 6.42,-17.84 16.05,-17.84 6.04,0 11.99,2.442 17.67,7.461 1.14,-5.191 4.24,-7.461 9.94,-7.461 4.07,0 6.56,1.27 12.57,5.668 l 0,8.762 c -2.91,-2.449 -5.52,-3.91 -6.87,-3.91 -1.63,0 -2.48,0.98 -2.48,3.75 l 0,37.473 c 0,16.554 -10.51,24.07 -23.8,24.07 -9.51,0 -16.66,-3.242 -21.73,-9.934 l 0,-15.758 c 6.24,8.325 13.55,12.016 20.74,12.016 7.85,0 11.81,-3.691 11.81,-12.785 l 0,-3.91 -11.53,-4.563"
         style="fill:#231f20;fill-opacity:1;fill-rule:nonzero;stroke:none"
         id="path32"
         inkscape:connector-curvature="0" /><path
         d="m 2642.78,538.5 0,45 c 0,19.938 -9.94,29.383 -22.33,29.383 -7.32,0 -14.6,-4.09 -19.58,-11.051 l -0.28,0 0,9.543 -13.01,0 0,-72.875 13.01,0 0,52.293 c 6.11,7.59 10.64,10.551 16.34,10.551 7.9,0 12.82,-7.004 12.82,-17.672 l 0,-45.172 13.03,0"
         style="fill:#231f20;fill-opacity:1;fill-rule:nonzero;stroke:none"
         id="path34"
         inkscape:connector-curvature="0" /><path
         d="m 2697.14,553.289 c -3.49,-3.738 -7.27,-5.988 -11.39,-5.988 -5.39,0 -9.35,4.199 -9.35,10.211 0,8.578 9.69,12.84 20.74,17.047 l 0,-21.27 z m -11.51,24.66 c -10.5,-4.219 -22.36,-8.578 -22.36,-23.039 0,-9.422 6.44,-17.84 16.08,-17.84 5.98,0 11.96,2.442 17.66,7.461 1.17,-5.191 4.25,-7.461 9.89,-7.461 4.13,0 6.59,1.27 12.6,5.668 l 0,8.762 c -2.96,-2.449 -5.52,-3.91 -6.87,-3.91 -1.6,0 -2.48,0.98 -2.48,3.75 l 0,37.473 c 0,16.554 -10.51,24.07 -23.78,24.07 -9.53,0 -16.66,-3.242 -21.78,-9.934 l 0,-15.758 c 6.29,8.325 13.6,12.016 20.74,12.016 7.87,0 11.81,-3.691 11.81,-12.785 l 0,-3.91 -11.51,-4.563"
         style="fill:#231f20;fill-opacity:1;fill-rule:nonzero;stroke:none"
         id="path36"
         inkscape:connector-curvature="0" /><path
         d="m 2793.73,538.5 0,45 c 0,19.938 -9.95,29.383 -22.39,29.383 -7.29,0 -14.57,-4.09 -19.55,-11.051 l -0.31,0 0,9.543 -12.99,0 0,-72.875 12.99,0 0,52.293 c 6.14,7.59 10.7,10.551 16.38,10.551 7.9,0 12.84,-7.004 12.84,-17.672 l 0,-45.172 13.03,0"
         style="fill:#231f20;fill-opacity:1;fill-rule:nonzero;stroke:none"
         id="path38"
         inkscape:connector-curvature="0" /><path
         d="m 2841.1,572.41 c -7.95,0 -13.19,5.391 -13.19,13.34 0,7.141 5.88,13.121 13.01,13.121 6.88,0 12.68,-5.828 12.68,-12.801 0,-7.988 -5.22,-13.66 -12.5,-13.66 z m -3.55,-37.519 c 8.02,0 21.49,-2.403 21.49,-11.653 0,-6.648 -6.72,-10.539 -18.12,-10.539 -11.81,0 -18.23,3.891 -18.23,11.211 0,6.461 6.11,10.981 14.86,10.981 z m 34.32,76.484 -26.97,0 c -17.71,0 -28.65,-9.543 -28.65,-25.137 0,-5.367 1.2,-9.929 3.48,-13.656 2.48,-3.922 6.16,-7.012 11.01,-9.281 l 0,-0.36 c -6.34,-1.621 -10.42,-5.691 -10.42,-10.371 0,-3.25 2.05,-6.191 6.59,-9.25 -11.38,-3.07 -16.51,-9.422 -16.51,-20.082 0,-12.828 12.57,-22.047 30.21,-22.047 19.45,0 30.98,8.758 30.98,23.188 0,9.23 -4.93,17.152 -18.97,20.25 -13.18,2.902 -20.01,5.34 -20.01,9.383 0,8.609 17.81,3.437 26.54,13.828 3.08,3.449 6.16,10.449 6.16,16.422 0,6.183 -1.75,10.261 -6.88,15.949 l 13.44,0 0,11.164"
         style="fill:#231f20;fill-opacity:1;fill-rule:nonzero;stroke:none"
         id="path40"
         inkscape:connector-curvature="0" /><path
         d="m 2918.17,553.289 c -3.46,-3.738 -7.27,-5.988 -11.36,-5.988 -5.39,0 -9.38,4.199 -9.38,10.211 0,8.578 9.66,12.84 20.74,17.047 l 0,-21.27 z m -11.49,24.66 c -10.55,-4.219 -22.36,-8.578 -22.36,-23.039 0,-9.422 6.42,-17.84 16.08,-17.84 5.96,0 11.94,2.442 17.64,7.461 1.17,-5.191 4.29,-7.461 9.94,-7.461 4.1,0 6.57,1.27 12.58,5.668 l 0,8.762 c -2.96,-2.449 -5.55,-3.91 -6.9,-3.91 -1.58,0 -2.46,0.98 -2.46,3.75 l 0,37.473 c 0,16.554 -10.53,24.07 -23.82,24.07 -9.48,0 -16.64,-3.242 -21.73,-9.934 l 0,-15.758 c 6.26,8.325 13.6,12.016 20.71,12.016 7.87,0 11.81,-3.691 11.81,-12.785 l 0,-3.91 -11.49,-4.563"
         style="fill:#231f20;fill-opacity:1;fill-rule:nonzero;stroke:none"
         id="path42"
         inkscape:connector-curvature="0" /><path
         d="m 3038.71,599.863 c 13.02,0 22.4,-10.203 22.4,-24.351 0,-15.75 -8.66,-25.473 -22.4,-25.473 -12.55,0 -21.18,10.242 -21.18,25.652 0,13.969 8.94,24.172 21.18,24.172 z m 0.16,-62.793 c 20.98,0 35.49,15.578 35.49,38.621 0,21.575 -14.92,37.192 -35.49,37.192 -19.61,0 -34.61,-16.25 -34.61,-37.192 0,-22.402 14.46,-38.621 34.61,-38.621"
         style="fill:#231f20;fill-opacity:1;fill-rule:nonzero;stroke:none"
         id="path44"
         inkscape:connector-curvature="0" /><path
         d="m 3168.69,538.5 0,96.434 34.5,0 0,14.289 -83.23,0 0,-14.289 34.45,0 0,-96.434 14.28,0"
         style="fill:#231f20;fill-opacity:1;fill-rule:nonzero;stroke:none"
         id="path46"
         inkscape:connector-curvature="0" /><path
         d="m 3232.78,553.289 c -3.47,-3.738 -7.26,-5.988 -11.4,-5.988 -5.4,0 -9.34,4.199 -9.34,10.211 0,8.578 9.65,12.84 20.74,17.047 l 0,-21.27 z m -11.5,24.66 c -10.52,-4.219 -22.34,-8.578 -22.34,-23.039 0,-9.422 6.44,-17.84 16.06,-17.84 5.97,0 11.96,2.442 17.68,7.461 1.13,-5.191 4.24,-7.461 9.93,-7.461 4.04,0 6.59,1.27 12.53,5.668 l 0,8.762 c -2.93,-2.449 -5.53,-3.91 -6.82,-3.91 -1.67,0 -2.5,0.98 -2.5,3.75 l 0,37.473 c 0,16.554 -10.57,24.07 -23.82,24.07 -9.55,0 -16.62,-3.242 -21.77,-9.934 l 0,-15.758 c 6.28,8.325 13.64,12.016 20.74,12.016 7.87,0 11.81,-3.691 11.81,-12.785 l 0,-3.91 -11.5,-4.563"
         style="fill:#231f20;fill-opacity:1;fill-rule:nonzero;stroke:none"
         id="path48"
         inkscape:connector-curvature="0" /><path
         d="m 3374.19,538.5 0,45.762 c 0,17.195 -8.44,28.621 -21.71,28.621 -9.42,0 -16.27,-6.024 -21.95,-13.164 -4.43,8.57 -11.25,13.164 -19.58,13.164 -6.18,0 -12.46,-3.617 -19.12,-11.051 l 0,9.543 -13.02,0 0,-72.875 13.02,0 0,52.922 c 5.43,6.961 9.78,9.273 16.36,9.273 6.44,0 11.81,-5.043 11.81,-16.906 l 0,-45.289 12.95,0 0,52.922 c 4.7,5.379 10.42,9.418 14.61,9.273 7.51,0 13.66,-6.019 13.66,-17.023 l 0,-45.172 12.97,0"
         style="fill:#231f20;fill-opacity:1;fill-rule:nonzero;stroke:none"
         id="path50"
         inkscape:connector-curvature="0" /><path
         d="m 3433.24,553.289 c -3.53,-3.738 -7.31,-5.988 -11.45,-5.988 -5.38,0 -9.26,4.199 -9.26,10.211 0,8.578 9.62,12.84 20.71,17.047 l 0,-21.27 z m -11.6,24.66 c -10.48,-4.219 -22.29,-8.578 -22.29,-23.039 0,-9.422 6.39,-17.84 16.06,-17.84 6.02,0 11.96,2.442 17.73,7.461 1.08,-5.191 4.19,-7.461 9.88,-7.461 4.04,0 6.58,1.27 12.55,5.668 l 0,8.762 c -2.95,-2.449 -5.56,-3.91 -6.89,-3.91 -1.62,0 -2.45,0.98 -2.45,3.75 l 0,37.473 c 0,16.554 -10.57,24.07 -23.82,24.07 -9.42,0 -16.67,-3.242 -21.74,-9.934 l 0,-15.758 c 6.25,8.325 13.55,12.016 20.76,12.016 7.82,0 11.81,-3.691 11.81,-12.785 l 0,-3.91 -11.6,-4.563"
         style="fill:#231f20;fill-opacity:1;fill-rule:nonzero;stroke:none"
         id="path52"
         inkscape:connector-curvature="0" /><path
         d="m 3522.29,611.375 -29.02,-35.684 32.8,-37.191 17.6,0 -33.88,37.191 28.04,35.684 -15.54,0"
         style="fill:#231f20;fill-opacity:1;fill-rule:nonzero;stroke:none"
         id="path54"
         inkscape:connector-curvature="0" /><path
         d="m 3479.71,538.5 12.9883,0 0,110.723 -12.9883,0 0,-110.723 z"
         style="fill:#231f20;fill-opacity:1;fill-rule:nonzero;stroke:none"
         id="path56"
         inkscape:connector-curvature="0" /><path
         d="m 3569.38,642.082 c -4.25,0 -7.77,-3.91 -7.77,-8.617 0,-4.695 3.52,-8.61 7.77,-8.61 4.19,0 7.72,3.915 7.72,8.61 0,4.707 -3.53,8.617 -7.72,8.617"
         style="fill:#231f20;fill-opacity:1;fill-rule:nonzero;stroke:none"
         id="path58"
         inkscape:connector-curvature="0" /><path
         d="m 3562.79,538.5 12.9922,0 0,72.875 -12.9922,0 0,-72.875 z"
         style="fill:#231f20;fill-opacity:1;fill-rule:nonzero;stroke:none"
         id="path60"
         inkscape:connector-curvature="0" /><path
         d="m 3754.86,538.5 0,110.723 -13.25,0 -33.17,-45.461 -33.03,45.461 -13.43,0 0,-110.723 14.3,0 0,86.164 0.31,0 30.62,-42.812 2.44,0 30.6,42.812 0.25,0 0,-86.164 14.36,0"
         style="fill:#231f20;fill-opacity:1;fill-rule:nonzero;stroke:none"
         id="path62"
         inkscape:connector-curvature="0" /><path
         d="m 3815.74,553.289 c -3.48,-3.738 -7.26,-5.988 -11.4,-5.988 -5.35,0 -9.34,4.199 -9.34,10.211 0,8.578 9.65,12.84 20.74,17.047 l 0,-21.27 z m -11.56,24.66 c -10.47,-4.219 -22.33,-8.578 -22.33,-23.039 0,-9.422 6.48,-17.84 16.11,-17.84 5.97,0 11.96,2.442 17.62,7.461 1.19,-5.191 4.3,-7.461 9.93,-7.461 4.15,0 6.64,1.27 12.59,5.668 l 0,8.762 c -2.94,-2.449 -5.53,-3.91 -6.82,-3.91 -1.62,0 -2.5,0.98 -2.5,3.75 l 0,37.473 c 0,16.554 -10.52,24.07 -23.82,24.07 -9.55,0 -16.63,-3.242 -21.77,-9.934 l 0,-15.758 c 6.28,8.325 13.59,12.016 20.74,12.016 7.92,0 11.81,-3.691 11.81,-12.785 l 0,-3.91 -11.56,-4.563"
         style="fill:#231f20;fill-opacity:1;fill-rule:nonzero;stroke:none"
         id="path64"
         inkscape:connector-curvature="0" /><path
         d="m 3904.86,611.375 -29.04,-35.684 32.88,-37.191 17.47,0 -33.84,37.191 27.97,35.684 -15.44,0"
         style="fill:#231f20;fill-opacity:1;fill-rule:nonzero;stroke:none"
         id="path66"
         inkscape:connector-curvature="0" /><path
         d="m 3862.21,538.5 13.0391,0 0,110.723 -13.0391,0 0,-110.723 z"
         style="fill:#231f20;fill-opacity:1;fill-rule:nonzero;stroke:none"
         id="path68"
         inkscape:connector-curvature="0" /><path
         d="m 3973.51,553.289 c -3.52,-3.738 -7.31,-5.988 -11.4,-5.988 -5.38,0 -9.36,4.199 -9.36,10.211 0,8.578 9.62,12.84 20.76,17.047 l 0,-21.27 z m -32.57,49.66 0,-15.758 c 6.25,8.325 13.61,12.016 20.76,12.016 7.88,0 11.81,-3.691 11.81,-12.785 l 0,-3.91 -11.55,-4.563 c -10.52,-4.219 -22.39,-8.578 -22.39,-23.039 0,-9.422 6.49,-17.84 16.11,-17.84 6.02,0 11.96,2.442 17.68,7.461 1.13,-5.191 4.24,-7.461 9.93,-7.461 4.06,0 6.59,1.27 12.55,5.668 l 0,8.762 c -2.9,-2.449 -5.55,-3.91 -6.89,-3.91 -1.6,0 -2.45,0.98 -2.45,3.75 l 0,37.473 c 0,16.554 -10.55,24.07 -23.82,24.07 -9.47,0 -16.62,-3.242 -21.74,-9.934"
         style="fill:#231f20;fill-opacity:1;fill-rule:nonzero;stroke:none"
         id="path70"
         inkscape:connector-curvature="0" /><path
         d="m 4074.73,538.5 0,72.875 -13.02,0 0,-52.074 c -4.19,-6.653 -9.78,-10.25 -15.64,-10.25 -8.85,0 -13.41,5.859 -13.41,16.051 l 0,46.273 -12.99,0 0,-45.285 c 0,-18.5 9.31,-29.02 22.64,-29.02 6.41,0 14.02,4.18 19.4,10.7 l 0,-9.27 13.02,0"
         style="fill:#231f20;fill-opacity:1;fill-rule:nonzero;stroke:none"
         id="path72"
         inkscape:connector-curvature="0" /><path
         d="m 4106.74,611.375 0,-72.875 13.04,0 0,38.148 c 0,12.524 7,22.391 15.96,22.391 3.01,0 8.15,-2.922 12.09,-7.101 l 6.82,12.48 c -5.38,5.684 -10.34,8.465 -15.65,8.465 -6.09,0 -12.37,-5.406 -18.96,-18.207 l -0.26,0 0,16.699 -13.04,0"
         style="fill:#231f20;fill-opacity:1;fill-rule:nonzero;stroke:none"
         id="path74"
         inkscape:connector-curvature="0" /><path
         d="m 4204.95,553.289 c -3.52,-3.738 -7.31,-5.988 -11.35,-5.988 -5.43,0 -9.36,4.199 -9.36,10.211 0,8.578 9.62,12.84 20.71,17.047 l 0,-21.27 z m -11.5,24.66 c -10.58,-4.219 -22.39,-8.578 -22.39,-23.039 0,-9.422 6.44,-17.84 16.09,-17.84 6.04,0 11.96,2.442 17.65,7.461 1.13,-5.191 4.24,-7.461 10,-7.461 3.99,0 6.51,1.27 12.48,5.668 l 0,8.762 c -2.9,-2.449 -5.55,-3.91 -6.84,-3.91 -1.65,0 -2.5,0.98 -2.5,3.75 l 0,37.473 c 0,16.554 -10.49,24.07 -23.77,24.07 -9.47,0 -16.67,-3.242 -21.74,-9.934 l 0,-15.758 c 6.2,8.325 13.56,12.016 20.76,12.016 7.82,0 11.76,-3.691 11.76,-12.785 l 0,-3.91 -11.5,-4.563"
         style="fill:#231f20;fill-opacity:1;fill-rule:nonzero;stroke:none"
         id="path76"
         inkscape:connector-curvature="0" /><path
         d="m 4306.17,538.5 0,72.875 -12.99,0 0,-52.074 c -4.2,-6.653 -9.81,-10.25 -15.6,-10.25 -8.92,0 -13.48,5.859 -13.48,16.051 l 0,46.273 -12.99,0 0,-45.285 c 0,-18.5 9.31,-29.02 22.64,-29.02 6.46,0 14.02,4.18 19.43,10.7 l 0,-9.27 12.99,0"
         style="fill:#231f20;fill-opacity:1;fill-rule:nonzero;stroke:none"
         id="path78"
         inkscape:connector-curvature="0" /><path
         d="m 2514.78,622.172 37.5273,0 0,7.42188 -37.5273,0 0,-7.42188 z"
         style="fill:#231f20;fill-opacity:1;fill-rule:nonzero;stroke:none"
         id="path80"
         inkscape:connector-curvature="0" /><path
         d="m 3202.47,622.172 37.5898,0 0,7.42188 -37.5898,0 0,-7.42188 z"
         style="fill:#231f20;fill-opacity:1;fill-rule:nonzero;stroke:none"
         id="path82"
         inkscape:connector-curvature="0" /><path
         d="m 2195.99,1177.05 -76.05,0 0,53.25 71.18,0 0,31.86 -71.18,0 0,51.4 73.73,0 0,31.82 -105.6,0 0,-200.15 107.92,-0.04 0,31.86"
         style="fill:#231f20;fill-opacity:1;fill-rule:nonzero;stroke:none"
         id="path84"
         inkscape:connector-curvature="0" /><path
         d="m 3116.61,1313.56 0,31.82 -105.54,0 0,-200.15 107.87,-0.04 0,31.86 -76.1,0 0,53.25 71.27,0 0,31.86 -71.27,0 0,51.4 73.77,0"
         style="fill:#231f20;fill-opacity:1;fill-rule:nonzero;stroke:none"
         id="path86"
         inkscape:connector-curvature="0" /><path
         d="m 1910.52,1229.4 91.02,0 0,-84.17 31.91,0 0,200.15 -31.91,0 0,-84.21 -91.02,0 0,84.21 -31.91,0 0,-200.15 31.91,0 0,84.17"
         style="fill:#231f20;fill-opacity:1;fill-rule:nonzero;stroke:none"
         id="path88"
         inkscape:connector-curvature="0" /><path
         d="m 2388.98,1142.65 c 26.13,0 46.53,7.63 60.58,22.64 13.15,14.05 20.14,34.62 20.14,59.32 l 0,120.77 -31.91,0 0,-115.94 c 0,-20.39 -2.93,-32.04 -10.05,-39.97 -4.87,-5.39 -16.29,-14.4 -38.28,-14.4 -14.19,0 -25.61,5 -34.97,15.26 -7.29,8.24 -9.53,16.95 -9.53,37.38 l 0,117.63 -31.86,0.04 0,-123.57 c 0,-25.31 8.15,-46.09 23.54,-60.15 13.5,-12.24 31.99,-19.01 52.34,-19.01"
         style="fill:#231f20;fill-opacity:1;fill-rule:nonzero;stroke:none"
         id="path90"
         inkscape:connector-curvature="0" /><path
         d="m 2683.51,1145.23 0,200.15 -30.4,0 c 0,0 0,-138.62 0,-143.15 -2.8,3.58 -112.7,143.15 -112.7,143.15 l -24.97,0 0,-200.15 30.31,0 c 0,0 0,137.72 0,142.24 2.89,-3.61 111.24,-142.24 111.24,-142.24 l 26.52,0"
         style="fill:#231f20;fill-opacity:1;fill-rule:nonzero;stroke:none"
         id="path92"
         inkscape:connector-curvature="0" /><path
         d="m 2971.23,1345.38 -32.08,0 c 0,0 -48.25,-125.77 -49.71,-129.56 -1.47,3.79 -49.89,129.56 -49.89,129.56 l -32.34,0 77.91,-201.83 9.88,-0.04 76.23,201.87"
         style="fill:#231f20;fill-opacity:1;fill-rule:nonzero;stroke:none"
         id="path94"
         inkscape:connector-curvature="0" /><path
         d="m 3251.48,1288.16 c 0,-8.36 -2.28,-14.83 -6.72,-19.44 -5.09,-5.17 -13.24,-7.81 -24.02,-7.81 0,0 -11.21,0 -12.63,0 0,1.6 0,52.26 0,53.81 1.42,0 12.63,0 12.63,0 20.78,0 30.53,-8.19 30.74,-25.82 0,-0.3 0,-0.48 0,-0.74 z m 30.79,-142.93 38.2,0 -5.26,8.02 c -10.52,16.13 -14.88,22.77 -21.82,35.32 -6.08,11.04 -12.29,22.46 -18.58,31.73 -5.61,8.19 -11,14.4 -16.86,19.49 16.86,9.53 26.17,26.51 26.17,48.03 0,17.38 -5.69,31.95 -16.47,42.08 -10.69,10.14 -25.91,15.48 -44.06,15.48 l -47.39,0 0,-200.19 31.91,0.04 c 0,0 0,82.36 0,83.91 1.25,0 7.03,0 7.03,0 10.9,0 20.39,-3.06 43.2,-42.51 l 23.93,-41.4"
         style="fill:#231f20;fill-opacity:1;fill-rule:nonzero;stroke:none"
         id="path96"
         inkscape:connector-curvature="0" /><path
         d="m 3399.89,1313.56 c 13.36,0 26.3,-6.42 38.29,-19.06 l 4.57,-4.83 1.42,-1.46 0,41.82 -0.39,0.26 -1.03,0.82 c -12.64,9.31 -26.74,14.27 -40.88,14.27 -16.55,0 -30.7,-5.22 -40.7,-15 -10.09,-9.83 -15.44,-23.72 -15.44,-40.06 0,-27.72 19.28,-43.07 39.11,-56.44 l 4.83,-3.28 8.88,-6.12 c 5.13,-3.66 8.71,-6.59 11.64,-9.48 7.38,-7.12 10.78,-14.14 10.78,-22.12 0,-8.11 -6.81,-21 -24.96,-21 -15.7,0 -31.05,9.44 -43.03,26.6 l -4.79,6.82 -1.51,2.15 0.99,-48.46 0.26,-0.26 c 15.22,-12.72 31.35,-18.67 50.88,-18.67 14.57,0 27.85,5.69 37.47,15.99 9.44,10.22 14.75,24.37 14.75,39.93 0,32.9 -20.27,48.72 -39.24,61.06 l -13.8,8.7 c -4.96,3.24 -8.67,5.96 -11.64,8.5 -7.37,6.38 -10.61,12.46 -10.61,19.79 0,11.51 9.96,19.53 24.15,19.53"
         style="fill:#231f20;fill-opacity:1;fill-rule:nonzero;stroke:none"
         id="path98"
         inkscape:connector-curvature="0" /><path
         d="m 3810.31,1145.15 31.87,0 c 0,0 0,103.91 0,104.47 0.3,0.43 67.77,95.76 67.77,95.76 l -38.54,0 c 0,0 -44.11,-62.22 -45.36,-64.07 -1.29,1.85 -44.93,64.03 -44.93,64.03 l -38.59,0.04 c 0,0 67.52,-95.07 67.78,-95.5 0,-0.52 0,-104.73 0,-104.73"
         style="fill:#231f20;fill-opacity:1;fill-rule:nonzero;stroke:none"
         id="path100"
         inkscape:connector-curvature="0" /><path
         d="m 2735.81,1145.23 31.8203,0 0,200.145 -31.8203,0 0,-200.145 z"
         style="fill:#231f20;fill-opacity:1;fill-rule:nonzero;stroke:none"
         id="path102"
         inkscape:connector-curvature="0" /><path
         d="m 3506.17,1145.23 31.9102,0 0,200.145 -31.9102,0 0,-200.145 z"
         style="fill:#231f20;fill-opacity:1;fill-rule:nonzero;stroke:none"
         id="path104"
         inkscape:connector-curvature="0" /><path
         d="m 1761.04,1145.23 31.9,0 0,168.33 60.15,0 0,31.82 -152.24,0 0,-31.82 60.19,0 0,-168.33"
         style="fill:#231f20;fill-opacity:1;fill-rule:nonzero;stroke:none"
         id="path106"
         inkscape:connector-curvature="0" /><path
         d="m 3638.71,1145.23 31.82,0 0,168.33 60.19,0 0,31.82 -152.24,0 0,-31.82 60.23,0 0,-168.33"
         style="fill:#231f20;fill-opacity:1;fill-rule:nonzero;stroke:none"
         id="path108"
         inkscape:connector-curvature="0" /><path
         d="m 4233.98,1236.42 67,0 0,31.35 -67,0 0,46.22 67,0 0,31.39 -98.52,0 0,-197.73 31.52,0 0,88.77"
         style="fill:#231f20;fill-opacity:1;fill-rule:nonzero;stroke:none"
         id="path110"
         inkscape:connector-curvature="0" /><path
         d="m 4024.03,1293.8 c 11.58,12.61 27.64,19.55 45.23,19.55 36.89,0 63.6,-29.18 63.6,-69.39 0,-19.33 -6.44,-37.06 -18.15,-49.75 -11.63,-12.69 -27.81,-19.64 -45.45,-19.64 -17.5,0 -33.61,6.95 -45.23,19.64 -11.72,12.74 -18.11,30.42 -18.11,49.75 0,19.43 6.39,37.15 18.11,49.84 z m 44.72,-151.25 c 28.54,0 53.07,10.68 70.88,30.83 16.44,18.66 25.51,43.66 25.51,70.58 0,27.35 -9.2,52.65 -25.85,71.22 -17.68,19.72 -41.96,30.2 -70.03,30.2 -27.26,0 -51.92,-10.77 -69.51,-30.33 -16.83,-18.69 -26.07,-43.95 -26.07,-71.09 0,-26.83 9.07,-51.92 25.6,-70.66 17.46,-19.81 42.17,-30.75 69.47,-30.75"
         style="fill:#231f20;fill-opacity:1;fill-rule:nonzero;stroke:none"
         id="path112"
         inkscape:connector-curvature="0" /><path
         d="m 3404.69,874.965 c 1.32,3.512 33.74,90.676 35.93,96.894 2.57,-6.144 37.55,-93.308 38.79,-96.894 -3.66,0 -70.98,0 -74.72,0 z m 55.4,191.085 -37.91,0 -131.44,-341.702 55.92,0 c 0,0 36.51,94.996 37.17,96.679 1.91,0 115.86,0 117.76,0 0.66,-1.683 39.23,-96.679 39.23,-96.679 l 55.98,0 -136.71,341.702"
         style="fill:#231f20;fill-opacity:1;fill-rule:nonzero;stroke:none"
         id="path114"
         inkscape:connector-curvature="0" /><path
         d="m 3243.39,778.363 -133.48,0 0,285.707 -54.09,0 0,-339.722 187.57,0 0,54.015"
         style="fill:#231f20;fill-opacity:1;fill-rule:nonzero;stroke:none"
         id="path116"
         inkscape:connector-curvature="0" /><path
         d="m 1849.74,971.859 c 2.42,-6.144 37.32,-93.308 38.71,-96.894 -3.73,0 -71.06,0 -74.65,0 1.18,3.512 33.6,90.676 35.94,96.894 z M 1792.8,821.027 c 1.91,0 115.92,0 117.68,0 0.66,-1.683 39.45,-96.679 39.45,-96.679 l 55.84,0 -136.64,341.702 -37.98,0 -131.44,-341.702 55.99,0 c 0,0 36.52,94.996 37.1,96.679"
         style="fill:#231f20;fill-opacity:1;fill-rule:nonzero;stroke:none"
         id="path118"
         inkscape:connector-curvature="0" /><path
         d="m 2650.75,751.359 0,66.227 -2.27,-1.535 -7.1,-5.051 c -32.06,-23.27 -67.41,-36.004 -99.54,-36.004 -33.15,0 -61.54,11.27 -82.18,32.859 -20.64,21.442 -31.4,51.231 -31.4,85.844 0,33.52 11.27,63.965 31.91,85.848 20.57,21.883 48.89,33.883 79.85,33.883 32.78,0 63.23,-10.32 98.65,-33.153 l 6.88,-4.464 2.27,-1.465 -2.64,66.162 -0.88,0.37 c -41.42,19.32 -72.45,27.58 -103.77,27.58 -97.12,0 -167.67,-75.3 -167.67,-179.077 0,-38.934 14.64,-80.504 39.3,-111.242 21.37,-26.567 60.45,-58.18 125.73,-58.18 51.75,0 84.46,14.93 112.12,31.031 l 0.74,0.367"
         style="fill:#231f20;fill-opacity:1;fill-rule:nonzero;stroke:none"
         id="path120"
         inkscape:connector-curvature="0" /><path
         d="m 2836.71,903.141 c 1.53,1.832 133.27,160.929 133.27,160.929 l -68.14,0 c 0,0 -110.87,-134.07 -115.48,-139.707 0,7.246 0,139.707 0,139.707 l -54.09,0 0,-339.722 54.09,0 c 0,0 0,146.297 0,153.105 4.53,-4.973 141.83,-153.105 141.83,-153.105 l 74.21,0 c 0,0 -164.08,177.039 -165.69,178.793"
         style="fill:#231f20;fill-opacity:1;fill-rule:nonzero;stroke:none"
         id="path122"
         inkscape:connector-curvature="0" /><path
         d="m 4150.44,778.363 c 0,0 -59.06,0 -61.69,0 0,2.703 0,228.997 0,231.777 2.63,0 59.57,0 59.57,0 36.74,0 66.74,-11.933 86.72,-34.253 18.15,-20.274 27.81,-48.524 27.81,-81.672 0,-43.035 -23.78,-115.852 -112.41,-115.852 z m 128.73,230.607 c -29.49,36.07 -72.3,55.1 -123.9,55.1 l -120.6,0 0,-339.722 121.04,0 c 47.57,0 88.85,18.152 119.22,52.406 27.44,31.101 43.25,73.914 43.25,117.461 0,42.594 -14.19,84.527 -39.01,114.755"
         style="fill:#231f20;fill-opacity:1;fill-rule:nonzero;stroke:none"
         id="path124"
         inkscape:connector-curvature="0" /><path
         d="m 2172.78,719.961 c 44.49,0 78.96,12.953 102.82,38.348 22.39,23.933 34.18,58.695 34.18,100.777 l 0,204.914 -54.09,0 0,-196.793 c 0,-34.617 -4.97,-54.23 -17.12,-67.766 -8.27,-9.078 -27.59,-24.445 -64.92,-24.445 -24.15,0 -43.61,8.414 -59.35,25.906 -12.37,13.907 -16.24,28.688 -16.24,63.524 l 0,199.574 -54.01,0.07 0,-209.89 c 0,-42.883 13.83,-78.16 39.95,-102.02 22.84,-20.711 54.31,-32.199 88.78,-32.199"
         style="fill:#231f20;fill-opacity:1;fill-rule:nonzero;stroke:none"
         id="path126"
         inkscape:connector-curvature="0" /><path
         d="M 3894.52,821.027 C 3889.69,827.102 3703.21,1064 3703.21,1064 l -42.45,0.07 0,-339.722 51.45,0 c 0,0 0,233.683 0,241.367 4.83,-6.149 188.89,-241.438 188.89,-241.438 l 45.01,0 0,339.723 -51.59,0 c 0,0 0,-235.285 0,-242.973"
         style="fill:#231f20;fill-opacity:1;fill-rule:nonzero;stroke:none"
         id="path128"
         inkscape:connector-curvature="0" /><path
         d="m 1808.96,284.711 -82.34,96.719 -23.51,0 0,-138.578 26.19,0 0,98.308 82.83,-98.308 23.01,0 0,138.578 -26.18,0 0,-96.719"
         style="fill:#231f20;fill-opacity:1;fill-rule:nonzero;stroke:none"
         id="path130"
         inkscape:connector-curvature="0" /><path
         d="m 2002.09,303.16 60.12,0 0,20.93 -60.12,0 0,36.41 62.8,0 0,20.93 -89.58,0 0,-138.578 90.97,0 0,20.929 -64.19,0 0,39.379"
         style="fill:#231f20;fill-opacity:1;fill-rule:nonzero;stroke:none"
         id="path132"
         inkscape:connector-curvature="0" /><path
         d="m 2344.13,295.621 -36.5,85.809 -22.62,0 -36.3,-85.508 -34.53,85.508 -27.68,0 57.14,-140.371 8.73,0 43.85,102.781 43.65,-102.781 9.02,0 57.04,140.371 -27.37,0 -34.43,-85.809"
         style="fill:#231f20;fill-opacity:1;fill-rule:nonzero;stroke:none"
         id="path134"
         inkscape:connector-curvature="0" /><path
         d="m 2811.85,381.43 -121.91,0 0,-20.93 75.78,0 -80.64,-117.648 127.17,0 0,20.929 -81.15,0 80.75,117.649"
         style="fill:#231f20;fill-opacity:1;fill-rule:nonzero;stroke:none"
         id="path136"
         inkscape:connector-curvature="0" /><path
         d="m 2969.08,303.16 60.12,0 0,20.93 -60.12,0 0,36.41 62.8,0 0,20.93 -89.58,0 0,-138.578 90.97,0 0,20.929 -64.19,0 0,39.379"
         style="fill:#231f20;fill-opacity:1;fill-rule:nonzero;stroke:none"
         id="path138"
         inkscape:connector-curvature="0" /><path
         d="m 3203.29,296.91 21.33,54.86 23.41,-54.86 -44.74,0 z m 7.54,84.52 -57.14,-138.578 28.07,0 13.4,33.718 61.6,0 14.38,-33.718 28.28,0 -61.21,138.578 -27.38,0"
         style="fill:#231f20;fill-opacity:1;fill-rule:nonzero;stroke:none"
         id="path140"
         inkscape:connector-curvature="0" /><path
         d="m 3452.17,381.43 -26.78,0 0,-138.578 94.05,0 0,20.929 -67.27,0 0,117.649"
         style="fill:#231f20;fill-opacity:1;fill-rule:nonzero;stroke:none"
         id="path142"
         inkscape:connector-curvature="0" /><path
         d="m 3682.82,296.91 21.32,54.86 23.41,-54.86 -44.73,0 z m 7.53,84.52 -57.13,-138.578 28.07,0 13.39,33.718 61.6,0 14.38,-33.718 28.28,0 -61.21,138.578 -27.38,0"
         style="fill:#231f20;fill-opacity:1;fill-rule:nonzero;stroke:none"
         id="path144"
         inkscape:connector-curvature="0" /><path
         d="m 4010.77,284.711 -82.34,96.719 -23.51,0 0,-138.578 26.19,0 0,98.308 82.83,-98.308 23.01,0 0,138.578 -26.18,0 0,-96.719"
         style="fill:#231f20;fill-opacity:1;fill-rule:nonzero;stroke:none"
         id="path146"
         inkscape:connector-curvature="0" /><path
         d="m 4268.04,277.121 c -8.96,-8.891 -20.85,-13.34 -35.67,-13.34 l -28.47,0 0,96.719 27.59,0 c 15.27,0 27.42,-4.328 36.45,-12.988 9.03,-8.672 13.54,-20.473 13.54,-35.422 0,-14.418 -4.48,-26.078 -13.44,-34.969 z m 5.6,95.488 c -11.24,5.879 -24.07,8.821 -38.49,8.821 l -58.03,0 0,-138.578 56.45,0 c 14.87,0 28.07,2.867 39.58,8.617 11.5,5.761 20.39,13.883 26.64,24.363 6.25,10.477 9.36,22.5 9.36,36.059 0,13.3 -3.1,25.257 -9.31,35.91 -6.22,10.648 -14.96,18.918 -26.2,24.808"
         style="fill:#231f20;fill-opacity:1;fill-rule:nonzero;stroke:none"
         id="path148"
         inkscape:connector-curvature="0" /><path
         d="m 1701.72,436.52 2613.63,0 0,15.2422 -2613.63,0 0,-15.2422 z"
         style="fill:#231f20;fill-opacity:1;fill-rule:nonzero;stroke:none"
         id="path150"
         inkscape:connector-curvature="0" /><path
         d="m 485.703,1343.59 0,-489.184 c 0,-115.039 85.965,-449.605 478.527,-613.875 l 6.407,-2.679 6.41,2.679 c 392.383,164.207 478.303,498.805 478.303,613.875 l 0,489.184 -969.647,0"
         style="fill:#ffffff;fill-opacity:1;fill-rule:nonzero;stroke:none"
         id="path152"
         inkscape:connector-curvature="0" /><path
         d="m 589.922,1019.62 -0.027,-0.02 -3.012,1.54 c -22.25,13.09 -47.711,20 -73.637,20 -2.207,0 -3.355,-0.11 -4.801,-0.26 l -1.457,-0.13 0,-186.344 c 0,-3.984 12.633,-403.687 463.649,-593.484 450.793,189.707 463.423,589.5 463.423,593.484 l 0,186.104 c -2.01,0.11 -4.1,0.15 -6.2,0.15 -25.97,0 -51.44,-6.92 -73.7,-20.01 -47.33,-27.927 -109.58,-28.009 -157.1,-0.11 -44.88,26.56 -103.32,26.49 -147.77,0.26 l -1.32,-0.65 c -47.18,-27.298 -108.892,-27.142 -155.943,0.53 l -0.82,0.58 c -44.316,25.94 -102.605,25.88 -146.93,-0.19 l -2.125,-1.25 -0.179,0.08 c -46.114,-26.166 -105.746,-26.259 -152.051,-0.28"
         style="fill:#231f20;fill-opacity:1;fill-rule:nonzero;stroke:none"
         id="path154"
         inkscape:connector-curvature="0" /><path
         d="m 642.16,1256.45 c 17.02,20.01 39.195,22.1 49.379,22.59 71.93,2.24 108.441,-51.66 106.836,-94.74 -1.832,-49.16 -39.062,-60.62 -44.117,-62.03 0,0 -0.637,-10.66 7.715,-25.02 0.523,-1.04 2.14,-2.3 0.578,-5.07 -0.27,-0.61 -1.66,-3.25 -2.078,-3.75 -0.297,-0.47 -0.985,-2.01 -0.43,-3.86 0.875,-3.16 -0.313,-7.01 -2.699,-11.4 -1.805,-3.99 0.297,-13.95 1.308,-20.68 0.161,-1.42 -0.82,-1.47 -1.711,-0.45 -4.597,2.94 -8.093,12.13 -9.296,17.23 -8.696,-2.3 -18.786,-15.15 -22.211,-22.65 -0.286,-1.07 -2.161,-2.17 -2.469,0.19 -0.137,0.59 -1.863,15.04 12.086,25.55 -7.071,2.23 -14.434,-1.2 -19.399,-3.91 -0.363,-0.36 -2.453,-1.29 -0.886,0.98 0.308,0.5 4.355,9.67 23.035,12.31 0.242,0.65 4.156,6.8 5.789,11.55 -0.5,7 -4.129,15.78 -8.539,23.96 -0.688,-0.05 -14.004,-1.17 -23.391,-8.41 -0.621,-0.38 -1.793,-1.62 -1.793,-3.46 0,-1.85 0,-4.02 0,-4.02 0.137,-0.57 -0.715,-4.29 -5.504,-5.83 -0.418,-0.39 -16.199,-5.39 -23.711,-8.94 -0.39,-0.34 -7.148,-3.29 -12.109,-10.27 -1.055,-1.12 -5.02,-7.27 -10.777,-9.16 -1.391,-0.31 -4.508,-1.75 -6.692,-3.98 -2.238,-2.22 -4.25,-4.45 -6.148,-5.63 -1.903,-1.2 -6.141,-5.8 -9.199,-12.13 -0.5,-0.88 -1.403,-2.04 -1.457,0 -0.161,2.59 0.175,5.88 0.054,5.94 1.821,7.95 5.461,12 8.59,15.49 -1.226,0.35 -1.039,0.12 -2.332,0.83 -5.785,-0.71 -23.793,0.93 -34.598,-4.35 -0.808,-0.42 -1.671,-0.28 -0.808,0.87 1.984,2.72 6.031,13.19 30.359,13.74 0.285,2.31 -10.867,7.76 -16.535,7.76 -1.777,0 -0.715,0.98 0,1.26 1.281,0.58 11.992,5.2 24.684,-3.06 0.527,0.38 9.093,3.48 13.972,3.89 5.867,4.37 18.899,17.44 24.145,19.48 -0.11,0.77 -0.5,3.57 0.133,6.37 l -0.633,0.15 c -6.824,9.63 -7.852,23.83 -7.567,31.66 -13.945,1.32 -28.929,13.8 -36.886,23.91 -10.106,0.68 -30.27,9.31 -41.032,31.09 -36.753,-26.43 -60.64,-73.44 -61.992,-75.61 -0.859,-0.68 -1.332,-0.68 -1.98,-0.18 -4.047,7.3 -4.844,18.45 -3.492,21.93 7.148,19.44 24.086,46.2 42.527,69.98 -6.988,40.03 29.898,53.32 44.184,52.83 14.89,-0.33 25.25,-9.97 27.097,-12.95 l 0,0"
         style="fill:#231f20;fill-opacity:1;fill-rule:nonzero;stroke:none"
         id="path156"
         inkscape:connector-curvature="0" /><path
         d="m 593.375,1219.8 c -3.293,0 -5.934,2.69 -5.934,5.99 0,3.31 2.641,5.99 5.934,5.99 3.305,0 5.988,-2.68 5.988,-5.99 0,-3.3 -2.683,-5.99 -5.988,-5.99 z m 120.688,30.83 c 0,0 -0.864,0 -0.11,0.65 0.84,2.11 8.27,5.32 13.125,5.65 -21.512,8.57 -35.539,-1.9 -35.16,-0.72 l -0.18,0.72 c 0,0 2.918,4.91 10.008,9.82 -19.945,0 -30.101,-10.64 -30.101,-10.64 l -0.055,1.47 c 0,0 1.348,4.09 7.726,10.17 -22.519,-0.69 -40.054,-29.25 -40.054,-29.25 0,0 -3.914,20.43 -23.512,20.43 -14.309,2.17 -46.383,-17.45 -34.07,-44.01 -5.692,-10.62 -24.52,-27.07 -40.571,-60.35 -0.347,-0.69 0.352,-0.45 0,-1.15 14.489,20.6 35.407,47.03 56.704,59.97 2.144,-1.65 14.417,-33.57 42.675,-35.37 3.196,-2.32 17.278,-25.92 42.375,-23.6 0.301,-2.65 0.274,-25.35 4.575,-32.72 l 1.078,-1.35 c -0.094,0.7 0.164,0.09 0.164,0.09 2.008,2.22 16.199,12.53 27.933,16.36 0,0 5.059,15.62 8.469,19.59 24.41,5.62 36.969,24.92 37.711,43.56 0.512,25.94 -22.727,54.02 -48.73,50.68"
         style="fill:#ffffff;fill-opacity:1;fill-rule:nonzero;stroke:none"
         id="path158"
         inkscape:connector-curvature="0" /><path
         d="m 945.902,1256.45 c 16.996,20.01 39.207,22.1 49.368,22.59 71.93,2.24 108.48,-51.66 106.81,-94.74 -1.81,-49.16 -39.04,-60.62 -44.11,-62.03 0,0 -0.59,-10.66 7.72,-25.02 0.54,-1.04 2.15,-2.3 0.59,-5.07 -0.22,-0.61 -1.67,-3.25 -2.05,-3.75 -0.38,-0.47 -1,-2.01 -0.49,-3.86 0.92,-3.16 -0.32,-7.01 -2.64,-11.4 -1.83,-3.99 0.27,-13.95 1.24,-20.68 0.24,-1.42 -0.81,-1.47 -1.67,-0.45 -4.56,2.94 -8.09,12.13 -9.23,17.23 -8.79,-2.3 -18.88,-15.15 -22.28,-22.65 -0.32,-1.07 -2.16,-2.17 -2.52,0.19 -0.14,0.59 -1.85,15.04 12.15,25.55 -7.09,2.23 -14.43,-1.2 -19.43,-3.91 -0.37,-0.36 -2.46,-1.29 -0.87,0.98 0.3,0.5 4.36,9.67 23.03,12.31 0.24,0.65 4.12,6.8 5.8,11.55 -0.46,7 -4.13,15.78 -8.53,23.96 -0.73,-0.05 -14,-1.17 -23.41,-8.41 -0.6,-0.38 -1.81,-1.62 -1.81,-3.46 0,-1.85 0,-4.02 0,-4.02 0.15,-0.57 -0.66,-4.29 -5.5,-5.83 -0.45,-0.39 -16.203,-5.39 -23.66,-8.94 -0.433,-0.34 -7.203,-3.29 -12.152,-10.27 -1.039,-1.12 -5.004,-7.27 -10.75,-9.16 -1.457,-0.31 -4.492,-1.75 -6.715,-3.98 -2.215,-2.22 -4.262,-4.45 -6.164,-5.63 -1.852,-1.2 -6.164,-5.8 -9.199,-12.13 -0.461,-0.88 -1.375,-2.04 -1.418,0 -0.231,2.59 0.121,5.88 0.043,5.94 1.847,7.95 5.488,12 8.617,15.49 -1.242,0.35 -1.094,0.12 -2.375,0.83 -5.731,-0.71 -23.766,0.93 -34.609,-4.35 -0.809,-0.42 -1.606,-0.28 -0.809,0.87 2.023,2.72 6.055,13.19 30.359,13.74 0.325,2.31 -10.855,7.76 -16.508,7.76 -1.742,0 -0.753,0.98 0,1.26 1.297,0.58 11.993,5.2 24.657,-3.06 0.566,0.38 9.117,3.48 13.945,3.89 5.922,4.37 18.938,17.44 24.145,19.48 -0.043,0.77 -0.473,3.57 0.214,6.37 l -0.687,0.15 c -6.742,9.63 -7.852,23.83 -7.566,31.66 -13.95,1.32 -28.891,13.8 -36.848,23.91 -10.156,0.68 -30.27,9.31 -41.059,31.09 -36.754,-26.43 -60.679,-73.44 -62.027,-75.61 -0.797,-0.68 -1.27,-0.68 -1.957,-0.18 -3.965,7.3 -4.828,18.45 -3.492,21.93 7.121,19.44 24.113,46.2 42.539,69.98 -6.961,40.03 29.914,53.32 44.226,52.83 14.836,-0.33 25.235,-9.97 27.082,-12.95 l 0,0"
         style="fill:#231f20;fill-opacity:1;fill-rule:nonzero;stroke:none"
         id="path160"
         inkscape:connector-curvature="0" /><path
         d="m 897.145,1219.8 c -3.348,0 -6.028,2.69 -6.028,5.99 0,3.31 2.68,5.99 6.028,5.99 3.277,0 5.96,-2.68 5.96,-5.99 0,-3.3 -2.683,-5.99 -5.96,-5.99 z m 120.605,30.83 c 0,0 -0.82,0 -0.11,0.65 0.85,2.11 8.37,5.32 13.17,5.65 -21.52,8.57 -35.54,-1.9 -35.165,-0.72 l -0.161,0.72 c 0,0 2.899,4.91 9.966,9.82 -19.973,0 -30.052,-10.64 -30.052,-10.64 l -0.117,1.47 c 0,0 1.36,4.09 7.727,10.17 -22.485,-0.69 -40.031,-29.25 -40.031,-29.25 0,0 -3.899,20.43 -23.524,20.43 -14.281,2.17 -46.344,-17.45 -34.043,-44.01 -5.719,-10.62 -24.523,-27.07 -40.527,-60.35 -0.367,-0.69 0.32,-0.45 0,-1.15 14.402,20.6 35.375,47.03 56.621,59.97 2.172,-1.65 14.469,-33.57 42.738,-35.37 3.145,-2.32 17.266,-25.92 42.324,-23.6 0.313,-2.65 0.286,-25.35 4.625,-32.72 l 1.071,-1.35 c -0.11,0.7 0.16,0.09 0.16,0.09 1.98,2.22 16.208,12.53 27.908,16.36 0,0 5.07,15.62 8.46,19.59 24.43,5.62 36.95,24.92 37.76,43.56 0.48,25.94 -22.79,54.02 -48.8,50.68"
         style="fill:#ffffff;fill-opacity:1;fill-rule:nonzero;stroke:none"
         id="path162"
         inkscape:connector-curvature="0" /><path
         d="m 1247.72,1256.45 c 17.1,20.01 39.27,22.1 49.36,22.59 72.03,2.24 108.5,-51.66 106.88,-94.74 -1.78,-49.16 -39.06,-60.62 -44.14,-62.03 0,0 -0.59,-10.66 7.72,-25.02 0.54,-1.04 2.21,-2.3 0.59,-5.07 -0.21,-0.61 -1.67,-3.25 -2.05,-3.75 -0.32,-0.47 -0.97,-2.01 -0.48,-3.86 0.92,-3.16 -0.27,-7.01 -2.65,-11.4 -1.77,-3.99 0.28,-13.95 1.24,-20.68 0.25,-1.42 -0.75,-1.47 -1.67,-0.45 -4.58,2.94 -8.09,12.13 -9.22,17.23 -8.74,-2.3 -18.89,-15.15 -22.26,-22.65 -0.35,-1.07 -2.18,-2.17 -2.48,0.19 -0.19,0.59 -1.86,15.04 12.09,25.55 -7.07,2.23 -14.44,-1.2 -19.45,-3.91 -0.33,-0.36 -2.43,-1.29 -0.86,0.98 0.34,0.5 4.37,9.67 23.09,12.31 0.21,0.65 4.12,6.8 5.71,11.55 -0.43,7 -4.04,15.78 -8.49,23.96 -0.68,-0.05 -14,-1.17 -23.39,-8.41 -0.62,-0.38 -1.84,-1.62 -1.84,-3.46 0,-1.85 0,-4.02 0,-4.02 0.17,-0.57 -0.64,-4.29 -5.44,-5.83 -0.44,-0.39 -16.22,-5.39 -23.74,-8.94 -0.38,-0.34 -7.15,-3.29 -12.09,-10.27 -1.08,-1.12 -5.07,-7.27 -10.76,-9.16 -1.46,-0.31 -4.51,-1.75 -6.72,-3.98 -2.21,-2.22 -4.26,-4.45 -6.15,-5.63 -1.91,-1.2 -6.15,-5.8 -9.22,-12.13 -0.49,-0.88 -1.35,-2.04 -1.41,0 -0.21,2.59 0.11,5.88 0.06,5.94 1.78,7.95 5.39,12 8.57,15.49 -1.24,0.35 -1.05,0.12 -2.34,0.83 -5.75,-0.71 -23.79,0.93 -34.61,-4.35 -0.81,-0.42 -1.62,-0.28 -0.81,0.87 2.02,2.72 6.04,13.19 30.38,13.74 0.35,2.31 -10.9,7.76 -16.57,7.76 -1.72,0 -0.67,0.98 0,1.26 1.3,0.58 12.03,5.2 24.66,-3.06 0.59,0.38 9.14,3.48 14,3.89 5.85,4.37 18.91,17.44 24.14,19.48 -0.05,0.77 -0.46,3.57 0.19,6.37 l -0.65,0.15 c -6.8,9.63 -7.85,23.83 -7.58,31.66 -13.97,1.32 -28.92,13.8 -36.85,23.91 -10.17,0.68 -30.26,9.31 -41.11,31.09 -36.68,-26.43 -60.64,-73.44 -61.93,-75.61 -0.87,-0.68 -1.38,-0.68 -2.05,-0.18 -3.97,7.3 -4.8,18.45 -3.48,21.93 7.15,19.44 24.09,46.2 42.56,69.98 -6.98,40.03 29.89,53.32 44.22,52.83 14.83,-0.33 25.25,-9.97 27.03,-12.95 l 0,0"
         style="fill:#231f20;fill-opacity:1;fill-rule:nonzero;stroke:none"
         id="path164"
         inkscape:connector-curvature="0" /><path
         d="m 1198.97,1219.8 c -3.29,0 -5.96,2.69 -5.96,5.99 0,3.31 2.67,5.99 5.96,5.99 3.32,0 5.99,-2.68 5.99,-5.99 0,-3.3 -2.67,-5.99 -5.99,-5.99 z m 120.66,30.83 c 0,0 -0.86,0 -0.1,0.65 0.81,2.11 8.33,5.32 13.16,5.65 -21.53,8.57 -35.61,-1.9 -35.18,-0.72 l -0.16,0.72 c 0,0 2.91,4.91 9.98,9.82 -19.96,0 -30.07,-10.64 -30.07,-10.64 l -0.06,1.47 c 0,0 1.27,4.09 7.69,10.17 -22.53,-0.69 -40.03,-29.25 -40.03,-29.25 0,0 -3.94,20.43 -23.55,20.43 -14.33,2.17 -46.35,-17.45 -34.02,-44.01 -5.72,-10.62 -24.55,-27.07 -40.57,-60.35 -0.32,-0.69 0.32,-0.45 0,-1.15 14.49,20.6 35.39,47.03 56.68,59.97 2.13,-1.65 14.43,-33.57 42.67,-35.37 3.16,-2.32 17.32,-25.92 42.41,-23.6 0.29,-2.65 0.24,-25.35 4.61,-32.72 l 1.02,-1.35 c -0.08,0.7 0.17,0.09 0.17,0.09 1.99,2.22 16.21,12.53 27.94,16.36 0,0 5.02,15.62 8.45,19.59 24.41,5.62 36.98,24.92 37.73,43.56 0.49,25.94 -22.76,54.02 -48.77,50.68"
         style="fill:#ffffff;fill-opacity:1;fill-rule:nonzero;stroke:none"
         id="path166"
         inkscape:connector-curvature="0" /><path
         d="m 1008.59,556.012 -6.94,-4.672 7.4,-3.899 c 4.74,-2.5 7.69,-7.472 7.69,-12.972 0,-8.071 -6.57,-14.637 -14.65,-14.637 l -63.137,0 c -8.066,0 -14.637,6.566 -14.637,14.637 0,5.48 2.954,10.453 7.704,12.98 l 7.355,3.903 -6.906,4.648 c -15.246,10.27 -32.438,15.398 -49.719,15.398 -17.258,0 -34.605,-5.128 -50.164,-15.367 -17.094,-11.301 -32.672,-15.301 -59.531,-15.301 -34.035,0 -61.469,10.02 -86.352,31.54 l -1.406,1.218 -15.809,0 -1.496,-1.777 c -2.222,-2.641 -5.562,-4.16 -9.156,-4.16 -6.406,0 -11.621,4.82 -11.621,10.75 0,5.918 5.215,10.742 11.621,10.742 3.605,0 6.953,-1.551 9.176,-4.254 l 1.5,-1.82 18.918,0 0,23.043 -18.887,0 -1.496,-1.782 c -2.231,-2.644 -5.567,-4.167 -9.156,-4.167 -6.407,0 -11.621,4.824 -11.621,10.761 0,5.926 5.214,10.75 11.621,10.75 3.629,0 6.984,-1.547 9.203,-4.242 l 1.5,-1.82 18.836,0 0,23.039 -18.817,0 -1.5,-1.793 c -2.207,-2.649 -5.55,-4.172 -9.172,-4.172 -6.39,0 -11.589,4.82 -11.589,10.746 0,5.938 5.199,10.766 11.589,10.766 3.653,0 6.926,-1.524 9.219,-4.285 l 1.5,-1.805 18.77,0 0,23.039 -18.711,0 -1.496,-1.766 c -2.254,-2.656 -5.59,-4.183 -9.168,-4.183 -6.407,0 -11.621,4.824 -11.621,10.761 0,5.922 5.214,10.75 11.621,10.75 3.605,0 6.953,-1.55 9.175,-4.257 l 1.497,-1.821 18.703,0 0,23.039 -18.676,0 -1.5,-1.789 c -2.219,-2.652 -5.551,-4.172 -9.149,-4.172 -6.406,0 -11.617,4.832 -11.617,10.774 0,5.922 5.211,10.734 11.617,10.734 3.606,0 6.969,-1.551 9.231,-4.254 l 1.5,-1.793 18.594,0 0,23.028 -18.567,0 -1.496,-1.785 c -2.222,-2.645 -5.574,-4.165 -9.203,-4.165 -6.394,0 -11.594,4.825 -11.594,10.75 0,5.934 5.2,10.762 11.594,10.762 3.633,0 6.996,-1.558 9.227,-4.265 l 1.5,-1.821 18.539,0 0,23.024 -18.555,0 -1.5,-1.774 c -2.234,-2.644 -5.594,-4.168 -9.211,-4.168 -6.394,0 -11.594,4.828 -11.594,10.75 0,5.926 5.2,10.754 11.594,10.754 3.649,0 7.008,-1.543 9.231,-4.234 l 1.484,-1.793 14.723,-0.129 15.777,7.945 0,-208.609 2.336,-4.219 c 43.285,-27.242 86.781,-29.992 125.785,-7.93 41.109,23.254 98.867,24.395 132.855,-25.062 l -16.109,0 c -2.758,0 -4.996,-2.238 -4.996,-5 0,-2.75 2.238,-4.988 4.996,-4.988 l 50.719,0 c 2.758,0 4.995,2.238 4.995,4.988 0,2.762 -2.237,5 -4.995,5 l -16.211,0 c 34.536,50.258 92.466,45.461 133.036,24.953 35.91,-18.152 78,-15.531 125.13,7.777 l 2.78,4.481 0,208.609 15.79,-7.945 14.69,0.129 1.48,1.773 c 2.25,2.699 5.63,4.254 9.27,4.254 6.39,0 11.59,-4.828 11.59,-10.754 0,-5.922 -5.2,-10.75 -11.59,-10.75 -3.61,0 -6.99,1.528 -9.25,4.192 l -1.5,1.75 -18.53,0 0,-23.024 18.52,0 1.5,1.805 c 2.25,2.719 5.63,4.281 9.26,4.281 6.39,0 11.59,-4.828 11.59,-10.762 0,-5.925 -5.2,-10.75 -11.59,-10.75 -3.62,0 -6.99,1.528 -9.25,4.188 l -1.49,1.762 -18.54,0 0,-23.028 18.64,0 1.5,1.821 c 2.21,2.687 5.55,4.226 9.17,4.226 6.4,0 11.6,-4.812 11.6,-10.734 0,-5.942 -5.2,-10.774 -11.6,-10.774 -3.55,0 -6.96,1.555 -9.13,4.168 l -1.5,1.793 -18.68,0 0,-23.039 18.69,0 1.5,1.813 c 2.24,2.707 5.6,4.265 9.22,4.265 6.4,0 11.59,-4.828 11.59,-10.75 0,-5.937 -5.19,-10.761 -11.59,-10.761 -3.61,0 -6.96,1.523 -9.2,4.179 l -1.5,1.77 -18.71,0 0,-23.039 18.74,0 1.5,1.808 c 2.25,2.723 5.61,4.282 9.22,4.282 6.38,0 11.57,-4.828 11.57,-10.766 0,-5.926 -5.19,-10.746 -11.57,-10.746 -3.62,0 -6.96,1.523 -9.18,4.176 l -1.5,1.789 -18.78,0 0,-23.039 18.86,0 1.5,1.816 c 2.25,2.738 5.52,4.246 9.18,4.246 6.39,0 11.6,-4.824 11.6,-10.75 0,-5.937 -5.21,-10.761 -11.6,-10.761 -3.59,0 -6.94,1.523 -9.17,4.171 l -1.49,1.778 -18.88,0 0,-23.043 18.91,0 1.49,1.82 c 2.23,2.703 5.58,4.254 9.17,4.254 6.41,0 11.62,-4.824 11.62,-10.742 0,-5.93 -5.21,-10.75 -11.62,-10.75 -3.54,0 -6.9,1.531 -9.21,4.211 l -1.49,1.726 -15.73,0 -1.41,-1.218 c -24.89,-21.52 -52.34,-31.54 -86.35,-31.54 -26.86,0 -42.44,4 -59.58,15.301 -31.06,20.489 -69.32,20.489 -99.86,-0.019"
         style="fill:#ffffff;fill-opacity:1;fill-rule:nonzero;stroke:none"
         id="path168"
         inkscape:connector-curvature="0" /><path
         d="m 723.602,584.539 c 32.113,-17.019 58.484,-21.609 105.804,2.957 51.918,26.973 105.407,9.309 136.149,-20.476 l 0,-15.688 c -37.844,49.027 -98.45,47.164 -141.977,22.559 -34.91,-19.75 -73.996,-17.571 -113.207,6.238 l 0,210.848 10.574,5.32 0,-210.336 2.657,-1.422"
         style="fill:#ffffff;fill-opacity:1;fill-rule:nonzero;stroke:none"
         id="path170"
         inkscape:connector-curvature="0" /><path
         d="m 730.934,591.992 0,209.332 1.308,0.664 c 36.098,-8.347 63.344,-5.617 99.86,9.832 44.168,18.68 89.05,12.719 133.453,-17.691 l 0,-213.688 c -21.461,17.872 -50.84,30.375 -82.793,30.375 -18.793,0 -38.485,-4.328 -57.965,-14.445 -42.336,-21.973 -65.34,-19 -93.863,-4.379"
         style="fill:#ffffff;fill-opacity:1;fill-rule:nonzero;stroke:none"
         id="path172"
         inkscape:connector-curvature="0" /><path
         d="m 1111.68,587.496 c 47.32,-24.547 73.68,-19.965 105.79,-2.957 l 2.66,1.422 0,210.336 10.56,-5.317 0.01,-210.511 c -43,-20.598 -81.14,-22.778 -113.39,-6.469 -42.78,21.621 -103.37,27.043 -141.763,-22.66 l 0,15.68 c 30.713,29.812 84.203,47.48 136.133,20.476"
         style="fill:#ffffff;fill-opacity:1;fill-rule:nonzero;stroke:none"
         id="path174"
         inkscape:connector-curvature="0" /><path
         d="m 975.547,580.449 0,213.68 c 44.373,30.41 89.243,36.375 133.443,17.691 36.48,-15.449 63.73,-18.164 99.82,-9.832 l 1.31,-0.668 0,-209.328 c -28.5,-14.613 -51.51,-17.601 -93.82,4.379 -52.68,27.344 -106.71,12.473 -140.753,-15.922"
         style="fill:#ffffff;fill-opacity:1;fill-rule:nonzero;stroke:none"
         id="path176"
         inkscape:connector-curvature="0" /><path
         d="m 1212.34,839.695 -56.51,42.68 -56.53,-42.687 21.66,68.175 -59.54,42.903 72.53,0 21.88,68.594 21.88,-68.594 72.55,0 -59.54,-42.911 21.62,-68.16"
         style="fill:#ffffff;fill-opacity:1;fill-rule:nonzero;stroke:none"
         id="path178"
         inkscape:connector-curvature="0" /><path
         d="m 841.5,839.09 -56.539,42.73 -56.535,-42.734 21.668,68.187 -59.543,42.954 72.551,0 21.859,68.573 21.863,-68.573 72.571,0 -59.547,-42.954 21.652,-68.183"
         style="fill:#ffffff;fill-opacity:1;fill-rule:nonzero;stroke:none"
         id="path180"
         inkscape:connector-curvature="0" /><path
         d="m 913.961,304 21.668,68.172 -59.566,42.937 72.57,0 21.859,68.571 21.856,-68.571 72.562,0 -59.56,-42.937 L 1027.01,304 970.492,346.699 913.961,304"
         style="fill:#ffffff;fill-opacity:1;fill-rule:nonzero;stroke:none"
         id="path182"
         inkscape:connector-curvature="0" /></g></g></svg>