<?xml version="1.0" encoding="UTF-8" standalone="no"?>
<!-- Created with Inkscape (http://www.inkscape.org/) -->

<svg
   xmlns:dc="http://purl.org/dc/elements/1.1/"
   xmlns:cc="http://creativecommons.org/ns#"
   xmlns:rdf="http://www.w3.org/1999/02/22-rdf-syntax-ns#"
   xmlns:svg="http://www.w3.org/2000/svg"
   xmlns="http://www.w3.org/2000/svg"
   xmlns:sodipodi="http://sodipodi.sourceforge.net/DTD/sodipodi-0.dtd"
   xmlns:inkscape="http://www.inkscape.org/namespaces/inkscape"
   id="svg2"
   version="1.1"
   inkscape:version="0.91 r13725"
   xml:space="preserve"
   width="422.79999"
   height="405.98749"
   viewBox="0 0 422.79999 405.98749"
   sodipodi:docname="UOA-V-Black.svg"><metadata
     id="metadata8"><rdf:RDF><cc:Work
         rdf:about=""><dc:format>image/svg+xml</dc:format><dc:type
           rdf:resource="http://purl.org/dc/dcmitype/StillImage" /><dc:title></dc:title></cc:Work></rdf:RDF></metadata><defs
     id="defs6" /><sodipodi:namedview
     pagecolor="#ffffff"
     bordercolor="#666666"
     borderopacity="1"
     objecttolerance="10"
     gridtolerance="10"
     guidetolerance="10"
     inkscape:pageopacity="0"
     inkscape:pageshadow="2"
     inkscape:window-width="640"
     inkscape:window-height="480"
     id="namedview4"
     showgrid="false"
     inkscape:zoom="0.87520224"
     inkscape:cx="144.94732"
     inkscape:cy="202.99374"
     inkscape:current-layer="g10" /><g
     id="g10"
     inkscape:groupmode="layer"
     inkscape:label="ink_ext_XXXXXX"
     transform="matrix(1.25,0,0,-1.25,0,405.9875)"><g
       id="g12"
       transform="scale(0.1,0.1)"><path
         d="m 0,2763.92 484.004,484 2898.356,0 0,-2762.971 L 2897.41,0 1.89453,0 0,2763.92"
         style="fill:#231f20;fill-opacity:1;fill-rule:nonzero;stroke:none"
         id="path14"
         inkscape:connector-curvature="0" /><path
         d="m 515.73,758.672 13.168,0 0,88.75 31.715,0 0,13.148 -76.609,0 0,-13.148 31.726,0 0,-88.75"
         style="fill:#ffffff;fill-opacity:1;fill-rule:nonzero;stroke:none"
         id="path16"
         inkscape:connector-curvature="0" /><path
         d="m 567.578,799.012 c 1.621,10.617 7.113,16.57 16.254,16.57 8.465,0 13.734,-6.434 14.137,-16.57 l -30.391,0 z m 15.981,28.117 c -16.633,0 -28.188,-13.77 -28.188,-34.09 0,-18.519 10.465,-35.68 29.277,-35.68 10.207,0 16.801,2.532 24.047,7.891 l 0,12.832 c -6.961,-5.07 -13.84,-8.051 -21.097,-8.051 -11.555,0 -18.399,6.918 -20.282,20.16 l 42.481,0 c 0,24.821 -10.231,36.938 -26.238,36.938"
         style="fill:#ffffff;fill-opacity:1;fill-rule:nonzero;stroke:none"
         id="path18"
         inkscape:connector-curvature="0" /><path
         d="m 725.344,860.57 -12.5,0 -25.406,-70.23 -25.243,70.23 -13.187,0 37.117,-102.769 2.543,0 30.379,83.34 30.07,-83.34 2.582,0 37.223,102.769 -13.035,0 -25.028,-70.23 -25.515,70.23"
         style="fill:#ffffff;fill-opacity:1;fill-rule:nonzero;stroke:none"
         id="path20"
         inkscape:connector-curvature="0" /><path
         d="m 855.211,758.672 0,41.066 c 0,18.391 -8.75,27.391 -20.543,27.391 -6.723,0 -13.473,-3.77 -18.016,-10.168 l -0.261,0 0,43.609 -11.969,0 0,-101.898 11.969,0 0,48.129 c 5.621,6.98 9.789,9.711 15.058,9.711 7.223,0 11.828,-6.453 11.828,-16.274 l 0,-41.566 11.934,0"
         style="fill:#ffffff;fill-opacity:1;fill-rule:nonzero;stroke:none"
         id="path22"
         inkscape:connector-curvature="0" /><path
         d="m 905.266,772.289 c -3.246,-3.449 -6.723,-5.519 -10.489,-5.519 -4.961,0 -8.586,3.871 -8.586,9.402 0,7.898 8.848,11.816 19.075,15.687 l 0,-19.57 z m -10.629,22.691 c -9.676,-3.878 -20.543,-7.89 -20.543,-21.199 0,-8.672 5.883,-16.422 14.75,-16.422 5.531,0 11.035,2.25 16.281,6.86 1.102,-4.77 3.906,-6.86 9.125,-6.86 3.766,0 6.055,1.172 11.531,5.223 l 0,8.059 c -2.636,-2.262 -5.066,-3.602 -6.285,-3.602 -1.48,0 -2.285,0.902 -2.285,3.449 l 0,34.492 c 0,15.231 -9.684,22.149 -21.902,22.149 -8.704,0 -15.332,-2.988 -20.032,-9.141 l 0,-14.508 c 5.801,7.661 12.493,11.059 19.098,11.059 7.242,0 10.891,-3.398 10.891,-11.769 l 0,-3.598 -10.629,-4.192"
         style="fill:#ffffff;fill-opacity:1;fill-rule:nonzero;stroke:none"
         id="path24"
         inkscape:connector-curvature="0" /><path
         d="m 944.406,825.738 0,-67.066 11.934,0 0,35.117 c 0,11.512 6.465,20.602 14.644,20.602 2.832,0 7.532,-2.692 11.153,-6.539 l 6.312,11.488 c -4.961,5.23 -9.508,7.789 -14.375,7.789 -5.621,0 -11.386,-4.981 -17.461,-16.758 l -0.273,0 0,15.367 -11.934,0"
         style="fill:#ffffff;fill-opacity:1;fill-rule:nonzero;stroke:none"
         id="path26"
         inkscape:connector-curvature="0" /><path
         d="m 1010.55,799.012 c 1.59,10.617 7.09,16.57 16.24,16.57 8.47,0 13.69,-6.434 14.09,-16.57 l -30.33,0 z m 15.96,28.117 c -16.66,0 -28.19,-13.77 -28.19,-34.09 0,-18.519 10.48,-35.68 29.29,-35.68 10.21,0 16.78,2.532 24.05,7.891 l 0,12.832 c -7.01,-5.07 -13.84,-8.051 -21.09,-8.051 -11.56,0 -18.43,6.918 -20.31,20.16 l 42.48,0 c 0,24.821 -10.21,36.938 -26.23,36.938"
         style="fill:#ffffff;fill-opacity:1;fill-rule:nonzero;stroke:none"
         id="path28"
         inkscape:connector-curvature="0" /><path
         d="m 1168.31,860.57 -12.51,0 -25.39,-70.23 -25.26,70.23 -13.18,0 37.08,-102.769 2.58,0 30.34,83.34 30.12,-83.34 2.54,0 37.25,102.769 -13.06,0 -24.99,-70.23 -25.52,70.23"
         style="fill:#ffffff;fill-opacity:1;fill-rule:nonzero;stroke:none"
         id="path30"
         inkscape:connector-curvature="0" /><path
         d="m 1265.79,772.289 c -3.23,-3.449 -6.76,-5.519 -10.49,-5.519 -4.99,0 -8.62,3.871 -8.62,9.402 0,7.898 8.9,11.816 19.11,15.687 l 0,-19.57 z m -10.6,22.691 c -9.7,-3.878 -20.59,-7.89 -20.59,-21.199 0,-8.672 5.9,-16.422 14.77,-16.422 5.55,0 11.04,2.25 16.26,6.86 1.05,-4.77 3.91,-6.86 9.15,-6.86 3.74,0 6.04,1.172 11.57,5.223 l 0,8.059 c -2.68,-2.262 -5.08,-3.602 -6.33,-3.602 -1.5,0 -2.28,0.902 -2.28,3.449 l 0,34.492 c 0,15.231 -9.67,22.149 -21.9,22.149 -8.75,0 -15.34,-2.988 -20,-9.141 l 0,-14.508 c 5.74,7.661 12.47,11.059 19.08,11.059 7.23,0 10.87,-3.398 10.87,-11.769 l 0,-3.598 -10.6,-4.192"
         style="fill:#ffffff;fill-opacity:1;fill-rule:nonzero;stroke:none"
         id="path32"
         inkscape:connector-curvature="0" /><path
         d="m 1354.63,758.672 0,41.41 c 0,18.359 -9.15,27.047 -20.55,27.047 -6.73,0 -13.44,-3.77 -18.02,-10.168 l -0.26,0 0,8.777 -11.97,0 0,-67.066 11.97,0 0,48.129 c 5.63,6.98 9.79,9.711 15.04,9.711 7.27,0 11.8,-6.453 11.8,-16.274 l 0,-41.566 11.99,0"
         style="fill:#ffffff;fill-opacity:1;fill-rule:nonzero;stroke:none"
         id="path34"
         inkscape:connector-curvature="0" /><path
         d="m 1404.66,772.289 c -3.21,-3.449 -6.69,-5.519 -10.48,-5.519 -4.96,0 -8.61,3.871 -8.61,9.402 0,7.898 8.92,11.816 19.09,15.687 l 0,-19.57 z m -10.6,22.691 c -9.66,-3.878 -20.58,-7.89 -20.58,-21.199 0,-8.672 5.93,-16.422 14.8,-16.422 5.51,0 11.01,2.25 16.26,6.86 1.07,-4.77 3.9,-6.86 9.1,-6.86 3.8,0 6.06,1.172 11.59,5.223 l 0,8.059 c -2.72,-2.262 -5.08,-3.602 -6.32,-3.602 -1.47,0 -2.28,0.902 -2.28,3.449 l 0,34.492 c 0,15.231 -9.68,22.149 -21.88,22.149 -8.78,0 -15.34,-2.988 -20.05,-9.141 l 0,-14.508 c 5.79,7.661 12.52,11.059 19.09,11.059 7.24,0 10.87,-3.398 10.87,-11.769 l 0,-3.598 -10.6,-4.192"
         style="fill:#ffffff;fill-opacity:1;fill-rule:nonzero;stroke:none"
         id="path36"
         inkscape:connector-curvature="0" /><path
         d="m 1493.54,758.672 0,41.41 c 0,18.359 -9.15,27.047 -20.6,27.047 -6.71,0 -13.41,-3.77 -17.99,-10.168 l -0.29,0 0,8.777 -11.95,0 0,-67.066 11.95,0 0,48.129 c 5.65,6.98 9.86,9.711 15.08,9.711 7.27,0 11.81,-6.453 11.81,-16.274 l 0,-41.566 11.99,0"
         style="fill:#ffffff;fill-opacity:1;fill-rule:nonzero;stroke:none"
         id="path38"
         inkscape:connector-curvature="0" /><path
         d="m 1537.14,789.879 c -7.32,0 -12.14,4.961 -12.14,12.281 0,6.57 5.41,12.07 11.97,12.07 6.33,0 11.67,-5.359 11.67,-11.781 0,-7.347 -4.8,-12.57 -11.5,-12.57 z m -3.27,-34.52 c 7.39,0 19.78,-2.218 19.78,-10.73 0,-6.117 -6.19,-9.699 -16.68,-9.699 -10.87,0 -16.77,3.582 -16.77,10.32 0,5.941 5.62,10.109 13.67,10.109 z m 31.59,70.379 -24.82,0 c -16.3,0 -26.37,-8.777 -26.37,-23.129 0,-4.937 1.1,-9.14 3.2,-12.578 2.29,-3.601 5.67,-6.453 10.14,-8.531 l 0,-0.328 c -5.84,-1.5 -9.59,-5.242 -9.59,-9.551 0,-2.992 1.88,-5.691 6.06,-8.512 -10.47,-2.828 -15.19,-8.668 -15.19,-18.48 0,-11.801 11.57,-20.289 27.8,-20.289 17.9,0 28.51,8.058 28.51,21.351 0,8.481 -4.54,15.77 -17.46,18.629 -12.13,2.66 -18.42,4.91 -18.42,8.629 0,7.922 16.4,3.16 24.43,12.731 2.84,3.172 5.67,9.609 5.67,15.101 0,5.699 -1.61,9.449 -6.34,14.68 l 12.38,0 0,10.277"
         style="fill:#ffffff;fill-opacity:1;fill-rule:nonzero;stroke:none"
         id="path40"
         inkscape:connector-curvature="0" /><path
         d="m 1608.07,772.289 c -3.19,-3.449 -6.69,-5.519 -10.46,-5.519 -4.96,0 -8.63,3.871 -8.63,9.402 0,7.898 8.89,11.816 19.09,15.687 l 0,-19.57 z m -10.58,22.691 c -9.7,-3.878 -20.57,-7.89 -20.57,-21.199 0,-8.672 5.91,-16.422 14.8,-16.422 5.48,0 10.98,2.25 16.23,6.86 1.07,-4.77 3.94,-6.86 9.15,-6.86 3.76,0 6.04,1.172 11.57,5.223 l 0,8.059 c -2.73,-2.262 -5.11,-3.602 -6.35,-3.602 -1.46,0 -2.26,0.902 -2.26,3.449 l 0,34.492 c 0,15.231 -9.7,22.149 -21.93,22.149 -8.72,0 -15.3,-2.988 -20,-9.141 l 0,-14.508 c 5.77,7.661 12.52,11.059 19.07,11.059 7.24,0 10.87,-3.398 10.87,-11.769 l 0,-3.598 -10.58,-4.192"
         style="fill:#ffffff;fill-opacity:1;fill-rule:nonzero;stroke:none"
         id="path42"
         inkscape:connector-curvature="0" /><path
         d="m 1719,815.141 c 11.98,0 20.61,-9.379 20.61,-22.411 0,-14.492 -7.97,-23.441 -20.61,-23.441 -11.56,0 -19.5,9.43 -19.5,23.609 0,12.864 8.23,22.243 19.5,22.243 z m 0.14,-57.782 c 19.31,0 32.66,14.332 32.66,35.539 0,19.852 -13.73,34.231 -32.66,34.231 -18.04,0 -31.85,-14.957 -31.85,-34.231 0,-20.609 13.31,-35.539 31.85,-35.539"
         style="fill:#ffffff;fill-opacity:1;fill-rule:nonzero;stroke:none"
         id="path44"
         inkscape:connector-curvature="0" /><path
         d="m 1838.61,758.672 0,88.75 31.75,0 0,13.148 -76.6,0 0,-13.148 31.71,0 0,-88.75 13.14,0"
         style="fill:#ffffff;fill-opacity:1;fill-rule:nonzero;stroke:none"
         id="path46"
         inkscape:connector-curvature="0" /><path
         d="m 1897.59,772.289 c -3.19,-3.449 -6.67,-5.519 -10.49,-5.519 -4.97,0 -8.59,3.871 -8.59,9.402 0,7.898 8.88,11.816 19.08,15.687 l 0,-19.57 z m -10.58,22.691 c -9.68,-3.878 -20.55,-7.89 -20.55,-21.199 0,-8.672 5.92,-16.422 14.77,-16.422 5.5,0 11.01,2.25 16.27,6.86 1.04,-4.77 3.9,-6.86 9.14,-6.86 3.72,0 6.06,1.172 11.53,5.223 l 0,8.059 c -2.7,-2.262 -5.09,-3.602 -6.27,-3.602 -1.54,0 -2.3,0.902 -2.3,3.449 l 0,34.492 c 0,15.231 -9.73,22.149 -21.93,22.149 -8.78,0 -15.29,-2.988 -20.03,-9.141 l 0,-14.508 c 5.78,7.661 12.55,11.059 19.09,11.059 7.24,0 10.86,-3.398 10.86,-11.769 l 0,-3.598 -10.58,-4.192"
         style="fill:#ffffff;fill-opacity:1;fill-rule:nonzero;stroke:none"
         id="path48"
         inkscape:connector-curvature="0" /><path
         d="m 2027.73,758.672 0,42.109 c 0,15.828 -7.77,26.348 -19.98,26.348 -8.67,0 -14.97,-5.551 -20.2,-12.117 -4.08,7.886 -10.35,12.117 -18.02,12.117 -5.69,0 -11.46,-3.328 -17.6,-10.168 l 0,8.777 -11.98,0 0,-67.066 11.98,0 0,48.707 c 5,6.402 9,8.531 15.06,8.531 5.93,0 10.87,-4.64 10.87,-15.551 l 0,-41.687 11.91,0 0,48.707 c 4.34,4.949 9.59,8.66 13.45,8.531 6.92,0 12.58,-5.539 12.58,-15.672 l 0,-41.566 11.93,0"
         style="fill:#ffffff;fill-opacity:1;fill-rule:nonzero;stroke:none"
         id="path50"
         inkscape:connector-curvature="0" /><path
         d="m 2082.07,772.289 c -3.24,-3.449 -6.72,-5.519 -10.54,-5.519 -4.94,0 -8.52,3.871 -8.52,9.402 0,7.898 8.86,11.816 19.06,15.687 l 0,-19.57 z m -10.68,22.691 c -9.64,-3.878 -20.5,-7.89 -20.5,-21.199 0,-8.672 5.87,-16.422 14.77,-16.422 5.54,0 11.01,2.25 16.32,6.86 0.99,-4.77 3.86,-6.86 9.09,-6.86 3.72,0 6.06,1.172 11.56,5.223 l 0,8.059 c -2.73,-2.262 -5.12,-3.602 -6.35,-3.602 -1.49,0 -2.25,0.902 -2.25,3.449 l 0,34.492 c 0,15.231 -9.73,22.149 -21.93,22.149 -8.66,0 -15.34,-2.988 -20,-9.141 l 0,-14.508 c 5.75,7.661 12.47,11.059 19.1,11.059 7.2,0 10.87,-3.398 10.87,-11.769 l 0,-3.598 -10.68,-4.192"
         style="fill:#ffffff;fill-opacity:1;fill-rule:nonzero;stroke:none"
         id="path52"
         inkscape:connector-curvature="0" /><path
         d="m 2164.02,825.738 -26.71,-32.84 30.19,-34.226 16.2,0 -31.18,34.226 25.8,32.84 -14.3,0"
         style="fill:#ffffff;fill-opacity:1;fill-rule:nonzero;stroke:none"
         id="path54"
         inkscape:connector-curvature="0" /><path
         d="m 2124.84,758.672 11.9492,0 0,101.898 -11.9492,0 0,-101.898 z"
         style="fill:#ffffff;fill-opacity:1;fill-rule:nonzero;stroke:none"
         id="path56"
         inkscape:connector-curvature="0" /><path
         d="m 2207.35,854 c -3.9,0 -7.15,-3.602 -7.15,-7.93 0,-4.32 3.25,-7.922 7.15,-7.922 3.86,0 7.11,3.602 7.11,7.922 0,4.328 -3.25,7.93 -7.11,7.93"
         style="fill:#ffffff;fill-opacity:1;fill-rule:nonzero;stroke:none"
         id="path58"
         inkscape:connector-curvature="0" /><path
         d="m 2201.29,758.672 11.9609,0 0,67.0664 -11.9609,0 0,-67.0664 z"
         style="fill:#ffffff;fill-opacity:1;fill-rule:nonzero;stroke:none"
         id="path60"
         inkscape:connector-curvature="0" /><path
         d="m 2378.05,758.672 0,101.898 -12.19,0 -30.52,-41.84 -30.41,41.84 -12.36,0 0,-101.898 13.17,0 0,79.297 0.28,0 28.18,-39.399 2.25,0 28.15,39.399 0.24,0 0,-79.297 13.21,0"
         style="fill:#ffffff;fill-opacity:1;fill-rule:nonzero;stroke:none"
         id="path62"
         inkscape:connector-curvature="0" /><path
         d="m 2434.08,772.289 c -3.2,-3.449 -6.68,-5.519 -10.49,-5.519 -4.93,0 -8.6,3.871 -8.6,9.402 0,7.898 8.88,11.816 19.09,15.687 l 0,-19.57 z m -10.64,22.691 c -9.63,-3.878 -20.55,-7.89 -20.55,-21.199 0,-8.672 5.97,-16.422 14.82,-16.422 5.5,0 11.01,2.25 16.22,6.86 1.09,-4.77 3.96,-6.86 9.14,-6.86 3.81,0 6.11,1.172 11.58,5.223 l 0,8.059 c -2.7,-2.262 -5.09,-3.602 -6.27,-3.602 -1.5,0 -2.3,0.902 -2.3,3.449 l 0,34.492 c 0,15.231 -9.68,22.149 -21.93,22.149 -8.78,0 -15.29,-2.988 -20.03,-9.141 l 0,-14.508 c 5.78,7.661 12.51,11.059 19.09,11.059 7.29,0 10.87,-3.398 10.87,-11.769 l 0,-3.598 -10.64,-4.192"
         style="fill:#ffffff;fill-opacity:1;fill-rule:nonzero;stroke:none"
         id="path64"
         inkscape:connector-curvature="0" /><path
         d="m 2516.1,825.738 -26.73,-32.84 30.25,-34.226 16.08,0 -31.13,34.226 25.73,32.84 -14.2,0"
         style="fill:#ffffff;fill-opacity:1;fill-rule:nonzero;stroke:none"
         id="path66"
         inkscape:connector-curvature="0" /><path
         d="m 2476.84,758.672 12,0 0,101.898 -12,0 0,-101.898 z"
         style="fill:#ffffff;fill-opacity:1;fill-rule:nonzero;stroke:none"
         id="path68"
         inkscape:connector-curvature="0" /><path
         d="m 2579.27,772.289 c -3.24,-3.449 -6.72,-5.519 -10.49,-5.519 -4.95,0 -8.62,3.871 -8.62,9.402 0,7.898 8.86,11.816 19.11,15.687 l 0,-19.57 z m -29.98,45.699 0,-14.508 c 5.76,7.661 12.53,11.059 19.11,11.059 7.25,0 10.87,-3.398 10.87,-11.769 l 0,-3.598 -10.63,-4.192 c -9.68,-3.878 -20.6,-7.89 -20.6,-21.199 0,-8.672 5.97,-16.422 14.82,-16.422 5.54,0 11.01,2.25 16.27,6.86 1.04,-4.77 3.91,-6.86 9.14,-6.86 3.74,0 6.06,1.172 11.55,5.223 l 0,8.059 c -2.67,-2.262 -5.11,-3.602 -6.34,-3.602 -1.47,0 -2.25,0.902 -2.25,3.449 l 0,34.492 c 0,15.231 -9.71,22.149 -21.93,22.149 -8.71,0 -15.29,-2.988 -20.01,-9.141"
         style="fill:#ffffff;fill-opacity:1;fill-rule:nonzero;stroke:none"
         id="path70"
         inkscape:connector-curvature="0" /><path
         d="m 2672.42,758.672 0,67.066 -11.98,0 0,-47.918 c -3.86,-6.129 -9,-9.441 -14.4,-9.441 -8.14,0 -12.33,5.402 -12.33,14.769 l 0,42.59 -11.96,0 0,-41.668 c 0,-17.031 8.57,-26.711 20.84,-26.711 5.89,0 12.9,3.852 17.85,9.852 l 0,-8.539 11.98,0"
         style="fill:#ffffff;fill-opacity:1;fill-rule:nonzero;stroke:none"
         id="path72"
         inkscape:connector-curvature="0" /><path
         d="m 2701.88,825.738 0,-67.066 12,0 0,35.117 c 0,11.512 6.44,20.602 14.68,20.602 2.78,0 7.51,-2.692 11.13,-6.539 l 6.28,11.488 c -4.95,5.23 -9.52,7.789 -14.4,7.789 -5.61,0 -11.39,-4.981 -17.45,-16.758 l -0.24,0 0,15.367 -12,0"
         style="fill:#ffffff;fill-opacity:1;fill-rule:nonzero;stroke:none"
         id="path74"
         inkscape:connector-curvature="0" /><path
         d="m 2792.26,772.289 c -3.24,-3.449 -6.73,-5.519 -10.44,-5.519 -5,0 -8.62,3.871 -8.62,9.402 0,7.898 8.85,11.816 19.06,15.687 l 0,-19.57 z m -10.59,22.691 c -9.73,-3.878 -20.6,-7.89 -20.6,-21.199 0,-8.672 5.93,-16.422 14.8,-16.422 5.57,0 11.01,2.25 16.25,6.86 1.04,-4.77 3.9,-6.86 9.21,-6.86 3.67,0 5.99,1.172 11.48,5.223 l 0,8.059 c -2.67,-2.262 -5.11,-3.602 -6.3,-3.602 -1.51,0 -2.29,0.902 -2.29,3.449 l 0,34.492 c 0,15.231 -9.66,22.149 -21.88,22.149 -8.72,0 -15.34,-2.988 -20.01,-9.141 l 0,-14.508 c 5.7,7.661 12.48,11.059 19.11,11.059 7.19,0 10.82,-3.398 10.82,-11.769 l 0,-3.598 -10.59,-4.192"
         style="fill:#ffffff;fill-opacity:1;fill-rule:nonzero;stroke:none"
         id="path76"
         inkscape:connector-curvature="0" /><path
         d="m 2885.41,758.672 0,67.066 -11.96,0 0,-47.918 c -3.86,-6.129 -9.02,-9.441 -14.35,-9.441 -8.21,0 -12.4,5.402 -12.4,14.769 l 0,42.59 -11.96,0 0,-41.668 c 0,-17.031 8.57,-26.711 20.84,-26.711 5.94,0 12.9,3.852 17.87,9.852 l 0,-8.539 11.96,0"
         style="fill:#ffffff;fill-opacity:1;fill-rule:nonzero;stroke:none"
         id="path78"
         inkscape:connector-curvature="0" /><path
         d="m 1236.83,835.672 34.543,0 0,6.82813 -34.543,0 0,-6.82813 z"
         style="fill:#ffffff;fill-opacity:1;fill-rule:nonzero;stroke:none"
         id="path80"
         inkscape:connector-curvature="0" /><path
         d="m 1869.7,835.672 34.5898,0 0,6.82813 -34.5898,0 0,-6.82813 z"
         style="fill:#ffffff;fill-opacity:1;fill-rule:nonzero;stroke:none"
         id="path82"
         inkscape:connector-curvature="0" /><path
         d="m 943.465,1346.32 -69.992,0 0,49 65.507,0 0,29.33 -65.507,0 0,47.29 67.847,0 0,29.29 -97.172,0 0,-184.19 99.317,-0.04 0,29.32"
         style="fill:#ffffff;fill-opacity:1;fill-rule:nonzero;stroke:none"
         id="path84"
         inkscape:connector-curvature="0" /><path
         d="m 1790.69,1471.94 0,29.29 -97.13,0 0,-184.19 99.27,-0.04 0,29.32 -70.03,0 0,49 65.59,0 0,29.33 -65.59,0 0,47.29 67.89,0"
         style="fill:#ffffff;fill-opacity:1;fill-rule:nonzero;stroke:none"
         id="path86"
         inkscape:connector-curvature="0" /><path
         d="m 680.75,1394.49 83.762,0 0,-77.45 29.363,0 0,184.19 -29.363,0 0,-77.5 -83.762,0 0,77.5 -29.363,0 0,-184.19 29.363,0 0,77.45"
         style="fill:#ffffff;fill-opacity:1;fill-rule:nonzero;stroke:none"
         id="path88"
         inkscape:connector-curvature="0" /><path
         d="m 1121.07,1314.66 c 24.04,0 42.81,7.02 55.75,20.83 12.1,12.93 18.53,31.86 18.53,54.6 l 0,111.14 -29.37,0 0,-106.7 c 0,-18.77 -2.69,-29.48 -9.24,-36.78 -4.49,-4.96 -15,-13.25 -35.24,-13.25 -13.05,0 -23.57,4.6 -32.18,14.04 -6.7,7.58 -8.77,15.6 -8.77,34.4 l 0,108.25 -29.32,0.04 0,-113.72 c 0,-23.29 7.5,-42.42 21.67,-55.35 12.42,-11.27 29.44,-17.5 48.17,-17.5"
         style="fill:#ffffff;fill-opacity:1;fill-rule:nonzero;stroke:none"
         id="path90"
         inkscape:connector-curvature="0" /><path
         d="m 1392.11,1317.04 0,184.19 -27.97,0 c 0,0 0,-127.57 0,-131.74 -2.58,3.3 -103.72,131.74 -103.72,131.74 l -22.97,0 0,-184.19 27.89,0 c 0,0 0,126.73 0,130.9 2.66,-3.33 102.37,-130.9 102.37,-130.9 l 24.4,0"
         style="fill:#ffffff;fill-opacity:1;fill-rule:nonzero;stroke:none"
         id="path92"
         inkscape:connector-curvature="0" /><path
         d="m 1656.89,1501.23 -29.52,0 c 0,0 -44.4,-115.75 -45.75,-119.24 -1.35,3.49 -45.91,119.24 -45.91,119.24 l -29.76,0 71.7,-185.74 9.09,-0.04 70.15,185.78"
         style="fill:#ffffff;fill-opacity:1;fill-rule:nonzero;stroke:none"
         id="path94"
         inkscape:connector-curvature="0" /><path
         d="m 1914.8,1448.57 c 0,-7.69 -2.1,-13.65 -6.19,-17.89 -4.68,-4.76 -12.18,-7.18 -22.1,-7.18 0,0 -10.31,0 -11.62,0 0,1.46 0,48.09 0,49.52 1.31,0 11.62,0 11.62,0 19.13,0 28.1,-7.54 28.29,-23.77 0,-0.28 0,-0.44 0,-0.68 z m 28.33,-131.53 35.16,0 -4.84,7.38 c -9.68,14.84 -13.69,20.95 -20.08,32.5 -5.59,10.15 -11.31,20.67 -17.1,29.2 -5.16,7.54 -10.12,13.25 -15.51,17.93 15.51,8.77 24.08,24.41 24.08,44.21 0,15.99 -5.24,29.4 -15.16,38.72 -9.84,9.33 -23.84,14.25 -40.55,14.25 l -43.61,0 0,-184.23 29.37,0.04 c 0,0 0,75.78 0,77.21 1.15,0 6.47,0 6.47,0 10.04,0 18.76,-2.81 39.75,-39.12 l 22.02,-38.09"
         style="fill:#ffffff;fill-opacity:1;fill-rule:nonzero;stroke:none"
         id="path96"
         inkscape:connector-curvature="0" /><path
         d="m 2051.38,1471.94 c 12.3,0 24.2,-5.91 35.23,-17.53 l 4.21,-4.45 1.31,-1.35 0,38.49 -0.36,0.24 -0.95,0.76 c -11.63,8.56 -24.6,13.13 -37.62,13.13 -15.23,0 -28.25,-4.8 -37.45,-13.81 -9.29,-9.05 -14.21,-21.82 -14.21,-36.86 0,-25.52 17.74,-39.64 35.99,-51.94 l 4.45,-3.02 8.17,-5.63 c 4.72,-3.37 8.01,-6.07 10.71,-8.73 6.79,-6.55 9.92,-13.02 9.92,-20.36 0,-7.46 -6.27,-19.32 -22.97,-19.32 -14.45,0 -28.57,8.69 -39.6,24.48 l -4.4,6.27 -1.39,1.98 0.91,-44.59 0.24,-0.24 c 14,-11.71 28.84,-17.18 46.82,-17.18 13.41,0 25.63,5.23 34.48,14.72 8.69,9.4 13.57,22.42 13.57,36.74 0,30.27 -18.65,44.84 -36.11,56.19 l -12.7,8.01 c -4.56,2.98 -7.97,5.48 -10.71,7.82 -6.78,5.87 -9.76,11.46 -9.76,18.21 0,10.6 9.17,17.97 22.22,17.97"
         style="fill:#ffffff;fill-opacity:1;fill-rule:nonzero;stroke:none"
         id="path98"
         inkscape:connector-curvature="0" /><path
         d="m 2429.08,1316.96 29.33,0 c 0,0 0,95.63 0,96.14 0.27,0.4 62.37,88.13 62.37,88.13 l -35.47,0 c 0,0 -40.59,-57.26 -41.74,-58.97 -1.19,1.71 -41.35,58.93 -41.35,58.93 l -35.51,0.04 c 0,0 62.13,-87.5 62.37,-87.89 0,-0.48 0,-96.38 0,-96.38"
         style="fill:#ffffff;fill-opacity:1;fill-rule:nonzero;stroke:none"
         id="path100"
         inkscape:connector-curvature="0" /><path
         d="m 1440.24,1317.04 29.293,0 0,184.191 -29.293,0 0,-184.191 z"
         style="fill:#ffffff;fill-opacity:1;fill-rule:nonzero;stroke:none"
         id="path102"
         inkscape:connector-curvature="0" /><path
         d="m 2149.19,1317.04 29.3594,0 0,184.191 -29.3594,0 0,-184.191 z"
         style="fill:#ffffff;fill-opacity:1;fill-rule:nonzero;stroke:none"
         id="path104"
         inkscape:connector-curvature="0" /><path
         d="m 543.184,1317.04 29.363,0 0,154.9 55.351,0 0,29.29 -140.109,0 0,-29.29 55.395,0 0,-154.9"
         style="fill:#ffffff;fill-opacity:1;fill-rule:nonzero;stroke:none"
         id="path106"
         inkscape:connector-curvature="0" /><path
         d="m 2271.16,1317.04 29.28,0 0,154.9 55.4,0 0,29.29 -140.11,0 0,-29.29 55.43,0 0,-154.9"
         style="fill:#ffffff;fill-opacity:1;fill-rule:nonzero;stroke:none"
         id="path108"
         inkscape:connector-curvature="0" /><path
         d="m 2818.97,1400.96 61.66,0 0,28.85 -61.66,0 0,42.53 61.66,0 0,28.89 -90.67,0 0,-181.97 29.01,0 0,81.7"
         style="fill:#ffffff;fill-opacity:1;fill-rule:nonzero;stroke:none"
         id="path110"
         inkscape:connector-curvature="0" /><path
         d="m 2625.76,1453.76 c 10.66,11.6 25.44,17.99 41.63,17.99 33.94,0 58.52,-26.85 58.52,-63.85 0,-17.8 -5.92,-34.11 -16.7,-45.79 -10.7,-11.68 -25.59,-18.07 -41.82,-18.07 -16.11,0 -30.93,6.39 -41.63,18.07 -10.78,11.72 -16.66,27.99 -16.66,45.79 0,17.87 5.88,34.18 16.66,45.86 z m 41.16,-139.2 c 26.26,0 48.84,9.84 65.23,28.38 15.13,17.17 23.48,40.18 23.48,64.96 0,25.16 -8.47,48.45 -23.8,65.54 -16.27,18.15 -38.61,27.79 -64.44,27.79 -25.09,0 -47.78,-9.92 -63.98,-27.91 -15.48,-17.21 -23.98,-40.45 -23.98,-65.42 0,-24.7 8.34,-47.79 23.56,-65.04 16.07,-18.22 38.8,-28.3 63.93,-28.3"
         style="fill:#ffffff;fill-opacity:1;fill-rule:nonzero;stroke:none"
         id="path112"
         inkscape:connector-curvature="0" /><path
         d="m 2055.8,1068.32 c 1.21,3.23 31.05,83.44 33.07,89.17 2.36,-5.66 34.55,-85.87 35.69,-89.17 -3.36,0 -65.32,0 -68.76,0 z m 50.98,175.85 -34.88,0 -120.97,-314.459 51.46,0 c 0,0 33.61,87.419 34.21,88.969 1.76,0 106.62,0 108.37,0 0.61,-1.55 36.1,-88.969 36.1,-88.969 l 51.52,0 -125.81,314.459"
         style="fill:#ffffff;fill-opacity:1;fill-rule:nonzero;stroke:none"
         id="path114"
         inkscape:connector-curvature="0" /><path
         d="m 1907.36,979.422 -122.85,0 0,262.928 -49.77,0 0,-312.639 172.62,0 0,49.711"
         style="fill:#ffffff;fill-opacity:1;fill-rule:nonzero;stroke:none"
         id="path116"
         inkscape:connector-curvature="0" /><path
         d="m 624.813,1157.49 c 2.222,-5.66 34.347,-85.87 35.628,-89.17 -3.433,0 -65.398,0 -68.699,0 1.078,3.23 30.914,83.44 33.071,89.17 z m -52.399,-138.81 c 1.754,0 106.684,0 108.301,0 0.605,-1.55 36.301,-88.969 36.301,-88.969 l 51.386,0 -125.742,314.459 -34.957,0 -120.957,-314.459 51.52,0 c 0,0 33.613,87.419 34.148,88.969"
         style="fill:#ffffff;fill-opacity:1;fill-rule:nonzero;stroke:none"
         id="path118"
         inkscape:connector-curvature="0" /><path
         d="m 1361.96,954.559 0,60.951 -2.09,-1.41 -6.53,-4.65 c -29.5,-21.411 -62.03,-33.13 -91.6,-33.13 -30.51,0 -56.64,10.371 -75.63,30.24 -18.99,19.73 -28.89,47.14 -28.89,79 0,30.84 10.37,58.86 29.36,79 18.93,20.14 44.99,31.18 73.48,31.18 30.17,0 58.19,-9.49 90.79,-30.51 l 6.33,-4.11 2.08,-1.34 -2.42,60.88 -0.81,0.34 c -38.12,17.78 -66.67,25.39 -95.5,25.39 -89.37,0 -154.3,-69.3 -154.3,-164.81 0,-35.83 13.47,-74.08 36.17,-102.369 19.66,-24.449 55.63,-53.539 115.7,-53.539 47.62,0 77.73,13.738 103.18,28.558 l 0.68,0.329"
         style="fill:#ffffff;fill-opacity:1;fill-rule:nonzero;stroke:none"
         id="path120"
         inkscape:connector-curvature="0" /><path
         d="m 1533.1,1094.24 c 1.41,1.69 122.64,148.11 122.64,148.11 l -62.7,0 c 0,0 -102.04,-123.39 -106.28,-128.58 0,6.68 0,128.58 0,128.58 l -49.77,0 0,-312.639 49.77,0 c 0,0 0,134.629 0,140.899 4.17,-4.58 130.53,-140.899 130.53,-140.899 l 68.29,0 c 0,0 -151,162.919 -152.48,164.529"
         style="fill:#ffffff;fill-opacity:1;fill-rule:nonzero;stroke:none"
         id="path122"
         inkscape:connector-curvature="0" /><path
         d="m 2742.1,979.422 c 0,0 -54.35,0 -56.78,0 0,2.476 0,210.728 0,213.288 2.43,0 54.83,0 54.83,0 33.8,0 61.42,-10.98 79.8,-31.52 16.71,-18.66 25.6,-44.65 25.6,-75.16 0,-39.6 -21.89,-106.608 -103.45,-106.608 z m 118.46,212.218 c -27.14,33.2 -66.53,50.71 -114.02,50.71 l -110.99,0 0,-312.639 111.4,0 c 43.78,0 81.76,16.699 109.71,48.219 25.26,28.63 39.8,68.02 39.8,108.1 0,39.2 -13.06,77.79 -35.9,105.61"
         style="fill:#ffffff;fill-opacity:1;fill-rule:nonzero;stroke:none"
         id="path124"
         inkscape:connector-curvature="0" /><path
         d="m 922.098,925.672 c 40.949,0 72.668,11.918 94.622,35.289 20.61,22.019 31.46,54.009 31.46,92.739 l 0,188.58 -49.778,0 0,-181.11 c 0,-31.85 -4.578,-49.9 -15.757,-62.361 -7.61,-8.348 -25.391,-22.489 -59.743,-22.489 -22.222,0 -40.136,7.739 -54.617,23.84 -11.383,12.79 -14.953,26.4 -14.953,58.46 l 0,183.66 -49.703,0.07 0,-193.16 c 0,-39.47 12.726,-71.928 36.773,-93.889 21.012,-19.063 49.973,-29.629 81.696,-29.629"
         style="fill:#ffffff;fill-opacity:1;fill-rule:nonzero;stroke:none"
         id="path126"
         inkscape:connector-curvature="0" /><path
         d="m 2506.57,1018.68 c -4.44,5.59 -176.05,223.6 -176.05,223.6 l -39.06,0.07 0,-312.639 47.35,0 c 0,0 0,215.049 0,222.119 4.44,-5.66 173.83,-222.189 173.83,-222.189 l 41.42,0 0,312.639 -47.49,0 c 0,0 0,-216.53 0,-223.6"
         style="fill:#ffffff;fill-opacity:1;fill-rule:nonzero;stroke:none"
         id="path128"
         inkscape:connector-curvature="0" /><path
         d="m 587.281,525.109 -75.773,89.02 -21.633,0 0,-127.539 24.098,0 0,90.469 76.23,-90.469 21.176,0 0,127.539 -24.098,0 0,-89.02"
         style="fill:#ffffff;fill-opacity:1;fill-rule:nonzero;stroke:none"
         id="path130"
         inkscape:connector-curvature="0" /><path
         d="m 765.02,542.102 55.324,0 0,19.257 -55.324,0 0,33.5 57.793,0 0,19.27 -82.438,0 0,-127.539 83.715,0 0,19.262 -59.07,0 0,36.25"
         style="fill:#ffffff;fill-opacity:1;fill-rule:nonzero;stroke:none"
         id="path132"
         inkscape:connector-curvature="0" /><path
         d="m 1079.79,535.16 -33.59,78.969 -20.82,0 -33.407,-78.699 -31.774,78.699 -25.472,0 52.586,-129.18 8.035,0 40.352,94.582 40.17,-94.582 8.3,0 52.5,129.18 -25.2,0 -31.68,-78.969"
         style="fill:#ffffff;fill-opacity:1;fill-rule:nonzero;stroke:none"
         id="path134"
         inkscape:connector-curvature="0" /><path
         d="m 1510.22,614.129 -112.19,0 0,-19.27 69.74,0 -74.22,-108.269 117.04,0 0,19.262 -74.68,0 74.31,108.277"
         style="fill:#ffffff;fill-opacity:1;fill-rule:nonzero;stroke:none"
         id="path136"
         inkscape:connector-curvature="0" /><path
         d="m 1654.92,542.102 55.32,0 0,19.257 -55.32,0 0,33.5 57.79,0 0,19.27 -82.44,0 0,-127.539 83.72,0 0,19.262 -59.07,0 0,36.25"
         style="fill:#ffffff;fill-opacity:1;fill-rule:nonzero;stroke:none"
         id="path138"
         inkscape:connector-curvature="0" /><path
         d="m 1870.46,536.352 19.62,50.488 21.55,-50.488 -41.17,0 z m 6.93,77.777 -52.58,-127.539 25.83,0 12.33,31.039 56.69,0 13.24,-31.039 26.02,0 -56.33,127.539 -25.2,0"
         style="fill:#ffffff;fill-opacity:1;fill-rule:nonzero;stroke:none"
         id="path140"
         inkscape:connector-curvature="0" /><path
         d="m 2099.49,614.129 -24.64,0 0,-127.539 86.55,0 0,19.262 -61.91,0 0,108.277"
         style="fill:#ffffff;fill-opacity:1;fill-rule:nonzero;stroke:none"
         id="path142"
         inkscape:connector-curvature="0" /><path
         d="m 2311.75,536.352 19.63,50.488 21.54,-50.488 -41.17,0 z m 6.93,77.777 -52.57,-127.539 25.83,0 12.33,31.039 56.68,0 13.24,-31.039 26.02,0 -56.32,127.539 -25.21,0"
         style="fill:#ffffff;fill-opacity:1;fill-rule:nonzero;stroke:none"
         id="path144"
         inkscape:connector-curvature="0" /><path
         d="m 2613.56,525.109 -75.78,89.02 -21.63,0 0,-127.539 24.1,0 0,90.469 76.23,-90.469 21.18,0 0,127.539 -24.1,0 0,-89.02"
         style="fill:#ffffff;fill-opacity:1;fill-rule:nonzero;stroke:none"
         id="path146"
         inkscape:connector-curvature="0" /><path
         d="m 2850.32,518.141 c -8.25,-8.192 -19.18,-12.289 -32.82,-12.289 l -26.21,0 0,89.007 25.39,0 c 14.05,0 25.24,-3.98 33.55,-11.949 8.3,-7.98 12.46,-18.84 12.46,-32.59 0,-13.281 -4.13,-24 -12.37,-32.179 z m 5.15,87.871 c -10.34,5.41 -22.15,8.117 -35.42,8.117 l -53.4,0 0,-127.539 51.94,0 c 13.7,0 25.84,2.648 36.43,7.941 10.59,5.301 18.76,12.77 24.52,22.418 5.75,9.641 8.62,20.711 8.62,33.18 0,12.242 -2.87,23.25 -8.58,33.051 -5.72,9.8 -13.76,17.41 -24.11,22.832"
         style="fill:#ffffff;fill-opacity:1;fill-rule:nonzero;stroke:none"
         id="path148"
         inkscape:connector-curvature="0" /><path
         d="m 488.59,664.82 2405.27,0 0,14.0313 -2405.27,0 0,-14.0313 z"
         style="fill:#ffffff;fill-opacity:1;fill-rule:nonzero;stroke:none"
         id="path150"
         inkscape:connector-curvature="0" /><path
         d="m 1206.76,2763.26 0,-490.58 c 0,-115.37 86.21,-450.9 479.9,-615.64 l 6.43,-2.69 6.42,2.69 c 393.51,164.68 479.68,500.23 479.68,615.64 l 0,490.58 -972.43,0"
         style="fill:#ffffff;fill-opacity:1;fill-rule:nonzero;stroke:none"
         id="path152"
         inkscape:connector-curvature="0" /><path
         d="m 1311.28,2438.36 -0.03,-0.02 -3.02,1.55 c -22.31,13.13 -47.85,20.06 -73.85,20.06 -2.21,0 -3.36,-0.11 -4.82,-0.26 l -1.46,-0.14 0,-186.87 c 0,-4 12.68,-404.85 464.99,-595.19 452.09,190.25 464.76,591.19 464.76,595.19 l 0,186.64 c -2.02,0.11 -4.12,0.15 -6.23,0.15 -26.04,0 -51.59,-6.95 -73.9,-20.07 -47.47,-28.01 -109.9,-28.09 -157.56,-0.11 -45.01,26.64 -103.62,26.56 -148.19,0.26 l -1.33,-0.65 c -47.32,-27.38 -109.2,-27.22 -156.39,0.53 l -0.82,0.58 c -44.45,26.02 -102.9,25.96 -147.35,-0.19 l -2.13,-1.26 -0.18,0.09 c -46.25,-26.24 -106.05,-26.34 -152.49,-0.29"
         style="fill:#231f20;fill-opacity:1;fill-rule:nonzero;stroke:none"
         id="path154"
         inkscape:connector-curvature="0" /><path
         d="m 1363.67,2675.88 c 17.07,20.07 39.3,22.17 49.52,22.65 72.13,2.25 108.75,-51.8 107.14,-95.01 -1.84,-49.3 -39.17,-60.8 -44.25,-62.2 0,0 -0.63,-10.7 7.74,-25.1 0.53,-1.04 2.15,-2.31 0.58,-5.08 -0.27,-0.61 -1.66,-3.26 -2.08,-3.76 -0.3,-0.48 -0.99,-2.02 -0.43,-3.87 0.88,-3.18 -0.32,-7.04 -2.71,-11.44 -1.81,-4 0.3,-13.99 1.31,-20.74 0.16,-1.42 -0.82,-1.47 -1.71,-0.45 -4.62,2.95 -8.12,12.16 -9.33,17.28 -8.72,-2.3 -18.84,-15.2 -22.27,-22.71 -0.29,-1.07 -2.17,-2.18 -2.48,0.19 -0.13,0.59 -1.86,15.07 12.12,25.61 -7.09,2.25 -14.47,-1.2 -19.45,-3.92 -0.37,-0.35 -2.46,-1.28 -0.89,0.99 0.31,0.5 4.37,9.7 23.1,12.35 0.24,0.65 4.17,6.81 5.8,11.58 -0.5,7.02 -4.14,15.82 -8.56,24.02 -0.69,-0.04 -14.04,-1.16 -23.45,-8.43 -0.63,-0.38 -1.8,-1.62 -1.8,-3.47 0,-1.85 0,-4.03 0,-4.03 0.13,-0.57 -0.72,-4.3 -5.52,-5.85 -0.42,-0.39 -16.25,-5.4 -23.78,-8.97 -0.39,-0.33 -7.17,-3.29 -12.15,-10.29 -1.05,-1.12 -5.03,-7.29 -10.81,-9.18 -1.39,-0.32 -4.51,-1.76 -6.71,-4 -2.24,-2.23 -4.26,-4.46 -6.16,-5.65 -1.91,-1.2 -6.16,-5.81 -9.23,-12.16 -0.5,-0.88 -1.4,-2.04 -1.46,0 -0.16,2.6 0.18,5.9 0.06,5.95 1.82,7.98 5.47,12.04 8.61,15.54 -1.23,0.36 -1.04,0.13 -2.34,0.83 -5.8,-0.7 -23.86,0.93 -34.69,-4.36 -0.82,-0.41 -1.68,-0.28 -0.82,0.87 1.99,2.73 6.05,13.23 30.45,13.78 0.29,2.32 -10.9,7.78 -16.58,7.78 -1.78,0 -0.72,0.99 0,1.27 1.28,0.58 12.02,5.21 24.75,-3.07 0.53,0.38 9.12,3.49 14.02,3.9 5.88,4.38 18.95,17.49 24.21,19.54 -0.11,0.77 -0.5,3.57 0.13,6.39 l -0.63,0.15 c -6.85,9.65 -7.87,23.9 -7.59,31.74 -13.99,1.33 -29.01,13.84 -36.99,23.99 -10.14,0.67 -30.36,9.33 -41.15,31.17 -36.86,-26.5 -60.82,-73.65 -62.17,-75.82 -0.86,-0.68 -1.34,-0.68 -1.99,-0.18 -4.06,7.32 -4.86,18.5 -3.5,21.99 7.17,19.5 24.16,46.33 42.65,70.18 -7.01,40.15 29.98,53.48 44.31,52.98 14.93,-0.32 25.32,-10 27.18,-12.98 l 0,0"
         style="fill:#231f20;fill-opacity:1;fill-rule:nonzero;stroke:none"
         id="path156"
         inkscape:connector-curvature="0" /><path
         d="m 1314.74,2639.13 c -3.3,0 -5.95,2.69 -5.95,6 0,3.32 2.65,6.01 5.95,6.01 3.31,0 6.01,-2.69 6.01,-6.01 0,-3.31 -2.7,-6 -6.01,-6 z m 121.03,30.9 c 0,0 -0.86,0 -0.1,0.67 0.83,2.1 8.29,5.33 13.16,5.66 -21.58,8.59 -35.64,-1.91 -35.26,-0.73 l -0.18,0.73 c 0,0 2.92,4.93 10.03,9.85 -20,0 -30.19,-10.67 -30.19,-10.67 l -0.05,1.47 c 0,0 1.35,4.1 7.75,10.2 -22.59,-0.69 -40.17,-29.34 -40.17,-29.34 0,0 -3.93,20.49 -23.58,20.49 -14.35,2.18 -46.52,-17.5 -34.17,-44.13 -5.71,-10.65 -24.59,-27.15 -40.69,-60.52 -0.35,-0.7 0.36,-0.46 0,-1.16 14.53,20.66 35.51,47.16 56.87,60.15 2.15,-1.66 14.46,-33.67 42.8,-35.48 3.2,-2.33 17.32,-26 42.5,-23.67 0.3,-2.65 0.27,-25.42 4.58,-32.82 l 1.08,-1.35 c -0.09,0.71 0.17,0.1 0.17,0.1 2.01,2.23 16.24,12.56 28.01,16.4 0,0 5.07,15.67 8.49,19.66 24.49,5.62 37.08,24.98 37.83,43.67 0.51,26.02 -22.8,54.18 -48.88,50.82"
         style="fill:#ffffff;fill-opacity:1;fill-rule:nonzero;stroke:none"
         id="path158"
         inkscape:connector-curvature="0" /><path
         d="m 1668.28,2675.88 c 17.04,20.07 39.32,22.17 49.51,22.65 72.13,2.25 108.79,-51.8 107.11,-95.01 -1.81,-49.3 -39.14,-60.8 -44.23,-62.2 0,0 -0.59,-10.7 7.74,-25.1 0.54,-1.04 2.16,-2.31 0.59,-5.08 -0.21,-0.61 -1.67,-3.26 -2.05,-3.76 -0.38,-0.48 -1,-2.02 -0.49,-3.87 0.92,-3.18 -0.32,-7.04 -2.65,-11.44 -1.84,-4 0.27,-13.99 1.24,-20.74 0.25,-1.42 -0.81,-1.47 -1.67,-0.45 -4.58,2.95 -8.12,12.16 -9.25,17.28 -8.82,-2.3 -18.94,-15.2 -22.35,-22.71 -0.33,-1.07 -2.17,-2.18 -2.53,0.19 -0.14,0.59 -1.85,15.07 12.19,25.61 -7.12,2.25 -14.48,-1.2 -19.49,-3.92 -0.37,-0.35 -2.47,-1.28 -0.87,0.99 0.3,0.5 4.37,9.7 23.09,12.35 0.24,0.65 4.14,6.81 5.82,11.58 -0.46,7.02 -4.14,15.82 -8.55,24.02 -0.73,-0.04 -14.04,-1.16 -23.49,-8.43 -0.59,-0.38 -1.81,-1.62 -1.81,-3.47 0,-1.85 0,-4.03 0,-4.03 0.15,-0.57 -0.66,-4.3 -5.52,-5.85 -0.44,-0.39 -16.24,-5.4 -23.72,-8.97 -0.43,-0.33 -7.22,-3.29 -12.19,-10.29 -1.04,-1.12 -5.02,-7.29 -10.78,-9.18 -1.46,-0.32 -4.5,-1.76 -6.73,-4 -2.22,-2.23 -4.28,-4.46 -6.19,-5.65 -1.85,-1.2 -6.18,-5.81 -9.22,-12.16 -0.46,-0.88 -1.38,-2.04 -1.42,0 -0.23,2.6 0.12,5.9 0.04,5.95 1.85,7.98 5.5,12.04 8.64,15.54 -1.24,0.36 -1.09,0.13 -2.38,0.83 -5.75,-0.7 -23.83,0.93 -34.71,-4.36 -0.81,-0.41 -1.61,-0.28 -0.81,0.87 2.03,2.73 6.07,13.23 30.45,13.78 0.32,2.32 -10.89,7.78 -16.56,7.78 -1.74,0 -0.75,0.99 0,1.27 1.3,0.58 12.03,5.21 24.73,-3.07 0.57,0.38 9.14,3.49 13.99,3.9 5.93,4.38 18.99,17.49 24.21,19.54 -0.04,0.77 -0.48,3.57 0.21,6.39 l -0.69,0.15 c -6.76,9.65 -7.87,23.9 -7.58,31.74 -13.99,1.33 -28.98,13.84 -36.96,23.99 -10.18,0.67 -30.35,9.33 -41.17,31.17 -36.86,-26.5 -60.86,-73.65 -62.21,-75.82 -0.8,-0.68 -1.27,-0.68 -1.96,-0.18 -3.98,7.32 -4.84,18.5 -3.51,21.99 7.15,19.5 24.19,46.33 42.67,70.18 -6.98,40.15 30,53.48 44.35,52.98 14.88,-0.32 25.31,-10 27.16,-12.98 l 0,0"
         style="fill:#231f20;fill-opacity:1;fill-rule:nonzero;stroke:none"
         id="path160"
         inkscape:connector-curvature="0" /><path
         d="m 1619.38,2639.13 c -3.35,0 -6.04,2.69 -6.04,6 0,3.32 2.69,6.01 6.04,6.01 3.29,0 5.98,-2.69 5.98,-6.01 0,-3.31 -2.69,-6 -5.98,-6 z m 120.96,30.9 c 0,0 -0.83,0 -0.11,0.67 0.85,2.1 8.38,5.33 13.2,5.66 -21.58,8.59 -35.64,-1.91 -35.26,-0.73 l -0.17,0.73 c 0,0 2.91,4.93 10,9.85 -20.03,0 -30.14,-10.67 -30.14,-10.67 l -0.12,1.47 c 0,0 1.37,4.1 7.75,10.2 -22.55,-0.69 -40.15,-29.34 -40.15,-29.34 0,0 -3.9,20.49 -23.58,20.49 -14.33,2.18 -46.48,-17.5 -34.15,-44.13 -5.73,-10.65 -24.59,-27.15 -40.64,-60.52 -0.37,-0.7 0.32,-0.46 0,-1.16 14.44,20.66 35.48,47.16 56.78,60.15 2.18,-1.66 14.52,-33.67 42.87,-35.48 3.15,-2.33 17.31,-26 42.44,-23.67 0.31,-2.65 0.29,-25.42 4.64,-32.82 l 1.07,-1.35 c -0.11,0.71 0.16,0.1 0.16,0.1 1.99,2.23 16.26,12.56 27.99,16.4 0,0 5.09,15.67 8.48,19.66 24.51,5.62 37.06,24.98 37.88,43.67 0.48,26.02 -22.86,54.18 -48.94,50.82"
         style="fill:#ffffff;fill-opacity:1;fill-rule:nonzero;stroke:none"
         id="path162"
         inkscape:connector-curvature="0" /><path
         d="m 1970.96,2675.88 c 17.15,20.07 39.39,22.17 49.51,22.65 72.23,2.25 108.81,-51.8 107.18,-95.01 -1.78,-49.3 -39.17,-60.8 -44.26,-62.2 0,0 -0.59,-10.7 7.74,-25.1 0.54,-1.04 2.22,-2.31 0.6,-5.08 -0.22,-0.61 -1.68,-3.26 -2.06,-3.76 -0.32,-0.48 -0.97,-2.02 -0.49,-3.87 0.92,-3.18 -0.27,-7.04 -2.65,-11.44 -1.78,-4 0.27,-13.99 1.25,-20.74 0.24,-1.42 -0.76,-1.47 -1.68,-0.45 -4.6,2.95 -8.12,12.16 -9.25,17.28 -8.77,-2.3 -18.94,-15.2 -22.32,-22.71 -0.35,-1.07 -2.19,-2.18 -2.49,0.19 -0.19,0.59 -1.87,15.07 12.12,25.61 -7.09,2.25 -14.48,-1.2 -19.51,-3.92 -0.32,-0.35 -2.43,-1.28 -0.86,0.99 0.35,0.5 4.38,9.7 23.16,12.35 0.21,0.65 4.13,6.81 5.73,11.58 -0.43,7.02 -4.06,15.82 -8.52,24.02 -0.68,-0.04 -14.04,-1.16 -23.46,-8.43 -0.62,-0.38 -1.84,-1.62 -1.84,-3.47 0,-1.85 0,-4.03 0,-4.03 0.17,-0.57 -0.64,-4.3 -5.46,-5.85 -0.43,-0.39 -16.26,-5.4 -23.81,-8.97 -0.38,-0.33 -7.16,-3.29 -12.12,-10.29 -1.08,-1.12 -5.08,-7.29 -10.79,-9.18 -1.46,-0.32 -4.52,-1.76 -6.74,-4 -2.21,-2.23 -4.27,-4.46 -6.16,-5.65 -1.92,-1.2 -6.17,-5.81 -9.26,-12.16 -0.48,-0.88 -1.35,-2.04 -1.4,0 -0.22,2.6 0.11,5.9 0.05,5.95 1.79,7.98 5.41,12.04 8.6,15.54 -1.24,0.36 -1.05,0.13 -2.35,0.83 -5.76,-0.7 -23.86,0.93 -34.71,-4.36 -0.81,-0.41 -1.62,-0.28 -0.81,0.87 2.03,2.73 6.06,13.23 30.46,13.78 0.35,2.32 -10.93,7.78 -16.61,7.78 -1.73,0 -0.68,0.99 0,1.27 1.3,0.58 12.07,5.21 24.73,-3.07 0.59,0.38 9.17,3.49 14.04,3.9 5.87,4.38 18.96,17.49 24.21,19.54 -0.06,0.77 -0.46,3.57 0.19,6.39 l -0.65,0.15 c -6.82,9.65 -7.87,23.9 -7.6,31.74 -14.02,1.33 -29,13.84 -36.96,23.99 -10.2,0.67 -30.35,9.33 -41.23,31.17 -36.79,-26.5 -60.81,-73.65 -62.11,-75.82 -0.86,-0.68 -1.38,-0.68 -2.05,-0.18 -3.98,7.32 -4.82,18.5 -3.49,21.99 7.16,19.5 24.15,46.33 42.68,70.18 -7,40.15 29.98,53.48 44.34,52.98 14.88,-0.32 25.33,-10 27.11,-12.98 l 0,0"
         style="fill:#231f20;fill-opacity:1;fill-rule:nonzero;stroke:none"
         id="path164"
         inkscape:connector-curvature="0" /><path
         d="m 1922.08,2639.13 c -3.3,0 -5.98,2.69 -5.98,6 0,3.32 2.68,6.01 5.98,6.01 3.32,0 6,-2.69 6,-6.01 0,-3.31 -2.68,-6 -6,-6 z m 121.01,30.9 c 0,0 -0.87,0 -0.11,0.67 0.81,2.1 8.36,5.33 13.2,5.66 -21.59,8.59 -35.71,-1.91 -35.28,-0.73 l -0.16,0.73 c 0,0 2.92,4.93 10.01,9.85 -20.02,0 -30.16,-10.67 -30.16,-10.67 l -0.06,1.47 c 0,0 1.27,4.1 7.71,10.2 -22.59,-0.69 -40.15,-29.34 -40.15,-29.34 0,0 -3.94,20.49 -23.61,20.49 -14.37,2.18 -46.48,-17.5 -34.12,-44.13 -5.73,-10.65 -24.61,-27.15 -40.68,-60.52 -0.33,-0.7 0.32,-0.46 0,-1.16 14.52,20.66 35.49,47.16 56.84,60.15 2.13,-1.66 14.47,-33.67 42.79,-35.48 3.17,-2.33 17.37,-26 42.53,-23.67 0.3,-2.65 0.24,-25.42 4.62,-32.82 l 1.03,-1.35 c -0.08,0.71 0.17,0.1 0.17,0.1 2,2.23 16.25,12.56 28.02,16.4 0,0 5.04,15.67 8.47,19.66 24.48,5.62 37.09,24.98 37.85,43.67 0.48,26.02 -22.83,54.18 -48.91,50.82"
         style="fill:#ffffff;fill-opacity:1;fill-rule:nonzero;stroke:none"
         id="path166"
         inkscape:connector-curvature="0" /><path
         d="m 1731.15,1973.42 -6.96,-4.68 7.42,-3.91 c 4.75,-2.51 7.71,-7.5 7.71,-13.01 0,-8.09 -6.59,-14.68 -14.69,-14.68 l -63.32,0 c -8.09,0 -14.68,6.59 -14.68,14.68 0,5.5 2.97,10.48 7.73,13.01 l 7.37,3.92 -6.92,4.67 c -15.29,10.29 -32.53,15.44 -49.86,15.44 -17.31,0 -34.71,-5.14 -50.31,-15.42 -17.14,-11.33 -32.77,-15.34 -59.71,-15.34 -34.13,0 -61.64,10.05 -86.6,31.63 l -1.41,1.22 -15.85,0 -1.5,-1.79 c -2.23,-2.64 -5.58,-4.17 -9.18,-4.17 -6.43,0 -11.66,4.84 -11.66,10.79 0,5.94 5.23,10.77 11.66,10.77 3.61,0 6.97,-1.55 9.2,-4.26 l 1.5,-1.83 18.98,0 0,23.11 -18.94,0 -1.51,-1.79 c -2.23,-2.65 -5.58,-4.18 -9.18,-4.18 -6.42,0 -11.65,4.84 -11.65,10.79 0,5.95 5.23,10.79 11.65,10.79 3.64,0 7.01,-1.56 9.23,-4.26 l 1.51,-1.82 18.89,0 0,23.1 -18.87,0 -1.51,-1.8 c -2.21,-2.65 -5.56,-4.18 -9.19,-4.18 -6.41,0 -11.63,4.84 -11.63,10.78 0,5.95 5.22,10.79 11.63,10.79 3.66,0 6.94,-1.52 9.24,-4.29 l 1.5,-1.81 18.83,0 0,23.1 -18.77,0 -1.5,-1.77 c -2.26,-2.66 -5.61,-4.2 -9.19,-4.2 -6.43,0 -11.66,4.84 -11.66,10.8 0,5.94 5.23,10.78 11.66,10.78 3.61,0 6.97,-1.56 9.2,-4.27 l 1.5,-1.83 18.76,0 0,23.11 -18.73,0 -1.51,-1.8 c -2.22,-2.66 -5.56,-4.18 -9.17,-4.18 -6.43,0 -11.65,4.85 -11.65,10.8 0,5.94 5.22,10.77 11.65,10.77 3.61,0 6.99,-1.55 9.26,-4.27 l 1.5,-1.79 18.65,0 0,23.09 -18.62,0 -1.5,-1.79 c -2.23,-2.66 -5.59,-4.18 -9.23,-4.18 -6.41,0 -11.63,4.84 -11.63,10.78 0,5.95 5.22,10.79 11.63,10.79 3.64,0 7.02,-1.56 9.25,-4.27 l 1.5,-1.83 18.6,0 0,23.09 -18.61,0 -1.5,-1.77 c -2.25,-2.66 -5.61,-4.18 -9.24,-4.18 -6.41,0 -11.63,4.83 -11.63,10.78 0,5.94 5.22,10.78 11.63,10.78 3.66,0 7.03,-1.55 9.26,-4.25 l 1.48,-1.8 14.77,-0.12 15.82,7.96 0,-209.2 2.34,-4.24 c 43.41,-27.32 87.03,-30.08 126.15,-7.95 41.23,23.32 99.15,24.46 133.24,-25.13 l -16.16,0 c -2.76,0 -5.01,-2.25 -5.01,-5.01 0,-2.77 2.25,-5.01 5.01,-5.01 l 50.87,0 c 2.76,0 5.01,2.24 5.01,5.01 0,2.76 -2.25,5.01 -5.01,5.01 l -16.26,0 c 34.64,50.4 92.73,45.59 133.42,25.02 36.02,-18.21 78.23,-15.57 125.49,7.81 l 2.79,4.49 -0.01,209.2 15.84,-7.96 14.73,0.12 1.48,1.78 c 2.27,2.71 5.65,4.27 9.3,4.27 6.41,0 11.62,-4.84 11.62,-10.78 0,-5.95 -5.21,-10.78 -11.62,-10.78 -3.62,0 -7,1.53 -9.28,4.2 l -1.5,1.75 -18.58,0 0,-23.09 18.57,0 1.5,1.81 c 2.27,2.73 5.65,4.29 9.29,4.29 6.41,0 11.62,-4.84 11.62,-10.79 0,-5.94 -5.21,-10.78 -11.62,-10.78 -3.63,0 -7,1.53 -9.27,4.2 l -1.5,1.77 -18.59,0 0,-23.09 18.7,0 1.5,1.82 c 2.21,2.7 5.56,4.24 9.19,4.24 6.42,0 11.64,-4.83 11.64,-10.77 0,-5.95 -5.22,-10.8 -11.64,-10.8 -3.55,0 -6.98,1.56 -9.15,4.18 l -1.5,1.8 -18.74,0 0,-23.11 18.75,0 1.5,1.82 c 2.24,2.72 5.62,4.28 9.25,4.28 6.41,0 11.62,-4.84 11.62,-10.78 0,-5.96 -5.21,-10.8 -11.62,-10.8 -3.62,0 -6.99,1.53 -9.23,4.19 l -1.51,1.78 -18.76,0 0,-23.1 18.79,0 1.51,1.81 c 2.25,2.73 5.63,4.29 9.25,4.29 6.4,0 11.6,-4.84 11.6,-10.79 0,-5.94 -5.2,-10.78 -11.6,-10.78 -3.63,0 -6.99,1.53 -9.21,4.19 l -1.51,1.79 -18.83,0 0,-23.1 18.91,0 1.5,1.82 c 2.27,2.74 5.55,4.26 9.21,4.26 6.41,0 11.64,-4.84 11.64,-10.79 0,-5.95 -5.23,-10.79 -11.64,-10.79 -3.6,0 -6.95,1.53 -9.19,4.19 l -1.5,1.78 -18.93,0 0,-23.11 18.96,0 1.5,1.82 c 2.24,2.72 5.59,4.27 9.19,4.27 6.43,0 11.65,-4.83 11.65,-10.77 0,-5.95 -5.22,-10.79 -11.65,-10.79 -3.55,0 -6.91,1.55 -9.23,4.23 l -1.5,1.73 -15.77,0 -1.41,-1.22 c -24.97,-21.58 -52.5,-31.63 -86.61,-31.63 -26.93,0 -42.56,4.01 -59.74,15.34 -31.15,20.55 -69.52,20.55 -100.15,-0.02"
         style="fill:#ffffff;fill-opacity:1;fill-rule:nonzero;stroke:none"
         id="path168"
         inkscape:connector-curvature="0" /><path
         d="m 1445.34,2002.04 c 32.21,-17.08 58.65,-21.68 106.11,2.96 52.07,27.05 105.71,9.33 136.54,-20.54 l 0,-15.73 c -37.96,49.17 -98.73,47.3 -142.39,22.62 -35.01,-19.8 -74.2,-17.61 -113.53,6.26 l 0,211.46 10.6,5.33 0,-210.95 2.67,-1.41"
         style="fill:#ffffff;fill-opacity:1;fill-rule:nonzero;stroke:none"
         id="path170"
         inkscape:connector-curvature="0" /><path
         d="m 1452.7,2009.51 0,209.93 1.31,0.67 c 36.2,-8.37 63.52,-5.64 100.14,9.86 44.3,18.73 89.31,12.76 133.84,-17.75 l 0,-214.3 c -21.52,17.93 -50.99,30.47 -83.03,30.47 -18.85,0 -38.6,-4.34 -58.13,-14.49 -42.46,-22.04 -65.53,-19.05 -94.13,-4.39"
         style="fill:#ffffff;fill-opacity:1;fill-rule:nonzero;stroke:none"
         id="path172"
         inkscape:connector-curvature="0" /><path
         d="m 1834.54,2005 c 47.45,-24.62 73.89,-20.03 106.09,-2.96 l 2.66,1.41 0,210.95 10.6,-5.33 0.01,-211.12 c -43.13,-20.66 -81.38,-22.84 -113.72,-6.49 -42.9,21.69 -103.67,27.12 -142.17,-22.72 l 0,15.72 c 30.8,29.9 84.44,47.62 136.53,20.54"
         style="fill:#ffffff;fill-opacity:1;fill-rule:nonzero;stroke:none"
         id="path174"
         inkscape:connector-curvature="0" /><path
         d="m 1698.01,1997.94 0,214.28 c 44.5,30.51 89.5,36.49 133.83,17.75 36.59,-15.5 63.91,-18.22 100.11,-9.86 l 1.31,-0.67 0,-209.93 c -28.59,-14.65 -51.66,-17.65 -94.1,4.39 -52.82,27.42 -107.01,12.51 -141.15,-15.96"
         style="fill:#ffffff;fill-opacity:1;fill-rule:nonzero;stroke:none"
         id="path176"
         inkscape:connector-curvature="0" /><path
         d="m 1935.49,2257.92 -56.68,42.81 -56.69,-42.81 21.72,68.37 -59.71,43.03 72.73,0 21.95,68.78 21.94,-68.78 72.76,0 -59.71,-43.04 21.69,-68.36"
         style="fill:#ffffff;fill-opacity:1;fill-rule:nonzero;stroke:none"
         id="path178"
         inkscape:connector-curvature="0" /><path
         d="m 1563.58,2257.32 -56.7,42.85 -56.7,-42.86 21.73,68.39 -59.72,43.07 72.76,0 21.93,68.78 21.92,-68.78 72.78,0 -59.72,-43.07 21.72,-68.38"
         style="fill:#ffffff;fill-opacity:1;fill-rule:nonzero;stroke:none"
         id="path180"
         inkscape:connector-curvature="0" /><path
         d="m 1636.25,1720.69 21.73,68.37 -59.74,43.06 72.78,0 21.92,68.76 21.92,-68.76 72.77,0 -59.73,-43.06 21.72,-68.37 -56.68,42.82 -56.69,-42.82"
         style="fill:#ffffff;fill-opacity:1;fill-rule:nonzero;stroke:none"
         id="path182"
         inkscape:connector-curvature="0" /></g></g></svg>