<?xml version="1.0" encoding="UTF-8" standalone="no"?>
<!-- Generator: Adobe Illustrator 18.1.0, SVG Export Plug-In . SVG Version: 6.00 Build 0)  -->

<svg
   xmlns:dc="http://purl.org/dc/elements/1.1/"
   xmlns:cc="http://creativecommons.org/ns#"
   xmlns:rdf="http://www.w3.org/1999/02/22-rdf-syntax-ns#"
   xmlns:svg="http://www.w3.org/2000/svg"
   xmlns="http://www.w3.org/2000/svg"
   xmlns:sodipodi="http://sodipodi.sourceforge.net/DTD/sodipodi-0.dtd"
   xmlns:inkscape="http://www.inkscape.org/namespaces/inkscape"
   version="1.1"
   id="Layer_1"
   x="0px"
   y="0px"
   viewBox="0 0 520.7941 172.04802"
   enable-background="new 0 0 200 50"
   xml:space="preserve"
   inkscape:version="0.91 r13725"
   sodipodi:docname="UOA_H_Black.svg"
   width="520.79407"
   height="172.04802"><metadata
     id="metadata3738"><rdf:RDF><cc:Work
         rdf:about=""><dc:format>image/svg+xml</dc:format><dc:type
           rdf:resource="http://purl.org/dc/dcmitype/StillImage" /><dc:title></dc:title></cc:Work></rdf:RDF></metadata><defs
     id="defs3736" /><sodipodi:namedview
     pagecolor="#ffffff"
     bordercolor="#666666"
     borderopacity="1"
     objecttolerance="10"
     gridtolerance="10"
     guidetolerance="10"
     inkscape:pageopacity="0"
     inkscape:pageshadow="2"
     inkscape:window-width="1931"
     inkscape:window-height="1210"
     id="namedview3734"
     showgrid="false"
     inkscape:zoom="2.0596708"
     inkscape:cx="263.44862"
     inkscape:cy="150.2552"
     inkscape:window-x="2042"
     inkscape:window-y="64"
     inkscape:window-maximized="0"
     inkscape:current-layer="Layer_1"
     fit-margin-top="0"
     fit-margin-left="0"
     fit-margin-right="0"
     fit-margin-bottom="0" /><polygon
     points="246.5,142 237.4,151.1 67.3,151.1 67.3,101 76.4,91.9 246.5,91.9 "
     id="polygon3558"
     style="fill:#3a3a3a"
     transform="matrix(2.9062169,0,0,2.9062169,-195.5884,-267.08134)" /><g
     id="g3560"
     transform="matrix(2.9062169,0,0,2.9062169,-195.5884,-267.08134)"><polygon
       points="133.7,127.4 133.7,126.9 130.6,126.9 130.6,127.4 131.9,127.4 131.9,131 132.4,131 132.4,127.4 "
       id="polygon3562"
       style="fill:#ffffff" /><path
       d="m 134.6,128.2 c -0.7,0 -1.2,0.6 -1.2,1.4 0,0.7 0.4,1.5 1.2,1.5 0.4,0 0.7,-0.1 1,-0.3 l 0,-0.5 c -0.3,0.2 -0.6,0.3 -0.9,0.3 -0.5,0 -0.7,-0.3 -0.8,-0.8 l 1.7,0 c 0.1,-1.1 -0.3,-1.6 -1,-1.6 z m -0.6,1.2 c 0.1,-0.4 0.3,-0.7 0.7,-0.7 0.3,0 0.6,0.3 0.6,0.7 l -1.3,0 z"
       id="path3564"
       inkscape:connector-curvature="0"
       style="fill:#ffffff" /><polygon
       points="141.4,131 143,126.9 142.4,126.9 141.4,129.7 140.4,126.9 139.9,126.9 138.8,129.7 137.8,126.9 137.3,126.9 138.8,131 138.9,131 140.1,127.6 141.3,131 "
       id="polygon3566"
       style="fill:#ffffff" /><path
       d="m 145.6,131 0,-1.7 c 0,-0.7 -0.4,-1.1 -0.8,-1.1 -0.3,0 -0.6,0.1 -0.7,0.4 l 0,0 0,-1.8 -0.5,0 0,4.1 0.5,0 0,-1.9 c 0.2,-0.3 0.4,-0.4 0.6,-0.4 0.3,0 0.5,0.3 0.5,0.7 l 0,1.7 0.4,0 0,0 z"
       id="path3568"
       inkscape:connector-curvature="0"
       style="fill:#ffffff" /><path
       d="m 147.2,129.5 c -0.4,0.1 -0.8,0.3 -0.8,0.9 0,0.3 0.2,0.7 0.6,0.7 0.2,0 0.4,-0.1 0.7,-0.3 0,0.2 0.1,0.3 0.4,0.3 0.1,0 0.3,0 0.5,-0.2 l 0,-0.3 c -0.1,0.1 -0.2,0.1 -0.3,0.1 -0.1,0 -0.1,0 -0.1,-0.1 l 0,-1.4 c 0,-0.6 -0.4,-0.9 -0.9,-0.9 -0.3,0 -0.6,0.1 -0.8,0.4 l 0,0.6 c 0.2,-0.3 0.5,-0.4 0.8,-0.4 0.3,0 0.4,0.1 0.4,0.5 l 0,0.1 -0.5,0 z m 0.5,0.9 c -0.1,0.1 -0.3,0.2 -0.4,0.2 -0.2,0 -0.3,-0.1 -0.3,-0.4 0,-0.3 0.4,-0.5 0.8,-0.6 l -0.1,0.8 0,0 z"
       id="path3570"
       inkscape:connector-curvature="0"
       style="fill:#ffffff" /><path
       d="m 149.3,128.3 0,2.7 0.5,0 0,-1.4 c 0,-0.5 0.3,-0.8 0.6,-0.8 0.1,0 0.3,0.1 0.4,0.3 l 0.3,-0.4 c -0.2,-0.2 -0.4,-0.3 -0.6,-0.3 -0.2,0 -0.4,0.2 -0.7,0.7 l 0,0 0,-0.6 -0.5,-0.2 0,0 z"
       id="path3572"
       inkscape:connector-curvature="0"
       style="fill:#ffffff" /><path
       d="m 152.6,128.2 c -0.7,0 -1.2,0.6 -1.2,1.4 0,0.7 0.4,1.5 1.2,1.5 0.4,0 0.7,-0.1 1,-0.3 l 0,-0.5 c -0.3,0.2 -0.6,0.3 -0.9,0.3 -0.5,0 -0.7,-0.3 -0.8,-0.8 l 1.7,0 c 0,-1.1 -0.4,-1.6 -1,-1.6 z m -0.7,1.2 c 0.1,-0.4 0.3,-0.7 0.7,-0.7 0.3,0 0.6,0.3 0.6,0.7 l -1.3,0 z"
       id="path3574"
       inkscape:connector-curvature="0"
       style="fill:#ffffff" /><polygon
       points="159.4,131 160.9,126.9 160.4,126.9 159.4,129.7 158.3,126.9 157.8,126.9 156.8,129.7 155.8,126.9 155.2,126.9 156.7,131 156.8,131 158.1,127.6 159.3,131 "
       id="polygon3576"
       style="fill:#ffffff" /><path
       d="m 161.8,129.5 c -0.4,0.1 -0.8,0.3 -0.8,0.9 0,0.3 0.2,0.7 0.6,0.7 0.2,0 0.4,-0.1 0.7,-0.3 0,0.2 0.1,0.3 0.4,0.3 0.1,0 0.3,0 0.5,-0.2 l 0,-0.3 c -0.1,0.1 -0.2,0.1 -0.3,0.1 -0.1,0 -0.1,0 -0.1,-0.1 l 0,-1.4 c 0,-0.6 -0.4,-0.9 -0.9,-0.9 -0.4,0 -0.6,0.1 -0.8,0.4 l 0,0.6 c 0.2,-0.3 0.5,-0.4 0.8,-0.4 0.3,0 0.4,0.1 0.4,0.5 l 0,0.1 -0.5,0 z m 0.5,0.9 c -0.1,0.1 -0.3,0.2 -0.4,0.2 -0.2,0 -0.3,-0.1 -0.3,-0.4 0,-0.3 0.4,-0.5 0.8,-0.6 l -0.1,0.8 0,0 z"
       id="path3578"
       inkscape:connector-curvature="0"
       style="fill:#ffffff" /><path
       d="m 165.9,131 0,-1.7 c 0,-0.7 -0.4,-1.1 -0.8,-1.1 -0.3,0 -0.6,0.1 -0.7,0.4 l 0,0 0,-0.4 -0.5,0 0,2.7 0.5,0 0,-1.9 c 0.2,-0.3 0.4,-0.4 0.6,-0.4 0.3,0 0.5,0.3 0.5,0.7 l 0,1.7 0.4,0 0,0 z"
       id="path3580"
       inkscape:connector-curvature="0"
       style="fill:#ffffff" /><path
       d="m 167.5,129.5 c -0.4,0.1 -0.8,0.3 -0.8,0.9 0,0.3 0.2,0.7 0.6,0.7 0.2,0 0.4,-0.1 0.7,-0.3 0,0.2 0.1,0.3 0.4,0.3 0.1,0 0.3,0 0.5,-0.2 l 0,-0.3 c -0.1,0.1 -0.2,0.1 -0.3,0.1 -0.1,0 -0.1,0 -0.1,-0.1 l 0,-1.4 c 0,-0.6 -0.4,-0.9 -0.9,-0.9 -0.4,0 -0.6,0.1 -0.8,0.4 l 0,0.6 c 0.2,-0.3 0.5,-0.4 0.8,-0.4 0.3,0 0.4,0.1 0.4,0.5 l 0,0.1 -0.5,0 z m 0.4,0.9 c -0.1,0.1 -0.3,0.2 -0.4,0.2 -0.2,0 -0.3,-0.1 -0.3,-0.4 0,-0.3 0.4,-0.5 0.8,-0.6 l -0.1,0.8 0,0 z"
       id="path3582"
       inkscape:connector-curvature="0"
       style="fill:#ffffff" /><path
       d="m 171.5,131 0,-1.7 c 0,-0.7 -0.4,-1.1 -0.8,-1.1 -0.3,0 -0.6,0.1 -0.7,0.4 l 0,0 0,-0.4 -0.5,0 0,2.7 0.5,0 0,-1.9 c 0.2,-0.3 0.4,-0.4 0.6,-0.4 0.3,0 0.5,0.3 0.5,0.7 l 0,1.7 0.4,0 0,0 z"
       id="path3584"
       inkscape:connector-curvature="0"
       style="fill:#ffffff" /><path
       d="m 174.4,128.3 -1,0 c -0.7,0 -1.1,0.4 -1.1,0.9 0,0.2 0,0.4 0.1,0.5 0.1,0.1 0.2,0.3 0.4,0.3 l 0,0 c -0.2,0.1 -0.4,0.2 -0.4,0.4 0,0.1 0.1,0.2 0.3,0.3 -0.4,0.1 -0.6,0.3 -0.6,0.7 0,0.5 0.5,0.8 1.1,0.8 0.7,0 1.2,-0.3 1.2,-0.9 0,-0.3 -0.2,-0.6 -0.7,-0.7 -0.5,-0.1 -0.7,-0.2 -0.7,-0.3 0,-0.3 0.7,-0.1 1,-0.5 0.1,-0.1 0.2,-0.4 0.2,-0.6 0,-0.2 -0.1,-0.4 -0.3,-0.6 l 0.5,0 0,-0.3 0,0 z m -1.3,2.8 c 0.3,0 0.8,0.1 0.8,0.4 0,0.3 -0.3,0.4 -0.7,0.4 -0.4,0 -0.7,-0.1 -0.7,-0.4 0.1,-0.2 0.3,-0.4 0.6,-0.4 z m 0.2,-1.4 c -0.3,0 -0.5,-0.2 -0.5,-0.5 0,-0.3 0.2,-0.5 0.5,-0.5 0.3,0 0.5,0.2 0.5,0.5 -0.1,0.3 -0.3,0.5 -0.5,0.5 z"
       id="path3586"
       inkscape:connector-curvature="0"
       style="fill:#ffffff" /><path
       d="m 175.7,129.5 c -0.4,0.1 -0.8,0.3 -0.8,0.9 0,0.3 0.2,0.7 0.6,0.7 0.2,0 0.4,-0.1 0.7,-0.3 0,0.2 0.1,0.3 0.4,0.3 0.1,0 0.3,0 0.5,-0.2 l 0,-0.3 c -0.1,0.1 -0.2,0.1 -0.3,0.1 -0.1,0 -0.1,0 -0.1,-0.1 l 0,-1.4 c 0,-0.6 -0.4,-0.9 -0.9,-0.9 -0.3,0 -0.6,0.1 -0.8,0.4 l 0,0.6 c 0.2,-0.3 0.5,-0.4 0.8,-0.4 0.3,0 0.4,0.1 0.4,0.5 l 0,0.1 -0.5,0 z m 0.5,0.9 c -0.1,0.1 -0.3,0.2 -0.4,0.2 -0.2,0 -0.3,-0.1 -0.3,-0.4 0,-0.3 0.4,-0.5 0.8,-0.6 l -0.1,0.8 0,0 z"
       id="path3588"
       inkscape:connector-curvature="0"
       style="fill:#ffffff" /><path
       d="m 180.7,131.1 c 0.8,0 1.3,-0.6 1.3,-1.5 0,-0.8 -0.6,-1.4 -1.3,-1.4 -0.7,0 -1.3,0.6 -1.3,1.4 0,0.8 0.5,1.5 1.3,1.5 z m -0.1,-2.4 c 0.5,0 0.8,0.4 0.8,0.9 0,0.6 -0.3,0.9 -0.8,0.9 -0.5,0 -0.8,-0.4 -0.8,-1 0,-0.4 0.4,-0.8 0.8,-0.8 z"
       id="path3590"
       inkscape:connector-curvature="0"
       style="fill:#ffffff" /><polygon
       points="186.8,126.9 183.7,126.9 183.7,127.4 185,127.4 185,131 185.5,131 185.5,127.4 186.8,127.4 "
       id="polygon3592"
       style="fill:#ffffff" /><path
       d="m 187.5,129.5 c -0.4,0.1 -0.8,0.3 -0.8,0.9 0,0.3 0.2,0.7 0.6,0.7 0.2,0 0.4,-0.1 0.7,-0.3 0,0.2 0.1,0.3 0.4,0.3 0.1,0 0.3,0 0.5,-0.2 l 0,-0.3 c -0.1,0.1 -0.2,0.1 -0.3,0.1 -0.1,0 -0.1,0 -0.1,-0.1 l 0,-1.4 c 0,-0.6 -0.4,-0.9 -0.9,-0.9 -0.4,0 -0.6,0.1 -0.8,0.4 l 0,0.6 c 0.2,-0.3 0.5,-0.4 0.8,-0.4 0.3,0 0.4,0.1 0.4,0.5 l 0,0.1 -0.5,0 z m 0.4,0.9 c -0.1,0.1 -0.3,0.2 -0.4,0.2 -0.2,0 -0.3,-0.1 -0.3,-0.4 0,-0.3 0.4,-0.5 0.8,-0.6 l -0.1,0.8 0,0 z"
       id="path3594"
       inkscape:connector-curvature="0"
       style="fill:#ffffff" /><path
       d="m 193.2,131 0,-1.7 c 0,-0.6 -0.3,-1.1 -0.8,-1.1 -0.3,0 -0.6,0.2 -0.8,0.5 -0.1,-0.3 -0.4,-0.5 -0.7,-0.5 -0.2,0 -0.4,0.1 -0.7,0.4 l 0,-0.4 -0.5,0 0,2.7 0.5,0 0,-2 c 0.2,-0.3 0.4,-0.3 0.6,-0.3 0.2,0 0.4,0.2 0.4,0.6 l 0,1.7 0.5,0 0,-2 c 0.2,-0.2 0.4,-0.3 0.6,-0.3 0.3,0 0.5,0.2 0.5,0.6 l 0,1.7 0.4,0.1 0,0 z"
       id="path3596"
       inkscape:connector-curvature="0"
       style="fill:#ffffff" /><path
       d="m 194.9,129.5 c -0.4,0.1 -0.8,0.3 -0.8,0.9 0,0.3 0.2,0.7 0.6,0.7 0.2,0 0.4,-0.1 0.7,-0.3 0,0.2 0.1,0.3 0.4,0.3 0.1,0 0.3,0 0.5,-0.2 l 0,-0.3 c -0.1,0.1 -0.2,0.1 -0.3,0.1 -0.1,0 -0.1,0 -0.1,-0.1 l 0,-1.4 c 0,-0.6 -0.4,-0.9 -0.9,-0.9 -0.3,0 -0.6,0.1 -0.8,0.4 l 0,0.6 c 0.2,-0.3 0.5,-0.4 0.8,-0.4 0.3,0 0.4,0.1 0.4,0.5 l 0,0.1 -0.5,0 z m 0.5,0.9 c -0.1,0.1 -0.3,0.2 -0.4,0.2 -0.2,0 -0.3,-0.1 -0.3,-0.4 0,-0.3 0.4,-0.5 0.8,-0.6 l -0.1,0.8 0,0 z"
       id="path3598"
       inkscape:connector-curvature="0"
       style="fill:#ffffff" /><polygon
       points="199.2,128.3 198.7,128.3 197.6,129.6 198.8,131 199.5,131 198.2,129.6 "
       id="polygon3600"
       style="fill:#ffffff" /><rect
       x="197.10001"
       y="126.9"
       width="0.5"
       height="4.0999999"
       id="rect3602"
       style="fill:#ffffff" /><path
       d="m 200.4,127.2 c -0.1,0 -0.3,0.1 -0.3,0.3 0,0.2 0.1,0.3 0.3,0.3 0.1,0 0.3,-0.1 0.3,-0.3 0,-0.2 -0.1,-0.3 -0.3,-0.3 z"
       id="path3604"
       inkscape:connector-curvature="0"
       style="fill:#ffffff" /><rect
       x="200.2"
       y="128.3"
       width="0.5"
       height="2.7"
       id="rect3606"
       style="fill:#ffffff" /><polygon
       points="203.9,126.9 203.9,131 204.4,131 204.4,127.8 204.4,127.8 205.6,129.4 205.7,129.4 206.8,127.8 206.8,127.8 206.8,131 207.4,131 207.4,126.9 206.8,126.9 205.6,128.6 204.4,126.9 "
       id="polygon3608"
       style="fill:#ffffff" /><path
       d="m 209.2,129.5 c -0.4,0.1 -0.8,0.3 -0.8,0.9 0,0.3 0.2,0.7 0.6,0.7 0.2,0 0.4,-0.1 0.7,-0.3 0,0.2 0.1,0.3 0.4,0.3 0.1,0 0.3,0 0.5,-0.2 l 0,-0.3 c -0.1,0.1 -0.2,0.1 -0.3,0.1 -0.1,0 -0.1,0 -0.1,-0.1 l 0,-1.4 c 0,-0.6 -0.4,-0.9 -0.9,-0.9 -0.4,0 -0.6,0.1 -0.8,0.4 l 0,0.6 c 0.2,-0.3 0.5,-0.4 0.8,-0.4 0.3,0 0.4,0.1 0.4,0.5 l 0,0.1 -0.5,0 z m 0.4,0.9 c -0.1,0.1 -0.3,0.2 -0.4,0.2 -0.2,0 -0.3,-0.1 -0.3,-0.4 0,-0.3 0.4,-0.5 0.8,-0.6 l -0.1,0.8 0,0 z"
       id="path3610"
       inkscape:connector-curvature="0"
       style="fill:#ffffff" /><polygon
       points="213.5,128.3 213,128.3 211.8,129.6 213.1,131 213.7,131 212.5,129.6 "
       id="polygon3612"
       style="fill:#ffffff" /><rect
       x="211.39999"
       y="126.9"
       width="0.5"
       height="4.0999999"
       id="rect3614"
       style="fill:#ffffff" /><path
       d="m 214.3,128.6 0,0.6 c 0.2,-0.3 0.5,-0.4 0.8,-0.4 0.3,0 0.4,0.1 0.4,0.5 l 0,0.1 -0.4,0.2 c -0.4,0.1 -0.8,0.3 -0.8,0.9 0,0.3 0.2,0.7 0.6,0.7 0.2,0 0.4,-0.1 0.7,-0.3 0,0.2 0.1,0.3 0.4,0.3 0.1,0 0.3,0 0.5,-0.2 l 0,-0.3 c -0.1,0.1 -0.2,0.1 -0.3,0.1 -0.1,0 -0.1,0 -0.1,-0.1 l 0,-1.4 c 0,-0.6 -0.4,-0.9 -0.9,-0.9 -0.4,-0.2 -0.7,-0.1 -0.9,0.2 z m 1.2,1.8 c -0.1,0.1 -0.3,0.2 -0.4,0.2 -0.2,0 -0.3,-0.1 -0.3,-0.4 0,-0.3 0.4,-0.5 0.8,-0.6 l -0.1,0.8 0,0 z"
       id="path3616"
       inkscape:connector-curvature="0"
       style="fill:#ffffff" /><path
       d="m 219.3,131 0,-2.7 -0.5,0 0,1.9 c -0.1,0.3 -0.4,0.4 -0.6,0.4 -0.3,0 -0.5,-0.2 -0.5,-0.6 l 0,-1.7 -0.5,0 0,1.7 c 0,0.7 0.3,1.1 0.9,1.1 0.2,0 0.5,-0.1 0.7,-0.4 l 0,0.3 0.5,0 0,0 z"
       id="path3618"
       inkscape:connector-curvature="0"
       style="fill:#ffffff" /><path
       d="m 220.5,128.3 0,2.7 0.5,0 0,-1.4 c 0,-0.5 0.3,-0.8 0.6,-0.8 0.1,0 0.3,0.1 0.4,0.3 l 0.3,-0.4 c -0.2,-0.2 -0.4,-0.3 -0.6,-0.3 -0.2,0 -0.4,0.2 -0.7,0.7 l 0,0 0,-0.6 -0.5,-0.2 0,0 z"
       id="path3620"
       inkscape:connector-curvature="0"
       style="fill:#ffffff" /><path
       d="m 223.7,129.5 c -0.4,0.1 -0.8,0.3 -0.8,0.9 0,0.3 0.2,0.7 0.6,0.7 0.2,0 0.4,-0.1 0.7,-0.3 0,0.2 0.1,0.3 0.4,0.3 0.1,0 0.3,0 0.4,-0.2 l 0,-0.3 c -0.1,0.1 -0.2,0.1 -0.3,0.1 -0.1,0 -0.1,0 -0.1,-0.1 l 0,-1.4 c 0,-0.6 -0.4,-0.9 -0.9,-0.9 -0.3,0 -0.6,0.1 -0.8,0.4 l 0,0.6 c 0.2,-0.3 0.5,-0.4 0.8,-0.4 0.3,0 0.4,0.1 0.4,0.5 l 0,0.1 -0.4,0 z m 0.5,0.9 c -0.1,0.1 -0.3,0.2 -0.4,0.2 -0.2,0 -0.3,-0.1 -0.3,-0.4 0,-0.3 0.4,-0.5 0.8,-0.6 l -0.1,0.8 0,0 z"
       id="path3622"
       inkscape:connector-curvature="0"
       style="fill:#ffffff" /><path
       d="m 227.9,131 0,-2.7 -0.5,0 0,1.9 c -0.1,0.3 -0.4,0.4 -0.6,0.4 -0.3,0 -0.5,-0.2 -0.5,-0.6 l 0,-1.7 -0.5,0 0,1.7 c 0,0.7 0.3,1.1 0.9,1.1 0.2,0 0.5,-0.1 0.7,-0.4 l 0,0.3 0.5,0 0,0 z"
       id="path3624"
       inkscape:connector-curvature="0"
       style="fill:#ffffff" /><rect
       x="161.10001"
       y="127.6"
       width="1.4"
       height="0.30000001"
       id="rect3626"
       style="fill:#ffffff" /><rect
       x="186.7"
       y="127.6"
       width="1.4"
       height="0.30000001"
       id="rect3628"
       style="fill:#ffffff" /><polygon
       points="149.2,108.4 149.2,107.2 146.4,107.2 146.4,105.2 149,105.2 149,104 146.4,104 146.4,102.1 149.1,102.1 149.1,100.9 145.2,100.9 145.2,108.4 "
       id="polygon3630"
       style="fill:#ffffff" /><polygon
       points="180.8,102.1 183.5,102.1 183.5,100.9 179.6,100.9 179.6,108.4 183.6,108.4 183.6,107.2 180.8,107.2 180.8,105.2 183.5,105.2 183.5,104 180.8,104 "
       id="polygon3632"
       style="fill:#ffffff" /><polygon
       points="138.6,108.4 138.6,105.2 142,105.2 142,108.4 143.1,108.4 143.1,100.9 142,100.9 142,104 138.6,104 138.6,100.9 137.4,100.9 137.4,108.4 "
       id="polygon3634"
       style="fill:#ffffff" /><path
       d="m 156.4,108.5 c 1,0 1.8,-0.3 2.3,-0.9 0.5,-0.5 0.7,-1.3 0.7,-2.2 l 0,-4.5 -1.2,0 0,4.3 c 0,0.7 -0.1,1.2 -0.4,1.5 -0.2,0.2 -0.6,0.5 -1.4,0.5 -0.5,0 -1,-0.2 -1.3,-0.6 -0.3,-0.3 -0.4,-0.6 -0.4,-1.4 l 0,-4.4 -1.2,0 0,4.6 c 0,0.9 0.3,1.7 0.9,2.2 0.6,0.6 1.2,0.9 2,0.9 z"
       id="path3636"
       inkscape:connector-curvature="0"
       style="fill:#ffffff" /><path
       d="m 167.4,108.4 0,-7.5 -1.1,0 c 0,0 0,5.2 0,5.3 -0.1,-0.1 -4.2,-5.3 -4.2,-5.3 l -0.9,0 0,7.5 1.1,0 c 0,0 0,-5.1 0,-5.3 0.1,0.1 4.1,5.3 4.1,5.3 l 1,0 0,0 z"
       id="path3638"
       inkscape:connector-curvature="0"
       style="fill:#ffffff" /><path
       d="m 178.1,100.9 -1.2,0 c 0,0 -1.8,4.7 -1.9,4.8 0,-0.1 -1.9,-4.8 -1.9,-4.8 l -1.1,0 2.9,7.5 0.4,0 2.8,-7.5 z"
       id="path3640"
       inkscape:connector-curvature="0"
       style="fill:#ffffff" /><path
       d="m 189.7,108.4 1.4,0 -0.2,-0.3 c -0.4,-0.6 -0.6,-0.9 -0.8,-1.3 -0.2,-0.4 -0.4,-0.8 -0.7,-1.2 -0.2,-0.3 -0.4,-0.5 -0.6,-0.7 0.6,-0.4 1,-1 1,-1.8 0,-0.6 -0.2,-1.2 -0.6,-1.6 -0.4,-0.4 -1,-0.6 -1.6,-0.6 l -1.8,0 0,7.5 1.2,0 c 0,0 0,-3.1 0,-3.1 0,0 0.3,0 0.3,0 0.4,0 0.7,0.1 1.6,1.6 l 0.8,1.5 z m -1.1,-5.4 c 0,0.3 -0.1,0.6 -0.3,0.7 -0.2,0.2 -0.5,0.3 -0.9,0.3 0,0 -0.4,0 -0.5,0 0,-0.1 0,-1.9 0,-2 0,0 0.5,0 0.5,0 0.8,0 1.2,0.3 1.2,1 l 0,0 z"
       id="path3642"
       inkscape:connector-curvature="0"
       style="fill:#ffffff" /><path
       d="m 194.1,102.1 c 0.5,0 1,0.2 1.4,0.7 l 0.2,0.2 0,0 0,-1.5 0,0 0,0 c -0.5,-0.3 -1,-0.5 -1.5,-0.5 -0.6,0 -1.2,0.2 -1.5,0.6 -0.4,0.4 -0.6,0.9 -0.6,1.5 0,1 0.7,1.6 1.5,2.1 l 0.2,0.1 0.3,0.2 c 0.2,0.1 0.3,0.3 0.4,0.3 0.3,0.3 0.4,0.5 0.4,0.8 0,0.3 -0.3,0.8 -0.9,0.8 -0.6,0 -1.2,-0.3 -1.6,-1 l -0.2,-0.3 -0.1,-0.1 0,1.8 0,0 c 0.6,0.5 1.2,0.7 1.9,0.7 0.6,0 1,-0.2 1.4,-0.6 0.3,-0.4 0.6,-0.9 0.6,-1.5 0,-1.2 -0.7,-1.8 -1.5,-2.3 l -0.5,-0.3 c -0.2,-0.1 -0.3,-0.2 -0.4,-0.3 -0.3,-0.2 -0.4,-0.4 -0.4,-0.7 0,-0.4 0.4,-0.7 0.9,-0.7 z"
       id="path3644"
       inkscape:connector-curvature="0"
       style="fill:#ffffff" /><path
       d="m 209.4,108.4 1.2,0 0,-3.9 2.5,-3.6 -1.5,0 c 0,0 -1.6,2.3 -1.7,2.4 0,-0.1 -1.7,-2.4 -1.7,-2.4 l -1.5,0 c 0,0 2.5,3.5 2.5,3.6 0.2,0 0.2,3.9 0.2,3.9 z"
       id="path3646"
       inkscape:connector-curvature="0"
       style="fill:#ffffff" /><rect
       x="169.3"
       y="100.9"
       width="1.2"
       height="7.5"
       id="rect3648"
       style="fill:#ffffff" /><rect
       x="198.10001"
       y="100.9"
       width="1.2"
       height="7.5"
       id="rect3650"
       style="fill:#ffffff" /><polygon
       points="136.4,102.1 136.4,100.9 130.7,100.9 130.7,102.1 133,102.1 133,108.4 134.2,108.4 134.2,102.1 "
       id="polygon3652"
       style="fill:#ffffff" /><polygon
       points="206.4,102.1 206.4,100.9 200.8,100.9 200.8,102.1 203,102.1 203,108.4 204.2,108.4 204.2,102.1 "
       id="polygon3654"
       style="fill:#ffffff" /><polygon
       points="227.7,102.1 227.7,100.9 224,100.9 224,108.3 225.2,108.3 225.2,105 227.7,105 227.7,103.8 225.2,103.8 225.2,102.1 "
       id="polygon3656"
       style="fill:#ffffff" /><path
       d="m 219,108.5 c 1.1,0 2,-0.4 2.6,-1.2 0.6,-0.7 1,-1.6 1,-2.6 0,-1 -0.3,-2 -1,-2.6 -0.7,-0.7 -1.6,-1.1 -2.6,-1.1 -1,0 -1.9,0.4 -2.6,1.1 -0.6,0.7 -1,1.6 -1,2.6 0,1 0.3,1.9 1,2.6 0.7,0.8 1.6,1.2 2.6,1.2 z m -1.6,-5.7 c 0.4,-0.5 1,-0.7 1.7,-0.7 1.4,0 2.4,1.1 2.4,2.6 0,0.7 -0.2,1.4 -0.7,1.9 -0.4,0.5 -1,0.7 -1.7,0.7 -0.7,0 -1.3,-0.3 -1.7,-0.7 -0.4,-0.5 -0.7,-1.1 -0.7,-1.9 0,-0.7 0.3,-1.4 0.7,-1.9 z"
       id="path3658"
       inkscape:connector-curvature="0"
       style="fill:#ffffff" /><path
       d="m 196.4,111.3 -1.4,0 -4.9,12.8 2.1,0 c 0,0 1.4,-3.5 1.4,-3.6 0.1,0 4.3,0 4.4,0 0,0.1 1.5,3.6 1.5,3.6 l 2.1,0 -5.2,-12.8 z m -2.1,7.2 c 0,-0.1 1.3,-3.4 1.3,-3.6 0.1,0.2 1.4,3.5 1.5,3.6 -0.2,0 -2.7,0 -2.8,0 z"
       id="path3660"
       inkscape:connector-curvature="0"
       style="fill:#ffffff" /><polygon
       points="188.3,124.1 188.3,122 183.3,122 183.3,111.4 181.3,111.4 181.3,124.1 "
       id="polygon3662"
       style="fill:#ffffff" /><path
       d="m 134.2,120.5 c 0.1,0 4.3,0 4.4,0 0,0.1 1.5,3.6 1.5,3.6 l 2.1,0 -5.1,-12.8 -1.4,0 -4.9,12.8 2.1,0 c -0.1,0 1.3,-3.6 1.3,-3.6 z m 2.1,-5.7 c 0.1,0.2 1.4,3.5 1.5,3.6 -0.1,0 -2.6,0 -2.8,0 0,-0.1 1.2,-3.3 1.3,-3.6 z"
       id="path3664"
       inkscape:connector-curvature="0"
       style="fill:#ffffff" /><path
       d="m 166.2,123 0,-2.5 -0.1,0.1 -0.3,0.2 c -1.2,0.9 -2.5,1.3 -3.7,1.3 -1.2,0 -2.3,-0.4 -3.1,-1.2 -0.8,-0.8 -1.2,-1.9 -1.2,-3.2 0,-1.3 0.4,-2.4 1.2,-3.2 0.8,-0.8 1.8,-1.3 3,-1.3 1.2,0 2.3,0.4 3.7,1.2 l 0.3,0.1 0.1,0 -0.1,-2.5 0,0 c -1.5,-0.7 -2.7,-1 -3.9,-1 -3.6,0 -6.3,2.8 -6.3,6.7 0,1.5 0.6,3 1.5,4.1 0.8,1 2.2,2.2 4.7,2.2 1.9,0.2 3.1,-0.3 4.2,-1 l 0,0 z"
       id="path3666"
       inkscape:connector-curvature="0"
       style="fill:#ffffff" /><path
       d="m 173.1,117.4 c 0.1,-0.1 5,-6 5,-6 l -2.5,0 c 0,0 -4.1,5 -4.3,5.2 0,-0.3 0,-5.2 0,-5.2 l -2,0 0,12.7 2,0 c 0,0 0,-5.4 0,-5.7 0.2,0.2 5.3,5.7 5.3,5.7 l 2.8,0 c -0.1,0 -6.2,-6.6 -6.3,-6.7 z"
       id="path3668"
       inkscape:connector-curvature="0"
       style="fill:#ffffff" /><path
       d="m 226.9,113.5 c -1.1,-1.3 -2.7,-2.1 -4.6,-2.1 l -4.5,0 0,12.7 4.5,0 c 1.8,0 3.3,-0.7 4.4,-1.9 1,-1.2 1.6,-2.8 1.6,-4.4 0.1,-1.7 -0.5,-3.2 -1.4,-4.3 z m -4.8,8.5 c 0,0 -2.2,0 -2.3,0 0,-0.1 0,-8.5 0,-8.7 0.1,0 2.2,0 2.2,0 1.4,0 2.5,0.4 3.2,1.3 0.7,0.7 1,1.8 1,3.1 0.1,1.6 -0.8,4.3 -4.1,4.3 z"
       id="path3670"
       inkscape:connector-curvature="0"
       style="fill:#ffffff" /><path
       d="m 148.3,124.2 c 1.6,0 2.9,-0.5 3.8,-1.4 0.8,-0.9 1.3,-2.2 1.3,-3.8 l 0,-7.6 -2,0 0,7.3 c 0,1.3 -0.2,2 -0.6,2.5 -0.3,0.3 -1,0.9 -2.4,0.9 -0.9,0 -1.6,-0.3 -2.2,-1 -0.4,-0.5 -0.6,-1.1 -0.6,-2.4 l 0,-7.5 -2,0 0,7.8 c 0,1.6 0.5,2.9 1.5,3.8 0.8,1 2,1.4 3.2,1.4 z"
       id="path3672"
       inkscape:connector-curvature="0"
       style="fill:#ffffff" /><path
       d="m 212.6,120.5 c -0.2,-0.2 -7.1,-9.1 -7.1,-9.1 l -1.6,0 0,12.7 1.9,0 c 0,0 0,-8.7 0,-9 0.2,0.2 7,9 7,9 l 1.7,0 0,-12.7 -1.9,0 c 0,0 0,8.8 0,9.1 z"
       id="path3674"
       inkscape:connector-curvature="0"
       style="fill:#ffffff" /><polygon
       points="131.8,138.3 134.9,142 135.8,142 135.8,136.8 134.8,136.8 134.8,140.5 131.7,136.8 130.8,136.8 130.8,142 131.8,142 "
       id="polygon3676"
       style="fill:#ffffff" /><polygon
       points="142,141.2 142,139.8 144.2,139.8 144.2,139 142,139 142,137.6 144.3,137.6 144.3,136.8 141,136.8 141,142 144.4,142 144.4,141.2 "
       id="polygon3678"
       style="fill:#ffffff" /><polygon
       points="154.6,142.1 154.9,142.1 157.1,136.8 156,136.8 154.7,140.1 153.4,136.8 152.5,136.8 151.2,140.1 149.9,136.8 148.9,136.8 151,142.1 151.3,142.1 153,138.3 "
       id="polygon3680"
       style="fill:#ffffff" /><polygon
       points="170.4,137.6 167.5,142 172.2,142 172.2,141.2 169.2,141.2 172.2,136.8 167.6,136.8 167.6,137.6 "
       id="polygon3682"
       style="fill:#ffffff" /><polygon
       points="178.1,141.2 178.1,139.8 180.3,139.8 180.3,139 178.1,139 178.1,137.6 180.4,137.6 180.4,136.8 177,136.8 177,142 180.4,142 180.4,141.2 "
       id="polygon3684"
       style="fill:#ffffff" /><path
       d="m 187,136.8 -2.1,5.2 1,0 0.5,-1.3 2.3,0 0.5,1.3 1,0 -2.3,-5.2 -0.9,0 z m -0.2,3.2 0.8,-2.1 0.9,2.1 -1.7,0 z"
       id="path3686"
       inkscape:connector-curvature="0"
       style="fill:#ffffff" /><polygon
       points="196.1,141.2 196.1,136.8 195.1,136.8 195.1,142 198.6,142 198.6,141.2 "
       id="polygon3688"
       style="fill:#ffffff" /><path
       d="m 204.9,136.8 -2.1,5.2 1,0 0.5,-1.3 2.3,0 0.5,1.3 1,0 -2.3,-5.2 -0.9,0 z m -0.3,3.2 0.8,-2.1 0.9,2.1 -1.7,0 z"
       id="path3690"
       inkscape:connector-curvature="0"
       style="fill:#ffffff" /><polygon
       points="213.9,138.3 217,142 217.9,142 217.9,136.8 216.9,136.8 216.9,140.5 213.8,136.8 213,136.8 213,142 213.9,142 "
       id="polygon3692"
       style="fill:#ffffff" /><path
       d="m 226.7,137.2 c -0.4,-0.2 -0.9,-0.3 -1.4,-0.3 l -2.2,0 0,5.2 2.1,0 c 0.6,0 1,-0.1 1.5,-0.3 0.4,-0.2 0.7,-0.5 1,-0.9 0.2,-0.4 0.3,-0.9 0.3,-1.3 0,-0.5 -0.1,-0.9 -0.3,-1.3 -0.3,-0.6 -0.6,-0.9 -1,-1.1 z m -0.2,3.5 c -0.3,0.3 -0.8,0.5 -1.3,0.5 l -1,0 0,-3.6 1,0 c 0.6,0 1,0.1 1.3,0.5 0.3,0.3 0.5,0.7 0.5,1.3 0,0.6 -0.2,1 -0.5,1.3 z"
       id="path3694"
       inkscape:connector-curvature="0"
       style="fill:#ffffff" /><rect
       x="130.8"
       y="134.2"
       width="97.5"
       height="0.60000002"
       id="rect3696"
       style="fill:#ffffff" /></g><g
     id="g3698"
     transform="matrix(2.9062169,0,0,2.9062169,-195.5884,-267.08134)"><path
       d="m 85.4,101 0,18.2 c 0,4.3 3.2,16.8 17.9,22.9 l 0.2,0.1 0.2,-0.1 c 14.6,-6.1 17.8,-18.6 17.8,-22.9 l 0,-18.2 -36.1,0 z"
       id="path3700"
       inkscape:connector-curvature="0"
       style="fill:#ffffff" /><path
       d="m 89.3,113.1 0,0 -0.1,-0.1 c -0.8,-0.5 -1.8,-0.7 -2.8,-0.7 -0.1,0 -0.1,0 -0.2,0 l 0,0 0,6.9 c 0,0.1 0.5,15.1 17.3,22.1 16.8,-7.1 17.3,-22 17.3,-22.1 l 0,-6.9 c -0.1,0 -0.1,0 -0.2,0 -1,0 -1.9,0.3 -2.8,0.7 -1.8,1 -4.1,1 -5.9,0 -1.7,-1 -3.8,-1 -5.5,0 l 0,0 c -1.8,1 -4.1,1 -5.8,0 l 0,0 c -1.6,-1 -3.8,-1 -5.5,0 l -0.1,0 0,0 c -1.7,1 -4,1 -5.7,0.1 z"
       id="path3702"
       inkscape:connector-curvature="0"
       style="fill:#3a3a3a" /><path
       d="m 91.3,104.2 c 0.6,-0.7 1.5,-0.8 1.8,-0.9 2.7,-0.1 4,1.9 4,3.5 -0.1,1.8 -1.5,2.3 -1.6,2.3 0,0 0,0.4 0.3,0.9 0,0 0.1,0.1 0,0.2 0,0 -0.1,0.1 -0.1,0.1 0,0 0,0.1 0,0.1 0,0.1 0,0.3 -0.1,0.4 -0.1,0.1 0,0.5 0,0.8 0,0 0,0 -0.1,0 -0.2,-0.1 -0.3,-0.4 -0.3,-0.6 -0.3,0.1 -0.7,0.6 -0.8,0.9 0,0 -0.1,0.1 -0.1,0 0,0 -0.1,-0.6 0.4,-1 -0.3,-0.1 -0.5,0 -0.7,0.1 0,0 -0.1,0 0,0 0,0 0.1,-0.4 0.9,-0.4 0,0 0.1,-0.3 0.2,-0.4 0,-0.3 -0.1,-0.6 -0.3,-0.9 0,0 -0.5,0 -0.9,0.3 0,0 -0.1,0.1 -0.1,0.1 0,0.1 0,0.1 0,0.1 0,0 0,0.1 -0.2,0.2 0,0 -0.6,0.2 -0.9,0.3 0,0 -0.3,0.1 -0.4,0.4 0,0 -0.2,0.3 -0.4,0.3 0,0 -0.2,0.1 -0.3,0.1 -0.1,0 -0.1,0.1 -0.2,0.2 -0.1,0 -0.2,0.2 -0.3,0.4 0,0 0,0.1 0,0 0,-0.1 0,-0.2 0,-0.2 0.1,-0.3 0.2,-0.4 0.3,-0.6 0,0 0,0 -0.1,0 -0.2,0 -0.9,0 -1.3,0.1 0,0 -0.1,0 0,0 0.1,-0.1 0.2,-0.5 1.1,-0.5 0,-0.1 -0.4,-0.3 -0.6,-0.3 -0.1,0 0,0 0,0 0,0 0.4,-0.2 0.9,0.1 0,0 0.3,-0.1 0.5,-0.1 0.2,-0.1 0.7,-0.6 0.9,-0.7 0,0 0,-0.1 0,-0.2 l 0,0 c -0.3,-0.4 -0.3,-0.9 -0.3,-1.2 -0.5,0 -1.1,-0.5 -1.4,-0.9 -0.4,0 -1.1,-0.3 -1.5,-1.2 -1.4,1 -2.3,2.7 -2.3,2.8 0,0 0,0 -0.1,0 -0.1,-0.3 -0.2,-0.7 -0.1,-0.8 0.3,-0.7 0.9,-1.7 1.6,-2.6 -0.3,-1.5 1.1,-2 1.6,-2 0.5,0.4 0.9,0.7 1,0.8 l 0,0 z"
       id="path3704"
       inkscape:connector-curvature="0"
       style="fill:#3a3a3a" /><path
       d="m 94,104.4 c 0,0 -0.1,0 0,0 0,-0.1 0.3,-0.2 0.5,-0.2 -0.8,-0.3 -1.3,0.1 -1.3,0 l 0,0 c 0,0 0.1,-0.2 0.4,-0.4 -0.7,0 -1.1,0.4 -1.1,0.4 l 0,0 c 0,0 0,-0.1 0.3,-0.4 -0.9,0 -1.5,1.1 -1.5,1.1 0,0 -0.1,-0.7 -0.9,-0.7 -0.5,-0.1 -1.7,0.6 -1.3,1.6 -0.2,0.4 -0.9,1 -1.5,2.2 0,0 0,0 0,0 0.5,-0.8 1.3,-1.8 2.1,-2.2 0.1,0.1 0.5,1.3 1.6,1.3 0.1,0.1 0.6,1 1.6,0.9 0,0.1 0,0.9 0.2,1.2 l 0,0 c 0,0 0,0 0,0 0.1,-0.1 0.6,-0.5 1,-0.6 0,0 0.2,-0.6 0.3,-0.7 0.9,-0.2 1.4,-0.9 1.4,-1.6 0,-0.9 -0.9,-2 -1.8,-1.9 z m -4.6,1.2 c -0.1,0 -0.2,-0.1 -0.2,-0.2 0,-0.1 0.1,-0.2 0.2,-0.2 0.1,0 0.2,0.1 0.2,0.2 0,0.1 -0.1,0.2 -0.2,0.2 z"
       id="path3706"
       inkscape:connector-curvature="0"
       style="fill:#ffffff" /><path
       d="m 102.6,104.2 c 0.6,-0.7 1.5,-0.8 1.8,-0.9 2.7,-0.1 4,1.9 4,3.5 -0.1,1.8 -1.5,2.3 -1.6,2.3 0,0 0,0.4 0.3,0.9 0,0 0.1,0.1 0,0.2 0,0 -0.1,0.1 -0.1,0.1 0,0 0,0.1 0,0.1 0,0.1 0,0.3 -0.1,0.4 -0.1,0.1 0,0.5 0,0.8 0,0 0,0 -0.1,0 -0.2,-0.1 -0.3,-0.4 -0.3,-0.6 -0.3,0.1 -0.7,0.6 -0.8,0.9 0,0 -0.1,0.1 -0.1,0 0,0 -0.1,-0.6 0.4,-1 -0.3,-0.1 -0.5,0 -0.7,0.1 0,0 -0.1,0 0,0 0,0 0.1,-0.4 0.9,-0.4 0,0 0.1,-0.3 0.2,-0.4 0,-0.3 -0.1,-0.6 -0.3,-0.9 0,0 -0.5,0 -0.9,0.3 0,0 -0.1,0.1 -0.1,0.1 0,0.1 0,0.1 0,0.1 0,0 0,0.1 -0.2,0.2 0,0 -0.6,0.2 -0.9,0.3 0,0 -0.3,0.1 -0.4,0.4 0,0 -0.2,0.3 -0.4,0.3 0,0 -0.1,0.1 -0.3,0.1 -0.1,0.1 -0.1,0.1 -0.2,0.2 -0.1,0 -0.2,0.2 -0.3,0.4 0,0 0,0.1 0,0 0,-0.1 0,-0.2 0,-0.2 0.1,-0.3 0.2,-0.4 0.3,-0.6 0,0 0,0 -0.1,0 -0.2,0 -0.9,0 -1.3,0.1 0,0 -0.1,0 0,0 0.1,-0.1 0.2,-0.5 1.1,-0.5 0,-0.1 -0.4,-0.3 -0.6,-0.3 -0.1,0 0,0 0,0 0,0 0.4,-0.2 0.9,0.1 0,0 0.3,-0.1 0.5,-0.1 0.2,-0.1 0.7,-0.6 0.9,-0.7 0,0 0,-0.1 0,-0.2 l 0,0 c -0.3,-0.4 -0.3,-0.9 -0.3,-1.2 -0.5,0 -1.1,-0.5 -1.4,-0.9 -0.4,0 -1.1,-0.3 -1.5,-1.2 -1.4,1 -2.3,2.7 -2.3,2.8 0,0 0,0 -0.1,0 -0.1,-0.3 -0.2,-0.7 -0.1,-0.8 0.3,-0.7 0.9,-1.7 1.6,-2.6 -0.3,-1.5 1.1,-2 1.6,-2 0.5,0.4 0.9,0.7 1,0.8 l 0,0 z"
       id="path3708"
       inkscape:connector-curvature="0"
       style="fill:#3a3a3a" /><path
       d="m 105.3,104.4 0,0 c 0,-0.1 0.3,-0.2 0.5,-0.2 -0.8,-0.3 -1.3,0.1 -1.3,0 l 0,0 c 0,0 0.1,-0.2 0.4,-0.4 -0.7,0 -1.1,0.4 -1.1,0.4 l 0,0 c 0,0 0,-0.1 0.3,-0.4 -0.8,0 -1.5,1.1 -1.5,1.1 0,0 -0.1,-0.7 -0.9,-0.7 -0.5,-0.1 -1.7,0.6 -1.3,1.6 -0.2,0.4 -0.9,1 -1.5,2.2 0,0 0,0 0,0 0.5,-0.8 1.3,-1.8 2.1,-2.2 0.1,0.1 0.5,1.3 1.6,1.3 0.1,0.1 0.6,1 1.6,0.9 0,0.1 0,0.9 0.2,1.2 l 0,0 c 0,0 0,0 0,0 0.1,-0.1 0.6,-0.5 1,-0.6 0,0 0.2,-0.6 0.3,-0.7 0.9,-0.2 1.4,-0.9 1.4,-1.6 0,-0.9 -0.9,-2 -1.8,-1.9 z m -4.5,1.2 c -0.1,0 -0.2,-0.1 -0.2,-0.2 0,-0.1 0.1,-0.2 0.2,-0.2 0.1,0 0.2,0.1 0.2,0.2 0,0.1 -0.1,0.2 -0.2,0.2 z"
       id="path3710"
       inkscape:connector-curvature="0"
       style="fill:#ffffff" /><path
       d="m 113.8,104.2 c 0.6,-0.7 1.5,-0.8 1.8,-0.9 2.7,-0.1 4,1.9 4,3.5 -0.1,1.8 -1.5,2.3 -1.6,2.3 0,0 0,0.4 0.3,0.9 0,0 0.1,0.1 0,0.2 0,0 -0.1,0.1 -0.1,0.1 0,0 0,0.1 0,0.1 0,0.1 0,0.3 -0.1,0.4 -0.1,0.1 0,0.5 0,0.8 0,0 0,0 -0.1,0 -0.2,-0.1 -0.3,-0.4 -0.3,-0.6 -0.3,0.1 -0.7,0.6 -0.8,0.9 0,0 -0.1,0.1 -0.1,0 0,0 -0.1,-0.6 0.4,-1 -0.3,-0.1 -0.5,0 -0.7,0.1 0,0 -0.1,0 0,0 0,0 0.1,-0.4 0.9,-0.4 0,0 0.1,-0.3 0.2,-0.4 0,-0.3 -0.1,-0.6 -0.3,-0.9 0,0 -0.5,0 -0.9,0.3 0,0 -0.1,0.1 -0.1,0.1 0,0.1 0,0.1 0,0.1 0,0 0,0.1 -0.2,0.2 0,0 -0.6,0.2 -0.9,0.3 0,0 -0.3,0.1 -0.4,0.4 0,0 -0.2,0.3 -0.4,0.3 0,0 -0.2,0.1 -0.3,0.1 -0.1,0.1 -0.1,0.1 -0.2,0.2 -0.1,0 -0.2,0.2 -0.3,0.4 0,0 0,0.1 0,0 0,-0.1 0,-0.2 0,-0.2 0.1,-0.3 0.2,-0.4 0.3,-0.6 0,0 0,0 -0.1,0 -0.2,0 -0.9,0 -1.3,0.1 0,0 -0.1,0 0,0 0.1,-0.1 0.2,-0.5 1.1,-0.5 0,-0.1 -0.4,-0.3 -0.6,-0.3 -0.1,0 0,0 0,0 0,0 0.4,-0.2 0.9,0.1 0,0 0.3,-0.1 0.5,-0.1 0.2,-0.1 0.7,-0.6 0.9,-0.7 0,0 0,-0.1 0,-0.2 l 0,0 c -0.3,-0.4 -0.3,-0.9 -0.3,-1.2 -0.5,0 -1.1,-0.5 -1.4,-0.9 -0.4,0 -1.1,-0.3 -1.5,-1.2 -1.4,1 -2.3,2.7 -2.3,2.8 0,0 0,0 -0.1,0 -0.1,-0.3 -0.2,-0.7 -0.1,-0.8 0.3,-0.7 0.9,-1.7 1.6,-2.6 -0.3,-1.5 1.1,-2 1.6,-2 0.6,0.4 1,0.7 1,0.8 l 0,0 z"
       id="path3712"
       inkscape:connector-curvature="0"
       style="fill:#3a3a3a" /><path
       d="m 116.5,104.4 c 0,0 0,0 0,0 0,-0.1 0.3,-0.2 0.5,-0.2 -0.8,-0.3 -1.3,0.1 -1.3,0 l 0,0 c 0,0 0.1,-0.2 0.4,-0.4 -0.7,0 -1.1,0.4 -1.1,0.4 l 0,0 c 0,0 0,-0.1 0.3,-0.4 -0.9,0 -1.5,1.1 -1.5,1.1 0,0 -0.1,-0.7 -0.9,-0.7 -0.5,-0.1 -1.7,0.6 -1.3,1.6 -0.2,0.4 -0.9,1 -1.5,2.2 0,0 0,0 0,0 0.5,-0.8 1.3,-1.8 2.1,-2.2 0.1,0.1 0.5,1.3 1.6,1.3 0.1,0.1 0.6,1 1.6,0.9 0,0.1 0,0.9 0.2,1.2 l 0,0 c 0,0 0,0 0,0 0.1,-0.1 0.6,-0.5 1,-0.6 0,0 0.2,-0.6 0.3,-0.7 0.9,-0.2 1.4,-0.9 1.4,-1.6 0.1,-0.9 -0.8,-2 -1.8,-1.9 z m -4.5,1.2 c -0.1,0 -0.2,-0.1 -0.2,-0.2 0,-0.1 0.1,-0.2 0.2,-0.2 0.1,0 0.2,0.1 0.2,0.2 0,0.1 0,0.2 -0.2,0.2 z"
       id="path3714"
       inkscape:connector-curvature="0"
       style="fill:#ffffff" /><g
       id="g3716"><path
         d="m 104.9,130.4 -0.3,0.2 0.3,0.1 c 0.2,0.1 0.3,0.3 0.3,0.5 0,0.3 -0.3,0.6 -0.6,0.6 l -2.3,0 c -0.3,0 -0.6,-0.3 -0.6,-0.6 0,-0.2 0.1,-0.4 0.3,-0.5 l 0.3,-0.1 -0.3,-0.2 c -0.6,-0.4 -1.2,-0.6 -1.9,-0.6 -0.6,0 -1.3,0.2 -1.9,0.6 -0.6,0.4 -1.2,0.6 -2.2,0.6 -1.3,0 -2.3,-0.4 -3.2,-1.2 l 0,0 -0.6,0 0,0.1 c -0.1,0.1 -0.2,0.1 -0.3,0.1 -0.2,0 -0.4,-0.2 -0.4,-0.4 0,-0.2 0.2,-0.4 0.4,-0.4 0.1,0 0.3,0.1 0.3,0.1 l 0,0.1 0.7,0 0,-0.9 -0.7,0 0,0.1 c -0.1,0.1 -0.2,0.1 -0.3,0.1 -0.2,0 -0.4,-0.2 -0.4,-0.4 0,-0.2 0.2,-0.4 0.4,-0.4 0.1,0 0.3,0.1 0.3,0.1 l 0,0.1 0.7,0 0,-0.9 -0.7,0 0,0.1 c -0.1,0.1 -0.2,0.1 -0.3,0.1 -0.2,0 -0.4,-0.2 -0.4,-0.4 0,-0.2 0.2,-0.4 0.4,-0.4 0.1,0 0.3,0.1 0.3,0.1 l 0,0.1 0.7,0 0,-0.8 -0.7,0 0,0.1 c -0.1,0.1 -0.2,0.1 -0.3,0.1 -0.2,0 -0.4,-0.2 -0.4,-0.4 0,-0.2 0.2,-0.4 0.4,-0.4 0.1,0 0.3,0.1 0.3,0.1 l 0,0.1 0.7,0 0,-0.9 -0.7,0 0,0.1 c -0.1,0.1 -0.2,0.1 -0.3,0.1 -0.2,0 -0.4,-0.2 -0.4,-0.4 0,-0.2 0.2,-0.4 0.4,-0.4 0.1,0 0.3,0.1 0.3,0.1 l 0,0.1 0.7,0 0,-0.9 -0.7,0 0,0.1 c -0.1,0.1 -0.2,0.1 -0.3,0.1 -0.2,0 -0.4,-0.2 -0.4,-0.4 0,-0.2 0.2,-0.4 0.4,-0.4 0.1,0 0.3,0.1 0.3,0.1 l 0,0.1 0.7,0 0,-0.9 -0.7,0 0,0.1 c -0.1,0.1 -0.2,0.1 -0.3,0.1 -0.2,0 -0.4,-0.2 -0.4,-0.4 0,-0.2 0.2,-0.4 0.4,-0.4 0.1,0 0.3,0.1 0.3,0.1 l 0,0.1 0.6,0 0.6,-0.3 0,7.8 0.1,0.1 c 1.6,1 3.2,1.1 4.7,0.3 1.5,-0.9 3.7,-0.9 5,0.9 l -0.6,0 c -0.1,0 -0.2,0.1 -0.2,0.2 0,0.1 0.1,0.2 0.2,0.2 l 1.9,0 c 0.1,0 0.2,-0.1 0.2,-0.2 0,-0.1 -0.1,-0.2 -0.2,-0.2 l -0.6,0 c 1.3,-1.9 3.4,-1.7 5,-0.9 1.3,0.7 2.9,0.6 4.7,-0.3 l 0.1,-0.1 0,-7.8 0.6,0.3 0.6,0 0,-0.1 c 0.1,-0.1 0.2,-0.1 0.3,-0.1 0.2,0 0.4,0.2 0.4,0.4 0,0.2 -0.2,0.4 -0.4,0.4 -0.1,0 -0.3,-0.1 -0.3,-0.1 l 0,-0.1 -0.7,0 0,0.9 0.7,0 0,-0.1 c 0.1,-0.1 0.2,-0.1 0.3,-0.1 0.2,0 0.4,0.2 0.4,0.4 0,0.2 -0.2,0.4 -0.4,0.4 -0.1,0 -0.3,-0.1 -0.3,-0.1 l 0,-0.1 -0.7,0 0,0.9 0.7,0 0,-0.1 c 0.1,-0.1 0.2,-0.1 0.3,-0.1 0.2,0 0.4,0.2 0.4,0.4 0,0.2 -0.2,0.4 -0.4,0.4 -0.1,0 -0.3,-0.1 -0.3,-0.1 l 0,-0.1 -0.7,0 0,0.9 0.7,0 0,-0.1 c 0.1,-0.1 0.2,-0.1 0.3,-0.1 0.2,0 0.4,0.2 0.4,0.4 0,0.2 -0.2,0.4 -0.4,0.4 -0.1,0 -0.3,-0.1 -0.3,-0.1 l 0,-0.1 -0.7,0 0,0.9 0.7,0 0,-0.1 c 0.1,-0.1 0.2,-0.1 0.3,-0.1 0.2,0 0.4,0.2 0.4,0.4 0,0.2 -0.2,0.4 -0.4,0.4 -0.1,0 -0.3,-0.1 -0.3,-0.1 l 0,-0.1 -0.7,0 0,0.9 0.7,0 0,-0.1 c 0.1,-0.1 0.2,-0.1 0.3,-0.1 0.2,0 0.4,0.2 0.4,0.4 0,0.2 -0.2,0.4 -0.4,0.4 -0.1,0 -0.3,-0.1 -0.3,-0.1 l 0,-0.1 -0.7,0 0,0.9 0.7,0 0,-0.1 c 0.1,-0.1 0.2,-0.1 0.3,-0.1 0.2,0 0.4,0.2 0.4,0.4 0,0.2 -0.2,0.4 -0.4,0.4 -0.1,0 -0.3,-0.1 -0.3,-0.1 l 0,-0.1 -0.6,0 0,0 c -0.9,0.8 -1.9,1.2 -3.2,1.2 -1,0 -1.6,-0.1 -2.2,-0.6 -1.4,-0.9 -2.8,-0.9 -4,-0.1 z"
         id="path3718"
         inkscape:connector-curvature="0"
         style="fill:#ffffff" /><path
         d="m 94.3,129.3 c 1.2,0.6 2.2,0.8 4,-0.1 1.9,-1 3.9,-0.3 5.1,0.7 l 0,0.6 c -1.4,-1.8 -3.7,-1.8 -5.3,-0.9 -1.3,0.7 -2.8,0.7 -4.2,-0.2 l 0,-7.9 0.4,-0.2 0,8 0,0 z"
         id="path3720"
         inkscape:connector-curvature="0"
         style="fill:#ffffff" /><path
         d="m 94.6,129 0,-7.8 0,0 c 1.3,0.3 2.3,0.2 3.7,-0.4 1.6,-0.7 3.3,-0.5 5,0.7 l 0,8 c -0.8,-0.7 -1.9,-1.1 -3.1,-1.1 -0.7,0 -1.4,0.1 -2.2,0.5 -1.5,0.7 -2.4,0.6 -3.4,0.1 z"
         id="path3722"
         inkscape:connector-curvature="0"
         style="fill:#ffffff" /><path
         d="m 108.8,129.2 c 1.8,0.9 2.8,0.7 4,0.1 l 0.1,0 0,-7.8 0.4,0.2 0,7.9 c -1.6,0.8 -3,0.9 -4.2,0.2 -1.6,-0.8 -3.8,-1 -5.3,0.9 l 0,-0.6 c 1,-1.3 3,-1.9 5,-0.9 z"
         id="path3724"
         inkscape:connector-curvature="0"
         style="fill:#ffffff" /><path
         d="m 103.7,129.4 0,-8 c 1.6,-1.1 3.3,-1.3 5,-0.7 1.3,0.6 2.4,0.7 3.7,0.4 l 0,0 0,7.8 c -1.1,0.6 -1.9,0.7 -3.5,-0.1 -1.9,-1 -3.9,-0.4 -5.2,0.6 z"
         id="path3726"
         inkscape:connector-curvature="0"
         style="fill:#ffffff" /><polygon
         points="109.6,115.6 110.4,113.1 111.2,115.6 113.9,115.6 111.7,117.2 112.5,119.8 110.4,118.2 108.3,119.8 109.1,117.2 106.9,115.6 "
         id="polygon3728"
         style="fill:#ffffff" /><polygon
         points="95.8,115.6 96.6,113.1 97.4,115.6 100.1,115.6 97.9,117.2 98.7,119.8 96.6,118.2 94.5,119.8 95.3,117.2 93.1,115.6 "
         id="polygon3730"
         style="fill:#ffffff" /><polygon
         points="104.3,135.6 107,135.6 104.8,137.2 105.6,139.8 103.5,138.2 101.4,139.8 102.2,137.2 100,135.6 102.7,135.6 103.5,133 "
         id="polygon3732"
         style="fill:#ffffff" /></g></g></svg>