<?xml version="1.0" encoding="UTF-8" standalone="no"?>
<!-- Generator: Adobe Illustrator 18.1.0, SVG Export Plug-In . SVG Version: 6.00 Build 0)  -->

<svg
   xmlns:dc="http://purl.org/dc/elements/1.1/"
   xmlns:cc="http://creativecommons.org/ns#"
   xmlns:rdf="http://www.w3.org/1999/02/22-rdf-syntax-ns#"
   xmlns:svg="http://www.w3.org/2000/svg"
   xmlns="http://www.w3.org/2000/svg"
   xmlns:sodipodi="http://sodipodi.sourceforge.net/DTD/sodipodi-0.dtd"
   xmlns:inkscape="http://www.inkscape.org/namespaces/inkscape"
   version="1.1"
   id="Layer_1"
   x="0px"
   y="0px"
   viewBox="0 0 648.01804 150.45392"
   enable-background="new 0 0 841.9 595.3"
   xml:space="preserve"
   inkscape:version="0.91 r13725"
   sodipodi:docname="VIC-LOGO-Landscape-Green.svg"
   width="648.01807"
   height="150.45392"><metadata
     id="metadata13"><rdf:RDF><cc:Work
         rdf:about=""><dc:format>image/svg+xml</dc:format><dc:type
           rdf:resource="http://purl.org/dc/dcmitype/StillImage" /><dc:title></dc:title></cc:Work></rdf:RDF></metadata><defs
     id="defs11" /><sodipodi:namedview
     pagecolor="#ffffff"
     bordercolor="#666666"
     borderopacity="1"
     objecttolerance="10"
     gridtolerance="10"
     guidetolerance="10"
     inkscape:pageopacity="0"
     inkscape:pageshadow="2"
     inkscape:window-width="640"
     inkscape:window-height="480"
     id="namedview9"
     showgrid="false"
     fit-margin-top="0"
     fit-margin-left="0"
     fit-margin-right="0"
     fit-margin-bottom="0"
     inkscape:zoom="1.6882245"
     inkscape:cx="293.70052"
     inkscape:cy="75.936521"
     inkscape:current-layer="Layer_1"
     units="px" /><rect
     style="opacity:1;fill:#01503b;fill-opacity:1;stroke:none;stroke-width:0;stroke-miterlimit:4;stroke-dasharray:none;stroke-opacity:1"
     id="rect4133"
     width="648.01807"
     height="167.63173"
     x="3.6070048e-08"
     y="-6.5157213" /><path
     style="fill:#ffffff"
     inkscape:connector-curvature="0"
     id="path7"
     d="m 614.22947,94.078652 c 4.21322,0 6.74114,2.359399 6.74114,6.572608 0,4.38173 -2.86498,6.74113 -7.07819,6.74113 -4.21322,0 -6.74114,-2.3594 -6.74114,-6.57261 -0.16853,-4.381729 2.69645,-6.741128 7.07819,-6.741128 l 0,0 z m 0,1.011171 c -3.53909,0 -4.38174,2.696456 -4.38174,5.392907 0,3.03351 1.34823,5.89849 3.87616,5.89849 3.5391,0 4.38174,-2.52792 4.38174,-5.39291 0,-3.202031 -1.34823,-5.898487 -3.87616,-5.898487 l 0,0 z m -489.40676,25.110737 0,10.6173 33.87423,0 0,-10.6173 -4.88733,5.39292 -6.74114,0 -5.39291,-5.39292 -5.39291,5.39292 -6.74114,0 -4.7188,-5.39292 0,0 z m -22.58282,-76.006343 0,10.617295 33.87423,0 0,-10.617295 -4.88732,5.392912 -6.74114,0 -5.39292,-5.392912 -5.39291,5.392912 -6.74114,0 -4.7188,-5.392912 0,0 z m 45.16564,0 0,10.617295 33.87423,0 0,-10.617295 -4.88732,5.392912 -6.74115,0 -5.39291,-5.392912 -5.39291,5.392912 -6.74114,0 -4.7188,-5.392912 0,0 z m -5.56144,19.212249 c -5.39291,0 -7.92084,3.876155 -13.31375,3.876155 -5.39291,0 -7.92084,-4.044684 -13.31375,-3.876155 -5.05586,0.168528 -7.24673,3.876155 -12.30258,3.876155 -5.055858,0 -8.594957,-3.539098 -12.302584,-3.37057 l 0,33.537171 c 0.168529,7.078188 5.561441,17.189898 12.302584,17.189898 5.05585,0 7.24672,-3.70762 12.30258,-3.87615 5.39291,-0.16853 7.92084,3.87615 13.31375,3.87615 5.39291,0 7.92084,-3.87615 13.31375,-3.87615 5.39291,0 7.92084,3.87615 13.31375,3.87615 5.39291,0 7.92084,-4.04468 13.31375,-3.87615 5.05586,0.16853 7.24673,3.70763 12.30259,3.87615 6.74114,0 12.13405,-10.11171 12.30258,-17.189898 l 0,-33.537171 c -3.70763,-0.168528 -7.41526,3.539099 -12.30258,3.37057 -5.05586,0 -7.24673,-3.707627 -12.30259,-3.876155 -5.39291,-0.168529 -7.92084,3.876155 -13.31375,3.876155 -5.39291,0 -7.92084,-3.876155 -13.31375,-3.876155 l 0,0 z m 0,86.455114 c -2.19087,0 -55.445876,-23.0884 -55.445876,-52.412358 l 0,-64.040829 55.782936,0 55.27735,0 0,64.040829 c -0.16853,29.323958 -53.42354,52.412358 -55.61441,52.412358 l 0,0 z m -7.92084,-49.54737 -2.3594,-4.044687 2.3594,-4.044684 -4.7188,0 -2.35939,-4.044684 -2.3594,4.044684 -4.7188,0 2.3594,4.044684 -2.3594,4.044687 4.7188,0 2.3594,4.04467 2.35939,-4.04467 4.7188,0 0,0 z m 29.82955,-14.661983 -2.3594,-4.044684 2.3594,-4.044684 -4.7188,0 -2.3594,-4.044684 -2.3594,4.044684 -4.7188,0 2.3594,4.044684 -2.3594,4.044684 4.7188,0 2.3594,4.044684 2.3594,-4.044684 4.7188,0 0,0 z m -21.40312,0 -2.3594,-4.044684 2.3594,-4.044684 -4.7188,0 -2.3594,-4.044684 -2.3594,4.044684 -4.7188,0 2.3594,4.044684 -2.3594,4.044684 4.7188,0 2.3594,4.044684 2.3594,-4.044684 4.7188,0 0,0 z m 12.80816,14.661983 -2.3594,-4.044687 2.3594,-4.044684 -4.7188,0 -2.35939,-4.044684 -2.3594,4.044684 -4.7188,0 2.3594,4.044684 -2.3594,4.044687 4.7188,0 2.3594,4.04467 2.35939,-4.04467 4.7188,0 0,0 z m -40.78389,-29.49249 54.77176,0 0,36.40215 -54.77176,0 0,-36.40215 0,0 z M 73.590048,64.586165 c -3.202042,0 -7.078197,-4.044684 -6.74114,-6.572611 1.853814,-13.819337 8.93201,-9.269068 14.156394,-13.313752 1.516756,1.853814 3.707627,19.886363 -7.415254,19.886363 l 0,0 z M 239.59062,77.057274 c -0.16852,0 -0.50558,5.729969 -5.89849,9.774653 3.03351,-0.168529 7.75231,0.337057 8.76348,-3.37057 1.01117,-4.213213 -2.3594,-6.235555 -2.86499,-6.404083 l 0,0 z m -8.25789,-2.022342 c -10.44877,-0.505586 -14.49345,5.729969 -10.95436,8.089368 6.57262,4.550269 10.78583,-8.257897 10.95436,-8.089368 l 0,0 z m 0.50558,-14.999036 c -1.34823,1.516756 -3.70762,2.696456 -6.40408,3.37057 2.86498,-0.168529 8.08937,-0.168529 10.78582,0 -2.02234,-0.842643 -4.38174,-3.37057 -4.38174,-3.37057 l 0,0 z M 211.61489,47.564787 c 0,4.550269 3.70763,8.089368 8.08937,8.089368 4.55027,0 8.08937,-3.707627 8.08937,-8.089368 0,-4.55027 -3.70763,-8.089368 -8.08937,-8.089368 -4.38174,0 -8.08937,3.707627 -8.08937,8.089368 l 0,0 z m 32.69453,6.74114 c 0.84264,-1.348228 3.20204,-2.022342 5.39291,-1.1797 2.3594,0.842643 3.87616,2.864985 3.5391,4.55027 11.96553,-0.168529 14.83051,-3.033513 14.99904,-2.864985 -3.5391,6.404083 -13.65081,11.122881 -17.52697,11.459938 5.39292,1.853814 16.17874,8.089368 16.17874,20.054891 0,17.526959 -17.02138,20.054879 -26.6275,17.526959 3.03351,0.84264 4.7188,2.86498 4.7188,3.37057 l -43.31183,0 0,-35.39098 c 1.34823,-1.516756 3.87616,-3.370569 7.0782,-4.718797 1.85381,-0.842643 1.68528,-3.033513 1.68528,-3.033513 -5.22438,-0.842643 -8.76348,-5.392912 -8.76348,-5.392912 l 0,-20.391949 c 0,0 5.22439,-7.246725 17.52697,-7.246725 9.77465,0.168529 14.99903,8.257896 14.99903,8.257896 0,0 4.04469,-3.37057 12.13405,-3.37057 18.20108,0 22.24577,17.526964 22.24577,17.526964 -5.39292,-4.550269 -11.797,-5.898497 -14.99904,-6.235554 -0.33706,1.516756 -2.02234,2.864984 -3.87616,2.864984 -1.85381,0 -3.37057,-1.011171 -3.87615,-2.359399 l -1.51676,1.011171 c 0.16853,0.505586 0.33706,1.1797 0.33706,1.853814 -0.16853,1.179699 -0.67412,2.359399 -1.68529,3.033513 l 1.34823,0.674114 0,0 z m -28.14426,-6.74114 c 0,-2.022342 1.68529,-3.707627 3.70763,-3.707627 2.02234,0 3.70763,1.685285 3.70763,3.707627 0,2.022342 -1.68529,3.707627 -3.70763,3.707627 -2.19087,0 -3.70763,-1.685285 -3.70763,-3.707627 l 0,0 z m -134.317216,14.999036 0,44.660047 -66.905813,0 c 0.168528,-0.16853 2.359399,-6.06703 4.381741,-8.257891 -1.685285,-1.348228 -3.033513,-2.696456 -2.864984,-2.359399 -0.168529,-0.168529 8.93201,-11.965524 15.504621,-12.134052 -1.348228,-1.011171 -2.527927,-2.359399 -2.359399,-2.359399 2.359399,-2.527928 6.572611,-2.864985 20.391948,-3.876156 13.819337,-1.179699 15.841679,-4.887326 16.010208,-16.010207 3.370569,3.876156 9.100538,8.932011 15.841678,0.337057 l 0,0 z M 47.973716,39.812476 c -4.381741,-3.033513 -6.74114,-4.213213 -8.257896,-3.876156 -1.516757,0.337057 -4.381741,5.055855 -4.381741,4.887327 3.707627,-0.842643 9.269067,-1.348228 12.639637,-1.011171 l 0,0 z M 31.457924,58.182082 c -3.202042,-2.696456 -7.246726,-7.920839 -7.752311,-11.628466 -0.337057,-2.696456 1.516756,-4.381741 1.516756,-4.381741 0,0 -0.842642,-2.696456 -0.505585,-3.876156 1.853813,-5.729968 29.323958,-6.067025 34.885399,-5.898497 12.808165,0.505586 15.504621,0 21.740176,-2.359399 -0.168529,-0.168528 -2.190871,9.437596 -13.987865,9.269067 0,1.011171 0,1.348228 0,1.516757 4.718797,0.168528 10.280238,-1.011171 13.650808,-4.887327 -0.168529,3.202042 1.179699,7.246726 -5.392912,8.763482 -6.235555,1.348228 -10.11171,1.1797 -12.134052,18.875192 -0.337057,5.055855 0,9.269067 -8.257896,11.122881 -7.92084,1.685285 -28.986902,2.359399 -32.694529,5.224383 L 21.851799,78.57403 c 4.213213,-2.864984 6.74114,-7.246725 6.235555,-12.134051 0.842642,-0.505586 2.19087,-1.011171 2.864984,-1.011171 0,1.685285 -2.19087,5.392912 7.752311,5.392912 0.168528,0 9.269067,1.01117 5.392912,-10.617296 -1.1797,-3.707627 -2.359399,-7.920839 -6.74114,-7.752311 0,-0.168528 -5.729969,0.337057 -2.864985,5.898498 4.044684,0.842642 8.594954,1.853813 9.269068,4.718798 0.505585,3.033513 -1.685285,4.550269 -3.37057,3.876155 -1.685285,-0.674114 -6.404083,-3.37057 -9.606124,-3.37057 -6.235555,0 -17.189907,7.078197 -24.2681039,-6.235554 2.0223419,2.19087 4.0446839,3.707627 10.6172959,3.876155 6.404082,0 7.75231,-2.864984 14.324922,-3.033513 l 0,0 z M 602.93806,1.2194498 l 7.0782,0 0,1.3482279 -7.0782,0 0,-1.3482279 0,0 z m -421.48977,0 7.0782,0 0,1.3482279 -7.0782,0 0,-1.3482279 0,0 z m 456.88076,5.8984973 0,8.4264249 c 0,0.674114 0,1.1797 0.16853,1.348228 0.16853,0.168529 0.33705,0.337057 0.84264,0.337057 l 0.84264,0 0,0.505586 c -1.01117,0 -1.85381,0 -2.69645,0 -0.84265,0 -1.85382,0 -2.86499,0 l 0,-0.505586 0.84264,0 c 0.50559,0 0.67412,-0.168528 0.84265,-0.337057 0.16853,-0.168528 0.16853,-0.674114 0.16853,-1.348228 l 0,-8.4264249 c 0,-0.674114 0,-1.1796994 -0.16853,-1.3482279 -0.16853,-0.1685285 -0.33706,-0.337057 -0.84265,-0.337057 l -0.84264,0 0,-0.5055855 c 1.01117,0 1.85382,0 2.86499,0 0.84264,0 1.68528,0 2.69645,0 l 0,0.5055855 -0.84264,0 c -0.50559,0 -0.67411,0.1685285 -0.84264,0.337057 -0.16853,0.1685285 -0.16853,0.6741139 -0.16853,1.3482279 l 0,0 z m -608.893468,8.4264249 0,-7.9208394 c 0,-0.674114 0,-1.348228 0,-1.8538134 l -3.033513,0 c -0.505586,0 -0.674114,0.1685285 -0.674114,0.6741139 l 0,1.5167565 -0.505586,0 c 0,-1.011171 0,-2.0223419 -0.168528,-3.0335129 1.348228,0 2.696456,0 4.044684,0 l 2.696456,0 c 1.348227,0 2.696455,0 4.044683,0 -0.168528,1.011171 -0.168528,2.0223419 -0.168528,3.0335129 l -0.505586,0 0,-1.5167565 c 0,-0.5055854 -0.168528,-0.6741139 -0.674114,-0.6741139 l -2.864984,0 c 0,0.5055854 0,1.1796994 0,1.8538134 l 0,7.9208394 c 0,0.674114 0,1.1797 0.168529,1.348228 0.168528,0.168529 0.337056,0.337057 0.842642,0.337057 l 0.842642,0 0,0.505586 c -1.011171,0 -1.853813,0 -2.696455,0 -0.842643,0 -1.853814,0 -2.864985,0 l 0,-0.505586 0.842643,0 c 0.505585,0 0.674114,-0.168528 0.842642,-0.337057 -0.168528,-0.168528 -0.168528,-0.505585 -0.168528,-1.348228 l 0,0 z m 11.796994,0 0,-8.4264249 c 0,-0.674114 0,-1.1796994 -0.168528,-1.3482279 -0.168529,-0.1685285 -0.337057,-0.337057 -0.842643,-0.337057 l -0.842642,0 0,-0.5055855 c 1.011171,0 2.19087,0 3.202041,0 1.685285,0 3.37057,0 4.381741,0 0.842643,0 1.685285,0 2.359399,0 -0.168528,0.8426425 -0.337057,1.8538134 -0.337057,2.8649844 l -0.674114,0 0,-1.1796995 c 0,-0.1685285 0,-0.5055855 -0.168528,-0.5055855 -1.011171,-0.3370569 -2.527928,-0.3370569 -3.707627,-0.3370569 -0.505586,0 -1.011171,0 -1.516757,0.1685285 l 0,5.0558553 c 0.674114,0 1.348228,0 2.190871,0 1.179699,0 1.853813,0 2.022342,-0.168529 0.168528,0 0.168528,-0.168528 0.168528,-0.505586 l 0.168529,-1.0111704 0.505585,0 c 0,0.8426424 0,1.5167564 0,2.1908704 0,0.674114 0,1.348228 0,2.022342 l -0.505585,0 -0.168529,-1.179699 c 0,-0.168529 0,-0.337057 -0.168528,-0.505586 -0.168529,-0.168528 -0.842643,-0.168528 -2.022342,-0.168528 -0.842643,0 -1.516757,0 -2.190871,0 l 0,5.224383 c 0.505586,0.168529 1.011171,0.168529 1.516757,0.168529 1.516756,0 3.539098,0 3.876155,-0.168529 0.337057,-0.168528 0.505586,-1.011171 0.674114,-2.19087 l 0.674114,0 c -0.168528,0.842642 -0.337057,2.022342 -0.337057,3.033513 -0.842642,0 -2.359399,0 -3.707627,0 -1.516756,0 -2.864984,0 -4.044684,0 -0.674114,0 -1.348228,0 -2.022342,0 l 0,-0.505586 0.674114,0 c 0.505586,0 0.674114,-0.168528 0.842643,-0.337057 0.168528,-0.168528 0.168528,-0.505585 0.168528,-1.348228 l 0,0 z M 72.410348,14.196144 70.050949,7.7920611 66.848908,16.049958 c -0.168528,0.674114 -0.505585,1.348228 -0.674114,2.022342 l -1.011171,0 C 64.995095,17.398186 64.826566,16.724072 64.658038,16.049958 L 62.467167,6.2753046 C 62.298639,5.4326622 61.961582,5.4326622 61.455996,5.2641337 l -0.505585,0 0,-0.5055855 c 0.842642,0 1.516756,0 2.359399,0 0.842642,0 1.516756,0 2.359399,0 l 0,0.5055855 -0.842643,0 c -0.505585,0 -0.842642,0.1685285 -0.674114,1.1796994 l 1.853814,8.4264249 2.359399,-5.8984974 C 68.87125,7.4550041 69.545364,5.9382477 70.050949,4.4214912 l 0.674114,0 c 0.168529,0.674114 0.505586,1.6852849 0.842643,2.3593989 L 74.43269,14.870258 76.960618,5.7697192 C 77.129146,5.2641337 76.792089,5.2641337 76.117975,5.0956052 l -0.674114,0 0,-0.5055855 c 0.674114,0 1.348228,0 2.022342,0 0.674114,0 1.348228,0 2.022342,0 l 0,0.5055855 -0.674114,0 c -0.337057,0 -0.674114,0.1685285 -0.674114,0.5055855 L 75.275333,15.712901 c -0.168529,0.505585 -0.337057,1.179699 -0.505586,1.853813 l -1.011171,0 c -0.505585,-1.011171 -0.842642,-2.19087 -1.348228,-3.37057 l 0,0 z m 23.59399,-7.0781969 0,8.4264249 c 0,0.674114 0,1.1797 0.168529,1.348228 0.168528,0.168529 0.337057,0.337057 0.842642,0.337057 l 0.842643,0 0,0.505586 c -1.011171,0 -1.853814,0 -2.696456,0 -0.842643,0 -1.853814,0 -2.864985,0 l 0,-0.505586 0.842643,0 c 0.505585,0 0.674114,-0.168528 0.842642,-0.337057 0.168529,-0.168528 0.168529,-0.674114 0.168529,-1.348228 l 0,-4.213212 c -0.168529,0 -0.674114,0 -1.516757,0 l -4.381741,0 c -0.842642,0 -1.348228,0 -1.516756,0 l 0,4.213212 c 0,0.674114 0,1.1797 0.168528,1.348228 0.168529,0.168529 0.337057,0.337057 0.842643,0.337057 l 0.842642,0 0,0.505586 c -1.011171,0 -1.853813,0 -2.696456,0 -0.842642,0 -1.853813,0 -2.864984,0 l 0,-0.505586 0.842642,0 c 0.505586,0 0.674114,-0.168528 0.842643,-0.337057 0.168528,-0.168528 0.168528,-0.674114 0.168528,-1.348228 l 0,-8.4264249 c 0,-0.674114 0,-1.1796994 -0.168528,-1.3482279 C 84.5444,5.6011907 84.375872,5.4326622 83.870286,5.4326622 l -0.842642,0 0,-0.5055855 c 1.011171,0 1.853813,0 2.864984,0 0.842643,0 1.685285,0 2.696456,0 l 0,0.5055855 -0.842642,0 c -0.505586,0 -0.674114,0.1685285 -0.842643,0.337057 -0.168528,0.1685285 -0.168528,0.6741139 -0.168528,1.3482279 l 0,3.3705709 c 0.168528,0 0.674114,0 1.516756,0 l 4.381741,0 c 0.842643,0 1.348228,0 1.516757,0 l 0,-3.3705709 c 0,-0.674114 0,-1.1796994 -0.168529,-1.3482279 -0.168528,-0.1685285 -0.337057,-0.337057 -0.842642,-0.337057 l -0.842643,0 0,-0.5055855 c 1.011171,0 1.853814,0 2.864985,0 0.842642,0 1.685285,0 2.696456,0 l 0,0.5055855 -0.842643,0 c -0.505585,0 -0.674114,0.1685285 -0.842642,0.337057 -0.168529,0.1685285 -0.168529,0.6741139 -0.168529,1.3482279 l 0,0 z m 9.606122,5.7299689 4.7188,0 -2.3594,-5.5614404 -2.3594,5.5614404 0,0 z m 3.20205,-8.0893678 4.55027,10.6172958 c 0.16852,0.337057 0.33705,0.842642 0.67411,1.348228 0.16853,0.337057 0.33706,0.674114 0.67411,0.674114 l 0.67412,0 0,0.505585 c -0.84265,0 -1.68529,0 -2.52793,0 -0.67411,0 -1.51676,0 -2.52793,0 l 0,-0.505585 0.84264,0 c 0.33706,0 0.84265,-0.168529 0.84265,-0.337057 0,-0.337057 -0.16853,-0.674114 -0.33706,-1.1797 l -0.84264,-2.19087 -5.39292,0 -0.50558,1.179699 c -0.16853,0.337057 -0.67411,1.685285 -0.67411,2.022342 0,0.337057 0.33705,0.505586 0.84264,0.505586 l 0.67411,0 0,0.505585 c -0.84264,0 -1.68528,0 -2.19087,0 -0.67411,0 -1.51676,0 -2.19087,0 l 0,-0.505585 0.67411,0 c 0.50559,0 0.84265,-0.505586 1.01118,-0.842643 l 3.37057,-7.5837824 c 0.50558,-1.348228 1.1797,-2.696456 1.68528,-4.0446839 l 0.67412,0 0,-0.1685285 z m 13.81933,1.011171 0,9.7746528 c 0,0.674114 0,1.1797 0.16853,1.348228 0.16853,0.168529 0.33706,0.337057 0.84264,0.337057 l 0.84265,0 0,0.505586 c -1.01117,0 -1.85382,0 -2.69646,0 -0.84264,0 -1.85381,0 -2.86498,0 l 0,-0.505586 0.84264,0 c 0.50558,0 0.67411,-0.168528 0.84264,-0.337057 0.16853,-0.168528 0.16853,-0.674114 0.16853,-1.348228 l 0,-8.4264249 c 0,-0.674114 0,-1.1796994 -0.16853,-1.3482279 -0.16853,-0.1685285 -0.33706,-0.1685285 -0.84264,-0.337057 l -0.84264,0 0,-0.5055855 c 1.01117,0 2.02234,0 3.20204,0 1.1797,0 2.19087,0 3.37057,0 3.03351,0 3.87615,1.5167564 3.87615,2.8649844 0,2.022342 -1.85381,3.2020419 -3.70762,3.7076269 l 4.21321,5.561441 c 0.33706,0.337057 0.67411,0.505585 1.1797,0.505585 l 0,0.505586 c -0.50559,0 -0.84264,0 -1.34823,0 -0.50559,0 -0.84264,0 -1.34823,0 -0.16853,-0.337057 -0.50558,-0.674114 -0.84264,-1.011171 l -3.5391,-4.718798 c -0.33706,-0.337057 -0.67411,-0.842643 -1.01117,-1.1797 0.67411,-0.168528 1.1797,-0.168528 1.85381,-0.337057 1.34823,-0.168528 2.52793,-1.1796994 2.52793,-2.6964559 0,-2.022342 -1.51676,-2.5279274 -3.03351,-2.5279274 -0.50559,0 -1.1797,0 -1.68529,0.1685285 l 0,0 z m 13.65081,9.7746528 0,-8.4264249 c 0,-0.674114 0,-1.1796994 -0.16853,-1.3482279 -0.16853,-0.1685285 -0.33705,-0.337057 -0.84264,-0.337057 l -0.84264,0 0,-0.5055855 c 1.01117,0 2.19087,0 3.20204,0 1.68528,0 3.37057,0 4.38174,0 0.84264,0 1.68528,0 2.3594,0 -0.16853,0.8426425 -0.33706,1.8538134 -0.33706,2.8649844 l -0.67411,0 0,-1.1796995 c 0,-0.1685285 0,-0.5055855 -0.16853,-0.5055855 -1.01117,-0.3370569 -2.52793,-0.3370569 -3.70763,-0.3370569 -0.50558,0 -1.01117,0 -1.51675,0.1685285 l 0,5.0558553 c 0.67411,0 1.34822,0 2.19087,0 1.1797,0 1.85381,0 2.02234,-0.168529 0.16853,0 0.16853,-0.168528 0.16853,-0.505586 l 0.16853,-1.0111704 0.50558,0 c 0,0.8426424 0,1.5167564 0,2.1908704 0,0.674114 0,1.348228 0,2.022342 l -0.50558,0 -0.16853,-1.179699 c 0,-0.168529 0,-0.337057 -0.16853,-0.505586 -0.16853,-0.168528 -0.84264,-0.168528 -2.02234,-0.168528 -0.84265,0 -1.51676,0 -2.19087,0 l 0,5.224383 c 0.50558,0.168529 1.01117,0.168529 1.51675,0.168529 1.51676,0 3.5391,0 3.87616,-0.168529 0.33705,-0.168528 0.50558,-1.011171 0.67411,-2.19087 l 0.67412,0 c -0.16853,0.842642 -0.33706,2.022342 -0.33706,3.033513 -0.84264,0 -2.3594,0 -3.70763,0 -1.51675,0 -2.86498,0 -4.04468,0 -0.67412,0 -1.34823,0 -2.02234,0 l 0,-0.505586 0.67411,0 c 0.50559,0 0.67411,-0.168528 0.84264,-0.337057 0.16853,-0.168528 0.16853,-0.505585 0.16853,-1.348228 l 0,0 z m 31.17777,-1.348228 -2.3594,-6.4040829 -3.20204,8.2578969 c -0.16853,0.674114 -0.50558,1.348228 -0.67411,2.022342 l -1.01117,0 c -0.16853,-0.674114 -0.33706,-1.348228 -0.50559,-2.022342 l -2.19087,-9.7746534 c -0.16853,-0.8426424 -0.50558,-0.8426424 -1.01117,-1.0111709 l -0.50558,0 0,-0.5055855 c 0.84264,0 1.51675,0 2.35939,0 0.84265,0 1.51676,0 2.3594,0 l 0,0.5055855 -0.84264,0 c -0.50558,0 -0.84264,0.1685285 -0.67411,1.1796994 l 1.85381,8.4264249 2.3594,-5.8984974 c 0.50558,-1.5167565 1.1797,-3.0335129 1.68528,-4.5502694 l 0.67412,0 c 0.16853,0.674114 0.50558,1.6852849 0.84264,2.3593989 l 2.86499,8.0893679 2.52792,-9.1005388 c 0.16853,-0.5055855 -0.16853,-0.5055855 -0.84264,-0.674114 l -0.67411,0 0,-0.5055855 c 0.67411,0 1.34822,0 2.02234,0 0.67411,0 1.34823,0 2.02234,0 l 0,0.5055855 -0.67411,0 c -0.33706,0 -0.67412,0.1685285 -0.67412,0.5055855 l -2.86498,10.1117103 c -0.16853,0.505585 -0.33706,1.179699 -0.50559,1.853813 l -1.01117,0 c -0.33706,-1.011171 -0.84264,-2.19087 -1.34823,-3.37057 l 0,0 z m 14.66199,-1.348228 4.71879,0 -2.3594,-5.5614404 -2.35939,5.5614404 0,0 z m 3.20204,-8.0893678 4.55027,10.6172958 c 0.16853,0.337057 0.33705,0.842642 0.67411,1.348228 0.16853,0.337057 0.33706,0.674114 0.67411,0.674114 l 0.67412,0 0,0.505585 c -0.84264,0 -1.68529,0 -2.52793,0 -0.67411,0 -1.51676,0 -2.52793,0 l 0,-0.505585 0.84265,0 c 0.33705,0 0.84264,-0.168529 0.84264,-0.337057 0,-0.337057 -0.16853,-0.674114 -0.33706,-1.1797 l -0.84264,-2.19087 -5.39291,0 -0.50559,1.179699 c -0.16853,0.337057 -0.67411,1.685285 -0.67411,2.022342 0,0.337057 0.33705,0.505586 0.84264,0.505586 l 0.67411,0 0,0.505585 c -0.84264,0 -1.68528,0 -2.19087,0 -0.67411,0 -1.51675,0 -2.19087,0 l 0,-0.505585 0.67412,0 c 0.50558,0 0.84264,-0.505586 1.01117,-0.842643 l 3.37057,-7.5837824 c 0.50558,-1.348228 1.1797,-2.696456 1.68528,-4.0446839 l 0.67412,0 0,-0.1685285 z m 11.96552,10.7858238 0,-8.4264249 c 0,-0.674114 0,-1.1796994 -0.16853,-1.3482279 -0.16853,-0.1685285 -0.33705,-0.1685285 -0.84264,-0.337057 l -0.84264,0 0,-0.5055855 c 0.84264,0 1.51675,0 2.19087,0 0.33705,0 0.67411,0 1.01117,0 l 8.93201,11.1228813 0,-8.7634824 c 0,-0.674114 0,-1.1796995 -0.16853,-1.3482279 -0.16853,-0.1685285 -0.33706,-0.1685285 -0.84264,-0.337057 l -0.84264,0 0,-0.5055855 c 0.67411,0 1.51675,0 2.19087,0 0.67411,0 1.34822,0 2.19087,0 l 0,0.5055855 -0.84265,0 c -0.50558,0 -0.67411,0.1685285 -0.84264,0.337057 -0.16853,0.1685284 -0.16853,0.6741139 -0.16853,1.3482279 l 0,10.4487674 c 0,0.168528 0,0.505585 0,0.674114 l -1.68528,-0.337057 -8.93201,-10.9543529 0,8.5949539 c 0,0.674114 0,1.179699 0.16853,1.348228 0.16852,0.168528 0.33705,0.168528 0.84264,0.337057 l 0.84264,0 0,0.505585 c -0.84264,0 -1.51676,0 -2.19087,0 -0.67411,0 -1.34823,0 -2.19087,0 l 0,-0.505585 0.84264,0 c 0.50559,0 0.67412,-0.168529 0.84265,-0.337057 0.50558,-0.337057 0.50558,-0.674114 0.50558,-1.516757 l 0,0 z m 20.89753,-2.696456 4.7188,0 -2.3594,-5.5614404 -2.3594,5.5614404 0,0 z m 3.20205,-8.0893678 4.55027,10.6172958 c 0.16852,0.337057 0.33705,0.842642 0.67411,1.348228 0.16853,0.337057 0.33706,0.674114 0.67411,0.674114 l 0.67412,0 0,0.505585 c -0.84265,0 -1.68529,0 -2.52793,0 -0.67411,0 -1.51676,0 -2.52793,0 l 0,-0.505585 0.84264,0 c 0.33706,0 0.84265,-0.168529 0.84265,-0.337057 0,-0.337057 -0.16853,-0.674114 -0.33706,-1.1797 l -0.84264,-2.19087 -5.39291,0 -0.50559,1.179699 c -0.16853,0.337057 -0.67411,1.685285 -0.67411,2.022342 0,0.337057 0.33705,0.505586 0.84264,0.505586 l 0.67411,0 0,0.505585 c -0.84264,0 -1.68528,0 -2.19087,0 -0.67411,0 -1.51675,0 -2.19087,0 l 0,-0.505585 0.67412,0 c 0.50558,0 0.84264,-0.505586 1.01117,-0.842643 l 3.37057,-7.5837824 c 0.50558,-1.348228 1.1797,-2.696456 1.68528,-4.0446839 l 0.67412,0 0,-0.1685285 z m 11.96552,10.7858238 0,-8.4264249 c 0,-0.674114 0,-1.1796994 -0.16853,-1.3482279 -0.16853,-0.1685285 -0.33706,-0.1685285 -0.84264,-0.337057 l -0.84264,0 0,-0.5055855 c 0.84264,0 1.51675,0 2.19087,0 0.33705,0 0.67411,0 1.01117,0 l 8.93201,11.1228813 0,-8.7634824 c 0,-0.674114 0,-1.1796995 -0.16853,-1.3482279 -0.16853,-0.1685285 -0.33706,-0.1685285 -0.84264,-0.337057 l -0.84265,0 0,-0.5055855 c 0.67412,0 1.51676,0 2.19087,0 0.67412,0 1.34823,0 2.19087,0 l 0,0.5055855 -0.84264,0 c -0.50558,0 -0.67411,0.1685285 -0.84264,0.337057 -0.16853,0.1685284 -0.16853,0.6741139 -0.16853,1.3482279 l 0,10.4487674 c 0,0.168528 0,0.505585 0,0.674114 l -1.68528,-0.337057 -8.93201,-10.9543529 0,8.5949539 c 0,0.674114 0,1.179699 0.16852,1.348228 0.16853,0.168528 0.33706,0.168528 0.84265,0.337057 l 0.84264,0 0,0.505585 c -0.84264,0 -1.51676,0 -2.19087,0 -0.67411,0 -1.34823,0 -2.19087,0 l 0,-0.505585 0.84264,0 c 0.50559,0 0.67412,-0.168529 0.84264,-0.337057 0.50559,-0.337057 0.50559,-0.674114 0.50559,-1.516757 l 0,0 z m 27.63867,0.505586 0,-1.853814 c 0,-0.505585 -0.16853,-0.674114 -0.67411,-0.674114 l -1.51676,-0.168528 0,-0.505586 c 0.84264,0 1.51676,0 2.3594,0 0.84264,0 1.51676,0 2.3594,0 l 0,0.505586 -0.50559,0.168528 c -0.16852,0 -0.16852,0.168529 -0.16852,0.674114 l 0,3.202042 c -1.68529,0.505585 -3.70763,1.011171 -4.88733,1.011171 -4.21321,0 -7.58378,-2.190871 -7.58378,-6.909669 0,-4.2132124 3.37057,-6.7411398 7.92084,-6.7411398 2.3594,0 3.87615,0.5055855 4.71879,0.8426425 -0.16852,0.8426424 -0.33705,1.8538134 -0.33705,2.8649844 l -0.50559,0 0,-1.011171 c 0,-0.8426425 -0.67411,-1.1796995 -1.51675,-1.5167564 -0.67412,-0.1685285 -1.34823,-0.337057 -2.69646,-0.337057 -3.5391,0 -5.39291,2.3593989 -5.39291,5.7299693 0,3.707627 2.19087,6.404083 6.06702,6.404083 1.51676,0 2.52793,-0.337057 2.69646,-0.674114 -0.33706,-0.505586 -0.33706,-0.505586 -0.33706,-1.011171 l 0,0 z m 10.44877,-3.202042 4.7188,0 -2.3594,-5.5614404 -2.3594,5.5614404 0,0 z m 3.20204,-8.0893678 4.55027,10.6172958 c 0.16853,0.337057 0.33706,0.842642 0.67411,1.348228 0.16853,0.337057 0.33706,0.674114 0.67412,0.674114 l 0.67411,0 0,0.505585 c -0.84264,0 -1.68528,0 -2.52792,0 -0.67412,0 -1.51676,0 -2.52793,0 l 0,-0.505585 0.84264,0 c 0.33706,0 0.84264,-0.168529 0.84264,-0.337057 0,-0.337057 -0.16853,-0.674114 -0.33705,-1.1797 l -0.84265,-2.19087 -5.39291,0 -0.50558,1.179699 c -0.16853,0.337057 -0.67412,1.685285 -0.67412,2.022342 0,0.337057 0.33706,0.505586 0.84264,0.505586 l 0.67412,0 0,0.505585 c -0.84264,0 -1.68529,0 -2.19087,0 -0.67412,0 -1.51676,0 -2.19087,0 l 0,-0.505585 0.67411,0 c 0.50559,0 0.84264,-0.505586 1.01117,-0.842643 l 3.37057,-7.5837824 c 0.50559,-1.348228 1.1797,-2.696456 1.68529,-4.0446839 l 0.67411,0 0,-0.1685285 z m 23.59399,0.5055855 c -3.20204,0 -4.7188,2.3593989 -4.7188,5.3929123 0,3.37057 1.51676,6.74114 5.22439,6.74114 3.20204,0 4.71879,-2.527928 4.71879,-5.898498 0,-3.7076269 -1.68528,-6.2355543 -5.22438,-6.2355543 l 0,0 z m -0.16853,12.9766943 c -3.87615,0 -6.74114,-2.696456 -6.74114,-6.909668 0,-3.8761559 2.69646,-6.9096688 7.0782,-6.9096688 4.04468,0 6.90967,2.1908704 6.90967,6.4040828 0.16853,4.213213 -3.03352,7.415254 -7.24673,7.415254 l 0,0 z m 23.08841,-2.696456 0,-7.9208394 c 0,-0.674114 0,-1.348228 0,-1.8538134 l -2.86499,0 c -0.50558,0 -0.67411,0.1685285 -0.67411,0.6741139 l 0,1.5167565 -0.50559,0 c 0,-1.011171 0,-2.0223419 -0.16853,-3.0335129 1.34823,0 2.69646,0 4.04469,0 l 2.69645,0 c 1.34823,0 2.69646,0 4.04469,0 -0.16853,1.011171 -0.16853,2.0223419 -0.16853,3.0335129 l -0.50559,0 0,-1.5167565 c 0,-0.5055854 -0.16852,-0.6741139 -0.67411,-0.6741139 l -3.37057,0 c 0,0.5055854 0,1.1796994 0,1.8538134 l 0,7.9208394 c 0,0.674114 0,1.1797 0.16853,1.348228 0.16853,0.168529 0.33706,0.337057 0.84264,0.337057 l 0.84264,0 0,0.505586 c -1.01117,0 -1.85381,0 -2.69645,0 -0.84265,0 -1.85382,0 -2.86499,0 l 0,-0.505586 0.84265,0 c 0.50558,0 0.67411,-0.168528 0.84264,-0.337057 0.16853,-0.168528 0.16853,-0.505585 0.16853,-1.348228 l 0,0 z m 11.79699,0 0,-8.4264249 c 0,-0.674114 0,-1.1796994 -0.16853,-1.3482279 -0.16853,-0.1685285 -0.33705,-0.337057 -0.84264,-0.337057 l -0.84264,0 0,-0.5055855 c 1.01117,0 2.19087,0 3.20204,0 1.68528,0 3.37057,0 4.38174,0 0.84264,0 1.68529,0 2.3594,0 -0.16853,0.8426425 -0.33706,1.8538134 -0.33706,2.8649844 l -0.67411,0 0,-1.1796995 c 0,-0.1685285 0,-0.5055855 -0.16853,-0.5055855 -1.01117,-0.3370569 -2.52793,-0.3370569 -3.70763,-0.3370569 -0.50558,0 -1.01117,0 -1.51675,0.1685285 l 0,5.0558553 c 0.67411,0 1.34822,0 2.19087,0 1.1797,0 1.85381,0 2.02234,-0.168529 0.16853,0 0.16853,-0.168528 0.16853,-0.505586 l 0.16853,-1.0111704 0.50558,0 c 0,0.8426424 0,1.5167564 0,2.1908704 0,0.674114 0,1.348228 0,2.022342 l -0.50558,0 -0.16853,-1.179699 c 0,-0.168529 0,-0.337057 -0.16853,-0.505586 -0.16853,-0.168528 -0.84264,-0.168528 -2.02234,-0.168528 -0.84265,0 -1.51676,0 -2.19087,0 l 0,5.224383 c 0.50558,0.168529 1.01117,0.168529 1.51675,0.168529 1.51676,0 3.5391,0 3.87616,-0.168529 0.33706,-0.168528 0.50558,-1.011171 0.67411,-2.19087 l 0.67412,0 c -0.16853,0.842642 -0.33706,2.022342 -0.33706,3.033513 -0.84264,0 -2.3594,0 -3.70763,0 -1.51675,0 -2.86498,0 -4.04468,0 -0.67412,0 -1.34823,0 -2.02234,0 l 0,-0.505586 0.67411,0 c 0.50559,0 0.67411,-0.168528 0.84264,-0.337057 0.16853,-0.168528 0.16853,-0.505585 0.16853,-1.348228 l 0,0 z m 21.74018,-1.685285 0,-6.7411399 c 0,-0.674114 0,-1.1796994 -0.16853,-1.3482279 -0.16853,-0.1685285 -0.33706,-0.337057 -0.84264,-0.337057 l -0.84265,0 0,-0.5055855 c 1.01118,0 1.85382,0 2.86499,0 0.84264,0 1.68528,0 2.69645,0 l 0,0.5055855 -0.84264,0 c -0.50558,0 -0.67411,0.1685285 -0.84264,0.337057 -0.16853,0.1685285 -0.16853,0.6741139 -0.16853,1.3482279 l 0,6.4040829 c 0,2.696456 1.34823,3.37057 3.87616,3.37057 2.02234,0 3.87615,-0.842642 3.87615,-3.876155 l 0,-6.0670264 c 0,-0.674114 0,-1.1796994 -0.16853,-1.3482279 -0.16853,-0.1685285 -0.33705,-0.1685285 -0.84264,-0.337057 l -0.84264,0 0,-0.5055855 c 0.67411,0 1.51675,0 2.19087,0 0.67411,0 1.34823,0 2.19087,0 l 0,0.5055855 -0.84264,0 c -0.50559,0 -0.67412,0.1685285 -0.84265,0.337057 -0.16852,0.1685285 -0.16852,0.6741139 -0.16852,1.3482279 l 0,5.3929124 c 0,4.044684 -1.51676,5.729969 -5.39292,5.729969 -3.03351,0.168528 -4.88732,-0.842643 -4.88732,-4.213213 l 0,0 z m 19.5493,-8.0893678 0,9.7746528 c 0,0.674114 0,1.1797 0.16853,1.348228 0.16853,0.168529 0.33706,0.337057 0.84264,0.337057 l 0.84265,0 0,0.505586 c -1.01117,0 -1.85382,0 -2.69646,0 -0.84264,0 -1.85381,0 -2.86498,0 l 0,-0.505586 0.84264,0 c 0.50558,0 0.67411,-0.168528 0.84264,-0.337057 0.16853,-0.168528 0.16853,-0.674114 0.16853,-1.348228 l 0,-8.4264249 c 0,-0.674114 0,-1.1796994 -0.16853,-1.3482279 -0.16853,-0.1685285 -0.33706,-0.337057 -0.84264,-0.337057 l -0.84264,0 0,-0.5055855 c 1.1797,0 2.3594,0 3.37057,0 1.01117,0 2.19087,0 3.20204,0 1.85381,0 3.87615,0.674114 3.87615,2.8649844 0,2.3593989 -2.02234,4.0446839 -4.55027,4.0446839 -0.33705,0 -0.67411,0 -1.1797,-0.168528 l -0.16852,-0.674114 c 0.33705,0.168528 0.84264,0.168528 1.1797,0.168528 1.51675,0 2.69645,-1.1796997 2.69645,-2.8649844 0,-2.022342 -1.1797,-2.8649844 -3.03351,-2.8649844 -0.67412,0.1685285 -1.1797,0.1685285 -1.68529,0.337057 l 0,0 z m 17.35844,-0.5055855 c -3.20204,0 -4.7188,2.3593989 -4.7188,5.3929123 0,3.37057 1.51676,6.74114 5.22438,6.74114 3.20205,0 4.7188,-2.527928 4.7188,-5.898498 -0.16853,-3.7076269 -1.85381,-6.2355543 -5.22438,-6.2355543 l 0,0 z M 391.4348,18.240828 c -3.87616,0 -6.74114,-2.696456 -6.74114,-6.909668 0,-3.8761559 2.69646,-6.9096688 7.0782,-6.9096688 4.04468,0 6.90967,2.1908704 6.90967,6.4040828 0,4.213213 -3.03352,7.415254 -7.24673,7.415254 l 0,0 z m 14.66198,-6.572611 0,3.876155 c 0,0.674114 0,1.1797 0.16853,1.348228 0.16853,0.168529 0.33705,0.337057 0.84264,0.337057 l 0.84264,0 0,0.505586 c -1.01117,0 -1.85381,0 -2.69645,0 -0.84265,0 -1.85382,0 -2.86499,0 l 0,-0.505586 0.84264,0 c 0.50559,0 0.67412,-0.168528 0.84265,-0.337057 0.16853,-0.168528 0.16853,-0.674114 0.16853,-1.348228 l 0,-8.4264249 c 0,-0.674114 0,-1.1796994 -0.16853,-1.3482279 -0.16853,-0.1685285 -0.33706,-0.337057 -0.84265,-0.337057 l -0.84264,0 0,-0.5055855 c 1.01117,0 1.85382,0 2.86499,0 0.84264,0 1.68528,0 2.69645,0 l 0,0.5055855 -0.84264,0 c -0.50559,0 -0.67411,0.1685285 -0.84264,0.337057 -0.16853,0.1685285 -0.16853,0.6741139 -0.16853,1.3482279 l 0,4.0446839 5.22438,-5.0558549 c 0.33706,-0.3370569 0.50559,-0.6741139 0.50559,-0.6741139 l 0,-0.5055855 c 0.67411,0 1.1797,0 1.68528,0 0.50559,0 1.01117,0 1.51676,0 l 0,0.5055855 -0.84264,0 c -0.50559,0 -1.01117,0.337057 -1.51676,0.6741139 l -5.05585,4.5502699 6.23555,5.898497 c 0.50559,0.505586 0.84264,0.674114 1.1797,0.842643 l 0.33706,0 0,0.505585 c -0.33706,0 -0.84265,0 -1.1797,0 -0.50559,0 -0.84265,0 -1.51676,0 l -6.57261,-6.235554 0,0 0,0 z m 19.71783,-6.4040833 c -3.20204,0 -4.71879,2.3593989 -4.71879,5.3929123 0,3.37057 1.51675,6.74114 5.22438,6.74114 3.20204,0 4.7188,-2.527928 4.7188,-5.898498 -0.16853,-3.7076269 -1.85382,-6.2355543 -5.22439,-6.2355543 l 0,0 z m -0.16852,12.9766943 c -3.87616,0 -6.74114,-2.696456 -6.74114,-6.909668 0,-3.8761559 2.69645,-6.9096688 7.07819,-6.9096688 4.04469,0 6.90967,2.1908704 6.90967,6.4040828 0,4.213213 -3.03351,7.415254 -7.24672,7.415254 l 0,0 z M 450.92536,5.2641337 c -3.20204,0 -4.7188,2.3593989 -4.7188,5.3929123 0,3.37057 1.51676,6.74114 5.22439,6.74114 3.20204,0 4.71879,-2.527928 4.71879,-5.898498 0,-3.7076269 -1.68528,-6.2355543 -5.22438,-6.2355543 l 0,0 z m 0,12.9766943 c -3.87616,0 -6.74114,-2.696456 -6.74114,-6.909668 0,-3.8761559 2.69646,-6.9096688 7.0782,-6.9096688 4.04468,0 6.90967,2.1908704 6.90967,6.4040828 0,4.213213 -3.20205,7.415254 -7.24673,7.415254 l 0,0 z m 22.91988,-2.696456 0,-7.9208394 c 0,-0.674114 0,-1.348228 0,-1.8538134 l -2.86499,0 c -0.50558,0 -0.67411,0.1685285 -0.67411,0.6741139 l 0,1.5167565 -0.50559,0 c 0,-1.011171 0,-2.0223419 -0.16853,-3.0335129 1.34823,0 2.69646,0 4.04469,0 l 2.69645,0 c 1.34823,0 2.69646,0 4.04469,0 -0.16853,1.011171 -0.16853,2.0223419 -0.16853,3.0335129 l -0.50559,0 0,-1.5167565 c 0,-0.5055854 -0.16853,-0.6741139 -0.67411,-0.6741139 l -2.86499,0 c 0,0.5055854 0,1.1796994 0,1.8538134 l 0,7.9208394 c 0,0.674114 0,1.1797 0.16853,1.348228 0.16853,0.168529 0.33706,0.337057 0.84265,0.337057 l 0.84264,0 0,0.505586 c -1.01117,0 -1.85382,0 -2.69646,0 -0.84264,0 -1.85381,0 -2.86498,0 l 0,-0.505586 0.84264,0 c 0.50559,0 0.67411,-0.168528 0.84264,-0.337057 -0.33705,-0.168528 -0.33705,-0.505585 -0.33705,-1.348228 l 0,0 z m 11.79699,0 0,-8.4264249 c 0,-0.674114 0,-1.1796994 -0.16853,-1.3482279 -0.16853,-0.1685285 -0.33706,-0.337057 -0.84264,-0.337057 l -0.84264,0 0,-0.5055855 c 1.01117,0 2.19087,0 3.20204,0 1.68528,0 3.37057,0 4.38174,0 0.84264,0 1.68528,0 2.3594,0 -0.16853,0.8426425 -0.33706,1.8538134 -0.33706,2.8649844 l -0.67411,0 0,-1.1796995 c 0,-0.1685285 0,-0.5055855 -0.16853,-0.5055855 -1.01117,-0.3370569 -2.52793,-0.3370569 -3.70763,-0.3370569 -0.50558,0 -1.01117,0 -1.51675,0.1685285 l 0,5.0558553 c 0.67411,0 1.34822,0 2.19087,0 1.1797,0 1.85381,0 2.02234,-0.168529 0.16853,0 0.16853,-0.168528 0.16853,-0.505586 l 0.16852,-1.0111704 0.50559,0 c 0,0.8426424 0,1.5167564 0,2.1908704 0,0.674114 0,1.348228 0,2.022342 l -0.50559,0 -0.16852,-1.179699 c 0,-0.168529 0,-0.337057 -0.16853,-0.505586 -0.16853,-0.168528 -0.84264,-0.168528 -2.02234,-0.168528 -0.84265,0 -1.51676,0 -2.19087,0 l 0,5.224383 c 0.50558,0.168529 1.01117,0.168529 1.51675,0.168529 1.51676,0 3.5391,0 3.87616,-0.168529 0.33705,-0.168528 0.50558,-1.011171 0.67411,-2.19087 l 0.67412,0 c -0.16853,0.842642 -0.33706,2.022342 -0.33706,3.033513 -0.84264,0 -2.3594,0 -3.70763,0 -1.51676,0 -2.86498,0 -4.04468,0 -0.67412,0 -1.34823,0 -2.02234,0 l 0,-0.505586 0.67411,0 c 0.50558,0 0.67411,-0.168528 0.84264,-0.337057 0.16853,-0.168528 0.16853,-0.505585 0.16853,-1.348228 l 0,0 z m 23.76252,-8.4264249 0,8.4264249 c 0,0.674114 0,1.1797 0.16853,1.348228 0.16853,0.168529 0.33705,0.337057 0.84264,0.337057 l 0.84264,0 0,0.505586 c -1.01117,0 -1.85381,0 -2.69645,0 -0.84265,0 -1.85382,0 -2.86499,0 l 0,-0.505586 0.84264,0 c 0.50559,0 0.67412,-0.168528 0.84265,-0.337057 0.16852,-0.168528 0.16852,-0.674114 0.16852,-1.348228 l 0,-8.4264249 c 0,-0.674114 0,-1.1796994 -0.16852,-1.3482279 -0.16853,-0.1685285 -0.33706,-0.337057 -0.84265,-0.337057 l -0.84264,0 0,-0.5055855 c 1.01117,0 1.85381,0 2.86499,0 0.84264,0 1.68528,0 2.69645,0 l 0,0.5055855 -0.84264,0 c -0.50559,0 -0.67411,0.1685285 -0.84264,0.337057 -0.16853,0.1685285 -0.16853,0.6741139 -0.16853,1.3482279 l 0,0 z m 9.26907,4.5502699 0,3.876155 c 0,0.674114 0,1.1797 0.16852,1.348228 0.16853,0.168529 0.33706,0.337057 0.84265,0.337057 l 0.84264,0 0,0.505586 c -1.01117,0 -1.85381,0 -2.69646,0 -0.84264,0 -1.85381,0 -2.86498,0 l 0,-0.505586 0.84264,0 c 0.50559,0 0.67412,-0.168528 0.84264,-0.337057 C 516.82,16.724072 516.82,16.218486 516.82,15.544372 l 0,-8.4264249 c 0,-0.674114 0,-1.1796994 -0.16853,-1.3482279 -0.16852,-0.1685285 -0.33705,-0.337057 -0.84264,-0.337057 l -0.84264,0 0,-0.5055855 c 1.01117,0 1.85381,0 2.86498,0 0.84265,0 1.68529,0 2.69646,0 l 0,0.5055855 -0.84264,0 c -0.50559,0 -0.67412,0.1685285 -0.84265,0.337057 -0.16852,0.1685285 -0.16852,0.6741139 -0.16852,1.3482279 l 0,4.0446839 5.22438,-5.0558549 c 0.33706,-0.3370569 0.50558,-0.6741139 0.50558,-0.6741139 l 0,-0.5055855 c 0.67412,0 1.1797,0 1.68529,0 0.50559,0 1.01117,0 1.51676,0 l 0,0.5055855 -0.84265,0 c -0.50558,0 -1.01117,0.337057 -1.51675,0.6741139 l -5.05586,4.5502699 6.23556,5.898497 c 0.50558,0.505586 0.84264,0.674114 1.1797,0.842643 l 0.33705,0 0,0.505585 c -0.33705,0 -0.84264,0 -1.1797,0 -0.50558,0 -0.84264,0 -1.51675,0 l -6.57261,-6.235554 0,0 0,0 z m 17.02137,1.179699 4.7188,0 -2.3594,-5.5614404 -2.3594,5.5614404 0,0 z m 3.03352,-8.0893678 4.55027,10.6172958 c 0.16852,0.337057 0.33705,0.842642 0.67411,1.348228 0.16853,0.337057 0.33706,0.674114 0.67411,0.674114 l 0.67412,0 0,0.505585 c -0.84264,0 -1.68529,0 -2.52793,0 -0.67411,0 -1.51676,0 -2.52793,0 l 0,-0.505585 0.84265,0 c 0.33705,0 0.84264,-0.168529 0.84264,-0.337057 0,-0.337057 -0.16853,-0.674114 -0.33706,-1.1797 l -0.84264,-2.19087 -5.39291,0 -0.50559,1.179699 c -0.16853,0.337057 -0.67411,1.685285 -0.67411,2.022342 0,0.337057 0.33705,0.505586 0.84264,0.505586 l 0.67411,0 0,0.505585 c -0.84264,0 -1.68528,0 -2.19087,0 -0.67411,0 -1.51675,0 -2.19087,0 l 0,-0.505585 0.67412,0 c 0.50558,0 0.84264,-0.505586 1.01117,-0.842643 l 3.37057,-7.5837824 c 0.50558,-1.348228 1.1797,-2.696456 1.68528,-4.0446839 l 0.67412,0 0,-0.1685285 z m 20.22342,8.0893678 4.71879,0 -2.35939,-5.5614404 -2.3594,5.5614404 0,0 z m 3.20204,-8.0893678 4.55027,10.6172958 c 0.16853,0.337057 0.33705,0.842642 0.67411,1.348228 0.16853,0.337057 0.33706,0.674114 0.67412,0.674114 l 0.67411,0 0,0.505585 c -0.84264,0 -1.68529,0 -2.52793,0 -0.67411,0 -1.51675,0 -2.52793,0 l 0,-0.505585 0.84265,0 c 0.33705,0 0.84264,-0.168529 0.84264,-0.337057 0,-0.337057 -0.16853,-0.674114 -0.33706,-1.1797 l -0.84264,-2.19087 -5.39291,0 -0.50559,1.179699 c -0.16853,0.337057 -0.67411,1.685285 -0.67411,2.022342 0,0.337057 0.33706,0.505586 0.84264,0.505586 l 0.67412,0 0,0.505585 c -0.84265,0 -1.68529,0 -2.19088,0 -0.67411,0 -1.51675,0 -2.19087,0 l 0,-0.505585 0.67412,0 c 0.50558,0 0.84264,-0.505586 1.01117,-0.842643 l 3.37057,-7.5837824 c 0.50558,-1.348228 1.1797,-2.696456 1.68528,-4.0446839 l 0.67412,0 0,-0.1685285 z m 31.85188,2.3593989 0,8.4264249 c 0,0.674114 0,1.1797 0.16853,1.348228 0.16853,0.168529 0.33706,0.337057 0.84265,0.337057 l 0.84264,0 0,0.505586 c -1.01117,0 -1.85382,0 -2.69646,0 -0.84264,0 -1.85381,0 -2.52793,0 l 0,-0.505586 0.67412,0 c 0.50558,0 0.67411,-0.168528 0.84264,-0.337057 0.16853,-0.168528 0.16853,-0.674114 0.16853,-1.348228 l 0,-8.5949534 c -0.33706,0.5055855 -0.50559,1.011171 -0.84264,1.5167565 l -3.37057,7.0781969 c -0.33706,0.842643 -0.67412,1.516757 -1.01117,2.359399 l -0.33706,0 -5.22438,-11.1228809 0,8.5949539 c 0,0.674114 0,1.179699 0.16852,1.348228 0.16853,0.168528 0.33706,0.168528 0.84265,0.337057 l 0.84264,0 0,0.505585 c -0.84264,0 -1.51676,0 -2.19087,0 -0.67412,0 -1.34823,0 -2.19087,0 l 0,-0.505585 0.84264,0 c 0.50559,0 0.67411,-0.168529 0.84264,-0.337057 0.16853,-0.168529 0.16853,-0.674114 0.16853,-1.348228 l 0,-8.4264254 c 0,-0.674114 0,-1.1796994 -0.16853,-1.3482279 -0.16853,-0.1685285 -0.33705,-0.1685285 -0.84264,-0.337057 l -0.84264,0 0,-0.5055855 c 0.50558,0 1.1797,0 1.85381,0 0.67412,0 1.1797,0 1.85381,0 l 5.05586,10.4487668 4.88733,-10.4487668 c 0.67411,0 1.1797,0 1.85381,0 0.67411,0 1.1797,0 1.68528,0 l 0,0.5055855 -0.84264,0 c -0.50558,0 -0.67411,0.1685285 -0.84264,0.337057 -0.33706,0.337057 -0.50559,0.8426424 -0.50559,1.5167564 l 0,0 z m 9.77466,5.7299689 4.7188,0 -2.3594,-5.5614404 -2.3594,5.5614404 0,0 z m 3.03351,-8.0893678 4.55027,10.6172958 c 0.16853,0.337057 0.33706,0.842642 0.67411,1.348228 0.16853,0.337057 0.33706,0.674114 0.67412,0.674114 l 0.67411,0 0,0.505585 c -0.84264,0 -1.68528,0 -2.52793,0 -0.67411,0 -1.51675,0 -2.52792,0 l 0,-0.505585 0.84264,0 c 0.33706,0 0.84264,-0.168529 0.84264,-0.337057 0,-0.337057 -0.16853,-0.674114 -0.33706,-1.1797 l -0.84264,-2.19087 -5.39291,0 -0.50559,1.179699 c -0.16852,0.337057 -0.67411,1.685285 -0.67411,2.022342 0,0.337057 0.33706,0.505586 0.84264,0.505586 l 0.67412,0 0,0.505585 c -0.84265,0 -1.68529,0 -2.19087,0 -0.67412,0 -1.51676,0 -2.19087,0 l 0,-0.505585 0.67411,0 c 0.50559,0 0.84264,-0.505586 1.01117,-0.842643 l 3.37057,-7.5837824 c 0.50559,-1.348228 1.1797,-2.696456 1.68529,-4.0446839 l 0.67411,0 0,-0.1685285 z m 11.96552,9.1005388 0,-6.7411399 c 0,-0.674114 0,-1.1796994 -0.16853,-1.3482279 -0.16852,-0.1685285 -0.33705,-0.337057 -0.84264,-0.337057 l -0.84264,0 0,-0.5055855 c 1.01117,0 1.85381,0 2.86498,0 0.84265,0 1.68529,0 2.69646,0 l 0,0.5055855 -0.84264,0 c -0.50559,0 -0.67412,0.1685285 -0.84264,0.337057 -0.16853,0.1685285 -0.16853,0.6741139 -0.16853,1.3482279 l 0,6.4040829 c 0,2.696456 1.34822,3.37057 3.87615,3.37057 2.02234,0 3.87616,-0.842642 3.87616,-3.876155 l 0,-6.0670264 c 0,-0.674114 0,-1.1796994 -0.16853,-1.3482279 -0.16853,-0.1685285 -0.33706,-0.1685285 -0.84264,-0.337057 l -0.84265,0 0,-0.5055855 c 0.67412,0 1.51676,0 2.19087,0 0.67412,0 1.34823,0 2.19088,0 l 0,0.5055855 -0.84265,0 c -0.50558,0 -0.67411,0.1685285 -0.84264,0.337057 -0.16853,0.1685285 -0.16853,0.6741139 -0.16853,1.3482279 l 0,5.3929124 c 0,4.044684 -1.51675,5.729969 -5.39291,5.729969 -3.03351,0.168528 -4.88733,-0.842643 -4.88733,-4.213213 l 0,0 z M 356.5494,1.2194498 l 7.0782,0 0,1.3482279 -7.0782,0 0,-1.3482279 0,0 z m 255.99479,43.1432952 -6.57261,16.85285 13.48228,0 -6.90967,-16.85285 0,0 z m 8.42642,20.729006 -16.68432,0 -2.86498,7.415253 c -1.01117,2.527928 0.33706,3.707627 1.51675,3.707627 l 3.37057,0.168529 0,2.527927 c -3.20204,0 -5.56144,-0.168528 -7.58378,-0.168528 -2.02234,0 -4.38174,0.168528 -7.58378,0.168528 l 0,-2.527927 2.02234,-0.168529 c 1.68529,-0.168528 2.86499,-2.022342 3.70763,-4.044684 l 11.96552,-29.15543 1.68529,-4.550269 1.01117,-2.696456 1.01117,-2.696456 4.7188,0 17.1899,40.109782 c 0.67412,1.685285 1.51676,2.696456 3.70763,2.864985 l 1.51676,0.168528 0,2.527928 c -4.38174,0 -7.75231,-0.168529 -10.28024,-0.168529 -2.52793,0 -5.8985,0.168529 -10.28024,0.168529 l 0,-2.527928 3.5391,-0.168528 c 1.01117,0 1.85381,-1.516757 1.01117,-3.707627 l -2.69646,-7.246725 0,0 z m -326.77675,-22.919876 10.44876,25.616332 9.4376,-23.425462 c 1.1797,-2.864984 2.02234,-5.392912 2.02234,-6.572611 0,-1.1797 -1.1797,-1.685285 -2.52793,-1.853814 l -3.03351,-0.168528 0,-2.527927 c 3.20204,0 5.72997,0.168528 7.75231,0.168528 1.85382,0 4.38174,-0.168528 7.58378,-0.168528 l 0,2.527927 -2.19087,0.168528 c -1.51675,0.168529 -2.3594,1.1797 -3.20204,3.202042 l -13.81933,33.031585 c -1.01118,2.190871 -1.68529,4.381741 -2.52793,6.572612 l -5.05586,0 -15.84168,-37.918912 c -0.84264,-1.853814 -1.85381,-4.55027 -4.04468,-4.718798 l -2.69646,-0.168529 0,-2.527927 c 4.38175,0 7.75232,0.168529 10.28024,0.168529 2.52793,0 5.8985,-0.168529 10.95436,-0.168529 l 0,2.527927 -3.37057,0.168529 c -1.01118,0 -1.68529,0.674114 -1.68529,1.179699 0.16853,1.516757 0.84264,3.37057 1.51676,4.887327 l 0,0 z m 53.59206,0.505585 0,27.133089 c 0,2.864984 0,4.550269 0.50558,5.392911 0.33706,0.505586 1.01118,0.842643 2.69646,1.011171 l 2.52793,0.168529 0,2.696456 c -2.69646,0 -6.40408,-0.168529 -10.28024,-0.168529 -4.04468,0 -7.58378,0.168529 -10.28024,0.168529 l 0,-2.696456 2.52793,-0.168529 c 1.68528,-0.168528 2.52793,-0.337057 2.69645,-1.011171 0.33706,-0.842642 0.50559,-2.527927 0.50559,-5.392911 l 0,-27.133089 c 0,-2.864984 0,-4.550269 -0.50559,-5.392912 -0.33705,-0.505585 -1.01117,-0.842642 -2.69645,-1.011171 l -2.52793,-0.168528 0,-2.696456 c 2.69646,0 6.40408,0.168529 10.28024,0.168529 3.87616,0 7.58378,-0.168529 10.28024,-0.168529 l 0,2.696456 -2.52793,0.168528 c -1.68528,0.168529 -2.52793,0.337057 -2.69646,1.011171 -0.33705,0.842643 -0.50558,2.527928 -0.50558,5.392912 l 0,0 z m 55.44587,30.166601 -1.51675,3.202042 c -4.55027,2.864984 -9.94318,3.707627 -15.33609,3.707627 -15.16757,0 -26.29045,-8.426425 -26.29045,-24.436632 0,-15.336094 12.47111,-22.919876 26.6275,-22.919876 5.39291,0 9.94318,0.505586 16.34727,3.202041 l 0.33705,0.674114 c -0.67411,2.359399 -1.1797,7.246726 -1.51675,10.11171 l -2.69646,0 -0.33706,-5.729969 c -3.20204,-3.37057 -7.41525,-4.550269 -11.96552,-4.550269 -10.95435,0 -16.85285,7.920839 -16.85285,18.369606 0,12.134052 7.0782,20.897534 19.54931,20.897534 3.87615,0 9.26906,-1.348228 12.63963,-3.37057 l 1.01117,0.842642 0,0 z m 32.18895,-35.222456 0,32.188944 c 0,2.864984 0,4.550269 0.50558,5.392911 0.33706,0.505586 1.01117,0.842643 2.69646,1.011171 l 2.52793,0.168529 0,2.696456 c -2.69646,0 -6.40409,-0.168529 -10.28024,-0.168529 -4.04469,0 -7.58378,0.168529 -10.28024,0.168529 l 0,-2.696456 2.52793,-0.168529 c 1.68528,-0.168528 2.52793,-0.337057 2.69645,-1.011171 0.33706,-0.842642 0.50559,-2.527927 0.50559,-5.392911 l 0,-32.188944 -7.75231,0 c -1.85382,0 -3.70763,0 -4.04469,0.674114 -0.33705,0.337057 -0.50558,0.842643 -0.67411,1.516757 l -0.33706,4.550269 -2.86498,0 c -0.16853,-4.381741 -0.33706,-7.415254 -0.84264,-10.617295 l 0.33705,-0.337057 c 6.90967,0 13.81934,0.168529 20.56048,0.168529 6.74114,0 13.65081,-0.168529 20.72901,-0.168529 l 0.33705,0.337057 c -0.50558,3.202041 -0.67411,6.235554 -0.84264,10.617295 l -2.69646,0 -0.33705,-4.550269 c 0,-0.674114 -0.33706,-1.1797 -0.67412,-1.516757 -0.50558,-0.674114 -2.3594,-0.674114 -4.04468,-0.674114 l -7.75231,0 0,0 z m 46.51386,-1.348228 c -12.30258,0 -15.33609,9.269068 -15.33609,19.212249 0,10.954353 4.55027,20.729005 13.98787,20.729005 12.30258,0 15.33609,-9.100538 15.33609,-19.212248 -0.16853,-10.954353 -4.7188,-20.729006 -13.98787,-20.729006 l 0,0 z m 0,-3.707626 c 14.83051,0 23.93105,8.089367 23.93105,23.256932 0,15.67315 -10.11171,24.099575 -25.27927,24.099575 -14.83051,0 -23.93105,-8.089368 -23.93105,-23.256932 0,-15.841679 9.94318,-24.099575 25.27927,-24.099575 l 0,0 z m 35.72804,37.076269 0,-27.133088 c 0,-2.864985 0,-4.55027 -0.50558,-5.392912 -0.33706,-0.674114 -1.01117,-1.011171 -2.69646,-1.1797 l -2.52792,-0.168528 0,-2.527927 c 4.38174,0 7.75231,0.168528 11.12288,0.168528 4.55027,0 8.93201,-0.168528 13.48228,-0.168528 6.74114,-0.168529 12.97669,1.853813 12.97669,9.774652 0,5.898498 -4.38174,9.774653 -9.94318,11.796995 l 11.96552,18.201078 c 0.50559,0.674114 1.1797,1.516756 1.85382,2.022342 0.67411,0.505585 1.51675,0.674114 2.69645,1.011171 l 0,2.696456 c -2.19087,0 -4.38174,-0.168529 -6.40408,-0.168529 -2.02234,0 -4.04468,0.168529 -5.8985,0.168529 l -14.83051,-23.088404 0.50559,-1.1797 c 6.06703,0.505586 10.6173,-3.202041 10.6173,-9.437596 0,-5.392912 -3.70763,-8.426425 -8.93202,-8.426425 -1.34822,0 -3.20204,0 -4.21321,0.674114 l 0,32.357472 c 0,2.864984 0,4.550269 0.50559,5.392912 0.33705,0.505585 1.01117,0.842642 2.69645,1.011171 l 2.52793,0.168528 0,2.696456 c -2.69645,0 -6.40408,-0.168528 -10.28024,-0.168528 -4.04468,0 -7.58378,0.168528 -10.44876,0.168528 l 0,-2.696456 2.52792,-0.168528 c 1.68529,-0.168529 2.52793,-0.337057 2.69646,-1.011171 0.50558,-0.674114 0.50558,-2.527928 0.50558,-5.392912 l 0,0 z m 60.67026,-26.96456 0,27.133089 c 0,2.864984 0,4.550269 0.50559,5.392911 0.33706,0.505586 1.01117,0.842643 2.69646,1.011171 l 2.52792,0.168529 0,2.696456 c -2.69645,0 -6.40408,-0.168529 -10.28024,-0.168529 -4.04468,0 -7.58378,0.168529 -10.28023,0.168529 l 0,-2.696456 2.52792,-0.168529 c 1.68529,-0.168528 2.52793,-0.337057 2.69646,-1.011171 0.33706,-0.842642 0.50559,-2.527927 0.50559,-5.392911 l 0,-27.133089 c 0,-2.864984 0,-4.550269 -0.50559,-5.392912 -0.33706,-0.505585 -1.01117,-0.842642 -2.69646,-1.011171 l -2.52792,-0.168528 0,-2.696456 c 2.69645,0 6.40408,0.168529 10.28023,0.168529 3.87616,0 7.58379,-0.168529 10.28024,-0.168529 l 0,2.696456 -2.52792,0.168528 c -1.68529,0.168529 -2.52793,0.337057 -2.69646,1.011171 -0.50559,0.842643 -0.50559,2.527928 -0.50559,5.392912 l 0,0 z m 48.70474,61.84995 0,-7.752302 c 0,-0.842642 0,-1.348228 -0.16853,-1.516756 -0.16853,-0.168529 -0.33706,-0.337057 -0.84264,-0.337057 l -0.67412,0 0,-0.674114 c 0.67412,0 1.51676,0 2.19088,0 0.50558,0 1.01117,0 1.51675,0 0.67412,0.842642 1.1797,1.685285 2.02234,2.527927 l 5.8985,6.909662 0,-6.741133 c 0,-0.842643 0,-1.348228 -0.16853,-1.516757 -0.16853,-0.168528 -0.33705,-0.337057 -0.84264,-0.337057 l -0.67411,0 0,-0.674114 c 0.67411,0 1.51675,0 2.19087,0 0.67411,0 1.34822,0 2.19087,0 l 0,0.674114 -0.67412,0 c -0.50558,0 -0.67411,0.168529 -0.84264,0.337057 -0.16853,0.168529 -0.16853,0.674114 -0.16853,1.516757 l 0,8.594943 c 0,0.67411 0,1.34823 0,1.85381 l -1.68528,-0.16852 c -0.84265,-0.84265 -1.51676,-1.68529 -2.3594,-2.69646 l -6.06703,-7.415245 0,7.415245 c 0,0.84264 0,1.34823 0.16853,1.51676 0.16853,0.16852 0.33706,0.33705 0.84264,0.33705 l 0.67412,0 0,0.67412 c -0.67412,0 -1.34823,0 -2.19087,0 -0.84265,0 -1.51676,0 -2.19087,0 l 0,-0.67412 0.67411,0 c 0.50559,0 0.67411,-0.16853 0.84264,-0.33705 0.16853,-0.16853 0.33706,-0.67412 0.33706,-1.51676 l 0,0 z m -343.96666,-0.67411 0,-6.909663 c 0,-0.842643 0,-1.348228 -0.16853,-1.516757 -0.16853,-0.168528 -0.33706,-0.337057 -0.84264,-0.337057 l -0.67412,0 0,-0.674114 c 0.84264,0 1.85381,0 2.86499,0 1.17969,0 2.19087,0 2.86498,0 l 0,0.674114 -0.67411,0 c -0.50559,0 -0.67412,0.168529 -0.84265,0.337057 -0.16853,0.168529 -0.16853,0.674114 -0.16853,1.516757 l 0,4.718783 c 0,2.69646 0.16853,4.38175 3.37057,4.38175 3.20205,0 3.5391,-1.68529 3.5391,-4.38175 l 0,-4.550255 c 0,-0.842642 0,-1.348228 -0.16853,-1.516756 -0.16852,-0.168529 -0.33705,-0.337057 -0.84264,-0.337057 l -0.67411,0 0,-0.674114 c 0.67411,0 1.51675,0 2.19087,0 0.67411,0 1.34823,0 2.19087,0 l 0,0.674114 -0.67411,0 c -0.50559,0 -0.67412,0.168528 -0.84265,0.337057 -0.16853,0.168528 -0.16853,0.674114 -0.16853,1.516756 l 0,5.561435 c 0,3.37057 -1.85381,5.05585 -5.22438,5.05585 -3.20204,-0.33706 -5.05585,-1.85381 -5.05585,-3.87615 l 0,0 z m 17.69549,0.67411 0,-7.752302 c 0,-0.842642 0,-1.348228 -0.16853,-1.516756 -0.16853,-0.168529 -0.33706,-0.337057 -0.84264,-0.337057 l -0.67412,0 0,-0.674114 c 0.67412,0 1.51676,0 2.19087,0 0.50559,0 1.01117,0 1.51676,0 0.67411,0.842642 1.1797,1.685285 2.02234,2.527927 l 5.8985,6.909662 0,-6.741133 c 0,-0.842643 0,-1.348228 -0.16853,-1.516757 -0.16853,-0.168528 -0.33706,-0.337057 -0.84264,-0.337057 l -0.67412,0 0,-0.674114 c 0.67412,0 1.51676,0 2.19088,0 0.67411,0 1.34822,0 2.19087,0 l 0,0.674114 -0.67412,0 c -0.50558,0 -0.67411,0.168529 -0.84264,0.337057 -0.16853,0.168529 -0.16853,0.674114 -0.16853,1.516757 l 0,8.594943 c 0,0.67411 0,1.34823 0,1.85381 l -1.68528,-0.16852 c -0.84265,-0.84265 -1.51676,-1.68529 -2.3594,-2.69646 l -6.06703,-7.415245 0,7.415245 c 0,0.84264 0,1.34823 0.16853,1.51676 0.16853,0.16852 0.33706,0.33705 0.84264,0.33705 l 0.67412,0 0,0.67412 c -0.67412,0 -1.34823,0 -2.19087,0 -0.84265,0 -1.51676,0 -2.19088,0 l 0,-0.67412 0.67412,0 c 0.50558,0 0.67411,-0.16853 0.84264,-0.33705 0.33706,-0.16853 0.33706,-0.67412 0.33706,-1.51676 l 0,0 z m 21.40312,-7.583773 0,7.752303 c 0,0.84264 0,1.34823 0.16853,1.51675 0,0.16853 0.33705,0.16853 0.84264,0.33706 l 0.67411,0 0,0.84264 c -0.84264,0 -1.85381,0 -2.86498,0 -1.1797,0 -2.19087,0 -2.86499,0 l 0,-0.84264 0.67412,0 c 0.50558,0 0.67411,-0.16853 0.84264,-0.33706 0.16853,-0.16852 0.16853,-0.67411 0.16853,-1.51675 l 0,-7.752303 c 0,-0.842643 0,-1.348228 -0.16853,-1.516757 0,-0.168528 -0.33706,-0.168528 -0.84264,-0.337057 l -0.67412,0 0,-0.842642 c 0.84265,0 1.85382,0 2.86499,0 1.1797,0 2.19087,0 2.86498,0 l 0,0.842642 -0.67411,0 c -0.50559,0 -0.67412,0.168529 -0.84264,0.337057 -0.16853,0.168529 -0.16853,0.674114 -0.16853,1.516757 l 0,0 z m 10.61729,-0.168529 3.03352,7.246712 2.69645,-6.572598 c 0.33706,-0.842642 0.50559,-1.516756 0.50559,-1.853813 0,-0.337057 -0.33706,-0.505586 -0.67412,-0.505586 l -0.84264,0 0,-0.674114 c 0.84264,0 1.68529,0 2.19087,0 0.50559,0 1.1797,0 2.19087,0 l 0,0.674114 -0.67411,0 c -0.33706,0 -0.67412,0.337057 -0.84264,0.842643 l -3.87616,9.437584 c -0.33706,0.67412 -0.50559,1.1797 -0.67411,1.85382 l -1.34823,0 -4.55027,-10.785819 c -0.16853,-0.505585 -0.50559,-1.348228 -1.1797,-1.348228 l -0.84264,0 0,-0.674114 c 1.1797,0 2.19087,0 2.86498,0 0.67411,0 1.68529,0 3.03351,0 l 0,0.674114 -1.01117,0 c -0.33705,0 -0.50558,0.168529 -0.50558,0.337057 0,0.337057 0.33705,1.011171 0.50558,1.348228 l 0,0 z m 17.02138,-1.348228 0,4.550266 c 0.50559,0 0.84264,0 1.1797,0 l 1.1797,0 c 0.67411,0 1.01117,0 1.01117,-0.337053 l 0.16853,-1.011171 0.67411,0 c 0,0.674114 0,1.348224 0,2.022338 0,0.67411 0,1.34822 0,2.02234 l -0.67411,0 -0.16853,-1.01118 c 0,-0.50558 -0.33706,-0.67411 -1.01117,-0.67411 l -1.1797,0 c -0.33706,0 -0.84264,0 -1.1797,0 l 0,5.05586 c 0.84264,0 1.68529,0 2.3594,0 0.84264,0 2.19087,-0.16853 2.3594,-0.33706 l 0.50558,-1.85381 0.67412,0 -0.16853,3.03351 c -1.34823,0.16853 -3.5391,0.16853 -4.7188,0.16853 -0.84264,0 -1.51675,0 -2.3594,0 -0.84264,0 -1.51675,0 -2.19087,0 l 0,-0.50559 0.67412,-0.33706 c 0.33705,-0.16852 0.33705,-0.50558 0.33705,-1.01117 l 0,-8.426412 c 0,-0.842642 0,-1.348228 -0.16852,-1.516756 -0.16853,-0.168529 -0.33706,-0.337057 -0.84265,-0.337057 l -0.67411,0 0,-0.674114 c 1.1797,0 2.19087,0 2.86498,0 1.85382,0 3.03352,0 4.04469,0 1.01117,0 1.85381,0 2.69645,0 l -0.16853,2.864984 -0.67411,0 -0.16853,-1.348228 c 0,-0.337057 -1.34823,-0.337057 -2.19087,-0.337057 -0.50558,0 -1.34823,0 -2.19087,0 l 0,0 z m 11.797,9.10053 0,-7.752302 c 0,-0.842642 0,-1.348228 -0.16853,-1.516756 -0.16853,-0.168529 -0.33706,-0.337057 -0.84265,-0.337057 l -0.67411,0 0,-0.674114 c 1.1797,0 2.19087,0 3.20204,0 1.34823,0 2.52793,0 3.87616,0 1.85381,0 3.70762,0.505585 3.70762,2.864984 0,1.685285 -1.17969,2.696456 -2.86498,3.370565 l 3.37057,5.22438 c 0.16853,0.16853 0.33706,0.33706 0.50559,0.50558 0.16852,0.16853 0.33705,0.16853 0.84264,0.33706 l 0,0.84264 c -0.67412,0 -1.1797,0 -1.85382,0 -0.50558,0 -1.17969,0 -1.68528,0 l -4.21321,-6.57261 0.16853,-0.33705 c 1.68528,0.16853 3.03351,-0.842637 3.03351,-2.696451 0,-1.516756 -1.01117,-2.359399 -2.52793,-2.359399 -0.33706,0 -0.84264,0 -1.1797,0.168529 l 0,9.100531 c 0,0.84264 0,1.34823 0.16853,1.51675 0,0.16853 0.33706,0.16853 0.84264,0.33706 l 0.67412,0 0,0.84264 c -0.84265,0 -1.85382,0 -2.86499,0 -1.1797,0 -2.19087,0 -2.86498,0 l 0,-0.84264 0.67411,0 c 0.50559,0 0.67412,-0.16853 0.84264,-0.33706 -0.16852,-0.33705 -0.16852,-0.84264 -0.16852,-1.68528 l 0,0 z m 15.50462,-1.1797 0.84264,0 0.16853,1.68528 c 0.50558,0.84265 2.02234,1.51676 3.03351,1.51676 1.51676,0 3.03351,-0.84264 3.03351,-2.52793 0,-0.84264 -0.50558,-1.34822 -1.51675,-1.68528 l -2.69646,-0.84264 c -1.51675,-0.50559 -2.69645,-1.516754 -2.69645,-3.202035 0,-3.033513 2.19087,-4.213213 5.05585,-4.213213 1.1797,0 2.3594,0.168529 3.5391,0.674114 -0.16853,0.842643 -0.16853,1.853814 -0.16853,2.864985 l -0.84264,0 -0.16853,-1.516757 c -0.50559,-0.674114 -1.68528,-1.011171 -2.52793,-1.011171 -1.68528,0 -2.52792,1.011171 -2.52792,2.359399 0,0.842643 0.67411,1.516757 2.02234,1.853814 l 2.19087,0.505585 c 1.68528,0.505589 2.86498,1.516749 2.86498,3.202029 0,3.20204 -2.69645,4.55027 -5.56144,4.55027 -1.34823,0 -2.69645,-0.33705 -3.87615,-0.84264 -0.16853,-1.1797 -0.16853,-2.3594 -0.16853,-3.37057 l 0,0 z m 18.03255,-6.404073 0,7.752303 c 0,0.84264 0,1.34823 0.16853,1.51675 0,0.16853 0.33705,0.16853 0.84264,0.33706 l 0.67411,0 0,0.84264 c -0.84264,0 -1.85381,0 -2.86498,0 -1.1797,0 -2.19087,0 -2.86499,0 l 0,-0.84264 0.67412,0 c 0.50558,0 0.67411,-0.16853 0.84264,-0.33706 0.16853,-0.16852 0.16853,-0.67411 0.16853,-1.51675 l 0,-7.752303 c 0,-0.842643 0,-1.348228 -0.16853,-1.516757 0,-0.168528 -0.33706,-0.168528 -0.84264,-0.337057 l -0.67412,0 0,-0.842642 c 0.84265,0 1.85382,0 2.86499,0 1.1797,0 2.19087,0 2.86498,0 l 0,0.842642 -0.67411,0 c -0.50559,0 -0.67412,0.168529 -0.84264,0.337057 -0.16853,0.168529 -0.16853,0.674114 -0.16853,1.516757 l 0,0 z m 12.97669,-1.516757 0,9.10053 c 0,0.84264 0,1.34823 0.16853,1.51676 0,0.16852 0.33706,0.16852 0.84264,0.33705 l 0.67412,0 0,0.84265 c -0.84265,0 -1.85382,0 -2.86499,0 -1.1797,0 -2.19087,0 -2.86498,0 l 0,-0.84265 0.67411,0 c 0.50559,0 0.67412,-0.16853 0.84264,-0.33705 0.16853,-0.16853 0.16853,-0.67412 0.16853,-1.51676 l 0,-9.10053 -2.19087,0 c -0.50558,0 -1.01117,0 -1.1797,0.168529 0,0.168528 -0.16853,0.168528 -0.16853,0.505585 l -0.16852,1.348228 -0.84265,0 c 0,-1.179699 -0.16853,-2.022342 -0.16853,-3.033513 2.02235,0 4.04469,0 5.8985,0 1.85382,0 3.87616,0 5.8985,0 0,1.011171 -0.16853,1.853814 -0.16853,3.033513 l -0.84264,0 -0.16853,-1.348228 c 0,-0.168528 -0.16853,-0.337057 -0.16853,-0.505585 -0.16853,-0.168529 -0.67411,-0.168529 -1.1797,-0.168529 l -2.19087,0 0,0 z m 15.16757,5.05585 3.53909,-6.067021 1.51676,0 0,0.337057 -3.37057,4.887327 c -0.33706,0.505587 -0.67411,1.179687 -1.01117,1.853807 l 0,3.03351 c 0,0.84264 0,1.34823 0.16853,1.51676 0,0.16852 0.33706,0.16852 0.84264,0.33705 l 0.67412,0 0,0.84265 c -0.84265,0 -1.85382,0 -2.86499,0 -1.1797,0 -2.19087,0 -2.86498,0 l 0,-0.84265 0.67411,0 c 0.50559,0 0.67411,-0.16853 0.84264,-0.33705 0.16853,-0.16853 0.16853,-0.67412 0.16853,-1.51676 l 0,-2.69646 c -0.33706,-0.84264 -0.50558,-1.17969 -0.84264,-1.68527 l -1.85381,-3.033515 c -0.33706,-0.337057 -0.67412,-0.842642 -1.01118,-1.348228 -0.50558,-0.505585 -0.84264,-0.674114 -1.51675,-0.674114 l 0,-0.674114 3.03351,-0.674114 c 1.01117,0.505586 1.68529,1.516757 2.19087,2.527928 l 1.68529,4.213207 0,0 z m 23.59399,-5.392907 c -3.5391,0 -4.38175,2.696456 -4.38175,5.392907 0,3.03351 1.34823,5.89849 3.87616,5.89849 3.5391,0 4.38174,-2.52792 4.38174,-5.39291 0.16853,-3.202031 -1.1797,-5.898487 -3.87615,-5.898487 l 0,0 z m 0,-1.011171 c 4.21321,0 6.74114,2.359399 6.74114,6.572608 0,4.38173 -2.86499,6.74113 -7.0782,6.74113 -4.21321,0 -6.74114,-2.3594 -6.74114,-6.57261 0,-4.381729 2.86498,-6.741128 7.0782,-6.741128 l 0,0 z m 15.33609,1.348228 0,4.550266 c 0.50558,0 0.84264,0 1.1797,0 l 1.01117,0 c 0.67411,0 1.01117,0 1.01117,-0.337053 l 0.16853,-1.011171 0.67411,0 c 0,0.674114 0,1.179699 0,2.022338 0,0.67411 0,1.34822 0,2.02234 l -0.67411,0 -0.16853,-1.01118 c 0,-0.50558 -0.33706,-0.67411 -1.01117,-0.67411 l -1.01117,0 c -0.33706,0 -0.84264,0 -1.1797,0 l 0,3.5391 c 0,0.84264 0,1.34823 0.16853,1.51676 0,0.16852 0.33705,0.16852 0.84264,0.33705 l 0.84264,0 0,0.84265 c -1.01117,0 -2.02234,0 -3.03351,0 -1.1797,0 -2.19087,0 -2.86498,0 l 0,-0.84265 0.67411,0 c 0.50558,0 0.67411,-0.16853 0.84264,-0.33705 0.16853,-0.16853 0.16853,-0.67412 0.16853,-1.51676 l 0,-7.752302 c 0,-0.842642 0,-1.348228 -0.16853,-1.516756 -0.16853,-0.168529 -0.33706,-0.337057 -0.84264,-0.337057 l -0.67411,0 0,-0.674114 c 1.17969,0 2.19087,0 2.86498,0 1.51676,0 2.69646,0 3.87616,0 1.01117,0 1.85381,0 2.69645,0 l -0.16853,2.864984 -0.67411,0 -0.16853,-1.348228 c 0,-0.337057 -1.34823,-0.337057 -2.19087,-0.337057 -0.50559,0 -1.34823,0 -2.19087,0 l 0,0 z m 22.07723,7.7523 2.86499,-6.5726 1.01117,-2.359399 0.84264,0 c 0.33706,0.842642 0.67411,1.685285 0.84264,2.527927 l 2.52793,6.404072 1.85381,-7.078186 c 0,-0.168528 0,-0.337057 0,-0.674114 0,-0.168528 -0.33705,-0.337057 -0.67411,-0.337057 l -0.84264,0 0,-0.674114 c 0.84264,0 1.51675,0 2.02234,0 0.50558,0 1.1797,0 2.02234,0 l 0,0.674114 -0.67411,0 c -0.33706,0 -0.50559,0.505586 -0.84265,1.348228 l -2.35939,8.089359 c -0.16853,0.84264 -0.33706,1.85381 -0.67412,2.69646 l -1.34823,0 c -0.16852,-0.67412 -0.50558,-1.34823 -0.67411,-2.02235 l -2.86498,-7.078184 -2.86499,6.741134 c -0.33706,0.84264 -0.50558,1.51675 -0.84264,2.3594 l -1.34823,0 -2.69646,-11.291404 c -0.16852,-0.505586 -0.33705,-0.674114 -0.67411,-0.842643 l -0.67411,0 0,-0.674114 c 1.1797,0 2.19087,0 2.86498,0 0.67411,0 1.68529,0 2.52793,0 l 0,0.674114 -0.84264,0 c -0.16853,0 -0.50559,0.168529 -0.50559,0.505586 0,0.168528 0,0.337057 0,0.505585 l 2.02234,7.078186 0,0 0,0 z m 20.72901,-7.7523 0,4.550266 c 0.50558,0 0.84264,0 1.1797,0 l 1.1797,0 c 0.67411,0 1.01117,0 1.01117,-0.337053 l 0.16853,-1.011171 0.67411,0 c 0,0.674114 0,1.348224 0,2.022338 0,0.67411 0,1.34822 0,2.02234 l -0.67411,0 -0.16853,-1.01118 c 0,-0.50558 -0.33706,-0.67411 -1.01117,-0.67411 l -1.1797,0 c -0.33706,0 -0.84265,0 -1.1797,0 l 0,5.05586 c 0.84264,0 1.68528,0 2.3594,0 0.84264,0 2.19087,-0.16853 2.3594,-0.33706 l 0.50558,-1.85381 0.67411,0 -0.16852,3.03351 c -1.34823,0.16853 -3.5391,0.16853 -4.7188,0.16853 -0.84264,0 -1.51676,0 -2.3594,0 -0.84264,0 -1.51676,0 -2.19087,0 l 0,-0.50559 0.67411,-0.33706 c 0.33706,-0.16852 0.33706,-0.50558 0.33706,-1.01117 l 0,-8.426412 c 0,-0.842642 0,-1.348228 -0.16853,-1.516756 -0.16853,-0.168529 -0.33706,-0.337057 -0.84264,-0.337057 l -0.67411,0 0,-0.674114 c 1.17969,0 2.19087,0 2.86498,0 1.85381,0 3.03351,0 4.04468,0 1.01117,0 1.85382,0 2.69646,0 l -0.16853,2.864984 -0.67411,0 -0.16853,-1.348228 c 0,-0.337057 -1.34823,-0.337057 -2.19087,-0.337057 -0.50559,0 -1.34823,0 -2.19087,0 l 0,0 z m 14.49345,1.516757 0,9.100533 c 0.84264,0 1.68528,0 2.3594,0 0.84264,0 2.19087,-0.16853 2.3594,-0.33706 l 0.50558,-1.85381 0.67412,0 -0.16853,3.20204 c -1.34823,0.16853 -3.5391,0.16853 -4.7188,0.16853 -0.84264,0 -1.51676,0 -2.3594,0 -0.84264,0 -1.51676,0 -2.19087,0 l 0,-0.50559 0.67411,-0.33706 c 0.33706,-0.16853 0.33706,-0.50558 0.33706,-1.01117 l 0,-8.426413 c 0,-0.842643 0,-1.348228 -0.16853,-1.516757 0,-0.168528 -0.33705,-0.168528 -0.84264,-0.337057 l -0.67411,0 0,-0.842642 c 0.84264,0 1.85381,0 2.86498,0 1.1797,0 2.19087,0 2.86498,0 l 0,0.842642 -0.67411,0 c -0.50558,0 -0.67411,0.168529 -0.84264,0.337057 0,0.168529 0,0.674114 0,1.516757 l 0,0 z m 14.32492,0 0,9.100533 c 0.84264,0 1.68529,0 2.3594,0 0.84264,0 2.19087,-0.16853 2.3594,-0.33706 l 0.50558,-1.85381 0.67412,0 -0.16853,3.20204 c -1.34823,0.16853 -3.5391,0.16853 -4.7188,0.16853 -0.84264,0 -1.51675,0 -2.3594,0 -0.84264,0 -1.51675,0 -2.19087,0 l 0,-0.50559 0.67412,-0.33706 c 0.33705,-0.16853 0.33705,-0.50558 0.33705,-1.01117 l 0,-8.426413 c 0,-0.842643 0,-1.348228 -0.16853,-1.516757 0,-0.168528 -0.33705,-0.168528 -0.84264,-0.337057 l -0.67411,0 0,-0.842642 c 0.84264,0 1.85381,0 2.86498,0 1.1797,0 2.19087,0 2.86499,0 l 0,0.842642 -0.67412,0 c -0.50558,0 -0.67411,0.168529 -0.84264,0.337057 0,0.168529 0,0.674114 0,1.516757 l 0,0 z m 14.49345,0 0,7.752303 c 0,0.84264 0,1.34823 0.16853,1.51675 0,0.16853 0.33706,0.16853 0.84264,0.33706 l 0.67412,0 0,0.84264 c -0.84265,0 -1.85382,0 -2.86499,0 -1.1797,0 -2.19087,0 -2.86498,0 l 0,-0.84264 0.67411,0 c 0.50559,0 0.67412,-0.16853 0.84264,-0.33706 0.16853,-0.16852 0.16853,-0.67411 0.16853,-1.51675 l 0,-7.752303 c 0,-0.842643 0,-1.348228 -0.16853,-1.516757 0,-0.168528 -0.33705,-0.168528 -0.84264,-0.337057 l -0.67411,0 0,-0.842642 c 0.84264,0 1.85381,0 2.86498,0 1.1797,0 2.19087,0 2.86499,0 l 0,0.842642 -0.67412,0 c -0.50558,0 -0.67411,0.168529 -0.84264,0.337057 -0.16853,0.168529 -0.16853,0.674114 -0.16853,1.516757 l 0,0 z m 7.41526,7.583773 0,-7.752302 c 0,-0.842642 0,-1.348228 -0.16853,-1.516756 -0.16853,-0.168529 -0.33706,-0.337057 -0.84265,-0.337057 l -0.67411,0 0,-0.674114 c 0.67411,0 1.51676,0 2.19087,0 0.50559,0 1.01117,0 1.51676,0 0.67411,0.842642 1.1797,1.685285 2.02234,2.527927 l 5.8985,6.909662 0,-6.741133 c 0,-0.842643 0,-1.348228 -0.16853,-1.516757 -0.16853,-0.168528 -0.33706,-0.337057 -0.84264,-0.337057 l -0.67412,0 0,-0.674114 c 0.67412,0 1.51676,0 2.19087,0 0.67412,0 1.34823,0 2.19087,0 l 0,0.674114 -0.67411,0 c -0.50559,0 -0.67412,0.168529 -0.84264,0.337057 -0.16853,0.168529 -0.16853,0.674114 -0.16853,1.516757 l 0,8.594943 c 0,0.67411 0,1.34823 0,1.85381 l -1.68529,-0.16852 c -0.84264,-0.84265 -1.51675,-1.68529 -2.3594,-2.69646 l -6.06702,-7.415245 0,7.415245 c 0,0.84264 0,1.34823 0.16853,1.51676 0.16852,0.16852 0.33705,0.33705 0.84264,0.33705 l 0.67411,0 0,0.67412 c -0.67411,0 -1.34823,0 -2.19087,0 -0.67411,0 -1.51675,0 -2.19087,0 l 0,-0.67412 0.67412,0 c 0.50558,0 0.67411,-0.16853 0.84264,-0.33705 0.33706,-0.16853 0.33706,-0.67412 0.33706,-1.51676 l 0,0 z m 30.1666,-1.34823 0,3.03351 c -1.68529,0.67412 -3.5391,1.1797 -5.56144,1.1797 -4.21322,0 -7.41526,-2.3594 -7.41526,-6.90966 0,-4.381736 3.5391,-6.572606 7.58378,-6.572606 1.68529,0 3.37057,0.168528 5.22439,0.842642 0,0.842643 -0.16853,2.359399 -0.33706,3.033513 l -0.67411,0 -0.16853,-1.685285 c -0.67412,-0.842642 -2.3594,-1.348228 -3.87616,-1.348228 -3.20204,0 -4.71879,2.190871 -4.71879,5.22438 0,3.202034 1.68528,6.067024 5.05585,6.067024 0.84264,0 1.68528,-0.16853 2.3594,-0.50559 l 0,-2.02234 c 0,-0.50559 -0.50559,-0.67412 -1.01117,-0.67412 l -1.01117,0 0,-0.84264 c 0.84264,0 1.85381,0 2.69645,0 0.84265,0 1.85382,0 2.69646,0 l 0,0.67412 c -0.67412,0 -0.84264,0.16852 -0.84264,0.50558 l 0,0 z m 12.30258,-7.7523 0,9.10053 c 0,0.84264 0,1.34823 0.16853,1.51676 0,0.16852 0.33705,0.16852 0.84264,0.33705 l 0.67411,0 0,0.84265 c -0.84264,0 -1.85381,0 -2.86498,0 -1.1797,0 -2.19087,0 -2.86499,0 l 0,-0.84265 0.67412,0 c 0.50558,0 0.67411,-0.16853 0.84264,-0.33705 0.16853,-0.16853 0.16853,-0.67412 0.16853,-1.51676 l 0,-9.10053 -2.19087,0 c -0.50559,0 -1.01117,0 -1.1797,0.168529 0,0.168528 -0.16853,0.168528 -0.16853,0.505585 l -0.16853,1.348228 -0.84264,0 c 0,-1.179699 -0.16853,-2.022342 -0.16853,-3.033513 2.02234,0 4.04468,0 5.8985,0 1.85381,0 3.87615,0 5.89849,0 0,1.011171 -0.16852,1.853814 -0.16852,3.033513 l -0.84265,0 -0.16852,-1.348228 c 0,-0.168528 -0.16853,-0.337057 -0.16853,-0.505585 -0.16853,-0.168529 -0.67412,-0.168529 -1.1797,-0.168529 l -2.19087,0 0,0 z" /></svg>