<?xml version="1.0" encoding="UTF-8" standalone="no"?>
<!-- Generator: Adobe Illustrator 18.1.0, SVG Export Plug-In . SVG Version: 6.00 Build 0)  -->

<svg
   xmlns:dc="http://purl.org/dc/elements/1.1/"
   xmlns:cc="http://creativecommons.org/ns#"
   xmlns:rdf="http://www.w3.org/1999/02/22-rdf-syntax-ns#"
   xmlns:svg="http://www.w3.org/2000/svg"
   xmlns="http://www.w3.org/2000/svg"
   xmlns:sodipodi="http://sodipodi.sourceforge.net/DTD/sodipodi-0.dtd"
   xmlns:inkscape="http://www.inkscape.org/namespaces/inkscape"
   version="1.1"
   id="Layer_1"
   x="0px"
   y="0px"
   viewBox="0 0 701.92081 204.35669"
   enable-background="new 0 0 841.9 595.3"
   xml:space="preserve"
   inkscape:version="0.91 r13725"
   sodipodi:docname="VIC-LOGO-Landscape-Green.svg"
   width="701.92084"
   height="204.35669"><metadata
     id="metadata13"><rdf:RDF><cc:Work
         rdf:about=""><dc:format>image/svg+xml</dc:format><dc:type
           rdf:resource="http://purl.org/dc/dcmitype/StillImage" /><dc:title></dc:title></cc:Work></rdf:RDF></metadata><defs
     id="defs11" /><sodipodi:namedview
     pagecolor="#ffffff"
     bordercolor="#666666"
     borderopacity="1"
     objecttolerance="10"
     gridtolerance="10"
     guidetolerance="10"
     inkscape:pageopacity="0"
     inkscape:pageshadow="2"
     inkscape:window-width="640"
     inkscape:window-height="480"
     id="namedview9"
     showgrid="false"
     fit-margin-top="0"
     fit-margin-left="0"
     fit-margin-right="0"
     fit-margin-bottom="0"
     inkscape:zoom="1.6882245"
     inkscape:cx="835.69005"
     inkscape:cy="100.81472"
     inkscape:current-layer="Layer_1"
     units="px" /><rect
     style="opacity:1;fill:#01503b;fill-opacity:1;stroke:none;stroke-width:0;stroke-miterlimit:4;stroke-dasharray:none;stroke-opacity:1"
     id="rect4133"
     width="701.92084"
     height="204.35669"
     x="0"
     y="0" /><path
     style="fill:#ffffff"
     inkscape:connector-curvature="0"
     id="path7"
     d="m 634.96131,123.10323 c 4.21322,0 6.74114,2.3594 6.74114,6.57261 0,4.38173 -2.86498,6.74113 -7.07819,6.74113 -4.21322,0 -6.74114,-2.3594 -6.74114,-6.57261 -0.16853,-4.38173 2.69645,-6.74113 7.07819,-6.74113 l 0,0 z m 0,1.01117 c -3.53909,0 -4.38174,2.69646 -4.38174,5.39291 0,3.03351 1.34823,5.89849 3.87616,5.89849 3.5391,0 4.38174,-2.52792 4.38174,-5.39291 0,-3.20203 -1.34823,-5.89849 -3.87616,-5.89849 l 0,0 z m -489.40676,25.11074 0,10.6173 33.87423,0 0,-10.6173 -4.88733,5.39292 -6.74114,0 -5.39291,-5.39292 -5.39291,5.39292 -6.74114,0 -4.7188,-5.39292 0,0 z m -22.58282,-76.006347 0,10.617295 33.87423,0 0,-10.617295 -4.88732,5.392912 -6.74114,0 -5.39292,-5.392912 -5.39291,5.392912 -6.74114,0 -4.7188,-5.392912 0,0 z m 45.16564,0 0,10.617295 33.87423,0 0,-10.617295 -4.88732,5.392912 -6.74115,0 -5.39291,-5.392912 -5.39291,5.392912 -6.74114,0 -4.7188,-5.392912 0,0 z m -5.56144,19.212249 c -5.39291,0 -7.92084,3.876155 -13.31375,3.876155 -5.39291,0 -7.92084,-4.044684 -13.31375,-3.876155 -5.05586,0.168528 -7.24673,3.876155 -12.30258,3.876155 -5.05586,0 -8.59496,-3.539098 -12.30258,-3.37057 l 0,33.537173 c 0.16853,7.07819 5.56144,17.1899 12.30258,17.1899 5.05585,0 7.24672,-3.70762 12.30258,-3.87615 5.39291,-0.16853 7.92084,3.87615 13.31375,3.87615 5.39291,0 7.92084,-3.87615 13.31375,-3.87615 5.39291,0 7.92084,3.87615 13.31375,3.87615 5.39291,0 7.92084,-4.04468 13.31375,-3.87615 5.05586,0.16853 7.24673,3.70763 12.30259,3.87615 6.74114,0 12.13405,-10.11171 12.30258,-17.1899 l 0,-33.537173 c -3.70763,-0.168528 -7.41526,3.539099 -12.30258,3.37057 -5.05586,0 -7.24673,-3.707627 -12.30259,-3.876155 -5.39291,-0.168529 -7.92084,3.876155 -13.31375,3.876155 -5.39291,0 -7.92084,-3.876155 -13.31375,-3.876155 l 0,0 z m 0,86.455118 c -2.19087,0 -55.44588,-23.0884 -55.44588,-52.41236 l 0,-64.040831 55.78294,0 55.27735,0 0,64.040831 c -0.16853,29.32396 -53.42354,52.41236 -55.61441,52.41236 l 0,0 z m -7.92084,-49.54737 -2.3594,-4.04469 2.3594,-4.04468 -4.7188,0 -2.35939,-4.04469 -2.3594,4.04469 -4.7188,0 2.3594,4.04468 -2.3594,4.04469 4.7188,0 2.3594,4.04467 2.35939,-4.04467 4.7188,0 0,0 z m 29.82955,-14.66199 -2.3594,-4.04468 2.3594,-4.04468 -4.7188,0 -2.3594,-4.04469 -2.3594,4.04469 -4.7188,0 2.3594,4.04468 -2.3594,4.04468 4.7188,0 2.3594,4.04469 2.3594,-4.04469 4.7188,0 0,0 z m -21.40312,0 -2.3594,-4.04468 2.3594,-4.04468 -4.7188,0 -2.3594,-4.04469 -2.3594,4.04469 -4.7188,0 2.3594,4.04468 -2.3594,4.04468 4.7188,0 2.3594,4.04469 2.3594,-4.04469 4.7188,0 0,0 z m 12.80816,14.66199 -2.3594,-4.04469 2.3594,-4.04468 -4.7188,0 -2.35939,-4.04469 -2.3594,4.04469 -4.7188,0 2.3594,4.04468 -2.3594,4.04469 4.7188,0 2.3594,4.04467 2.35939,-4.04467 4.7188,0 0,0 z m -40.78389,-29.492494 54.77176,0 0,36.402154 -54.77176,0 0,-36.402154 0,0 z M 94.321888,93.610741 c -3.202042,0 -7.078197,-4.044684 -6.74114,-6.572611 1.853814,-13.819337 8.93201,-9.269068 14.156392,-13.313752 1.51676,1.853814 3.70763,19.886363 -7.415252,19.886363 l 0,0 z M 260.32246,106.08185 c -0.16852,0 -0.50558,5.72997 -5.89849,9.77465 3.03351,-0.16853 7.75231,0.33706 8.76348,-3.37057 1.01117,-4.21321 -2.3594,-6.23555 -2.86499,-6.40408 l 0,0 z m -8.25789,-2.02234 c -10.44877,-0.50559 -14.49345,5.72997 -10.95436,8.08937 6.57262,4.55027 10.78583,-8.2579 10.95436,-8.08937 l 0,0 z m 0.50558,-14.999038 c -1.34823,1.516756 -3.70762,2.696456 -6.40408,3.37057 2.86498,-0.168529 8.08937,-0.168529 10.78582,0 -2.02234,-0.842643 -4.38174,-3.37057 -4.38174,-3.37057 l 0,0 z M 232.34673,76.589363 c 0,4.550269 3.70763,8.089368 8.08937,8.089368 4.55027,0 8.08937,-3.707627 8.08937,-8.089368 0,-4.55027 -3.70763,-8.089368 -8.08937,-8.089368 -4.38174,0 -8.08937,3.707627 -8.08937,8.089368 l 0,0 z m 32.69453,6.74114 c 0.84264,-1.348228 3.20204,-2.022342 5.39291,-1.1797 2.3594,0.842643 3.87616,2.864985 3.5391,4.55027 11.96553,-0.168529 14.83051,-3.033513 14.99904,-2.864985 -3.5391,6.404083 -13.65081,11.122881 -17.52697,11.459938 5.39292,1.853814 16.17874,8.089364 16.17874,20.054894 0,17.52696 -17.02138,20.05488 -26.6275,17.52696 3.03351,0.84264 4.7188,2.86498 4.7188,3.37057 l -43.31183,0 0,-35.39098 c 1.34823,-1.51676 3.87616,-3.370573 7.0782,-4.718801 1.85381,-0.842643 1.68528,-3.033513 1.68528,-3.033513 -5.22438,-0.842643 -8.76348,-5.392912 -8.76348,-5.392912 l 0,-20.391949 c 0,0 5.22439,-7.246725 17.52697,-7.246725 9.77465,0.168529 14.99903,8.257896 14.99903,8.257896 0,0 4.04469,-3.37057 12.13405,-3.37057 18.20108,0 22.24577,17.526964 22.24577,17.526964 -5.39292,-4.550269 -11.797,-5.898497 -14.99904,-6.235554 -0.33706,1.516756 -2.02234,2.864984 -3.87616,2.864984 -1.85381,0 -3.37057,-1.011171 -3.87615,-2.359399 l -1.51676,1.011171 c 0.16853,0.505586 0.33706,1.1797 0.33706,1.853814 -0.16853,1.179699 -0.67412,2.359399 -1.68529,3.033513 l 1.34823,0.674114 0,0 z M 236.897,76.589363 c 0,-2.022342 1.68529,-3.707627 3.70763,-3.707627 2.02234,0 3.70763,1.685285 3.70763,3.707627 0,2.022342 -1.68529,3.707627 -3.70763,3.707627 -2.19087,0 -3.70763,-1.685285 -3.70763,-3.707627 l 0,0 z m -134.31722,14.999036 0,44.660051 -66.905809,0 c 0.168528,-0.16853 2.359399,-6.06703 4.381741,-8.25789 -1.685285,-1.34823 -3.033513,-2.69646 -2.864984,-2.3594 -0.168529,-0.16853 8.93201,-11.96553 15.504621,-12.13406 -1.348228,-1.01117 -2.527927,-2.35939 -2.359399,-2.35939 2.359399,-2.52793 6.572611,-2.86499 20.391948,-3.87616 13.819337,-1.1797 15.841679,-4.88733 16.010208,-16.010208 3.370569,3.876156 9.100538,8.932008 15.841674,0.337057 l 0,0 z M 68.705556,68.837052 c -4.381741,-3.033513 -6.74114,-4.213213 -8.257896,-3.876156 -1.516757,0.337057 -4.381741,5.055855 -4.381741,4.887327 3.707627,-0.842643 9.269067,-1.348228 12.639637,-1.011171 l 0,0 z M 52.189764,87.206658 c -3.202042,-2.696456 -7.246726,-7.920839 -7.752311,-11.628466 -0.337057,-2.696456 1.516756,-4.381741 1.516756,-4.381741 0,0 -0.842642,-2.696456 -0.505585,-3.876156 1.853813,-5.729968 29.323958,-6.067025 34.885399,-5.898497 12.808165,0.505586 15.504621,0 21.740177,-2.359399 -0.16853,-0.168528 -2.190872,9.437596 -13.987866,9.269067 0,1.011171 0,1.348228 0,1.516757 4.718797,0.168528 10.280238,-1.011171 13.650806,-4.887327 -0.16853,3.202042 1.1797,7.246726 -5.39291,8.763482 -6.235555,1.348228 -10.11171,1.1797 -12.134052,18.875192 -0.337057,5.055855 0,9.26907 -8.257896,11.12288 -7.92084,1.68529 -28.986902,2.3594 -32.694529,5.22438 l -0.674114,-1.34822 c 4.213213,-2.86499 6.74114,-7.24673 6.235555,-12.134055 0.842642,-0.505586 2.19087,-1.011171 2.864984,-1.011171 0,1.685285 -2.19087,5.392912 7.752311,5.392912 0.168528,0 9.269067,1.011174 5.392912,-10.617296 -1.1797,-3.707627 -2.359399,-7.920839 -6.74114,-7.752311 0,-0.168528 -5.729969,0.337057 -2.864985,5.898498 4.044684,0.842642 8.594954,1.853813 9.269068,4.718798 0.505585,3.033513 -1.685285,4.550269 -3.37057,3.876155 -1.685285,-0.674114 -6.404083,-3.37057 -9.606124,-3.37057 -6.235555,0 -17.189907,7.078197 -24.268104,-6.235554 2.022342,2.19087 4.044684,3.707627 10.617296,3.876155 6.404082,0 7.75231,-2.864984 14.324922,-3.033513 l 0,0 z M 623.6699,30.244026 l 7.0782,0 0,1.348228 -7.0782,0 0,-1.348228 0,0 z m -421.48977,0 7.0782,0 0,1.348228 -7.0782,0 0,-1.348228 0,0 z m 456.88076,5.898497 0,8.426425 c 0,0.674114 0,1.1797 0.16853,1.348228 0.16853,0.168529 0.33705,0.337057 0.84264,0.337057 l 0.84264,0 0,0.505586 c -1.01117,0 -1.85381,0 -2.69645,0 -0.84265,0 -1.85382,0 -2.86499,0 l 0,-0.505586 0.84264,0 c 0.50559,0 0.67412,-0.168528 0.84265,-0.337057 0.16853,-0.168528 0.16853,-0.674114 0.16853,-1.348228 l 0,-8.426425 c 0,-0.674114 0,-1.179699 -0.16853,-1.348228 -0.16853,-0.168528 -0.33706,-0.337057 -0.84265,-0.337057 l -0.84264,0 0,-0.505585 c 1.01117,0 1.85382,0 2.86499,0 0.84264,0 1.68528,0 2.69645,0 l 0,0.505585 -0.84264,0 c -0.50559,0 -0.67411,0.168529 -0.84264,0.337057 -0.16853,0.168529 -0.16853,0.674114 -0.16853,1.348228 l 0,0 z m -608.893468,8.426425 0,-7.920839 c 0,-0.674114 0,-1.348228 0,-1.853814 l -3.033513,0 c -0.505586,0 -0.674114,0.168529 -0.674114,0.674114 l 0,1.516757 -0.505586,0 c 0,-1.011171 0,-2.022342 -0.168528,-3.033513 1.348228,0 2.696456,0 4.044684,0 l 2.696456,0 c 1.348227,0 2.696455,0 4.044683,0 -0.168528,1.011171 -0.168528,2.022342 -0.168528,3.033513 l -0.505586,0 0,-1.516757 c 0,-0.505585 -0.168528,-0.674114 -0.674114,-0.674114 l -2.864984,0 c 0,0.505586 0,1.1797 0,1.853814 l 0,7.920839 c 0,0.674114 0,1.1797 0.168529,1.348228 0.168528,0.168529 0.337056,0.337057 0.842642,0.337057 l 0.842642,0 0,0.505586 c -1.011171,0 -1.853813,0 -2.696455,0 -0.842643,0 -1.853814,0 -2.864985,0 l 0,-0.505586 0.842643,0 c 0.505585,0 0.674114,-0.168528 0.842642,-0.337057 -0.168528,-0.168528 -0.168528,-0.505585 -0.168528,-1.348228 l 0,0 z m 11.796994,0 0,-8.426425 c 0,-0.674114 0,-1.179699 -0.168528,-1.348228 -0.168529,-0.168528 -0.337057,-0.337057 -0.842643,-0.337057 l -0.842642,0 0,-0.505585 c 1.011171,0 2.19087,0 3.202041,0 1.685285,0 3.37057,0 4.381741,0 0.842643,0 1.685285,0 2.359399,0 -0.168528,0.842642 -0.337057,1.853813 -0.337057,2.864984 l -0.674114,0 0,-1.179699 c 0,-0.168529 0,-0.505586 -0.168528,-0.505586 -1.011171,-0.337057 -2.527928,-0.337057 -3.707627,-0.337057 -0.505586,0 -1.011171,0 -1.516757,0.168529 l 0,5.055855 c 0.674114,0 1.348228,0 2.190871,0 1.179699,0 1.853813,0 2.022342,-0.168529 0.168528,0 0.168528,-0.168528 0.168528,-0.505586 l 0.168529,-1.01117 0.505585,0 c 0,0.842642 0,1.516756 0,2.19087 0,0.674114 0,1.348228 0,2.022342 l -0.505585,0 -0.168529,-1.179699 c 0,-0.168529 0,-0.337057 -0.168528,-0.505586 -0.168529,-0.168528 -0.842643,-0.168528 -2.022342,-0.168528 -0.842643,0 -1.516757,0 -2.190871,0 l 0,5.224383 c 0.505586,0.168529 1.011171,0.168529 1.516757,0.168529 1.516756,0 3.539098,0 3.876155,-0.168529 0.337057,-0.168528 0.505586,-1.011171 0.674114,-2.19087 l 0.674114,0 c -0.168528,0.842642 -0.337057,2.022342 -0.337057,3.033513 -0.842642,0 -2.359399,0 -3.707627,0 -1.516756,0 -2.864984,0 -4.044684,0 -0.674114,0 -1.348228,0 -2.022342,0 l 0,-0.505586 0.674114,0 c 0.505586,0 0.674114,-0.168528 0.842643,-0.337057 0.168528,-0.168528 0.168528,-0.505585 0.168528,-1.348228 l 0,0 z m 31.177772,-1.348228 -2.359399,-6.404083 -3.202041,8.257897 c -0.168528,0.674114 -0.505585,1.348228 -0.674114,2.022342 l -1.011171,0 C 85.726935,46.422762 85.558406,45.748648 85.389878,45.074534 L 83.199007,35.299881 C 83.030479,34.457238 82.693422,34.457238 82.187836,34.28871 l -0.505585,0 0,-0.505586 c 0.842642,0 1.516756,0 2.359399,0 0.842642,0 1.516756,0 2.359399,0 l 0,0.505586 -0.842643,0 c -0.505585,0 -0.842642,0.168528 -0.674114,1.179699 l 1.853814,8.426425 2.359399,-5.898497 c 0.505585,-1.516757 1.179699,-3.033513 1.685284,-4.55027 l 0.674114,0 c 0.168529,0.674114 0.505586,1.685285 0.842643,2.359399 l 2.864984,8.089368 2.527928,-9.100539 C 97.860986,34.28871 97.523929,34.28871 96.849815,34.120181 l -0.674114,0 0,-0.505585 c 0.674114,0 1.348228,0 2.022342,0 0.674114,0 1.348228,0 2.022347,0 l 0,0.505585 -0.674119,0 c -0.337057,0 -0.674114,0.168529 -0.674114,0.505586 l -2.864984,10.11171 c -0.168529,0.505585 -0.337057,1.179699 -0.505586,1.853813 l -1.011171,0 c -0.505585,-1.011171 -0.842642,-2.19087 -1.348228,-3.37057 l 0,0 z m 23.593992,-7.078197 0,8.426425 c 0,0.674114 0,1.1797 0.16853,1.348228 0.16853,0.168529 0.33705,0.337057 0.84264,0.337057 l 0.84264,0 0,0.505586 c -1.01117,0 -1.85381,0 -2.69645,0 -0.84265,0 -1.85382,0 -2.86499,0 l 0,-0.505586 0.84264,0 c 0.50559,0 0.67412,-0.168528 0.84265,-0.337057 0.16853,-0.168528 0.16853,-0.674114 0.16853,-1.348228 l 0,-4.213212 c -0.16853,0 -0.67412,0 -1.51676,0 l -4.38174,0 c -0.84264,0 -1.34823,0 -1.51676,0 l 0,4.213212 c 0,0.674114 0,1.1797 0.16853,1.348228 0.16853,0.168529 0.33706,0.337057 0.84264,0.337057 l 0.84264,0 0,0.505586 c -1.01117,0 -1.85381,0 -2.69645,0 -0.84264,0 -1.85381,0 -2.86499,0 l 0,-0.505586 0.84265,0 c 0.50558,0 0.67411,-0.168528 0.84264,-0.337057 0.16853,-0.168528 0.16853,-0.674114 0.16853,-1.348228 l 0,-8.426425 c 0,-0.674114 0,-1.179699 -0.16853,-1.348228 -0.16853,-0.168528 -0.33706,-0.337057 -0.84264,-0.337057 l -0.84265,0 0,-0.505585 c 1.01118,0 1.85382,0 2.86499,0 0.84264,0 1.68528,0 2.69645,0 l 0,0.505585 -0.84264,0 c -0.50558,0 -0.67411,0.168529 -0.84264,0.337057 -0.16853,0.168529 -0.16853,0.674114 -0.16853,1.348228 l 0,3.370571 c 0.16853,0 0.67412,0 1.51676,0 l 4.38174,0 c 0.84264,0 1.34823,0 1.51676,0 l 0,-3.370571 c 0,-0.674114 0,-1.179699 -0.16853,-1.348228 -0.16853,-0.168528 -0.33706,-0.337057 -0.84265,-0.337057 l -0.84264,0 0,-0.505585 c 1.01117,0 1.85382,0 2.86499,0 0.84264,0 1.68528,0 2.69645,0 l 0,0.505585 -0.84264,0 c -0.50559,0 -0.67411,0.168529 -0.84264,0.337057 -0.16853,0.168529 -0.16853,0.674114 -0.16853,1.348228 l 0,0 z m 9.60612,5.729969 4.7188,0 -2.3594,-5.56144 -2.3594,5.56144 0,0 z m 3.20205,-8.089368 4.55027,10.617296 c 0.16852,0.337057 0.33705,0.842642 0.67411,1.348228 0.16853,0.337057 0.33706,0.674114 0.67411,0.674114 l 0.67412,0 0,0.505585 c -0.84265,0 -1.68529,0 -2.52793,0 -0.67411,0 -1.51676,0 -2.52793,0 l 0,-0.505585 0.84264,0 c 0.33706,0 0.84265,-0.168529 0.84265,-0.337057 0,-0.337057 -0.16853,-0.674114 -0.33706,-1.1797 l -0.84264,-2.19087 -5.39292,0 -0.50558,1.179699 c -0.16853,0.337057 -0.67411,1.685285 -0.67411,2.022342 0,0.337057 0.33705,0.505586 0.84264,0.505586 l 0.67411,0 0,0.505585 c -0.84264,0 -1.68528,0 -2.19087,0 -0.67411,0 -1.51676,0 -2.19087,0 l 0,-0.505585 0.67411,0 c 0.50559,0 0.84265,-0.505586 1.01118,-0.842643 l 3.37057,-7.583782 c 0.50558,-1.348228 1.1797,-2.696456 1.68528,-4.044684 l 0.67412,0 0,-0.168529 z m 13.81933,1.011171 0,9.774653 c 0,0.674114 0,1.1797 0.16853,1.348228 0.16853,0.168529 0.33706,0.337057 0.84264,0.337057 l 0.84265,0 0,0.505586 c -1.01117,0 -1.85382,0 -2.69646,0 -0.84264,0 -1.85381,0 -2.86498,0 l 0,-0.505586 0.84264,0 c 0.50558,0 0.67411,-0.168528 0.84264,-0.337057 0.16853,-0.168528 0.16853,-0.674114 0.16853,-1.348228 l 0,-8.426425 c 0,-0.674114 0,-1.179699 -0.16853,-1.348228 -0.16853,-0.168528 -0.33706,-0.168528 -0.84264,-0.337057 l -0.84264,0 0,-0.505585 c 1.01117,0 2.02234,0 3.20204,0 1.1797,0 2.19087,0 3.37057,0 3.03351,0 3.87615,1.516756 3.87615,2.864984 0,2.022342 -1.85381,3.202042 -3.70762,3.707627 l 4.21321,5.561441 c 0.33706,0.337057 0.67411,0.505585 1.1797,0.505585 l 0,0.505586 c -0.50559,0 -0.84264,0 -1.34823,0 -0.50559,0 -0.84264,0 -1.34823,0 -0.16853,-0.337057 -0.50558,-0.674114 -0.84264,-1.011171 l -3.5391,-4.718798 c -0.33706,-0.337057 -0.67411,-0.842643 -1.01117,-1.1797 0.67411,-0.168528 1.1797,-0.168528 1.85381,-0.337057 1.34823,-0.168528 2.52793,-1.179699 2.52793,-2.696456 0,-2.022342 -1.51676,-2.527927 -3.03351,-2.527927 -0.50559,0 -1.1797,0 -1.68529,0.168528 l 0,0 z m 13.65081,9.774653 0,-8.426425 c 0,-0.674114 0,-1.179699 -0.16853,-1.348228 -0.16853,-0.168528 -0.33705,-0.337057 -0.84264,-0.337057 l -0.84264,0 0,-0.505585 c 1.01117,0 2.19087,0 3.20204,0 1.68528,0 3.37057,0 4.38174,0 0.84264,0 1.68528,0 2.3594,0 -0.16853,0.842642 -0.33706,1.853813 -0.33706,2.864984 l -0.67411,0 0,-1.179699 c 0,-0.168529 0,-0.505586 -0.16853,-0.505586 -1.01117,-0.337057 -2.52793,-0.337057 -3.70763,-0.337057 -0.50558,0 -1.01117,0 -1.51675,0.168529 l 0,5.055855 c 0.67411,0 1.34822,0 2.19087,0 1.1797,0 1.85381,0 2.02234,-0.168529 0.16853,0 0.16853,-0.168528 0.16853,-0.505586 l 0.16853,-1.01117 0.50558,0 c 0,0.842642 0,1.516756 0,2.19087 0,0.674114 0,1.348228 0,2.022342 l -0.50558,0 -0.16853,-1.179699 c 0,-0.168529 0,-0.337057 -0.16853,-0.505586 -0.16853,-0.168528 -0.84264,-0.168528 -2.02234,-0.168528 -0.84265,0 -1.51676,0 -2.19087,0 l 0,5.224383 c 0.50558,0.168529 1.01117,0.168529 1.51675,0.168529 1.51676,0 3.5391,0 3.87616,-0.168529 0.33705,-0.168528 0.50558,-1.011171 0.67411,-2.19087 l 0.67412,0 c -0.16853,0.842642 -0.33706,2.022342 -0.33706,3.033513 -0.84264,0 -2.3594,0 -3.70763,0 -1.51675,0 -2.86498,0 -4.04468,0 -0.67412,0 -1.34823,0 -2.02234,0 l 0,-0.505586 0.67411,0 c 0.50559,0 0.67411,-0.168528 0.84264,-0.337057 0.16853,-0.168528 0.16853,-0.505585 0.16853,-1.348228 l 0,0 z m 31.17777,-1.348228 -2.3594,-6.404083 -3.20204,8.257897 c -0.16853,0.674114 -0.50558,1.348228 -0.67411,2.022342 l -1.01117,0 c -0.16853,-0.674114 -0.33706,-1.348228 -0.50559,-2.022342 l -2.19087,-9.774653 c -0.16853,-0.842643 -0.50558,-0.842643 -1.01117,-1.011171 l -0.50558,0 0,-0.505586 c 0.84264,0 1.51675,0 2.35939,0 0.84265,0 1.51676,0 2.3594,0 l 0,0.505586 -0.84264,0 c -0.50558,0 -0.84264,0.168528 -0.67411,1.179699 l 1.85381,8.426425 2.3594,-5.898497 c 0.50558,-1.516757 1.1797,-3.033513 1.68528,-4.55027 l 0.67412,0 c 0.16853,0.674114 0.50558,1.685285 0.84264,2.359399 l 2.86499,8.089368 2.52792,-9.100539 c 0.16853,-0.505585 -0.16853,-0.505585 -0.84264,-0.674114 l -0.67411,0 0,-0.505585 c 0.67411,0 1.34822,0 2.02234,0 0.67411,0 1.34823,0 2.02234,0 l 0,0.505585 -0.67411,0 c -0.33706,0 -0.67412,0.168529 -0.67412,0.505586 l -2.86498,10.11171 c -0.16853,0.505585 -0.33706,1.179699 -0.50559,1.853813 l -1.01117,0 c -0.33706,-1.011171 -0.84264,-2.19087 -1.34823,-3.37057 l 0,0 z m 14.66199,-1.348228 4.71879,0 -2.3594,-5.56144 -2.35939,5.56144 0,0 z m 3.20204,-8.089368 4.55027,10.617296 c 0.16853,0.337057 0.33705,0.842642 0.67411,1.348228 0.16853,0.337057 0.33706,0.674114 0.67411,0.674114 l 0.67412,0 0,0.505585 c -0.84264,0 -1.68529,0 -2.52793,0 -0.67411,0 -1.51676,0 -2.52793,0 l 0,-0.505585 0.84265,0 c 0.33705,0 0.84264,-0.168529 0.84264,-0.337057 0,-0.337057 -0.16853,-0.674114 -0.33706,-1.1797 l -0.84264,-2.19087 -5.39291,0 -0.50559,1.179699 c -0.16853,0.337057 -0.67411,1.685285 -0.67411,2.022342 0,0.337057 0.33705,0.505586 0.84264,0.505586 l 0.67411,0 0,0.505585 c -0.84264,0 -1.68528,0 -2.19087,0 -0.67411,0 -1.51675,0 -2.19087,0 l 0,-0.505585 0.67412,0 c 0.50558,0 0.84264,-0.505586 1.01117,-0.842643 l 3.37057,-7.583782 c 0.50558,-1.348228 1.1797,-2.696456 1.68528,-4.044684 l 0.67412,0 0,-0.168529 z m 11.96552,10.785824 0,-8.426425 c 0,-0.674114 0,-1.179699 -0.16853,-1.348228 -0.16853,-0.168528 -0.33705,-0.168528 -0.84264,-0.337057 l -0.84264,0 0,-0.505585 c 0.84264,0 1.51675,0 2.19087,0 0.33705,0 0.67411,0 1.01117,0 l 8.93201,11.122881 0,-8.763482 c 0,-0.674114 0,-1.1797 -0.16853,-1.348228 -0.16853,-0.168529 -0.33706,-0.168529 -0.84264,-0.337057 l -0.84264,0 0,-0.505586 c 0.67411,0 1.51675,0 2.19087,0 0.67411,0 1.34822,0 2.19087,0 l 0,0.505586 -0.84265,0 c -0.50558,0 -0.67411,0.168528 -0.84264,0.337057 -0.16853,0.168528 -0.16853,0.674114 -0.16853,1.348228 l 0,10.448767 c 0,0.168528 0,0.505585 0,0.674114 l -1.68528,-0.337057 -8.93201,-10.954353 0,8.594954 c 0,0.674114 0,1.179699 0.16853,1.348228 0.16852,0.168528 0.33705,0.168528 0.84264,0.337057 l 0.84264,0 0,0.505585 c -0.84264,0 -1.51676,0 -2.19087,0 -0.67411,0 -1.34823,0 -2.19087,0 l 0,-0.505585 0.84264,0 c 0.50559,0 0.67412,-0.168529 0.84265,-0.337057 0.50558,-0.337057 0.50558,-0.674114 0.50558,-1.516757 l 0,0 z m 20.89753,-2.696456 4.7188,0 -2.3594,-5.56144 -2.3594,5.56144 0,0 z m 3.20205,-8.089368 4.55027,10.617296 c 0.16852,0.337057 0.33705,0.842642 0.67411,1.348228 0.16853,0.337057 0.33706,0.674114 0.67411,0.674114 l 0.67412,0 0,0.505585 c -0.84265,0 -1.68529,0 -2.52793,0 -0.67411,0 -1.51676,0 -2.52793,0 l 0,-0.505585 0.84264,0 c 0.33706,0 0.84265,-0.168529 0.84265,-0.337057 0,-0.337057 -0.16853,-0.674114 -0.33706,-1.1797 l -0.84264,-2.19087 -5.39291,0 -0.50559,1.179699 c -0.16853,0.337057 -0.67411,1.685285 -0.67411,2.022342 0,0.337057 0.33705,0.505586 0.84264,0.505586 l 0.67411,0 0,0.505585 c -0.84264,0 -1.68528,0 -2.19087,0 -0.67411,0 -1.51675,0 -2.19087,0 l 0,-0.505585 0.67412,0 c 0.50558,0 0.84264,-0.505586 1.01117,-0.842643 l 3.37057,-7.583782 c 0.50558,-1.348228 1.1797,-2.696456 1.68528,-4.044684 l 0.67412,0 0,-0.168529 z m 11.96552,10.785824 0,-8.426425 c 0,-0.674114 0,-1.179699 -0.16853,-1.348228 -0.16853,-0.168528 -0.33706,-0.168528 -0.84264,-0.337057 l -0.84264,0 0,-0.505585 c 0.84264,0 1.51675,0 2.19087,0 0.33705,0 0.67411,0 1.01117,0 l 8.93201,11.122881 0,-8.763482 c 0,-0.674114 0,-1.1797 -0.16853,-1.348228 -0.16853,-0.168529 -0.33706,-0.168529 -0.84264,-0.337057 l -0.84265,0 0,-0.505586 c 0.67412,0 1.51676,0 2.19087,0 0.67412,0 1.34823,0 2.19087,0 l 0,0.505586 -0.84264,0 c -0.50558,0 -0.67411,0.168528 -0.84264,0.337057 -0.16853,0.168528 -0.16853,0.674114 -0.16853,1.348228 l 0,10.448767 c 0,0.168528 0,0.505585 0,0.674114 l -1.68528,-0.337057 -8.93201,-10.954353 0,8.594954 c 0,0.674114 0,1.179699 0.16852,1.348228 0.16853,0.168528 0.33706,0.168528 0.84265,0.337057 l 0.84264,0 0,0.505585 c -0.84264,0 -1.51676,0 -2.19087,0 -0.67411,0 -1.34823,0 -2.19087,0 l 0,-0.505585 0.84264,0 c 0.50559,0 0.67412,-0.168529 0.84264,-0.337057 0.50559,-0.337057 0.50559,-0.674114 0.50559,-1.516757 l 0,0 z m 27.63867,0.505586 0,-1.853814 c 0,-0.505585 -0.16853,-0.674114 -0.67411,-0.674114 l -1.51676,-0.168528 0,-0.505586 c 0.84264,0 1.51676,0 2.3594,0 0.84264,0 1.51676,0 2.3594,0 l 0,0.505586 -0.50559,0.168528 c -0.16852,0 -0.16852,0.168529 -0.16852,0.674114 l 0,3.202042 c -1.68529,0.505585 -3.70763,1.011171 -4.88733,1.011171 -4.21321,0 -7.58378,-2.190871 -7.58378,-6.909669 0,-4.213212 3.37057,-6.74114 7.92084,-6.74114 2.3594,0 3.87615,0.505586 4.71879,0.842643 -0.16852,0.842642 -0.33705,1.853813 -0.33705,2.864984 l -0.50559,0 0,-1.011171 c 0,-0.842642 -0.67411,-1.179699 -1.51675,-1.516756 -0.67412,-0.168529 -1.34823,-0.337057 -2.69646,-0.337057 -3.5391,0 -5.39291,2.359399 -5.39291,5.729969 0,3.707627 2.19087,6.404083 6.06702,6.404083 1.51676,0 2.52793,-0.337057 2.69646,-0.674114 -0.33706,-0.505586 -0.33706,-0.505586 -0.33706,-1.011171 l 0,0 z m 10.44877,-3.202042 4.7188,0 -2.3594,-5.56144 -2.3594,5.56144 0,0 z m 3.20204,-8.089368 4.55027,10.617296 c 0.16853,0.337057 0.33706,0.842642 0.67411,1.348228 0.16853,0.337057 0.33706,0.674114 0.67412,0.674114 l 0.67411,0 0,0.505585 c -0.84264,0 -1.68528,0 -2.52792,0 -0.67412,0 -1.51676,0 -2.52793,0 l 0,-0.505585 0.84264,0 c 0.33706,0 0.84264,-0.168529 0.84264,-0.337057 0,-0.337057 -0.16853,-0.674114 -0.33705,-1.1797 l -0.84265,-2.19087 -5.39291,0 -0.50558,1.179699 c -0.16853,0.337057 -0.67412,1.685285 -0.67412,2.022342 0,0.337057 0.33706,0.505586 0.84264,0.505586 l 0.67412,0 0,0.505585 c -0.84264,0 -1.68529,0 -2.19087,0 -0.67412,0 -1.51676,0 -2.19087,0 l 0,-0.505585 0.67411,0 c 0.50559,0 0.84264,-0.505586 1.01117,-0.842643 l 3.37057,-7.583782 c 0.50559,-1.348228 1.1797,-2.696456 1.68529,-4.044684 l 0.67411,0 0,-0.168529 z m 23.59399,0.505586 c -3.20204,0 -4.7188,2.359399 -4.7188,5.392912 0,3.37057 1.51676,6.74114 5.22439,6.74114 3.20204,0 4.71879,-2.527928 4.71879,-5.898498 0,-3.707627 -1.68528,-6.235554 -5.22438,-6.235554 l 0,0 z m -0.16853,12.976694 c -3.87615,0 -6.74114,-2.696456 -6.74114,-6.909668 0,-3.876156 2.69646,-6.909669 7.0782,-6.909669 4.04468,0 6.90967,2.190871 6.90967,6.404083 0.16853,4.213213 -3.03352,7.415254 -7.24673,7.415254 l 0,0 z m 23.08841,-2.696456 0,-7.920839 c 0,-0.674114 0,-1.348228 0,-1.853814 l -2.86499,0 c -0.50558,0 -0.67411,0.168529 -0.67411,0.674114 l 0,1.516757 -0.50559,0 c 0,-1.011171 0,-2.022342 -0.16853,-3.033513 1.34823,0 2.69646,0 4.04469,0 l 2.69645,0 c 1.34823,0 2.69646,0 4.04469,0 -0.16853,1.011171 -0.16853,2.022342 -0.16853,3.033513 l -0.50559,0 0,-1.516757 c 0,-0.505585 -0.16852,-0.674114 -0.67411,-0.674114 l -3.37057,0 c 0,0.505586 0,1.1797 0,1.853814 l 0,7.920839 c 0,0.674114 0,1.1797 0.16853,1.348228 0.16853,0.168529 0.33706,0.337057 0.84264,0.337057 l 0.84264,0 0,0.505586 c -1.01117,0 -1.85381,0 -2.69645,0 -0.84265,0 -1.85382,0 -2.86499,0 l 0,-0.505586 0.84265,0 c 0.50558,0 0.67411,-0.168528 0.84264,-0.337057 0.16853,-0.168528 0.16853,-0.505585 0.16853,-1.348228 l 0,0 z m 11.79699,0 0,-8.426425 c 0,-0.674114 0,-1.179699 -0.16853,-1.348228 -0.16853,-0.168528 -0.33705,-0.337057 -0.84264,-0.337057 l -0.84264,0 0,-0.505585 c 1.01117,0 2.19087,0 3.20204,0 1.68528,0 3.37057,0 4.38174,0 0.84264,0 1.68529,0 2.3594,0 -0.16853,0.842642 -0.33706,1.853813 -0.33706,2.864984 l -0.67411,0 0,-1.179699 c 0,-0.168529 0,-0.505586 -0.16853,-0.505586 -1.01117,-0.337057 -2.52793,-0.337057 -3.70763,-0.337057 -0.50558,0 -1.01117,0 -1.51675,0.168529 l 0,5.055855 c 0.67411,0 1.34822,0 2.19087,0 1.1797,0 1.85381,0 2.02234,-0.168529 0.16853,0 0.16853,-0.168528 0.16853,-0.505586 l 0.16853,-1.01117 0.50558,0 c 0,0.842642 0,1.516756 0,2.19087 0,0.674114 0,1.348228 0,2.022342 l -0.50558,0 -0.16853,-1.179699 c 0,-0.168529 0,-0.337057 -0.16853,-0.505586 -0.16853,-0.168528 -0.84264,-0.168528 -2.02234,-0.168528 -0.84265,0 -1.51676,0 -2.19087,0 l 0,5.224383 c 0.50558,0.168529 1.01117,0.168529 1.51675,0.168529 1.51676,0 3.5391,0 3.87616,-0.168529 0.33706,-0.168528 0.50558,-1.011171 0.67411,-2.19087 l 0.67412,0 c -0.16853,0.842642 -0.33706,2.022342 -0.33706,3.033513 -0.84264,0 -2.3594,0 -3.70763,0 -1.51675,0 -2.86498,0 -4.04468,0 -0.67412,0 -1.34823,0 -2.02234,0 l 0,-0.505586 0.67411,0 c 0.50559,0 0.67411,-0.168528 0.84264,-0.337057 0.16853,-0.168528 0.16853,-0.505585 0.16853,-1.348228 l 0,0 z m 21.74018,-1.685285 0,-6.74114 c 0,-0.674114 0,-1.179699 -0.16853,-1.348228 -0.16853,-0.168528 -0.33706,-0.337057 -0.84264,-0.337057 l -0.84265,0 0,-0.505585 c 1.01118,0 1.85382,0 2.86499,0 0.84264,0 1.68528,0 2.69645,0 l 0,0.505585 -0.84264,0 c -0.50558,0 -0.67411,0.168529 -0.84264,0.337057 -0.16853,0.168529 -0.16853,0.674114 -0.16853,1.348228 l 0,6.404083 c 0,2.696456 1.34823,3.37057 3.87616,3.37057 2.02234,0 3.87615,-0.842642 3.87615,-3.876155 l 0,-6.067026 c 0,-0.674114 0,-1.1797 -0.16853,-1.348228 -0.16853,-0.168529 -0.33705,-0.168529 -0.84264,-0.337057 l -0.84264,0 0,-0.505586 c 0.67411,0 1.51675,0 2.19087,0 0.67411,0 1.34823,0 2.19087,0 l 0,0.505586 -0.84264,0 c -0.50559,0 -0.67412,0.168528 -0.84265,0.337057 -0.16852,0.168528 -0.16852,0.674114 -0.16852,1.348228 l 0,5.392912 c 0,4.044684 -1.51676,5.729969 -5.39292,5.729969 -3.03351,0.168528 -4.88732,-0.842643 -4.88732,-4.213213 l 0,0 z m 19.5493,-8.089368 0,9.774653 c 0,0.674114 0,1.1797 0.16853,1.348228 0.16853,0.168529 0.33706,0.337057 0.84264,0.337057 l 0.84265,0 0,0.505586 c -1.01117,0 -1.85382,0 -2.69646,0 -0.84264,0 -1.85381,0 -2.86498,0 l 0,-0.505586 0.84264,0 c 0.50558,0 0.67411,-0.168528 0.84264,-0.337057 0.16853,-0.168528 0.16853,-0.674114 0.16853,-1.348228 l 0,-8.426425 c 0,-0.674114 0,-1.179699 -0.16853,-1.348228 -0.16853,-0.168528 -0.33706,-0.337057 -0.84264,-0.337057 l -0.84264,0 0,-0.505585 c 1.1797,0 2.3594,0 3.37057,0 1.01117,0 2.19087,0 3.20204,0 1.85381,0 3.87615,0.674114 3.87615,2.864984 0,2.359399 -2.02234,4.044684 -4.55027,4.044684 -0.33705,0 -0.67411,0 -1.1797,-0.168528 l -0.16852,-0.674114 c 0.33705,0.168528 0.84264,0.168528 1.1797,0.168528 1.51675,0 2.69645,-1.1797 2.69645,-2.864984 0,-2.022342 -1.1797,-2.864985 -3.03351,-2.864985 -0.67412,0.168529 -1.1797,0.168529 -1.68529,0.337057 l 0,0 z m 17.35844,-0.505585 c -3.20204,0 -4.7188,2.359399 -4.7188,5.392912 0,3.37057 1.51676,6.74114 5.22438,6.74114 3.20205,0 4.7188,-2.527928 4.7188,-5.898498 -0.16853,-3.707627 -1.85381,-6.235554 -5.22438,-6.235554 l 0,0 z m -0.16853,12.976694 c -3.87616,0 -6.74114,-2.696456 -6.74114,-6.909668 0,-3.876156 2.69646,-6.909669 7.0782,-6.909669 4.04468,0 6.90967,2.190871 6.90967,6.404083 0,4.213213 -3.03352,7.415254 -7.24673,7.415254 l 0,0 z m 14.66198,-6.572611 0,3.876155 c 0,0.674114 0,1.1797 0.16853,1.348228 0.16853,0.168529 0.33705,0.337057 0.84264,0.337057 l 0.84264,0 0,0.505586 c -1.01117,0 -1.85381,0 -2.69645,0 -0.84265,0 -1.85382,0 -2.86499,0 l 0,-0.505586 0.84264,0 c 0.50559,0 0.67412,-0.168528 0.84265,-0.337057 0.16853,-0.168528 0.16853,-0.674114 0.16853,-1.348228 l 0,-8.426425 c 0,-0.674114 0,-1.179699 -0.16853,-1.348228 -0.16853,-0.168528 -0.33706,-0.337057 -0.84265,-0.337057 l -0.84264,0 0,-0.505585 c 1.01117,0 1.85382,0 2.86499,0 0.84264,0 1.68528,0 2.69645,0 l 0,0.505585 -0.84264,0 c -0.50559,0 -0.67411,0.168529 -0.84264,0.337057 -0.16853,0.168529 -0.16853,0.674114 -0.16853,1.348228 l 0,4.044684 5.22438,-5.055855 c 0.33706,-0.337057 0.50559,-0.674114 0.50559,-0.674114 l 0,-0.505585 c 0.67411,0 1.1797,0 1.68528,0 0.50559,0 1.01117,0 1.51676,0 l 0,0.505585 -0.84264,0 c -0.50559,0 -1.01117,0.337057 -1.51676,0.674114 l -5.05585,4.55027 6.23555,5.898497 c 0.50559,0.505586 0.84264,0.674114 1.1797,0.842643 l 0.33706,0 0,0.505585 c -0.33706,0 -0.84265,0 -1.1797,0 -0.50559,0 -0.84265,0 -1.51676,0 l -6.57261,-6.235554 0,0 0,0 z m 19.71783,-6.404083 c -3.20204,0 -4.71879,2.359399 -4.71879,5.392912 0,3.37057 1.51675,6.74114 5.22438,6.74114 3.20204,0 4.7188,-2.527928 4.7188,-5.898498 -0.16853,-3.707627 -1.85382,-6.235554 -5.22439,-6.235554 l 0,0 z m -0.16852,12.976694 c -3.87616,0 -6.74114,-2.696456 -6.74114,-6.909668 0,-3.876156 2.69645,-6.909669 7.07819,-6.909669 4.04469,0 6.90967,2.190871 6.90967,6.404083 0,4.213213 -3.03351,7.415254 -7.24672,7.415254 l 0,0 z M 471.6572,34.28871 c -3.20204,0 -4.7188,2.359399 -4.7188,5.392912 0,3.37057 1.51676,6.74114 5.22439,6.74114 3.20204,0 4.71879,-2.527928 4.71879,-5.898498 0,-3.707627 -1.68528,-6.235554 -5.22438,-6.235554 l 0,0 z m 0,12.976694 c -3.87616,0 -6.74114,-2.696456 -6.74114,-6.909668 0,-3.876156 2.69646,-6.909669 7.0782,-6.909669 4.04468,0 6.90967,2.190871 6.90967,6.404083 0,4.213213 -3.20205,7.415254 -7.24673,7.415254 l 0,0 z m 22.91988,-2.696456 0,-7.920839 c 0,-0.674114 0,-1.348228 0,-1.853814 l -2.86499,0 c -0.50558,0 -0.67411,0.168529 -0.67411,0.674114 l 0,1.516757 -0.50559,0 c 0,-1.011171 0,-2.022342 -0.16853,-3.033513 1.34823,0 2.69646,0 4.04469,0 l 2.69645,0 c 1.34823,0 2.69646,0 4.04469,0 -0.16853,1.011171 -0.16853,2.022342 -0.16853,3.033513 l -0.50559,0 0,-1.516757 c 0,-0.505585 -0.16853,-0.674114 -0.67411,-0.674114 l -2.86499,0 c 0,0.505586 0,1.1797 0,1.853814 l 0,7.920839 c 0,0.674114 0,1.1797 0.16853,1.348228 0.16853,0.168529 0.33706,0.337057 0.84265,0.337057 l 0.84264,0 0,0.505586 c -1.01117,0 -1.85382,0 -2.69646,0 -0.84264,0 -1.85381,0 -2.86498,0 l 0,-0.505586 0.84264,0 c 0.50559,0 0.67411,-0.168528 0.84264,-0.337057 -0.33705,-0.168528 -0.33705,-0.505585 -0.33705,-1.348228 l 0,0 z m 11.79699,0 0,-8.426425 c 0,-0.674114 0,-1.179699 -0.16853,-1.348228 -0.16853,-0.168528 -0.33706,-0.337057 -0.84264,-0.337057 l -0.84264,0 0,-0.505585 c 1.01117,0 2.19087,0 3.20204,0 1.68528,0 3.37057,0 4.38174,0 0.84264,0 1.68528,0 2.3594,0 -0.16853,0.842642 -0.33706,1.853813 -0.33706,2.864984 l -0.67411,0 0,-1.179699 c 0,-0.168529 0,-0.505586 -0.16853,-0.505586 -1.01117,-0.337057 -2.52793,-0.337057 -3.70763,-0.337057 -0.50558,0 -1.01117,0 -1.51675,0.168529 l 0,5.055855 c 0.67411,0 1.34822,0 2.19087,0 1.1797,0 1.85381,0 2.02234,-0.168529 0.16853,0 0.16853,-0.168528 0.16853,-0.505586 l 0.16852,-1.01117 0.50559,0 c 0,0.842642 0,1.516756 0,2.19087 0,0.674114 0,1.348228 0,2.022342 l -0.50559,0 -0.16852,-1.179699 c 0,-0.168529 0,-0.337057 -0.16853,-0.505586 -0.16853,-0.168528 -0.84264,-0.168528 -2.02234,-0.168528 -0.84265,0 -1.51676,0 -2.19087,0 l 0,5.224383 c 0.50558,0.168529 1.01117,0.168529 1.51675,0.168529 1.51676,0 3.5391,0 3.87616,-0.168529 0.33705,-0.168528 0.50558,-1.011171 0.67411,-2.19087 l 0.67412,0 c -0.16853,0.842642 -0.33706,2.022342 -0.33706,3.033513 -0.84264,0 -2.3594,0 -3.70763,0 -1.51676,0 -2.86498,0 -4.04468,0 -0.67412,0 -1.34823,0 -2.02234,0 l 0,-0.505586 0.67411,0 c 0.50558,0 0.67411,-0.168528 0.84264,-0.337057 0.16853,-0.168528 0.16853,-0.505585 0.16853,-1.348228 l 0,0 z m 23.76252,-8.426425 0,8.426425 c 0,0.674114 0,1.1797 0.16853,1.348228 0.16853,0.168529 0.33705,0.337057 0.84264,0.337057 l 0.84264,0 0,0.505586 c -1.01117,0 -1.85381,0 -2.69645,0 -0.84265,0 -1.85382,0 -2.86499,0 l 0,-0.505586 0.84264,0 c 0.50559,0 0.67412,-0.168528 0.84265,-0.337057 0.16852,-0.168528 0.16852,-0.674114 0.16852,-1.348228 l 0,-8.426425 c 0,-0.674114 0,-1.179699 -0.16852,-1.348228 -0.16853,-0.168528 -0.33706,-0.337057 -0.84265,-0.337057 l -0.84264,0 0,-0.505585 c 1.01117,0 1.85381,0 2.86499,0 0.84264,0 1.68528,0 2.69645,0 l 0,0.505585 -0.84264,0 c -0.50559,0 -0.67411,0.168529 -0.84264,0.337057 -0.16853,0.168529 -0.16853,0.674114 -0.16853,1.348228 l 0,0 z m 9.26907,4.55027 0,3.876155 c 0,0.674114 0,1.1797 0.16852,1.348228 0.16853,0.168529 0.33706,0.337057 0.84265,0.337057 l 0.84264,0 0,0.505586 c -1.01117,0 -1.85381,0 -2.69646,0 -0.84264,0 -1.85381,0 -2.86498,0 l 0,-0.505586 0.84264,0 c 0.50559,0 0.67412,-0.168528 0.84264,-0.337057 0.16853,-0.168528 0.16853,-0.674114 0.16853,-1.348228 l 0,-8.426425 c 0,-0.674114 0,-1.179699 -0.16853,-1.348228 -0.16852,-0.168528 -0.33705,-0.337057 -0.84264,-0.337057 l -0.84264,0 0,-0.505585 c 1.01117,0 1.85381,0 2.86498,0 0.84265,0 1.68529,0 2.69646,0 l 0,0.505585 -0.84264,0 c -0.50559,0 -0.67412,0.168529 -0.84265,0.337057 -0.16852,0.168529 -0.16852,0.674114 -0.16852,1.348228 l 0,4.044684 5.22438,-5.055855 c 0.33706,-0.337057 0.50558,-0.674114 0.50558,-0.674114 l 0,-0.505585 c 0.67412,0 1.1797,0 1.68529,0 0.50559,0 1.01117,0 1.51676,0 l 0,0.505585 -0.84265,0 c -0.50558,0 -1.01117,0.337057 -1.51675,0.674114 l -5.05586,4.55027 6.23556,5.898497 c 0.50558,0.505586 0.84264,0.674114 1.1797,0.842643 l 0.33705,0 0,0.505585 c -0.33705,0 -0.84264,0 -1.1797,0 -0.50558,0 -0.84264,0 -1.51675,0 l -6.57261,-6.235554 0,0 0,0 z m 17.02137,1.179699 4.7188,0 -2.3594,-5.56144 -2.3594,5.56144 0,0 z m 3.03352,-8.089368 4.55027,10.617296 c 0.16852,0.337057 0.33705,0.842642 0.67411,1.348228 0.16853,0.337057 0.33706,0.674114 0.67411,0.674114 l 0.67412,0 0,0.505585 c -0.84264,0 -1.68529,0 -2.52793,0 -0.67411,0 -1.51676,0 -2.52793,0 l 0,-0.505585 0.84265,0 c 0.33705,0 0.84264,-0.168529 0.84264,-0.337057 0,-0.337057 -0.16853,-0.674114 -0.33706,-1.1797 l -0.84264,-2.19087 -5.39291,0 -0.50559,1.179699 c -0.16853,0.337057 -0.67411,1.685285 -0.67411,2.022342 0,0.337057 0.33705,0.505586 0.84264,0.505586 l 0.67411,0 0,0.505585 c -0.84264,0 -1.68528,0 -2.19087,0 -0.67411,0 -1.51675,0 -2.19087,0 l 0,-0.505585 0.67412,0 c 0.50558,0 0.84264,-0.505586 1.01117,-0.842643 l 3.37057,-7.583782 c 0.50558,-1.348228 1.1797,-2.696456 1.68528,-4.044684 l 0.67412,0 0,-0.168529 z m 20.22342,8.089368 4.71879,0 -2.35939,-5.56144 -2.3594,5.56144 0,0 z m 3.20204,-8.089368 4.55027,10.617296 c 0.16853,0.337057 0.33705,0.842642 0.67411,1.348228 0.16853,0.337057 0.33706,0.674114 0.67412,0.674114 l 0.67411,0 0,0.505585 c -0.84264,0 -1.68529,0 -2.52793,0 -0.67411,0 -1.51675,0 -2.52793,0 l 0,-0.505585 0.84265,0 c 0.33705,0 0.84264,-0.168529 0.84264,-0.337057 0,-0.337057 -0.16853,-0.674114 -0.33706,-1.1797 l -0.84264,-2.19087 -5.39291,0 -0.50559,1.179699 c -0.16853,0.337057 -0.67411,1.685285 -0.67411,2.022342 0,0.337057 0.33706,0.505586 0.84264,0.505586 l 0.67412,0 0,0.505585 c -0.84265,0 -1.68529,0 -2.19088,0 -0.67411,0 -1.51675,0 -2.19087,0 l 0,-0.505585 0.67412,0 c 0.50558,0 0.84264,-0.505586 1.01117,-0.842643 l 3.37057,-7.583782 c 0.50558,-1.348228 1.1797,-2.696456 1.68528,-4.044684 l 0.67412,0 0,-0.168529 z m 31.85188,2.359399 0,8.426425 c 0,0.674114 0,1.1797 0.16853,1.348228 0.16853,0.168529 0.33706,0.337057 0.84265,0.337057 l 0.84264,0 0,0.505586 c -1.01117,0 -1.85382,0 -2.69646,0 -0.84264,0 -1.85381,0 -2.52793,0 l 0,-0.505586 0.67412,0 c 0.50558,0 0.67411,-0.168528 0.84264,-0.337057 0.16853,-0.168528 0.16853,-0.674114 0.16853,-1.348228 l 0,-8.594953 c -0.33706,0.505585 -0.50559,1.011171 -0.84264,1.516756 l -3.37057,7.078197 c -0.33706,0.842643 -0.67412,1.516757 -1.01117,2.359399 l -0.33706,0 -5.22438,-11.122881 0,8.594954 c 0,0.674114 0,1.179699 0.16852,1.348228 0.16853,0.168528 0.33706,0.168528 0.84265,0.337057 l 0.84264,0 0,0.505585 c -0.84264,0 -1.51676,0 -2.19087,0 -0.67412,0 -1.34823,0 -2.19087,0 l 0,-0.505585 0.84264,0 c 0.50559,0 0.67411,-0.168529 0.84264,-0.337057 0.16853,-0.168529 0.16853,-0.674114 0.16853,-1.348228 l 0,-8.426425 c 0,-0.674114 0,-1.1797 -0.16853,-1.348228 -0.16853,-0.168529 -0.33705,-0.168529 -0.84264,-0.337057 l -0.84264,0 0,-0.505586 c 0.50558,0 1.1797,0 1.85381,0 0.67412,0 1.1797,0 1.85381,0 l 5.05586,10.448767 4.88733,-10.448767 c 0.67411,0 1.1797,0 1.85381,0 0.67411,0 1.1797,0 1.68528,0 l 0,0.505586 -0.84264,0 c -0.50558,0 -0.67411,0.168528 -0.84264,0.337057 -0.33706,0.337057 -0.50559,0.842642 -0.50559,1.516756 l 0,0 z m 9.77466,5.729969 4.7188,0 -2.3594,-5.56144 -2.3594,5.56144 0,0 z m 3.03351,-8.089368 4.55027,10.617296 c 0.16853,0.337057 0.33706,0.842642 0.67411,1.348228 0.16853,0.337057 0.33706,0.674114 0.67412,0.674114 l 0.67411,0 0,0.505585 c -0.84264,0 -1.68528,0 -2.52793,0 -0.67411,0 -1.51675,0 -2.52792,0 l 0,-0.505585 0.84264,0 c 0.33706,0 0.84264,-0.168529 0.84264,-0.337057 0,-0.337057 -0.16853,-0.674114 -0.33706,-1.1797 l -0.84264,-2.19087 -5.39291,0 -0.50559,1.179699 c -0.16852,0.337057 -0.67411,1.685285 -0.67411,2.022342 0,0.337057 0.33706,0.505586 0.84264,0.505586 l 0.67412,0 0,0.505585 c -0.84265,0 -1.68529,0 -2.19087,0 -0.67412,0 -1.51676,0 -2.19087,0 l 0,-0.505585 0.67411,0 c 0.50559,0 0.84264,-0.505586 1.01117,-0.842643 l 3.37057,-7.583782 c 0.50559,-1.348228 1.1797,-2.696456 1.68529,-4.044684 l 0.67411,0 0,-0.168529 z m 11.96552,9.100539 0,-6.74114 c 0,-0.674114 0,-1.179699 -0.16853,-1.348228 -0.16852,-0.168528 -0.33705,-0.337057 -0.84264,-0.337057 l -0.84264,0 0,-0.505585 c 1.01117,0 1.85381,0 2.86498,0 0.84265,0 1.68529,0 2.69646,0 l 0,0.505585 -0.84264,0 c -0.50559,0 -0.67412,0.168529 -0.84264,0.337057 -0.16853,0.168529 -0.16853,0.674114 -0.16853,1.348228 l 0,6.404083 c 0,2.696456 1.34822,3.37057 3.87615,3.37057 2.02234,0 3.87616,-0.842642 3.87616,-3.876155 l 0,-6.067026 c 0,-0.674114 0,-1.1797 -0.16853,-1.348228 -0.16853,-0.168529 -0.33706,-0.168529 -0.84264,-0.337057 l -0.84265,0 0,-0.505586 c 0.67412,0 1.51676,0 2.19087,0 0.67412,0 1.34823,0 2.19088,0 l 0,0.505586 -0.84265,0 c -0.50558,0 -0.67411,0.168528 -0.84264,0.337057 -0.16853,0.168528 -0.16853,0.674114 -0.16853,1.348228 l 0,5.392912 c 0,4.044684 -1.51675,5.729969 -5.39291,5.729969 -3.03351,0.168528 -4.88733,-0.842643 -4.88733,-4.213213 l 0,0 z m -262.23034,-12.639637 7.0782,0 0,1.348228 -7.0782,0 0,-1.348228 0,0 z m 255.99479,43.143295 -6.57261,16.85285 13.48228,0 -6.90967,-16.85285 0,0 z m 8.42642,20.729006 -16.68432,0 -2.86498,7.415253 c -1.01117,2.52793 0.33706,3.70763 1.51675,3.70763 l 3.37057,0.16853 0,2.52792 c -3.20204,0 -5.56144,-0.16852 -7.58378,-0.16852 -2.02234,0 -4.38174,0.16852 -7.58378,0.16852 l 0,-2.52792 2.02234,-0.16853 c 1.68529,-0.16853 2.86499,-2.02234 3.70763,-4.04469 l 11.96552,-29.155427 1.68529,-4.550269 1.01117,-2.696456 1.01117,-2.696456 4.7188,0 17.1899,40.109778 c 0.67412,1.68529 1.51676,2.69646 3.70763,2.86499 l 1.51676,0.16853 0,2.52793 c -4.38174,0 -7.75231,-0.16853 -10.28024,-0.16853 -2.52793,0 -5.8985,0.16853 -10.28024,0.16853 l 0,-2.52793 3.5391,-0.16853 c 1.01117,0 1.85381,-1.51676 1.01117,-3.70763 l -2.69646,-7.246723 0,0 z M 314.9257,71.196451 l 10.44876,25.616332 9.4376,-23.425462 c 1.1797,-2.864984 2.02234,-5.392912 2.02234,-6.572611 0,-1.1797 -1.1797,-1.685285 -2.52793,-1.853814 l -3.03351,-0.168528 0,-2.527927 c 3.20204,0 5.72997,0.168528 7.75231,0.168528 1.85382,0 4.38174,-0.168528 7.58378,-0.168528 l 0,2.527927 -2.19087,0.168528 c -1.51675,0.168529 -2.3594,1.1797 -3.20204,3.202042 l -13.81933,33.031582 c -1.01118,2.19087 -1.68529,4.38174 -2.52793,6.57262 l -5.05586,0 -15.84168,-37.918917 c -0.84264,-1.853814 -1.85381,-4.55027 -4.04468,-4.718798 l -2.69646,-0.168529 0,-2.527927 c 4.38175,0 7.75232,0.168529 10.28024,0.168529 2.52793,0 5.8985,-0.168529 10.95436,-0.168529 l 0,2.527927 -3.37057,0.168529 c -1.01118,0 -1.68529,0.674114 -1.68529,1.179699 0.16853,1.516757 0.84264,3.37057 1.51676,4.887327 l 0,0 z m 53.59206,0.505585 0,27.133089 c 0,2.864985 0,4.550265 0.50558,5.392915 0.33706,0.50558 1.01118,0.84264 2.69646,1.01117 l 2.52793,0.16853 0,2.69645 c -2.69646,0 -6.40408,-0.16853 -10.28024,-0.16853 -4.04468,0 -7.58378,0.16853 -10.28024,0.16853 l 0,-2.69645 2.52793,-0.16853 c 1.68528,-0.16853 2.52793,-0.33706 2.69645,-1.01117 0.33706,-0.84265 0.50559,-2.52793 0.50559,-5.392915 l 0,-27.133089 c 0,-2.864984 0,-4.550269 -0.50559,-5.392912 -0.33705,-0.505585 -1.01117,-0.842642 -2.69645,-1.011171 l -2.52793,-0.168528 0,-2.696456 c 2.69646,0 6.40408,0.168529 10.28024,0.168529 3.87616,0 7.58378,-0.168529 10.28024,-0.168529 l 0,2.696456 -2.52793,0.168528 c -1.68528,0.168529 -2.52793,0.337057 -2.69646,1.011171 -0.33705,0.842643 -0.50558,2.527928 -0.50558,5.392912 l 0,0 z m 55.44587,30.166604 -1.51675,3.20204 c -4.55027,2.86498 -9.94318,3.70763 -15.33609,3.70763 -15.16757,0 -26.29045,-8.42643 -26.29045,-24.436636 0,-15.336094 12.47111,-22.919876 26.6275,-22.919876 5.39291,0 9.94318,0.505586 16.34727,3.202041 l 0.33705,0.674114 c -0.67411,2.359399 -1.1797,7.246726 -1.51675,10.11171 l -2.69646,0 -0.33706,-5.729969 c -3.20204,-3.37057 -7.41525,-4.550269 -11.96552,-4.550269 -10.95435,0 -16.85285,7.920839 -16.85285,18.369606 0,12.134052 7.0782,20.897539 19.54931,20.897539 3.87615,0 9.26906,-1.34823 12.63963,-3.37057 l 1.01117,0.84264 0,0 z m 32.18895,-35.222459 0,32.188944 c 0,2.864985 0,4.550265 0.50558,5.392915 0.33706,0.50558 1.01117,0.84264 2.69646,1.01117 l 2.52793,0.16853 0,2.69645 c -2.69646,0 -6.40409,-0.16853 -10.28024,-0.16853 -4.04469,0 -7.58378,0.16853 -10.28024,0.16853 l 0,-2.69645 2.52793,-0.16853 c 1.68528,-0.16853 2.52793,-0.33706 2.69645,-1.01117 0.33706,-0.84265 0.50559,-2.52793 0.50559,-5.392915 l 0,-32.188944 -7.75231,0 c -1.85382,0 -3.70763,0 -4.04469,0.674114 -0.33705,0.337057 -0.50558,0.842643 -0.67411,1.516757 l -0.33706,4.550269 -2.86498,0 c -0.16853,-4.381741 -0.33706,-7.415254 -0.84264,-10.617295 l 0.33705,-0.337057 c 6.90967,0 13.81934,0.168529 20.56048,0.168529 6.74114,0 13.65081,-0.168529 20.72901,-0.168529 l 0.33705,0.337057 c -0.50558,3.202041 -0.67411,6.235554 -0.84264,10.617295 l -2.69646,0 -0.33705,-4.550269 c 0,-0.674114 -0.33706,-1.1797 -0.67412,-1.516757 -0.50558,-0.674114 -2.3594,-0.674114 -4.04468,-0.674114 l -7.75231,0 0,0 z m 46.51386,-1.348228 c -12.30258,0 -15.33609,9.269068 -15.33609,19.212249 0,10.954353 4.55027,20.729008 13.98787,20.729008 12.30258,0 15.33609,-9.100541 15.33609,-19.212251 -0.16853,-10.954353 -4.7188,-20.729006 -13.98787,-20.729006 l 0,0 z m 0,-3.707626 c 14.83051,0 23.93105,8.089367 23.93105,23.256932 0,15.673151 -10.11171,24.099571 -25.27927,24.099571 -14.83051,0 -23.93105,-8.08936 -23.93105,-23.256928 0,-15.841679 9.94318,-24.099575 25.27927,-24.099575 l 0,0 z m 35.72804,37.076269 0,-27.133088 c 0,-2.864985 0,-4.55027 -0.50558,-5.392912 -0.33706,-0.674114 -1.01117,-1.011171 -2.69646,-1.1797 l -2.52792,-0.168528 0,-2.527927 c 4.38174,0 7.75231,0.168528 11.12288,0.168528 4.55027,0 8.93201,-0.168528 13.48228,-0.168528 6.74114,-0.168529 12.97669,1.853813 12.97669,9.774652 0,5.898498 -4.38174,9.774653 -9.94318,11.796995 l 11.96552,18.201082 c 0.50559,0.67411 1.1797,1.51675 1.85382,2.02234 0.67411,0.50558 1.51675,0.67411 2.69645,1.01117 l 0,2.69646 c -2.19087,0 -4.38174,-0.16853 -6.40408,-0.16853 -2.02234,0 -4.04468,0.16853 -5.8985,0.16853 l -14.83051,-23.088409 0.50559,-1.1797 c 6.06703,0.505586 10.6173,-3.202041 10.6173,-9.437596 0,-5.392912 -3.70763,-8.426425 -8.93202,-8.426425 -1.34822,0 -3.20204,0 -4.21321,0.674114 l 0,32.357472 c 0,2.864984 0,4.550274 0.50559,5.392914 0.33705,0.50558 1.01117,0.84264 2.69645,1.01117 l 2.52793,0.16853 0,2.69645 c -2.69645,0 -6.40408,-0.16852 -10.28024,-0.16852 -4.04468,0 -7.58378,0.16852 -10.44876,0.16852 l 0,-2.69645 2.52792,-0.16853 c 1.68529,-0.16853 2.52793,-0.33706 2.69646,-1.01117 0.50558,-0.67412 0.50558,-2.52793 0.50558,-5.392914 l 0,0 z m 60.67026,-26.96456 0,27.133089 c 0,2.864985 0,4.550265 0.50559,5.392915 0.33706,0.50558 1.01117,0.84264 2.69646,1.01117 l 2.52792,0.16853 0,2.69645 c -2.69645,0 -6.40408,-0.16853 -10.28024,-0.16853 -4.04468,0 -7.58378,0.16853 -10.28023,0.16853 l 0,-2.69645 2.52792,-0.16853 c 1.68529,-0.16853 2.52793,-0.33706 2.69646,-1.01117 0.33706,-0.84265 0.50559,-2.52793 0.50559,-5.392915 l 0,-27.133089 c 0,-2.864984 0,-4.550269 -0.50559,-5.392912 -0.33706,-0.505585 -1.01117,-0.842642 -2.69646,-1.011171 l -2.52792,-0.168528 0,-2.696456 c 2.69645,0 6.40408,0.168529 10.28023,0.168529 3.87616,0 7.58379,-0.168529 10.28024,-0.168529 l 0,2.696456 -2.52792,0.168528 c -1.68529,0.168529 -2.52793,0.337057 -2.69646,1.011171 -0.50559,0.842643 -0.50559,2.527928 -0.50559,5.392912 l 0,0 z m 48.70474,61.849954 0,-7.75231 c 0,-0.84264 0,-1.34822 -0.16853,-1.51675 -0.16853,-0.16853 -0.33706,-0.33706 -0.84264,-0.33706 l -0.67412,0 0,-0.67411 c 0.67412,0 1.51676,0 2.19088,0 0.50558,0 1.01117,0 1.51675,0 0.67412,0.84264 1.1797,1.68528 2.02234,2.52792 l 5.8985,6.90967 0,-6.74114 c 0,-0.84264 0,-1.34822 -0.16853,-1.51675 -0.16853,-0.16853 -0.33705,-0.33706 -0.84264,-0.33706 l -0.67411,0 0,-0.67411 c 0.67411,0 1.51675,0 2.19087,0 0.67411,0 1.34822,0 2.19087,0 l 0,0.67411 -0.67412,0 c -0.50558,0 -0.67411,0.16853 -0.84264,0.33706 -0.16853,0.16853 -0.16853,0.67411 -0.16853,1.51675 l 0,8.59495 c 0,0.67411 0,1.34823 0,1.85381 l -1.68528,-0.16852 c -0.84265,-0.84265 -1.51676,-1.68529 -2.3594,-2.69646 l -6.06703,-7.41525 0,7.41525 c 0,0.84264 0,1.34823 0.16853,1.51676 0.16853,0.16852 0.33706,0.33705 0.84264,0.33705 l 0.67412,0 0,0.67412 c -0.67412,0 -1.34823,0 -2.19087,0 -0.84265,0 -1.51676,0 -2.19087,0 l 0,-0.67412 0.67411,0 c 0.50559,0 0.67411,-0.16853 0.84264,-0.33705 0.16853,-0.16853 0.33706,-0.67412 0.33706,-1.51676 l 0,0 z m -343.96666,-0.67411 0,-6.90967 c 0,-0.84264 0,-1.34822 -0.16853,-1.51675 -0.16853,-0.16853 -0.33706,-0.33706 -0.84264,-0.33706 l -0.67412,0 0,-0.67411 c 0.84264,0 1.85381,0 2.86499,0 1.17969,0 2.19087,0 2.86498,0 l 0,0.67411 -0.67411,0 c -0.50559,0 -0.67412,0.16853 -0.84265,0.33706 -0.16853,0.16853 -0.16853,0.67411 -0.16853,1.51675 l 0,4.71879 c 0,2.69646 0.16853,4.38175 3.37057,4.38175 3.20205,0 3.5391,-1.68529 3.5391,-4.38175 l 0,-4.55026 c 0,-0.84264 0,-1.34823 -0.16853,-1.51675 -0.16852,-0.16853 -0.33705,-0.33706 -0.84264,-0.33706 l -0.67411,0 0,-0.67412 c 0.67411,0 1.51675,0 2.19087,0 0.67411,0 1.34823,0 2.19087,0 l 0,0.67412 -0.67411,0 c -0.50559,0 -0.67412,0.16853 -0.84265,0.33706 -0.16853,0.16852 -0.16853,0.67411 -0.16853,1.51675 l 0,5.56144 c 0,3.37057 -1.85381,5.05585 -5.22438,5.05585 -3.20204,-0.33706 -5.05585,-1.85381 -5.05585,-3.87615 l 0,0 z m 17.69549,0.67411 0,-7.75231 c 0,-0.84264 0,-1.34822 -0.16853,-1.51675 -0.16853,-0.16853 -0.33706,-0.33706 -0.84264,-0.33706 l -0.67412,0 0,-0.67411 c 0.67412,0 1.51676,0 2.19087,0 0.50559,0 1.01117,0 1.51676,0 0.67411,0.84264 1.1797,1.68528 2.02234,2.52792 l 5.8985,6.90967 0,-6.74114 c 0,-0.84264 0,-1.34822 -0.16853,-1.51675 -0.16853,-0.16853 -0.33706,-0.33706 -0.84264,-0.33706 l -0.67412,0 0,-0.67411 c 0.67412,0 1.51676,0 2.19088,0 0.67411,0 1.34822,0 2.19087,0 l 0,0.67411 -0.67412,0 c -0.50558,0 -0.67411,0.16853 -0.84264,0.33706 -0.16853,0.16853 -0.16853,0.67411 -0.16853,1.51675 l 0,8.59495 c 0,0.67411 0,1.34823 0,1.85381 l -1.68528,-0.16852 c -0.84265,-0.84265 -1.51676,-1.68529 -2.3594,-2.69646 l -6.06703,-7.41525 0,7.41525 c 0,0.84264 0,1.34823 0.16853,1.51676 0.16853,0.16852 0.33706,0.33705 0.84264,0.33705 l 0.67412,0 0,0.67412 c -0.67412,0 -1.34823,0 -2.19087,0 -0.84265,0 -1.51676,0 -2.19088,0 l 0,-0.67412 0.67412,0 c 0.50558,0 0.67411,-0.16853 0.84264,-0.33705 0.33706,-0.16853 0.33706,-0.67412 0.33706,-1.51676 l 0,0 z m 21.40312,-7.58378 0,7.75231 c 0,0.84264 0,1.34823 0.16853,1.51675 0,0.16853 0.33705,0.16853 0.84264,0.33706 l 0.67411,0 0,0.84264 c -0.84264,0 -1.85381,0 -2.86498,0 -1.1797,0 -2.19087,0 -2.86499,0 l 0,-0.84264 0.67412,0 c 0.50558,0 0.67411,-0.16853 0.84264,-0.33706 0.16853,-0.16852 0.16853,-0.67411 0.16853,-1.51675 l 0,-7.75231 c 0,-0.84264 0,-1.34822 -0.16853,-1.51675 0,-0.16853 -0.33706,-0.16853 -0.84264,-0.33706 l -0.67412,0 0,-0.84264 c 0.84265,0 1.85382,0 2.86499,0 1.1797,0 2.19087,0 2.86498,0 l 0,0.84264 -0.67411,0 c -0.50559,0 -0.67412,0.16853 -0.84264,0.33706 -0.16853,0.16853 -0.16853,0.67411 -0.16853,1.51675 l 0,0 z m 10.61729,-0.16853 3.03352,7.24672 2.69645,-6.5726 c 0.33706,-0.84264 0.50559,-1.51676 0.50559,-1.85381 0,-0.33706 -0.33706,-0.50559 -0.67412,-0.50559 l -0.84264,0 0,-0.67411 c 0.84264,0 1.68529,0 2.19087,0 0.50559,0 1.1797,0 2.19087,0 l 0,0.67411 -0.67411,0 c -0.33706,0 -0.67412,0.33706 -0.84264,0.84264 l -3.87616,9.43759 c -0.33706,0.67412 -0.50559,1.1797 -0.67411,1.85382 l -1.34823,0 -4.55027,-10.78582 c -0.16853,-0.50559 -0.50559,-1.34823 -1.1797,-1.34823 l -0.84264,0 0,-0.67411 c 1.1797,0 2.19087,0 2.86498,0 0.67411,0 1.68529,0 3.03351,0 l 0,0.67411 -1.01117,0 c -0.33705,0 -0.50558,0.16853 -0.50558,0.33706 0,0.33705 0.33705,1.01117 0.50558,1.34822 l 0,0 z m 17.02138,-1.34822 0,4.55026 c 0.50559,0 0.84264,0 1.1797,0 l 1.1797,0 c 0.67411,0 1.01117,0 1.01117,-0.33705 l 0.16853,-1.01117 0.67411,0 c 0,0.67411 0,1.34822 0,2.02234 0,0.67411 0,1.34822 0,2.02234 l -0.67411,0 -0.16853,-1.01118 c 0,-0.50558 -0.33706,-0.67411 -1.01117,-0.67411 l -1.1797,0 c -0.33706,0 -0.84264,0 -1.1797,0 l 0,5.05586 c 0.84264,0 1.68529,0 2.3594,0 0.84264,0 2.19087,-0.16853 2.3594,-0.33706 l 0.50558,-1.85381 0.67412,0 -0.16853,3.03351 c -1.34823,0.16853 -3.5391,0.16853 -4.7188,0.16853 -0.84264,0 -1.51675,0 -2.3594,0 -0.84264,0 -1.51675,0 -2.19087,0 l 0,-0.50559 0.67412,-0.33706 c 0.33705,-0.16852 0.33705,-0.50558 0.33705,-1.01117 l 0,-8.42642 c 0,-0.84264 0,-1.34822 -0.16852,-1.51675 -0.16853,-0.16853 -0.33706,-0.33706 -0.84265,-0.33706 l -0.67411,0 0,-0.67411 c 1.1797,0 2.19087,0 2.86498,0 1.85382,0 3.03352,0 4.04469,0 1.01117,0 1.85381,0 2.69645,0 l -0.16853,2.86498 -0.67411,0 -0.16853,-1.34823 c 0,-0.33705 -1.34823,-0.33705 -2.19087,-0.33705 -0.50558,0 -1.34823,0 -2.19087,0 l 0,0 z m 11.797,9.10053 0,-7.75231 c 0,-0.84264 0,-1.34822 -0.16853,-1.51675 -0.16853,-0.16853 -0.33706,-0.33706 -0.84265,-0.33706 l -0.67411,0 0,-0.67411 c 1.1797,0 2.19087,0 3.20204,0 1.34823,0 2.52793,0 3.87616,0 1.85381,0 3.70762,0.50558 3.70762,2.86498 0,1.68529 -1.17969,2.69646 -2.86498,3.37057 l 3.37057,5.22438 c 0.16853,0.16853 0.33706,0.33706 0.50559,0.50558 0.16852,0.16853 0.33705,0.16853 0.84264,0.33706 l 0,0.84264 c -0.67412,0 -1.1797,0 -1.85382,0 -0.50558,0 -1.17969,0 -1.68528,0 l -4.21321,-6.57261 0.16853,-0.33705 c 1.68528,0.16853 3.03351,-0.84264 3.03351,-2.69645 0,-1.51676 -1.01117,-2.3594 -2.52793,-2.3594 -0.33706,0 -0.84264,0 -1.1797,0.16853 l 0,9.10053 c 0,0.84264 0,1.34823 0.16853,1.51675 0,0.16853 0.33706,0.16853 0.84264,0.33706 l 0.67412,0 0,0.84264 c -0.84265,0 -1.85382,0 -2.86499,0 -1.1797,0 -2.19087,0 -2.86498,0 l 0,-0.84264 0.67411,0 c 0.50559,0 0.67412,-0.16853 0.84264,-0.33706 -0.16852,-0.33705 -0.16852,-0.84264 -0.16852,-1.68528 l 0,0 z m 15.50462,-1.1797 0.84264,0 0.16853,1.68528 c 0.50558,0.84265 2.02234,1.51676 3.03351,1.51676 1.51676,0 3.03351,-0.84264 3.03351,-2.52793 0,-0.84264 -0.50558,-1.34822 -1.51675,-1.68528 l -2.69646,-0.84264 c -1.51675,-0.50559 -2.69645,-1.51676 -2.69645,-3.20204 0,-3.03351 2.19087,-4.21321 5.05585,-4.21321 1.1797,0 2.3594,0.16853 3.5391,0.67411 -0.16853,0.84265 -0.16853,1.85382 -0.16853,2.86499 l -0.84264,0 -0.16853,-1.51676 c -0.50559,-0.67411 -1.68528,-1.01117 -2.52793,-1.01117 -1.68528,0 -2.52792,1.01117 -2.52792,2.3594 0,0.84264 0.67411,1.51676 2.02234,1.85381 l 2.19087,0.50559 c 1.68528,0.50559 2.86498,1.51675 2.86498,3.20203 0,3.20204 -2.69645,4.55027 -5.56144,4.55027 -1.34823,0 -2.69645,-0.33705 -3.87615,-0.84264 -0.16853,-1.1797 -0.16853,-2.3594 -0.16853,-3.37057 l 0,0 z m 18.03255,-6.40408 0,7.75231 c 0,0.84264 0,1.34823 0.16853,1.51675 0,0.16853 0.33705,0.16853 0.84264,0.33706 l 0.67411,0 0,0.84264 c -0.84264,0 -1.85381,0 -2.86498,0 -1.1797,0 -2.19087,0 -2.86499,0 l 0,-0.84264 0.67412,0 c 0.50558,0 0.67411,-0.16853 0.84264,-0.33706 0.16853,-0.16852 0.16853,-0.67411 0.16853,-1.51675 l 0,-7.75231 c 0,-0.84264 0,-1.34822 -0.16853,-1.51675 0,-0.16853 -0.33706,-0.16853 -0.84264,-0.33706 l -0.67412,0 0,-0.84264 c 0.84265,0 1.85382,0 2.86499,0 1.1797,0 2.19087,0 2.86498,0 l 0,0.84264 -0.67411,0 c -0.50559,0 -0.67412,0.16853 -0.84264,0.33706 -0.16853,0.16853 -0.16853,0.67411 -0.16853,1.51675 l 0,0 z m 12.97669,-1.51675 0,9.10053 c 0,0.84264 0,1.34823 0.16853,1.51676 0,0.16852 0.33706,0.16852 0.84264,0.33705 l 0.67412,0 0,0.84265 c -0.84265,0 -1.85382,0 -2.86499,0 -1.1797,0 -2.19087,0 -2.86498,0 l 0,-0.84265 0.67411,0 c 0.50559,0 0.67412,-0.16853 0.84264,-0.33705 0.16853,-0.16853 0.16853,-0.67412 0.16853,-1.51676 l 0,-9.10053 -2.19087,0 c -0.50558,0 -1.01117,0 -1.1797,0.16853 0,0.16852 -0.16853,0.16852 -0.16853,0.50558 l -0.16852,1.34823 -0.84265,0 c 0,-1.1797 -0.16853,-2.02234 -0.16853,-3.03351 2.02235,0 4.04469,0 5.8985,0 1.85382,0 3.87616,0 5.8985,0 0,1.01117 -0.16853,1.85381 -0.16853,3.03351 l -0.84264,0 -0.16853,-1.34823 c 0,-0.16853 -0.16853,-0.33706 -0.16853,-0.50558 -0.16853,-0.16853 -0.67411,-0.16853 -1.1797,-0.16853 l -2.19087,0 0,0 z m 15.16757,5.05585 3.53909,-6.06702 1.51676,0 0,0.33705 -3.37057,4.88733 c -0.33706,0.50559 -0.67411,1.17969 -1.01117,1.85381 l 0,3.03351 c 0,0.84264 0,1.34823 0.16853,1.51676 0,0.16852 0.33706,0.16852 0.84264,0.33705 l 0.67412,0 0,0.84265 c -0.84265,0 -1.85382,0 -2.86499,0 -1.1797,0 -2.19087,0 -2.86498,0 l 0,-0.84265 0.67411,0 c 0.50559,0 0.67411,-0.16853 0.84264,-0.33705 0.16853,-0.16853 0.16853,-0.67412 0.16853,-1.51676 l 0,-2.69646 c -0.33706,-0.84264 -0.50558,-1.17969 -0.84264,-1.68527 l -1.85381,-3.03352 c -0.33706,-0.33706 -0.67412,-0.84264 -1.01118,-1.34823 -0.50558,-0.50558 -0.84264,-0.67411 -1.51675,-0.67411 l 0,-0.67411 3.03351,-0.67412 c 1.01117,0.50559 1.68529,1.51676 2.19087,2.52793 l 1.68529,4.21321 0,0 z m 23.59399,-5.39291 c -3.5391,0 -4.38175,2.69646 -4.38175,5.39291 0,3.03351 1.34823,5.89849 3.87616,5.89849 3.5391,0 4.38174,-2.52792 4.38174,-5.39291 0.16853,-3.20203 -1.1797,-5.89849 -3.87615,-5.89849 l 0,0 z m 0,-1.01117 c 4.21321,0 6.74114,2.3594 6.74114,6.57261 0,4.38173 -2.86499,6.74113 -7.0782,6.74113 -4.21321,0 -6.74114,-2.3594 -6.74114,-6.57261 0,-4.38173 2.86498,-6.74113 7.0782,-6.74113 l 0,0 z m 15.33609,1.34823 0,4.55026 c 0.50558,0 0.84264,0 1.1797,0 l 1.01117,0 c 0.67411,0 1.01117,0 1.01117,-0.33705 l 0.16853,-1.01117 0.67411,0 c 0,0.67411 0,1.1797 0,2.02234 0,0.67411 0,1.34822 0,2.02234 l -0.67411,0 -0.16853,-1.01118 c 0,-0.50558 -0.33706,-0.67411 -1.01117,-0.67411 l -1.01117,0 c -0.33706,0 -0.84264,0 -1.1797,0 l 0,3.5391 c 0,0.84264 0,1.34823 0.16853,1.51676 0,0.16852 0.33705,0.16852 0.84264,0.33705 l 0.84264,0 0,0.84265 c -1.01117,0 -2.02234,0 -3.03351,0 -1.1797,0 -2.19087,0 -2.86498,0 l 0,-0.84265 0.67411,0 c 0.50558,0 0.67411,-0.16853 0.84264,-0.33705 0.16853,-0.16853 0.16853,-0.67412 0.16853,-1.51676 l 0,-7.75231 c 0,-0.84264 0,-1.34822 -0.16853,-1.51675 -0.16853,-0.16853 -0.33706,-0.33706 -0.84264,-0.33706 l -0.67411,0 0,-0.67411 c 1.17969,0 2.19087,0 2.86498,0 1.51676,0 2.69646,0 3.87616,0 1.01117,0 1.85381,0 2.69645,0 l -0.16853,2.86498 -0.67411,0 -0.16853,-1.34823 c 0,-0.33705 -1.34823,-0.33705 -2.19087,-0.33705 -0.50559,0 -1.34823,0 -2.19087,0 l 0,0 z m 22.07723,7.7523 2.86499,-6.5726 1.01117,-2.3594 0.84264,0 c 0.33706,0.84264 0.67411,1.68528 0.84264,2.52792 l 2.52793,6.40408 1.85381,-7.07819 c 0,-0.16853 0,-0.33706 0,-0.67411 0,-0.16853 -0.33705,-0.33706 -0.67411,-0.33706 l -0.84264,0 0,-0.67411 c 0.84264,0 1.51675,0 2.02234,0 0.50558,0 1.1797,0 2.02234,0 l 0,0.67411 -0.67411,0 c -0.33706,0 -0.50559,0.50559 -0.84265,1.34823 l -2.35939,8.08936 c -0.16853,0.84264 -0.33706,1.85381 -0.67412,2.69646 l -1.34823,0 c -0.16852,-0.67412 -0.50558,-1.34823 -0.67411,-2.02235 l -2.86498,-7.07819 -2.86499,6.74114 c -0.33706,0.84264 -0.50558,1.51675 -0.84264,2.3594 l -1.34823,0 -2.69646,-11.29141 c -0.16852,-0.50558 -0.33705,-0.67411 -0.67411,-0.84264 l -0.67411,0 0,-0.67411 c 1.1797,0 2.19087,0 2.86498,0 0.67411,0 1.68529,0 2.52793,0 l 0,0.67411 -0.84264,0 c -0.16853,0 -0.50559,0.16853 -0.50559,0.50559 0,0.16852 0,0.33705 0,0.50558 l 2.02234,7.07819 0,0 0,0 z m 20.72901,-7.7523 0,4.55026 c 0.50558,0 0.84264,0 1.1797,0 l 1.1797,0 c 0.67411,0 1.01117,0 1.01117,-0.33705 l 0.16853,-1.01117 0.67411,0 c 0,0.67411 0,1.34822 0,2.02234 0,0.67411 0,1.34822 0,2.02234 l -0.67411,0 -0.16853,-1.01118 c 0,-0.50558 -0.33706,-0.67411 -1.01117,-0.67411 l -1.1797,0 c -0.33706,0 -0.84265,0 -1.1797,0 l 0,5.05586 c 0.84264,0 1.68528,0 2.3594,0 0.84264,0 2.19087,-0.16853 2.3594,-0.33706 l 0.50558,-1.85381 0.67411,0 -0.16852,3.03351 c -1.34823,0.16853 -3.5391,0.16853 -4.7188,0.16853 -0.84264,0 -1.51676,0 -2.3594,0 -0.84264,0 -1.51676,0 -2.19087,0 l 0,-0.50559 0.67411,-0.33706 c 0.33706,-0.16852 0.33706,-0.50558 0.33706,-1.01117 l 0,-8.42642 c 0,-0.84264 0,-1.34822 -0.16853,-1.51675 -0.16853,-0.16853 -0.33706,-0.33706 -0.84264,-0.33706 l -0.67411,0 0,-0.67411 c 1.17969,0 2.19087,0 2.86498,0 1.85381,0 3.03351,0 4.04468,0 1.01117,0 1.85382,0 2.69646,0 l -0.16853,2.86498 -0.67411,0 -0.16853,-1.34823 c 0,-0.33705 -1.34823,-0.33705 -2.19087,-0.33705 -0.50559,0 -1.34823,0 -2.19087,0 l 0,0 z m 14.49345,1.51675 0,9.10054 c 0.84264,0 1.68528,0 2.3594,0 0.84264,0 2.19087,-0.16853 2.3594,-0.33706 l 0.50558,-1.85381 0.67412,0 -0.16853,3.20204 c -1.34823,0.16853 -3.5391,0.16853 -4.7188,0.16853 -0.84264,0 -1.51676,0 -2.3594,0 -0.84264,0 -1.51676,0 -2.19087,0 l 0,-0.50559 0.67411,-0.33706 c 0.33706,-0.16853 0.33706,-0.50558 0.33706,-1.01117 l 0,-8.42642 c 0,-0.84264 0,-1.34822 -0.16853,-1.51675 0,-0.16853 -0.33705,-0.16853 -0.84264,-0.33706 l -0.67411,0 0,-0.84264 c 0.84264,0 1.85381,0 2.86498,0 1.1797,0 2.19087,0 2.86498,0 l 0,0.84264 -0.67411,0 c -0.50558,0 -0.67411,0.16853 -0.84264,0.33706 0,0.16853 0,0.67411 0,1.51675 l 0,0 z m 14.32492,0 0,9.10054 c 0.84264,0 1.68529,0 2.3594,0 0.84264,0 2.19087,-0.16853 2.3594,-0.33706 l 0.50558,-1.85381 0.67412,0 -0.16853,3.20204 c -1.34823,0.16853 -3.5391,0.16853 -4.7188,0.16853 -0.84264,0 -1.51675,0 -2.3594,0 -0.84264,0 -1.51675,0 -2.19087,0 l 0,-0.50559 0.67412,-0.33706 c 0.33705,-0.16853 0.33705,-0.50558 0.33705,-1.01117 l 0,-8.42642 c 0,-0.84264 0,-1.34822 -0.16853,-1.51675 0,-0.16853 -0.33705,-0.16853 -0.84264,-0.33706 l -0.67411,0 0,-0.84264 c 0.84264,0 1.85381,0 2.86498,0 1.1797,0 2.19087,0 2.86499,0 l 0,0.84264 -0.67412,0 c -0.50558,0 -0.67411,0.16853 -0.84264,0.33706 0,0.16853 0,0.67411 0,1.51675 l 0,0 z m 14.49345,0 0,7.75231 c 0,0.84264 0,1.34823 0.16853,1.51675 0,0.16853 0.33706,0.16853 0.84264,0.33706 l 0.67412,0 0,0.84264 c -0.84265,0 -1.85382,0 -2.86499,0 -1.1797,0 -2.19087,0 -2.86498,0 l 0,-0.84264 0.67411,0 c 0.50559,0 0.67412,-0.16853 0.84264,-0.33706 0.16853,-0.16852 0.16853,-0.67411 0.16853,-1.51675 l 0,-7.75231 c 0,-0.84264 0,-1.34822 -0.16853,-1.51675 0,-0.16853 -0.33705,-0.16853 -0.84264,-0.33706 l -0.67411,0 0,-0.84264 c 0.84264,0 1.85381,0 2.86498,0 1.1797,0 2.19087,0 2.86499,0 l 0,0.84264 -0.67412,0 c -0.50558,0 -0.67411,0.16853 -0.84264,0.33706 -0.16853,0.16853 -0.16853,0.67411 -0.16853,1.51675 l 0,0 z m 7.41526,7.58378 0,-7.75231 c 0,-0.84264 0,-1.34822 -0.16853,-1.51675 -0.16853,-0.16853 -0.33706,-0.33706 -0.84265,-0.33706 l -0.67411,0 0,-0.67411 c 0.67411,0 1.51676,0 2.19087,0 0.50559,0 1.01117,0 1.51676,0 0.67411,0.84264 1.1797,1.68528 2.02234,2.52792 l 5.8985,6.90967 0,-6.74114 c 0,-0.84264 0,-1.34822 -0.16853,-1.51675 -0.16853,-0.16853 -0.33706,-0.33706 -0.84264,-0.33706 l -0.67412,0 0,-0.67411 c 0.67412,0 1.51676,0 2.19087,0 0.67412,0 1.34823,0 2.19087,0 l 0,0.67411 -0.67411,0 c -0.50559,0 -0.67412,0.16853 -0.84264,0.33706 -0.16853,0.16853 -0.16853,0.67411 -0.16853,1.51675 l 0,8.59495 c 0,0.67411 0,1.34823 0,1.85381 l -1.68529,-0.16852 c -0.84264,-0.84265 -1.51675,-1.68529 -2.3594,-2.69646 l -6.06702,-7.41525 0,7.41525 c 0,0.84264 0,1.34823 0.16853,1.51676 0.16852,0.16852 0.33705,0.33705 0.84264,0.33705 l 0.67411,0 0,0.67412 c -0.67411,0 -1.34823,0 -2.19087,0 -0.67411,0 -1.51675,0 -2.19087,0 l 0,-0.67412 0.67412,0 c 0.50558,0 0.67411,-0.16853 0.84264,-0.33705 0.33706,-0.16853 0.33706,-0.67412 0.33706,-1.51676 l 0,0 z m 30.1666,-1.34823 0,3.03351 c -1.68529,0.67412 -3.5391,1.1797 -5.56144,1.1797 -4.21322,0 -7.41526,-2.3594 -7.41526,-6.90966 0,-4.38174 3.5391,-6.57261 7.58378,-6.57261 1.68529,0 3.37057,0.16853 5.22439,0.84264 0,0.84265 -0.16853,2.3594 -0.33706,3.03352 l -0.67411,0 -0.16853,-1.68529 c -0.67412,-0.84264 -2.3594,-1.34823 -3.87616,-1.34823 -3.20204,0 -4.71879,2.19087 -4.71879,5.22438 0,3.20204 1.68528,6.06703 5.05585,6.06703 0.84264,0 1.68528,-0.16853 2.3594,-0.50559 l 0,-2.02234 c 0,-0.50559 -0.50559,-0.67412 -1.01117,-0.67412 l -1.01117,0 0,-0.84264 c 0.84264,0 1.85381,0 2.69645,0 0.84265,0 1.85382,0 2.69646,0 l 0,0.67412 c -0.67412,0 -0.84264,0.16852 -0.84264,0.50558 l 0,0 z m 12.30258,-7.7523 0,9.10053 c 0,0.84264 0,1.34823 0.16853,1.51676 0,0.16852 0.33705,0.16852 0.84264,0.33705 l 0.67411,0 0,0.84265 c -0.84264,0 -1.85381,0 -2.86498,0 -1.1797,0 -2.19087,0 -2.86499,0 l 0,-0.84265 0.67412,0 c 0.50558,0 0.67411,-0.16853 0.84264,-0.33705 0.16853,-0.16853 0.16853,-0.67412 0.16853,-1.51676 l 0,-9.10053 -2.19087,0 c -0.50559,0 -1.01117,0 -1.1797,0.16853 0,0.16852 -0.16853,0.16852 -0.16853,0.50558 l -0.16853,1.34823 -0.84264,0 c 0,-1.1797 -0.16853,-2.02234 -0.16853,-3.03351 2.02234,0 4.04468,0 5.8985,0 1.85381,0 3.87615,0 5.89849,0 0,1.01117 -0.16852,1.85381 -0.16852,3.03351 l -0.84265,0 -0.16852,-1.34823 c 0,-0.16853 -0.16853,-0.33706 -0.16853,-0.50558 -0.16853,-0.16853 -0.67412,-0.16853 -1.1797,-0.16853 l -2.19087,0 0,0 z" /></svg>