<?xml version="1.0" encoding="UTF-8" standalone="no"?>
<svg
   xmlns:dc="http://purl.org/dc/elements/1.1/"
   xmlns:cc="http://creativecommons.org/ns#"
   xmlns:rdf="http://www.w3.org/1999/02/22-rdf-syntax-ns#"
   xmlns:svg="http://www.w3.org/2000/svg"
   xmlns="http://www.w3.org/2000/svg"
   xmlns:xlink="http://www.w3.org/1999/xlink"
   xmlns:sodipodi="http://sodipodi.sourceforge.net/DTD/sodipodi-0.dtd"
   xmlns:inkscape="http://www.inkscape.org/namespaces/inkscape"
   width="328.67786"
   height="51.397518"
   viewBox="0 0 328.67786 51.397518"
   version="1.1"
   id="svg4697"
   sodipodi:docname="viewing-room-logo-header.svg"
   inkscape:version="0.91 r13725">
  <metadata
     id="metadata4701">
    <rdf:RDF>
      <cc:Work
         rdf:about="">
        <dc:format>image/svg+xml</dc:format>
        <dc:type
           rdf:resource="http://purl.org/dc/dcmitype/StillImage" />
        <dc:title>06296056-0CE7-4C86-8245-AD473E8A4731</dc:title>
      </cc:Work>
    </rdf:RDF>
  </metadata>
  <sodipodi:namedview
     pagecolor="#ffffff"
     bordercolor="#666666"
     borderopacity="1"
     objecttolerance="10"
     gridtolerance="10"
     guidetolerance="10"
     inkscape:pageopacity="0"
     inkscape:pageshadow="2"
     inkscape:window-width="640"
     inkscape:window-height="480"
     id="namedview4699"
     showgrid="false"
     inkscape:zoom="5.1367781"
     inkscape:cx="132.18417"
     inkscape:cy="30.067836"
     inkscape:current-layer="svg4697"
     fit-margin-top="0"
     fit-margin-left="0"
     fit-margin-right="0"
     fit-margin-bottom="0" />
  <!-- Generator: sketchtool 42 (36781) - http://www.bohemiancoding.com/sketch -->
  <title
     id="title4662">06296056-0CE7-4C86-8245-AD473E8A4731</title>
  <desc
     id="desc4664">Created with sketchtool.</desc>
  <defs
     id="defs4668">
    <polygon
       id="path-1"
       points="0.21297912,0.36886731 27.7706,0.36886731 27.7706,42.663461 27.7706,42.663461 0.21297912,42.663461 " />
    <polygon
       id="path-3"
       points="30.63798,26.575512 30.63798,0.0064730769 0,0.0064730769 0,0.0064730769 0,26.575512 " />
    <mask
       id="mask-2-3"
       fill="white">
      <use
         height="100%"
         width="100%"
         y="0"
         x="0"
         xlink:href="#path-1"
         id="use5881" />
    </mask>
    <mask
       id="mask-4-6"
       fill="white">
      <use
         height="100%"
         width="100%"
         y="0"
         x="0"
         xlink:href="#path-3"
         id="use5887" />
    </mask>
  </defs>
  <g
     id="Desktop"
     transform="translate(1.4514706e-4,0.50187111)"
     style="fill:none;fill-rule:evenodd;stroke:none;stroke-width:1">
    <g
       id="Desktop---Homepage"
       transform="translate(-378,-3697)">
      <g
         id="Viewing-room-logo-header"
         transform="translate(378,3697)">
        <path
           d="m 289.07435,37.9389 c 2.2372,-0.05688 2.7965,-0.566885 2.7965,-2.04049 l 0,-13.773924 c 0,-3.401307 -1.23036,-5.158355 -4.0825,-5.158355 -1.95755,0 -3.13179,1.076884 -4.64181,2.663769 l 0,16.26851 c 0,1.473605 0.50318,1.983605 2.68426,2.04049 l 0,1.417211 -13.98105,0 0,-1.417211 c 3.18743,-0.05688 3.85849,-0.566885 3.85849,-2.04049 l 0,-18.138837 c 0,-1.700654 -0.67106,-2.720654 -3.85849,-2.777538 l 0,-1.416721 11.18455,-0.510491 0,4.988192 c 2.62861,-3.004096 5.70476,-5.158355 9.33973,-5.158355 3.74673,0 5.98393,1.927211 6.65499,5.441798 2.51685,-3.060981 5.98393,-5.441798 9.50713,-5.441798 4.69793,0 6.93513,2.890817 6.93513,8.219336 l 0,14.794414 c 0,1.473605 0.61494,1.983605 3.80285,2.04049 l 0,1.417211 -13.98153,0 0,-1.417211 c 2.18108,-0.05688 2.74038,-0.566885 2.74038,-2.04049 l 0,-13.773924 c 0,-3.401307 -1.06248,-5.158355 -3.8585,-5.158355 -1.45437,0 -3.3558,1.133769 -4.97757,2.947211 0.0556,0.510491 0.11176,0.793933 0.11176,1.133769 l 0,14.851299 c 0,1.473605 0.5593,1.983605 2.85214,2.04049 l 0,1.417211 -13.08646,0 z"
           id="Fill-1"
           inkscape:connector-curvature="0"
           style="fill:#000000" />
        <path
           d="m 328.67637,35.904589 c 0.0247,1.248028 -0.54333,2.182211 -1.46599,2.855509 -1.3339,0.973413 -2.79359,1.015587 -4.20636,0.195664 -1.63097,-0.946933 -2.35041,-3.245856 -1.04941,-5.057337 1.2652,-1.761462 3.77866,-1.991452 5.30754,-0.816981 0.90911,0.697817 1.44615,1.646712 1.41422,2.823145"
           id="Fill-3"
           inkscape:connector-curvature="0"
           style="fill:#000000" />
        <path
           d="m 229.01046,38.08425 c -4.02686,0 -5.81652,-3.911308 -5.81652,-11.903596 0,-7.992289 1.34261,-11.846712 5.31287,-11.846712 3.97122,0 5.7604,3.854423 5.7604,11.846712 0,7.992288 -1.39777,11.903596 -5.25675,11.903596 m -0.22352,-25.507356 c -8.16549,0 -13.534,5.384914 -13.534,13.717529 0,8.38901 5.03322,13.546875 13.534,13.546875 8.05276,0 13.47787,-5.384913 13.47787,-13.773923 0,-8.332615 -5.14546,-13.490481 -13.47787,-13.490481"
           id="Fill-5"
           inkscape:connector-curvature="0"
           style="fill:#000000" />
        <path
           d="m 258.59535,38.08425 c -4.02686,0 -5.81652,-3.911308 -5.81652,-11.903596 0,-7.992289 1.34261,-11.846712 5.31286,-11.846712 3.97123,0 5.76041,3.854423 5.76041,11.846712 0,7.992288 -1.39777,11.903596 -5.25675,11.903596 m -0.22352,-25.507356 c -8.16549,0 -13.534,5.384914 -13.534,13.717529 0,8.38901 5.03322,13.546875 13.534,13.546875 8.05276,0 13.47787,-5.384913 13.47787,-13.773923 0,-8.332615 -5.14546,-13.490481 -13.47787,-13.490481"
           id="Fill-7"
           inkscape:connector-curvature="0"
           style="fill:#000000" />
        <path
           d="m 128.15145,37.951601 c 3.19275,-0.05639 3.8643,-0.567375 3.8643,-2.043923 l 0,-18.166789 c 0,-1.703105 -0.67155,-2.725067 -3.8643,-2.781461 l 0,-1.419664 11.20197,-0.51049 0,4.995548 c 2.63297,-3.009 6.16149,-5.166202 9.80226,-5.166202 4.64858,0 6.83304,2.895231 6.83304,8.232087 l 0,14.816971 c 0,1.476548 0.61639,1.987529 3.86478,2.043923 l 0,1.419663 -14.39471,0 0,-1.419663 c 2.24058,-0.05639 3.08098,-0.567375 3.08098,-2.043923 l 0,-13.7955 c 0,-3.462606 -1.12053,-5.165712 -3.92139,-5.165712 -2.01609,0 -3.64028,1.078356 -5.15272,2.667693 l 0,16.293519 c 0,1.476548 0.83992,1.987529 3.02487,2.043923 l 0,1.419663 -14.33908,0 z"
           id="Fill-9"
           inkscape:connector-curvature="0"
           style="fill:#fdb813" />
        <g
           id="Group-13"
           transform="translate(160.14559,8.232087)">
          <mask
             id="mask-2"
             fill="white">
            <use
               xlink:href="#path-1"
               id="use4675"
               x="0"
               y="0"
               width="100%"
               height="100%" />
          </mask>
          <g
             id="Clip-12" />
          <path
             d="m 17.01617,13.369454 c 0,-4.4850578 -1.288422,-7.1532405 -4.312803,-7.1532405 -2.8564938,0 -3.7530188,2.1003173 -3.7530188,7.1532405 0,4.996038 1.3440618,7.15275 4.2571638,7.15275 2.856494,0 3.808658,-2.156712 3.808658,-7.15275 m 4.536813,22.424798 c 0,-2.100808 -1.512432,-3.292933 -7.505554,-3.292933 l -5.8813587,0 c -2.0160927,0.794914 -3.1361441,1.930154 -3.1361441,3.747029 0,2.895231 2.8564941,4.7685 8.4572348,4.7685 4.816948,0 8.065822,-2.043923 8.065822,-5.222596 M 18.192345,5.4781846 c 1.288422,-2.7819519 3.136628,-5.10931729 6.105369,-5.10931729 2.240587,0 3.472886,1.36228849 3.472886,3.12227889 0,1.5329423 -1.008289,2.8388365 -2.744731,2.8388365 -1.344546,0 -2.688608,-1.0788462 -2.688608,-3.0658846 C 21.21721,3.6618 20.152314,4.7970404 19.536407,6.04605 c 2.800854,1.4191731 4.705184,3.8034231 4.705184,7.209635 0,5.507019 -4.873071,8.91323 -11.258574,8.91323 -1.119567,0 -2.240103,-0.113769 -3.3045143,-0.283442 -2.1844633,0.738029 -3.1927515,1.475567 -3.1927515,2.554413 0,1.135241 1.1205353,1.87327 5.6012248,1.87327 l 4.089277,0 c 7.057533,0 10.305441,2.214577 10.305441,6.983077 0,4.939153 -5.488494,9.367327 -14.450841,9.367327 -6.9452871,0 -11.81787388,-2.38425 -11.81787388,-5.734068 0,-2.441134 2.01609268,-4.314404 6.44114268,-4.996038 l 0,-0.170164 C 3.1812365,30.62805 1.9489379,28.754781 1.9489379,26.597089 c 0,-2.043924 1.8486898,-4.030962 5.488978,-5.336366 -3.416278,-1.305894 -5.7125044,-3.860798 -5.7125044,-7.77799 0,-5.4496445 4.8725867,-8.8563465 11.2576055,-8.8563465 1.848206,0 3.640772,0.2839327 5.209328,0.8517981"
             id="Fill-11"
             mask="url(#mask-2)"
             inkscape:connector-curvature="0"
             style="fill:#fdb813" />
        </g>
        <path
           d="m 52.063282,24.099412 9.185874,-0.05688 c 0.616391,-5.677183 -0.784278,-9.707654 -4.256679,-9.707654 -3.024381,0 -4.649061,3.462606 -4.929195,9.764538 m -7.897451,2.49802 c 0,-8.629298 5.601225,-14.022548 13.218543,-14.022548 7.897451,0 11.87448,5.733577 11.482099,13.17075 l -16.85883,0 0,0.62475 0,0.05688 c 0,6.471606 2.744247,10.559452 8.121461,10.559452 3.136144,0 5.488978,-1.703596 7.617318,-4.655221 l 1.120051,0.851308 c -2.464113,3.973586 -5.936998,6.699144 -11.482099,6.699144 -8.177586,0 -13.218543,-4.939154 -13.218543,-13.284519"
           id="Fill-14"
           inkscape:connector-curvature="0"
           style="fill:#fdb813" />
        <path
           d="m 88.512031,18.138444 c -0.952165,-2.668183 -1.792082,-3.349817 -3.977029,-3.633259 l 0,-1.362779 13.946697,0 0,1.362779 c -2.239619,0.227048 -3.136144,0.624259 -3.136144,1.75999 0,0.340327 0.111763,0.738029 0.22401,1.24901 l 4.761305,14.760086 0.27965,0 4.03316,-12.03551 c 0.44802,-1.362288 0.6159,-2.38425 0.6159,-2.951625 0,-1.646711 -1.06441,-2.38474 -3.58465,-2.781951 l 0,-1.362779 10.75443,0 0,1.362779 c -2.52072,0.340327 -4.08927,1.703105 -4.98531,4.371288 l -7.1693,20.834971 -4.481175,0 -5.264967,-15.498606 -6.10537,15.498606 -4.42505,0 -8.065822,-21.573 c -0.95168,-2.498019 -1.792082,-3.236048 -4.368442,-3.633259 l 0,-1.362779 14.226831,0 0,1.362779 c -1.960453,0.170163 -2.800855,0.624259 -2.800855,1.646221 0,0.340817 0.168371,0.851798 0.336258,1.362779 l 5.377214,14.93074 0.280134,0 4.536813,-11.297481 z"
           id="Fill-16"
           inkscape:connector-curvature="0"
           style="fill:#fdb813" />
        <g
           id="Group-20"
           transform="translate(0,13.135933)">
          <mask
             id="mask-4"
             fill="white">
            <use
               xlink:href="#path-3"
               id="use4683"
               x="0"
               y="0"
               width="100%"
               height="100%" />
          </mask>
          <g
             id="Clip-19" />
          <path
             d="M 4.4805446,5.0025115 C 3.4722563,2.4480981 2.5762152,1.8233481 -1.4514706e-4,1.3692519 l 0,-1.36277882 15.17899514706,0 0,1.36277882 c -2.408473,0.2834423 -3.360638,0.6811443 -3.360638,1.8163846 0,0.3408173 0.05564,0.62475 0.22401,1.1357308 l 5.769112,15.5549997 0.224494,0 4.872587,-12.7166535 C 23.35692,5.8538192 23.58093,4.8892327 23.58093,4.2644827 c 0,-1.6462212 -1.064896,-2.4980192 -3.753019,-2.8952308 l 0,-1.36277882 10.810069,0 0,1.36277882 C 28.678011,1.5963 27.053331,2.8453096 25.98892,5.4002135 l -8.625606,21.1752975 -4.368927,0 z"
             id="Fill-18"
             mask="url(#mask-4)"
             inkscape:connector-curvature="0"
             style="fill:#fdb813" />
        </g>
        <path
           d="m 209.96151,12.858669 c -3.01809,0 -5.75702,2.209673 -7.65699,5.268692 l 0,-5.042134 -11.17874,0.51 0,1.416231 c 3.18597,0.05688 3.85655,1.076394 3.85655,2.775577 l 0,18.128538 c 0,1.472625 -0.67058,1.982625 -3.85655,2.03951 l 0,1.41574 16.32082,0 0,-1.41574 c -4.08009,-0.113279 -5.03032,-0.566885 -5.03032,-2.03951 l 0,-16.089029 c 1.04361,-1.490279 2.4496,-2.732423 3.91026,-3.144836 -0.031,0.218221 -0.0518,0.439384 -0.0518,0.666432 0,2.465654 1.87627,4.463971 4.19088,4.463971 2.3151,0 4.19088,-1.998317 4.19088,-4.463971 0,-2.134153 -1.38905,-4.489471 -4.69502,-4.489471"
           id="Fill-21"
           inkscape:connector-curvature="0"
           style="fill:#000000" />
        <path
           d="m 114.16498,4.4135596 c 0,-2.4578077 2.00594,-4.413461523077 4.38103,-4.413461523077 2.42734,0 4.3278,1.955653823077 4.3278,4.413461523077 0,2.4578077 -2.00594,4.4134616 -4.38103,4.4134616 -2.42734,0 -4.3278,-1.9556539 -4.3278,-4.4134616"
           id="Fill-23"
           inkscape:connector-curvature="0"
           style="fill:#fdb813" />
        <path
           d="m 122.25369,35.907678 0,-22.765125 -7.44943,0 0,22.45226 0,0.312865 c 0,1.476548 -0.8404,1.987529 -4.03267,2.043923 l 0,1.419173 15.34688,0 0,-1.419173 c -3.24887,-0.05639 -3.86478,-0.567375 -3.86478,-2.043923"
           id="Fill-25"
           inkscape:connector-curvature="0"
           style="fill:#fdb813" />
        <path
           d="m 32.243887,4.4135596 c 0,-2.4578077 2.005932,-4.413461523077 4.381022,-4.413461523077 2.427343,0 4.327801,1.955653823077 4.327801,4.413461523077 0,2.4578077 -2.005932,4.4134616 -4.381022,4.4134616 -2.427342,0 -4.327801,-1.9556539 -4.327801,-4.4134616"
           id="Fill-27"
           inkscape:connector-curvature="0"
           style="fill:#fdb813" />
        <path
           d="m 40.332545,35.907678 0,-22.765125 -7.44943,0 0,22.45226 0,0.312865 c 0,1.476548 -0.840402,1.987529 -4.03267,2.043923 l 0,1.419173 15.346883,0 0,-1.419173 c -3.248875,-0.05639 -3.864783,-0.567375 -3.864783,-2.043923"
           id="Fill-29"
           inkscape:connector-curvature="0"
           style="fill:#fdb813" />
      </g>
    </g>
  </g>
</svg>
